<svg xmlns="http://www.w3.org/2000/svg" viewBox="0 0 439.13 136.19"><defs><style>.cls-1{fill:#285f74;}.cls-2{fill:#00a0af;}</style></defs><g id="레이어_2" data-name="레이어 2"><g id="Design"><path class="cls-1" d="M140.67,61.49a10.66,10.66,0,0,1-4.12-3.32l3.29-4c1.72,2.37,3.79,3.55,6.19,3.55q4.84,0,4.85-5.74V35.92H139.8V31.07h16.86V51.72q0,5.47-2.67,8.21t-7.83,2.74A12.67,12.67,0,0,1,140.67,61.49Z"/><path class="cls-1" d="M184.3,55H168.72l-3.07,7.2h-6l14-31.15h5.69l14.07,31.15h-6.06Zm-1.91-4.54-5.88-13.62-5.83,13.62Z"/><path class="cls-1" d="M152,93.69l-4.94,5.07v8h-5.79V75.57h5.79v16l15.39-16H169L155.91,89.5l13.88,17.22H163Z"/><path class="cls-1" d="M176.38,105.48a11.38,11.38,0,0,1-4.52-4.34,13,13,0,0,1,0-12.57,11.4,11.4,0,0,1,4.52-4.32,14.4,14.4,0,0,1,13,0,11.44,11.44,0,0,1,4.51,4.32,12.93,12.93,0,0,1,0,12.57,11.42,11.42,0,0,1-4.51,4.34,14.4,14.4,0,0,1-13,0ZM188,100.23a8.25,8.25,0,0,0,0-10.77,6.8,6.8,0,0,0-5.08-2,6.71,6.71,0,0,0-5.05,2,8.31,8.31,0,0,0,0,10.77,6.74,6.74,0,0,0,5.05,2A6.83,6.83,0,0,0,188,100.23Z"/><path class="cls-1" d="M214.65,82.69V88a7,7,0,0,0-1.29-.13,6.74,6.74,0,0,0-5.08,1.89,7.57,7.57,0,0,0-1.82,5.45v11.52H200.9V83h5.29v3.47Q208.59,82.7,214.65,82.69Z"/><path class="cls-1" d="M241.39,96.62H222.75a6.43,6.43,0,0,0,2.56,4.16,8.31,8.31,0,0,0,5.13,1.54,8.66,8.66,0,0,0,6.46-2.58l3,3.43a10.1,10.1,0,0,1-4,2.89,16,16,0,0,1-12.42-.58,11.27,11.27,0,0,1-4.6-4.34,12.27,12.27,0,0,1-1.63-6.3,12.48,12.48,0,0,1,1.58-6.25,11.3,11.3,0,0,1,4.39-4.34,12.76,12.76,0,0,1,6.32-1.56,12.48,12.48,0,0,1,6.2,1.54A10.85,10.85,0,0,1,240,88.55,13.09,13.09,0,0,1,241.48,95C241.48,95.36,241.45,95.91,241.39,96.62ZM225,88.72a6.7,6.7,0,0,0-2.25,4.21h13.49A6.54,6.54,0,0,0,234,88.75a6.61,6.61,0,0,0-4.53-1.61A6.73,6.73,0,0,0,225,88.72Z"/><path class="cls-1" d="M263.26,85.21c1.86,1.68,2.78,4.2,2.78,7.59v13.92h-5.25v-2.89a6.45,6.45,0,0,1-2.91,2.38,11.36,11.36,0,0,1-4.56.83,11.2,11.2,0,0,1-4.68-.92,7.21,7.21,0,0,1-3.09-2.53,6.41,6.41,0,0,1-1.09-3.67,6.28,6.28,0,0,1,2.38-5.14q2.39-1.94,7.5-1.94h6.14v-.36A4.87,4.87,0,0,0,259,88.66a6.45,6.45,0,0,0-4.43-1.34,12.73,12.73,0,0,0-3.94.63,9.6,9.6,0,0,0-3.27,1.73l-2.18-4.05a13.67,13.67,0,0,1,4.5-2.18,20.13,20.13,0,0,1,5.56-.76Q260.48,82.69,263.26,85.21ZM258.19,102a5.2,5.2,0,0,0,2.29-2.74V96.53h-5.74c-3.2,0-4.8,1.06-4.8,3.16a2.86,2.86,0,0,0,1.2,2.41,5.51,5.51,0,0,0,3.33.89A7.16,7.16,0,0,0,258.19,102Z"/><path class="cls-1" d="M339.21,63.84l0-8.16-4.05,6.8h-.73l-4.05-6.75v8.11h-1.54V52.64h1.32l4.67,7.87,4.61-7.87h1.31v11.2Z"/><path class="cls-1" d="M351.51,60.12h-6.88a2.7,2.7,0,0,0,1,1.8,3.23,3.23,0,0,0,2.09.67,3.15,3.15,0,0,0,2.45-1l.85,1a3.81,3.81,0,0,1-1.43,1,5.09,5.09,0,0,1-1.92.35,5,5,0,0,1-2.38-.55,4,4,0,0,1-1.61-1.55,4.42,4.42,0,0,1-.57-2.24,4.46,4.46,0,0,1,.56-2.22,3.82,3.82,0,0,1,1.52-1.54,4.5,4.5,0,0,1,4.35,0A3.88,3.88,0,0,1,351,57.38a4.78,4.78,0,0,1,.53,2.27C351.54,59.77,351.53,59.92,351.51,60.12Zm-6-2.87a2.77,2.77,0,0,0-.87,1.76h5.44a2.77,2.77,0,0,0-.87-1.75,2.87,2.87,0,0,0-3.7,0Z"/><path class="cls-1" d="M366.81,56.21a3.7,3.7,0,0,1,.94,2.75v4.88h-1.53v-4.7a2.69,2.69,0,0,0-.57-1.86,2.11,2.11,0,0,0-1.63-.62,2.4,2.4,0,0,0-1.85.73,2.9,2.9,0,0,0-.69,2.08v4.37h-1.54v-4.7a2.74,2.74,0,0,0-.56-1.86,2.11,2.11,0,0,0-1.63-.62,2.43,2.43,0,0,0-1.86.73,2.94,2.94,0,0,0-.68,2.08v4.37h-1.54V55.36h1.47v1.27a3,3,0,0,1,1.22-1,4,4,0,0,1,1.71-.35,3.84,3.84,0,0,1,1.76.4A2.86,2.86,0,0,1,361,56.85a3.26,3.26,0,0,1,1.33-1.15,4.31,4.31,0,0,1,1.93-.42A3.41,3.41,0,0,1,366.81,56.21Z"/><path class="cls-1" d="M377.29,55.83a3.83,3.83,0,0,1,1.52,1.52,4.47,4.47,0,0,1,.56,2.25,4.55,4.55,0,0,1-.56,2.27,3.83,3.83,0,0,1-1.52,1.52,4.39,4.39,0,0,1-2.21.55,4,4,0,0,1-1.73-.37,3.36,3.36,0,0,1-1.3-1.07v1.34h-1.47V52h1.54v4.67a3.24,3.24,0,0,1,1.28-1,4,4,0,0,1,1.68-.35A4.39,4.39,0,0,1,377.29,55.83Zm-.88,6.39a2.63,2.63,0,0,0,1-1.06,3.16,3.16,0,0,0,.37-1.56,3.21,3.21,0,0,0-.37-1.56,2.58,2.58,0,0,0-1-1,2.86,2.86,0,0,0-1.46-.37,2.91,2.91,0,0,0-1.46.37,2.62,2.62,0,0,0-1,1,3.33,3.33,0,0,0-.37,1.56,3.27,3.27,0,0,0,.37,1.56,2.67,2.67,0,0,0,1,1.06,2.91,2.91,0,0,0,1.46.37A2.86,2.86,0,0,0,376.41,62.22Z"/><path class="cls-1" d="M389.13,60.12h-6.88a2.66,2.66,0,0,0,1,1.8,3.23,3.23,0,0,0,2.09.67,3.16,3.16,0,0,0,2.45-1l.84,1a3.73,3.73,0,0,1-1.43,1,5.08,5.08,0,0,1-1.91.35,5,5,0,0,1-2.38-.55,3.94,3.94,0,0,1-1.61-1.55,4.72,4.72,0,0,1,0-4.46,4,4,0,0,1,1.52-1.54,4.35,4.35,0,0,1,2.19-.56,4.19,4.19,0,0,1,2.16.56,3.75,3.75,0,0,1,1.49,1.54,4.67,4.67,0,0,1,.54,2.27C389.16,59.77,389.15,59.92,389.13,60.12Zm-6-2.87a2.68,2.68,0,0,0-.87,1.76h5.44a2.74,2.74,0,0,0-.88-1.75,2.86,2.86,0,0,0-3.69,0Z"/><path class="cls-1" d="M393.94,55.67a4.28,4.28,0,0,1,1.91-.39v1.49h-.36a2.58,2.58,0,0,0-2,.74,3,3,0,0,0-.71,2.12v4.22h-1.53V55.36h1.47v1.43A2.56,2.56,0,0,1,393.94,55.67Z"/><path class="cls-1" d="M403.51,63.38a4.1,4.1,0,0,1-1.58-1.54,4.74,4.74,0,0,1,0-4.47,4,4,0,0,1,1.58-1.53,4.88,4.88,0,0,1,4.54,0,4,4,0,0,1,1.56,1.53,4.67,4.67,0,0,1,0,4.47,4.12,4.12,0,0,1-1.56,1.54,4.88,4.88,0,0,1-4.54,0Zm3.74-1.16a2.58,2.58,0,0,0,1-1.06,3.16,3.16,0,0,0,.37-1.56,3.21,3.21,0,0,0-.37-1.56,2.53,2.53,0,0,0-1-1,2.89,2.89,0,0,0-1.47-.37,2.86,2.86,0,0,0-1.46.37,2.64,2.64,0,0,0-1,1,3.21,3.21,0,0,0-.37,1.56,3.16,3.16,0,0,0,.37,1.56,2.69,2.69,0,0,0,1,1.06,2.86,2.86,0,0,0,1.46.37A2.89,2.89,0,0,0,407.25,62.22Z"/><path class="cls-1" d="M414,54.63v.73h2.46v1.27h-2.43v7.21h-1.54V56.63h-1.44V55.36h1.44v-.75a2.71,2.71,0,0,1,.74-2,2.79,2.79,0,0,1,2.06-.73,3.6,3.6,0,0,1,1,.12,2.4,2.4,0,0,1,.77.37l-.46,1.17a1.9,1.9,0,0,0-1.19-.4C414.5,53.14,414,53.63,414,54.63Z"/><path class="cls-1" d="M328.39,82.75a3.45,3.45,0,0,1-1.39-1.2l.93-1.08a2.77,2.77,0,0,0,2.33,1.33,1.77,1.77,0,0,0,1.43-.58,2.54,2.54,0,0,0,.49-1.7V73.24h-4v-1.4h5.63v7.6a4,4,0,0,1-.89,2.8,3.45,3.45,0,0,1-2.62.93A4.23,4.23,0,0,1,328.39,82.75Z"/><path class="cls-1" d="M343.93,80.24H338L336.74,83H335.1l5.07-11.2h1.58L346.84,83h-1.68ZM343.37,79,341,73.47,338.53,79Z"/><path class="cls-1" d="M368.63,71.84,364.89,83h-1.68l-3.06-8.94L357.09,83h-1.71l-3.74-11.2h1.65l3,9.11,3.15-9.11h1.47L364,81l3.09-9.16Z"/><path class="cls-1" d="M371.08,82.58A4.1,4.1,0,0,1,369.5,81a4.67,4.67,0,0,1,0-4.47A4,4,0,0,1,371.08,75a4.63,4.63,0,0,1,2.27-.56,4.56,4.56,0,0,1,2.26.56,4,4,0,0,1,1.57,1.53,4.67,4.67,0,0,1,0,4.47,4.08,4.08,0,0,1-1.57,1.54,4.56,4.56,0,0,1-2.26.56A4.63,4.63,0,0,1,371.08,82.58Zm3.73-1.16a2.61,2.61,0,0,0,1-1.06,3.16,3.16,0,0,0,.37-1.56,3.21,3.21,0,0,0-.37-1.56,2.55,2.55,0,0,0-1-1,3.07,3.07,0,0,0-2.92,0,2.58,2.58,0,0,0-1,1,3.21,3.21,0,0,0-.37,1.56,3.16,3.16,0,0,0,.37,1.56,2.63,2.63,0,0,0,1,1.06,3,3,0,0,0,2.92,0Z"/><path class="cls-1" d="M382.53,74.87a4.28,4.28,0,0,1,1.91-.39V76h-.35a2.55,2.55,0,0,0-2,.74,2.93,2.93,0,0,0-.72,2.12V83h-1.53V74.56h1.47V76A2.61,2.61,0,0,1,382.53,74.87Z"/><path class="cls-1" d="M386.33,71.17h1.53V83h-1.53Z"/><path class="cls-1" d="M398.79,71.17V83h-1.47V81.7a3.22,3.22,0,0,1-1.3,1.07,4,4,0,0,1-1.73.37,4.36,4.36,0,0,1-2.2-.55,3.92,3.92,0,0,1-1.53-1.52A4.54,4.54,0,0,1,390,78.8a4.47,4.47,0,0,1,.55-2.25A3.92,3.92,0,0,1,392.09,75a4.36,4.36,0,0,1,2.2-.55,4,4,0,0,1,1.68.35,3.17,3.17,0,0,1,1.28,1V71.17Zm-2.91,10.25a2.54,2.54,0,0,0,1-1.06,3.16,3.16,0,0,0,.37-1.56,3.21,3.21,0,0,0-.37-1.56,2.49,2.49,0,0,0-1-1,3.07,3.07,0,0,0-2.92,0,2.71,2.71,0,0,0-1,1,3.21,3.21,0,0,0-.37,1.56,3.16,3.16,0,0,0,.37,1.56,2.76,2.76,0,0,0,1,1.06,3,3,0,0,0,2.92,0Z"/><path class="cls-1" d="M414.53,74.56,411.37,83h-1.48l-2.44-6.43L405,83h-1.48l-3.15-8.48h1.46l2.46,6.76,2.56-6.76h1.3l2.51,6.79,2.53-6.79Z"/><path class="cls-1" d="M416.11,72.64a.92.92,0,0,1-.3-.7.94.94,0,0,1,.3-.71,1,1,0,0,1,.74-.3,1,1,0,0,1,.75.28.91.91,0,0,1,.29.7.94.94,0,0,1-.29.72,1,1,0,0,1-.75.3A1,1,0,0,1,416.11,72.64Zm0,1.92h1.53V83h-1.53Z"/><path class="cls-1" d="M428.55,71.17V83h-1.47V81.7a3.22,3.22,0,0,1-1.3,1.07,4,4,0,0,1-1.73.37,4.36,4.36,0,0,1-2.2-.55,3.92,3.92,0,0,1-1.53-1.52,4.54,4.54,0,0,1-.55-2.27,4.47,4.47,0,0,1,.55-2.25A3.92,3.92,0,0,1,421.85,75a4.36,4.36,0,0,1,2.2-.55,4,4,0,0,1,1.68.35,3.17,3.17,0,0,1,1.28,1V71.17Zm-2.91,10.25a2.54,2.54,0,0,0,1-1.06A3.16,3.16,0,0,0,427,78.8a3.21,3.21,0,0,0-.37-1.56,2.49,2.49,0,0,0-1-1,3.07,3.07,0,0,0-2.92,0,2.64,2.64,0,0,0-1,1,3.21,3.21,0,0,0-.37,1.56,3.16,3.16,0,0,0,.37,1.56,2.69,2.69,0,0,0,1,1.06,3,3,0,0,0,2.92,0Z"/><path class="cls-1" d="M439.09,79.32h-6.88a2.72,2.72,0,0,0,1,1.8,3.22,3.22,0,0,0,2.09.68,3.13,3.13,0,0,0,2.44-1l.85,1a3.73,3.73,0,0,1-1.43,1,5.08,5.08,0,0,1-1.91.35,5,5,0,0,1-2.39-.55,3.92,3.92,0,0,1-1.6-1.55,4.72,4.72,0,0,1,0-4.46A3.88,3.88,0,0,1,432.75,75a4.31,4.31,0,0,1,2.18-.56,4.22,4.22,0,0,1,2.17.56,3.81,3.81,0,0,1,1.49,1.54,4.67,4.67,0,0,1,.54,2.27A3.16,3.16,0,0,1,439.09,79.32Zm-6-2.87a2.74,2.74,0,0,0-.88,1.76h5.44a2.68,2.68,0,0,0-.87-1.75,2.86,2.86,0,0,0-3.69,0Z"/><rect class="cls-1" x="296.5" y="24.75" width="0.59" height="86.81"/><polygon class="cls-1" points="108.73 0 95.15 27.33 72.53 27.39 108.73 0"/><polygon class="cls-2" points="108.75 0 95.17 27.33 108.76 45.4 108.75 0"/><polygon class="cls-1" points="108.73 45.4 95.15 72.72 72.53 72.79 108.73 45.4"/><polygon class="cls-2" points="108.75 45.4 95.17 72.72 108.76 90.8 108.75 45.4"/><polygon class="cls-1" points="72.42 27.39 58.84 54.72 36.22 54.78 72.42 27.39"/><polygon class="cls-2" points="72.44 27.39 58.86 54.72 72.45 72.79 72.44 27.39"/><polygon class="cls-1" points="36.2 54.78 22.63 82.11 0 82.17 36.2 54.78"/><polygon class="cls-2" points="36.22 54.78 22.65 82.11 36.23 100.18 36.22 54.78"/><polygon class="cls-1" points="72.41 72.79 58.83 100.11 36.2 100.18 72.41 72.79"/><polygon class="cls-2" points="72.43 72.79 58.85 100.11 72.43 118.19 72.43 72.79"/><polygon class="cls-1" points="108.72 90.8 95.14 118.12 72.51 118.19 108.72 90.8"/><polygon class="cls-2" points="108.74 90.8 95.16 118.12 108.74 136.19 108.74 90.8"/></g></g></svg>