<?xml version="1.0" encoding="utf-8"?>
<!-- Generator: Adobe Illustrator 26.2.1, SVG Export Plug-In . SVG Version: 6.00 Build 0)  -->
<svg version="1.1" id="레이어_1" xmlns="http://www.w3.org/2000/svg" xmlns:xlink="http://www.w3.org/1999/xlink" x="0px"
	 y="0px" viewBox="0 0 111.8 34.1" style="enable-background:new 0 0 111.8 34.1;" xml:space="preserve">
<style type="text/css">
	.st0{fill:#004097;}
</style>
<g id="레이어_2_00000120554431449253439120000005101101820463931059_">
	<g id="Layer_1">
		<polygon class="st0" points="86.8,13.9 89.8,13.9 90.2,5.1 78.3,5.1 78.3,7.7 87.1,7.7 		"/>
		<polygon class="st0" points="92.3,4.4 92.3,18.7 88.1,18.7 88.1,21.1 92.3,21.1 92.3,25.1 95.4,25.1 95.4,4.4 		"/>
		<polygon class="st0" points="82.5,18.7 79.5,18.7 79.5,29 95.4,29 95.4,26.4 82.5,26.4 		"/>
		<polygon class="st0" points="83.9,23.2 86.8,23.2 86.8,17.4 91.5,17.4 91.5,14.9 77.6,14.9 77.6,17.4 83.9,17.4 		"/>
		<rect x="56.9" y="14.9" class="st0" width="18.5" height="2.5"/>
		<polygon class="st0" points="34,9.5 31.3,9.5 31.3,4.4 28.1,4.4 28.1,17.4 31.3,17.4 31.3,12.1 34,12.1 		"/>
		<path class="st0" d="M16.3,29h15V18.4h-15V29z M19.3,21h8.9v5.4h-8.9V21z"/>
		<polygon class="st0" points="49.7,17.4 52.9,17.4 52.9,4.4 49.7,4.4 49.7,9.5 45.7,9.5 45.7,12.1 49.7,12.1 		"/>
		<path class="st0" d="M45,17.7c-4.6,0-8.3,2.7-8.3,6s3.7,6,8.3,6s8.3-2.7,8.3-6S49.6,17.7,45,17.7 M45,27.1c-2.9,0-5.2-1.5-5.2-3.4
			c0-1.9,2.3-3.4,5.2-3.4s5.2,1.5,5.2,3.4C50.2,25.6,47.9,27.1,45,27.1"/>
		<path class="st0" d="M19.1,11.3c0.9,3,5.1,5.7,5.1,5.7l1.6-2.2c-5.7-2.9-5.3-9.9-5.3-9.9h-3c0,0,0.4,7-5.3,9.9l1.6,2.2
			C13.9,17,18.1,14.3,19.1,11.3"/>
		<path class="st0" d="M40.3,11.3c0.9,3,4.8,5.5,4.8,5.5l1.6-2.2c-5.3-2.7-4.9-9.7-4.9-9.7h-3c0,0,0.4,7-4.9,9.7l1.6,2.2
			C35.5,16.7,39.3,14.2,40.3,11.3"/>
		<path class="st0" d="M66.2,18.1c-4.5,0-8.2,2.6-8.2,5.8s3.7,5.8,8.2,5.8c4.5,0,8.2-2.6,8.2-5.8S70.7,18.1,66.2,18.1 M66.2,27.2
			c-2.8,0-5.1-1.4-5.1-3.2s2.3-3.2,5.1-3.2c2.8,0,5.1,1.4,5.1,3.2S69,27.2,66.2,27.2"/>
		<path class="st0" d="M57.8,11.4l0.6,2.5c0,0,6.6-1.1,7.8-4.2c1.2,3,7.8,4.2,7.8,4.2l0.6-2.5c-5.7-0.9-6.5-3.6-6.5-3.6h6.3V5.2
			H57.9v2.6h6.3C64.2,7.8,63.5,10.5,57.8,11.4"/>
	</g>
</g>
</svg>
