<?xml version="1.0" encoding="utf-8"?>
<!-- Generator: Adobe Illustrator 26.2.1, SVG Export Plug-In . SVG Version: 6.00 Build 0)  -->
<svg version="1.1" id="레이어_1" xmlns="http://www.w3.org/2000/svg" xmlns:xlink="http://www.w3.org/1999/xlink" x="0px"
	 y="0px" viewBox="0 0 114.2 34.4" style="enable-background:new 0 0 114.2 34.4;" xml:space="preserve">
<style type="text/css">
	.st0{fill:#004097;}
</style>
<g id="레이어_2_00000005975364738278746980000005373191662883730571_">
	<g id="Layer_1">
		<polygon class="st0" points="80.4,24.3 80.4,26.3 80.4,27 80.4,27 80.4,27 98.3,27 98.3,24.3 		"/>
		<polygon class="st0" points="83.7,19.6 85.1,19.6 96.6,19.6 96.6,19.6 96.6,19.6 96.6,17 96.6,17 96.6,17 85.1,17 85.1,8.2 
			96.6,8.2 96.6,8.2 96.6,8.2 96.6,5.6 96.6,5.6 96.6,5.6 85.2,5.6 85.2,5.6 82,5.6 82,19.6 		"/>
		<polygon class="st0" points="36.3,12.5 36.3,12.5 36.3,12.5 36.3,9.9 33.7,9.9 33.7,4.8 31.2,4.8 30.5,4.8 30.5,4.8 30.5,4.8 
			30.5,17.7 33.7,17.7 33.7,12.5 35.5,12.5 		"/>
		<path class="st0" d="M18.8,18.8L18.8,18.8v10.5h14.9V18.8H18.8z M30.6,21.3v5.4h-8.8v-5.4H30.6z"/>
		<polygon class="st0" points="47.9,12.2 47.9,12.5 47.9,12.5 50.7,12.5 52,12.5 52,17.7 55.1,17.7 55.1,4.8 52.7,4.8 51.9,4.8 
			51.9,4.8 51.9,8.6 51.9,9.9 48.4,9.9 47.9,9.9 		"/>
		<path class="st0" d="M55.4,22.7c-0.6-2.1-2.8-3.8-5.6-4.4c-0.8-0.2-1.6-0.3-2.5-0.3c-0.8,0-1.6,0.1-2.3,0.2
			c-2.7,0.6-4.8,2.1-5.6,4c-0.5,1.2-0.5,2.5,0.1,3.7c0.9,1.8,2.8,3.2,5.3,3.7c0.8,0.2,1.6,0.3,2.5,0.3c0.9,0,1.9-0.1,2.8-0.3
			c2.4-0.6,4.3-2.1,5.1-3.8c0.2-0.6,0.4-1.2,0.4-1.8C55.6,23.6,55.5,23.2,55.4,22.7 M52.5,24c0,1.8-2.3,3.3-5.1,3.3
			c-2.8,0-5.1-1.5-5.1-3.3s2.3-3.3,5.1-3.3C50.2,20.7,52.5,22.2,52.5,24"/>
		<path class="st0" d="M16.7,17.2c0.9-0.7,4-3,4.8-5.5c0.1,0.4,0.3,0.7,0.5,1.1c1.1,1.7,2.5,3.1,4.1,4.3l0.1,0l0.1,0l0.3,0.2l0,0
			l1-1.4l0.6-0.9l0,0C22.8,12.4,23,5.7,23,5.4l0,0h-2.9c0,0.1,0.4,7-5.2,9.9h0l0.5,0.7l1.1,1.6L16.7,17.2"/>
		<path class="st0" d="M42.6,11.7c0.1,0.4,0.3,0.7,0.5,1.1c1.1,1.7,2.5,3.2,4.3,4.4l0,0l1.6-2.2l0,0l0,0C44,12.5,44,6.3,44,5.5V5.3
			h-2.9c0,0.1,0.3,6.2-4,9.1c-0.3,0.2-0.6,0.4-0.9,0.5l0.5,0.7l1.1,1.5C37.9,17.2,41.7,14.7,42.6,11.7"/>
		<path class="st0" d="M69.5,5.5H58.8v2.5h7.9c0,1.4-0.2,2.8-0.4,4.2H59v2.5h6.5c-1.1,3.2-3.3,6.5-7.6,8.1l1.2,2.5
			c0.1,0,0.1,0,0.2-0.1C60.7,25,70.1,21.4,69.5,5.5"/>
		<polygon class="st0" points="75.8,4.8 72.7,4.8 72.7,20.7 72.7,29.3 72.7,29.3 72.7,29.3 75.8,29.3 75.8,14.9 78.7,14.9 
			78.7,12.1 75.8,12.1 		"/>
	</g>
</g>
</svg>
