<?xml version="1.0" encoding="utf-8"?>
<!-- Generator: Adobe Illustrator 26.2.1, SVG Export Plug-In . SVG Version: 6.00 Build 0)  -->
<svg version="1.1" id="레이어_1" xmlns="http://www.w3.org/2000/svg" xmlns:xlink="http://www.w3.org/1999/xlink" x="0px"
	 y="0px" viewBox="0 0 175.6 35" style="enable-background:new 0 0 175.6 35;" xml:space="preserve">
<style type="text/css">
	.st0{fill:#004097;}
</style>
<g id="레이어_2_00000182502666556218490530000005069859939049801347_">
	<g id="Layer_1">
		<polygon class="st0" points="108.9,3.8 105.4,3.8 105.4,21.2 108.9,21.2 108.9,12.2 111.8,12.2 111.8,9.4 108.9,9.4 		"/>
		<path class="st0" d="M101.2,17.5l1.8-2.5c-6.2-3.1-5.8-10.8-5.8-10.8H94c0,0,0.5,7.6-5.8,10.8l1.8,2.5c0,0,4.5-3,5.5-6.2
			C96.6,14.6,101.2,17.5,101.2,17.5"/>
		<polygon class="st0" points="96.4,19 93.1,19 93.1,30.6 94.9,30.6 96.4,30.6 108.8,30.6 108.8,27.7 96.4,27.7 		"/>
		<polygon class="st0" points="119.6,21.4 116.5,21.4 116.5,30.6 116.8,30.6 119.6,30.6 133.7,30.6 133.7,27.9 119.6,27.9 		"/>
		<path class="st0" d="M125.1,15.5c4.9,0,8.8-2.8,8.8-6.2s-3.9-6.3-8.8-6.3s-8.8,2.8-8.8,6.3S120.2,15.5,125.1,15.5 M125.1,5.8
			c3.1,0,5.6,1.5,5.6,3.5s-2.5,3.5-5.6,3.5c-3.1,0-5.6-1.6-5.6-3.5S121.9,5.8,125.1,5.8"/>
		<polygon class="st0" points="114.7,19.2 123.6,19.2 123.6,22.9 126.9,22.9 126.9,19.2 135.4,19.2 135.4,16.3 114.7,16.3 		"/>
		<path class="st0" d="M149.1,19.7c-4.8,0-8.8,2.7-8.8,6.1s3.9,6.1,8.8,6.1c4.8,0,8.8-2.7,8.8-6.1S154,19.6,149.1,19.7 M149.1,29.2
			c-3.1,0-5.6-1.5-5.6-3.5s2.5-3.5,5.6-3.5s5.6,1.6,5.6,3.5S152.3,29.2,149.1,29.2"/>
		<path class="st0" d="M155.4,16.3v-2.5c1.6-0.9,2.7-2.6,2.8-4.5c0-3.4-3.9-6.1-8.8-6.1s-8.8,2.8-8.8,6.1c0,1.8,1.1,3.4,2.9,4.5v2.5
			h-4.6v2.9h20.9v-2.9H155.4z M149.4,5.8c3.1,0,5.6,1.5,5.6,3.5s-2.5,3.5-5.6,3.5s-5.6-1.6-5.6-3.5S146.2,5.8,149.4,5.8 M146.8,16.3
			v-1.2c0.8,0.2,1.7,0.3,2.6,0.3c0.9,0,1.9-0.1,2.8-0.4v1.2H146.8z"/>
		<polygon class="st0" points="57.3,18 60.7,18 60.7,3.9 57.2,3.9 57.2,9.5 52.9,9.5 52.9,12.3 57.3,12.3 		"/>
		<path class="st0" d="M52.2,18.3c-4.9,0-9,2.9-9,6.5s4,6.5,9,6.5s9-2.9,9-6.5S57.2,18.3,52.2,18.3 M52.2,28.5
			c-3.1,0-5.6-1.6-5.6-3.6s2.5-3.6,5.6-3.6c3.1,0,5.6,1.6,5.6,3.6S55.3,28.5,52.2,28.5"/>
		<path class="st0" d="M47,11.4c1,3.3,5.1,6,5.1,6l1.8-2.5C48.2,12,48.6,4.4,48.6,4.4h-3.2c0,0,0.5,7.6-5.3,10.5l1.8,2.5
			C41.9,17.4,46,14.7,47,11.4"/>
		<polygon class="st0" points="35.9,3.9 32.4,3.9 32.4,18 35.9,18 35.9,12.3 38.8,12.3 38.8,9.5 35.9,9.5 		"/>
		<path class="st0" d="M19.7,30.6h16.3V19.1H19.7V30.6z M22.9,21.9h9.6v5.9H23L22.9,21.9z"/>
		<path class="st0" d="M22.7,11.4c1,3.3,5.5,6.2,5.5,6.2l1.8-2.5C23.8,12,24.3,4.4,24.3,4.4h-3.1c0,0,0.4,7.6-5.8,10.8l1.8,2.5
			C17.2,17.7,21.7,14.6,22.7,11.4"/>
		<polygon class="st0" points="84.7,3.9 81.3,3.9 81.3,30.6 84.7,30.6 84.7,14.8 87.9,14.8 87.9,11.9 84.7,11.9 		"/>
		<path class="st0" d="M74.2,9V7.6H79V4.8H66v2.8h4.9V9c-0.2,6.1-0.4,10.6-5.8,15.3l2.2,2.4c0,0,4.5-4.2,5.2-7.9
			c0.7,3.7,5.2,7.9,5.2,7.9l2.2-2.4C74.5,19.6,74.3,15.2,74.2,9"/>
	</g>
</g>
</svg>
