<svg xmlns="http://www.w3.org/2000/svg" viewBox="0 0 240.57 52.63"><defs><style>.cls-1{fill:#001a70;}.cls-2{fill:#54565a;}</style></defs><g id="레이어_2" data-name="레이어 2"><g id="Layer_1" data-name="Layer 1"><path class="cls-1" d="M15.24,23l-2.05-.62c-1.4-.44-3.58-1.14-3.58-3s2-2.57,3.45-2.57a10.87,10.87,0,0,1,6.16,2l2.39-6.22a20.93,20.93,0,0,0-9.69-2.55c-6.2,0-10.68,4.1-10.68,10.36,0,6,3.33,7.32,8.37,8.73,1.73.5,4.89,1.27,4.89,3.53s-2,3.11-3.9,3.11a13.62,13.62,0,0,1-8.1-3.19L0,39.1a19.13,19.13,0,0,0,10.89,3.53,13.65,13.65,0,0,0,8.79-2.9c2.46-2.09,3.2-5.24,3.2-8.32C22.88,26.41,19.56,24.24,15.24,23Z"/><rect class="cls-1" x="91.48" y="11.07" width="7.97" height="30.59"/><path class="cls-1" d="M42.91,11.19H34L22.49,41.66h7.67l.34-.16.27-.3a10.17,10.17,0,0,1,7.67-3.58A10.28,10.28,0,0,1,46,41.1l.38.4.34.16h7.68Zm-.48,21.56a8.19,8.19,0,0,0-8,0l-.64.51,4.71-12.53L43.1,33.27Z"/><polygon class="cls-1" points="78.39 28.24 78.39 41.66 86.02 41.66 86.02 11.08 78.39 11.08 70.8 28.67 63.22 11.08 55.59 11.08 55.59 41.66 63.22 41.66 63.22 28.24 69.11 41.66 72.5 41.66 78.39 28.24"/><polygon class="cls-1" points="112.85 34.92 112.85 11.07 104.89 11.07 104.89 41.66 122.4 41.66 122.4 34.92 112.85 34.92"/><rect class="cls-2" x="135.71" width="1.4" height="52.63"/><path class="cls-2" d="M154.86,14.53A6.63,6.63,0,0,1,151,12a6.6,6.6,0,0,1-3.87,2.51l-1-1.07A4.8,4.8,0,0,0,149.93,9V8.47a4.62,4.62,0,0,0-.2-1.5h2.33V9a4.8,4.8,0,0,0,3.79,4.48Zm-4.93,7.07a.55.55,0,0,1-.53-.54V17.38a3.62,3.62,0,0,0-.27-1.54h10.3V21.6Zm7.43-4.3h-5.89v2.83h5.89ZM159.52,11v2.28a11.08,11.08,0,0,1-.13,1.72h-2V8a3.65,3.65,0,0,0-.26-1.54h2.36V9.55h2.13V11Z"/><path class="cls-2" d="M166.91,14A3.79,3.79,0,0,1,163,10.39a4,4,0,0,1,7.89,0A3.81,3.81,0,0,1,166.91,14Zm0-5.74a2,2,0,0,0-1.86,2.16,1.88,1.88,0,1,0,3.72,0A2,2,0,0,0,166.91,8.23ZM166,21.6a.53.53,0,0,1-.51-.52v-2a4.07,4.07,0,0,0-.2-1.38h8.14v-1h-8V15.29h10.11v3.79h-8v1.08h8.05V21.6Zm9.47-7.09h-1.95V8a3.62,3.62,0,0,0-.27-1.54h2.36v6.32A9.66,9.66,0,0,1,175.44,14.51Z"/><path class="cls-2" d="M189.22,8A3.81,3.81,0,0,0,189,6.47h2.35v13.4a9.06,9.06,0,0,1-.14,1.73h-1.95V17.66a9.08,9.08,0,0,1-2.71.4h-8.2V16.59h4.05V14.9a3.2,3.2,0,0,1-2.45-3,2.85,2.85,0,0,1,.67-1.81h-1.77V8.67h3.52V7.59a3,3,0,0,0-.17-1h2.34V8.67H188v1.47h-1.77a2.9,2.9,0,0,1,.67,1.81,3.21,3.21,0,0,1-2.45,3v1.69h2.22a12.09,12.09,0,0,0,2.53-.26Zm-5.81,2.3A1.55,1.55,0,0,0,182,12a1.47,1.47,0,1,0,2.93,0A1.55,1.55,0,0,0,183.41,10.31Z"/><path class="cls-2" d="M202.14,9.71V8a3.68,3.68,0,0,0-.25-1.54h2.21v13.4A9.06,9.06,0,0,1,204,21.6h-1.82v-7H199.8V13.18h2.34v-2H200a8.72,8.72,0,0,1-5.73,5.89l-1.1-.89a7.29,7.29,0,0,0,5.06-7.26h-4V7.46h6.27a15.08,15.08,0,0,1-.17,2.25Zm4.78,11.89h-1.83V8a3.85,3.85,0,0,0-.25-1.54H207v13.4A11.39,11.39,0,0,1,206.92,21.6Z"/><path class="cls-2" d="M215.52,9.21V8.56A3.67,3.67,0,0,0,215.24,7h2.35V9.67h2.77V8a3.47,3.47,0,0,0-.27-1.54h2.35V13a10.15,10.15,0,0,1-.12,1.73h-2V11.13h-2.77v3h-7.3a.53.53,0,0,1-.52-.5v-5a3.5,3.5,0,0,0-.27-1.55h2.35V9.21Zm-3.67,1.39v2.09h3.67V10.6Zm8.44,6.51V17a3.25,3.25,0,0,0-.29-1.56h2.36V21.6h-9.52a.54.54,0,0,1-.51-.52v-4a3.57,3.57,0,0,0-.28-1.56h2.35v1.6Zm-5.89,1.4v1.63h5.89V18.51Z"/><path class="cls-2" d="M229.26,14.85a4.08,4.08,0,0,1-4.12-4,4.14,4.14,0,0,1,8.27,0A4.1,4.1,0,0,1,229.26,14.85Zm0-6.53a2.32,2.32,0,0,0-2,2.55,2.1,2.1,0,1,0,4.11,0A2.31,2.31,0,0,0,229.26,8.32Zm-.67,13.19a.54.54,0,0,1-.53-.51V17.88a3.67,3.67,0,0,0-.26-1.55h2.36V20H238v1.47Zm9.13-4.36h-2V8a3.81,3.81,0,0,0-.26-1.54h2.35v9A8.91,8.91,0,0,1,237.72,17.15Z"/><path class="cls-2" d="M186.55,41h-7.21a.53.53,0,0,1-.53-.52V33a3.83,3.83,0,0,0-.26-1.55h8Zm-2.08-8.07h-3.58v6.61h3.58Zm6.63,12.68h-2V32a3.77,3.77,0,0,0-.26-1.57h2.35V43.83A9.92,9.92,0,0,1,191.1,45.56Z"/><path class="cls-2" d="M202.31,32a3.81,3.81,0,0,0-.25-1.57h2.2v4.65h1.17V32a3.81,3.81,0,0,0-.25-1.57h2.21V43.83a9.92,9.92,0,0,1-.13,1.73h-1.83v-9h-1.17v7.3a9.92,9.92,0,0,1-.13,1.73h-1.82V40.74a9.73,9.73,0,0,1-2.68.38h-4.32a.53.53,0,0,1-.51-.51V36.92a4.48,4.48,0,0,0-.19-1.38h3.94V32.88h-3.83V31.41h5.92v5.51h-3.77v2.73h2.94a11.85,11.85,0,0,0,2.5-.26Z"/><path class="cls-2" d="M214.72,34.92a5.62,5.62,0,0,0,3.09,5.34l-1.11,1a6,6,0,0,1-3-2.75,6,6,0,0,1-3,2.75l-1.12-1a5.63,5.63,0,0,0,3.1-5.34v-2h-2.24V31.41H217v1.47h-2.24Zm8.57,10.64h-1.82v-9H220.3v7.3a9.92,9.92,0,0,1-.13,1.73h-1.83V32a3.81,3.81,0,0,0-.25-1.57h2.21v4.65h1.17V32a3.81,3.81,0,0,0-.25-1.57h2.2V43.83A9.92,9.92,0,0,1,223.29,45.56Z"/><path class="cls-2" d="M233.62,38.49h-6.69a.54.54,0,0,1-.53-.51V33a3.65,3.65,0,0,0-.26-1.54h7.75V33h-5.4V37h5.31a12,12,0,0,0,2.54-.26V32a4,4,0,0,0-.26-1.57h2.35V34.5h2.14V36h-2.14v3.42a10,10,0,0,1-.13,1.73h-2v-3A9.15,9.15,0,0,1,233.62,38.49Zm-4.46,7a.53.53,0,0,1-.52-.51V41.84a3.67,3.67,0,0,0-.27-1.55h2.36V44h7.87v1.47Z"/><path class="cls-2" d="M154.87,38.5A6.69,6.69,0,0,1,151,36a6.66,6.66,0,0,1-3.87,2.52l-1-1.08a4.8,4.8,0,0,0,3.8-4.49v-.5a4.62,4.62,0,0,0-.2-1.5h2.33v2a4.8,4.8,0,0,0,3.8,4.49Zm-4.94,7.07a.54.54,0,0,1-.53-.53V41.35a3.63,3.63,0,0,0-.27-1.55h10.31v5.77Zm7.44-4.31h-5.9V44.1h5.9ZM159.53,35v2.28A11.12,11.12,0,0,1,159.4,39h-2V32a3.44,3.44,0,0,0-.26-1.53h2.36V33.5h2.14V35Z"/><path class="cls-2" d="M166.93,37.94A3.8,3.8,0,0,1,163,34.35a4,4,0,0,1,7.89,0A3.81,3.81,0,0,1,166.93,37.94Zm0-5.75a2.17,2.17,0,0,0,0,4.3,2.17,2.17,0,0,0,0-4.3ZM166,45.57a.53.53,0,0,1-.51-.51v-2a4.34,4.34,0,0,0-.2-1.38h8.15v-1h-8V39.25h10.14v3.8h-8v1.08h8.05v1.44Zm9.49-7.09h-2V32a3.59,3.59,0,0,0-.26-1.53h2.36v6.32A9.92,9.92,0,0,1,175.48,38.48Z"/></g></g></svg>