<svg xmlns="http://www.w3.org/2000/svg" viewBox="0 0 108 28.21"><defs><style>.cls-1{fill:#874d9b;}</style></defs><g id="레이어_2" data-name="레이어 2"><g id="Layer_1" data-name="Layer 1"><polygon class="cls-1" points="62.95 7.89 69.17 5.6 62.95 3.19 62.95 0 73.6 4.25 73.6 6.89 62.95 11.17 62.95 7.89"/><path d="M7.43,23.84a2,2,0,0,1-2.28,2c-1.17,0-1.69-.59-1.69-1.44v-.12c0-1.11.88-1.58,2.59-1.58H7.43Zm-1.66-8.5c-3,0-5.15,1.35-5.39,4.09H3.72A1.7,1.7,0,0,1,5.6,17.82c1.28,0,1.83.76,1.83,2v.59H5.88c-3.21,0-5.88,1-5.88,4v.14c0,2.51,1.86,3.64,4.1,3.64a3.93,3.93,0,0,0,3.4-1.68V28h3.41V19.69c0-3.07-2.14-4.35-5.14-4.35"/><path d="M18.8,28.21c-3.46,0-6-2.12-6-6.3v-.17c0-4.18,2.67-6.4,6-6.4,2.84,0,5.17,1.42,5.46,4.65H20.94c-.21-1.2-.83-2-2.05-2-1.47,0-2.5,1.16-2.5,3.59V22c0,2.5.91,3.63,2.53,3.63a2.32,2.32,0,0,0,2.26-2.22h3.17c-.24,2.81-2.17,4.82-5.55,4.82"/><path d="M31.76,28.21c-3.45,0-6-2.12-6-6.3v-.17c0-4.18,2.67-6.4,6-6.4,2.84,0,5.17,1.42,5.46,4.65H33.9c-.21-1.2-.83-2-2-2-1.48,0-2.51,1.16-2.51,3.59V22c0,2.5.91,3.63,2.53,3.63a2.32,2.32,0,0,0,2.26-2.22h3.17c-.24,2.81-2.17,4.82-5.55,4.82"/><path d="M42.34,20.35c.28-2,1.29-2.6,2.38-2.6,1.38,0,2.22.78,2.29,2.6Zm8,.8c0-4.08-2.6-5.81-5.69-5.81-3.34,0-5.93,2.27-5.93,6.4V22c0,4.11,2.45,6.23,6,6.23,3.26,0,5.19-1.77,5.57-4.11H47.17a2.14,2.14,0,0,1-2.28,1.61c-1.5,0-2.46-.85-2.6-3.07h8.1Z"/><path d="M52.54,15.6H56v1.85a4.07,4.07,0,0,1,3.77-2.11c2.26,0,3.76,1.35,3.76,4.35V28H60.06V20.21c0-1.44-.59-2.08-1.85-2.08A2.08,2.08,0,0,0,56,20.42V28H52.54Z"/><path d="M70.05,11.87V15.6h2.38v2.58H70.05V24c0,.92.43,1.35,1.24,1.35a3,3,0,0,0,1.21-.21v2.69a7.41,7.41,0,0,1-2,.26c-2.72,0-4-1.23-4-3.73V18.18H65.09V15.6h1.46V13.29Z"/><path d="M85.53,28H82.06V26.13a3.82,3.82,0,0,1-3.63,2.08c-2.23,0-3.88-1.35-3.88-4.25V15.6h3.5v7.84c0,1.42.57,2.08,1.81,2.08a2.09,2.09,0,0,0,2.2-2.29V15.6h3.47Z"/><path d="M88.06,15.6h3.48v2.27a3.72,3.72,0,0,1,3.74-2.43v3.4c-2.36,0-3.74.71-3.74,2.76V28H88.06Z"/><path d="M100,20.35c.29-2,1.29-2.6,2.38-2.6,1.38,0,2.22.78,2.29,2.6Zm8,.8c0-4.08-2.6-5.81-5.69-5.81-3.34,0-5.93,2.27-5.93,6.4V22c0,4.11,2.45,6.23,6.05,6.23,3.26,0,5.19-1.77,5.57-4.11h-3.21a2.16,2.16,0,0,1-2.29,1.61c-1.5,0-2.46-.85-2.6-3.07H108Z"/></g></g></svg>