<svg xmlns="http://www.w3.org/2000/svg" viewBox="0 0 322.82 73.74"><defs><style>.cls-1{fill:#005da9;}</style></defs><g id="레이어_2" data-name="레이어 2"><g id="Layer_1" data-name="Layer 1"><path class="cls-1" d="M25.76,56.59a22.54,22.54,0,0,1-14-4.86c4.49-10.12,13.64-23.71,26.1-37a22.66,22.66,0,0,1,8.44,28.84,41.75,41.75,0,0,1-10.77-7l6.83,12.83a22.61,22.61,0,0,1-16.57,7.2M3.09,33.93A22.7,22.7,0,0,1,35.17,13.29C22.88,24.15,13.37,36.77,7.74,47.67A22.5,22.5,0,0,1,3.09,33.93m46,10.86A25.76,25.76,0,0,0,40,12.47C44.15,8.21,48.62,4,53.38,0A115.7,115.7,0,0,0,37.71,11.1,25.77,25.77,0,0,0,6.24,50.74C1.31,61.41.44,70,4.79,72.88,9.45,76,19.57,70.36,25.65,61.19c0,0-9.4,8.48-14.56,6.53-3.18-1.2-3.19-6.06-.57-13a25.75,25.75,0,0,0,33.34-2.43L44.78,54c11.22-.92,44.75-1.8,44.75-1.8,0-1.61-22.2-.15-40.41-7.39"/><polygon class="cls-1" points="202.82 31.56 207.01 25.98 192.4 25.98 196 21.2 210.62 21.2 214.82 15.63 185.63 15.63 165.55 42.28 194.75 42.28 198.94 36.7 184.32 36.7 188.19 31.56 202.82 31.56"/><polygon class="cls-1" points="223.09 15.63 203.02 42.28 217.58 42.28 237.66 15.63 223.09 15.63"/><polygon class="cls-1" points="271.62 15.63 261.44 29.14 258.31 15.63 246.93 15.63 226.86 42.28 236.49 42.28 246.58 28.89 249.68 42.28 261.18 42.28 281.26 15.63 271.62 15.63"/><path class="cls-1" d="M319.25,15.63H295.83a12.23,12.23,0,0,0-9.8,4.89l-12.09,16a3.57,3.57,0,0,0,2.85,5.72H300.2a12.24,12.24,0,0,0,9.81-4.9l2.91-3.85h3.38l4.23-5.61H302.59l-5.66,7.51a3.17,3.17,0,0,1-2.54,1.27h-4.12a.93.93,0,0,1-.75-1.48l9.61-12.75a3.17,3.17,0,0,1,2.54-1.27h4.12a.93.93,0,0,1,.93.93,1,1,0,0,1-.19.56L305,24.76h14.55l2.57-3.42a3.51,3.51,0,0,0,.72-2.14,3.58,3.58,0,0,0-3.57-3.57"/><path class="cls-1" d="M157.41,22.69,147.8,35.43a3.14,3.14,0,0,1-2.54,1.27h-4.12a.93.93,0,0,1-.75-1.48L150,22.47a3.22,3.22,0,0,1,2.54-1.27h4.13a.93.93,0,0,1,.92.93,1,1,0,0,1-.18.56m16.28-3.49a3.57,3.57,0,0,0-3.57-3.57h-23.4a12.23,12.23,0,0,0-9.81,4.89l-12.09,16a3.57,3.57,0,0,0,2.85,5.72h23.4a12.24,12.24,0,0,0,9.82-4.9l12.08-16a3.51,3.51,0,0,0,.72-2.14"/><path class="cls-1" d="M112.92,22.69l-1.53,2A3.21,3.21,0,0,1,108.84,26h-6l3.61-4.78h5.71a.93.93,0,0,1,.93.93,1,1,0,0,1-.19.56M105.11,33l-1.8,2.39a3.17,3.17,0,0,1-2.54,1.27h-6l3.87-5.14h5.72a.92.92,0,0,1,.92.92.88.88,0,0,1-.19.56m13.52-3.44A12.23,12.23,0,0,0,125.71,25l2.77-3.68a3.51,3.51,0,0,0,.72-2.14,3.57,3.57,0,0,0-3.57-3.57H96.1L76,42.28h30.56a12.27,12.27,0,0,0,9.82-4.9l2.83-3.76a2.81,2.81,0,0,0,.57-1.71,2.87,2.87,0,0,0-1.17-2.31"/></g></g></svg>