<svg xmlns="http://www.w3.org/2000/svg" xmlns:xlink="http://www.w3.org/1999/xlink" viewBox="0 0 387.04 53.7"><defs><style>.cls-1{fill:none;}.cls-2{clip-path:url(#clip-path);}.cls-3{fill:url(#무제_그라디언트_3);}.cls-4{clip-path:url(#clip-path-2);}.cls-5{fill:url(#무제_그라디언트_2);}.cls-6{clip-path:url(#clip-path-3);}.cls-7{fill:url(#무제_그라디언트_6);}.cls-8{clip-path:url(#clip-path-4);}.cls-9{fill:url(#무제_그라디언트_6-2);}.cls-10{clip-path:url(#clip-path-5);}.cls-11{fill:url(#무제_그라디언트_6-3);}.cls-12{clip-path:url(#clip-path-6);}.cls-13{fill:url(#무제_그라디언트_6-4);}.cls-14{fill:#fff;}.cls-15{fill:#1d1d1b;}</style><clipPath id="clip-path" transform="translate(0)"><rect class="cls-1" width="53.71" height="53.7"/></clipPath><linearGradient id="무제_그라디언트_3" x1="-148.12" y1="23.91" x2="-141.63" y2="23.91" gradientTransform="translate(235.72 1292.53) rotate(90) scale(8.74)" gradientUnits="userSpaceOnUse"><stop offset="0" stop-color="#17754d"/><stop offset="0.6" stop-color="#8ac9ad"/><stop offset="1" stop-color="#009462"/></linearGradient><clipPath id="clip-path-2" transform="translate(0)"><path class="cls-1" d="M4.19,1c-1,0-1.72.88-1.89,2.11,0,0-1.33,7-1.33,22A203.57,203.57,0,0,0,2.3,49.85,2.08,2.08,0,0,0,4.19,52H50.67a2,2,0,0,0,1.89-2.1s-.51-11.47-.51-22.68.51-24.11.51-24.11A2,2,0,0,0,50.67,1Z"/></clipPath><linearGradient id="무제_그라디언트_2" x1="-149.5" y1="21.13" x2="-143.01" y2="21.13" gradientTransform="translate(234.18 1454.14) rotate(90) scale(9.82)" gradientUnits="userSpaceOnUse"><stop offset="0" stop-color="#009462"/><stop offset="0.3" stop-color="#8ac9ad"/><stop offset="0.55" stop-color="#009462"/><stop offset="0.84" stop-color="#17754d"/><stop offset="0.89" stop-color="#127e56"/><stop offset="0.98" stop-color="#04966d"/><stop offset="1" stop-color="#009d73"/></linearGradient><clipPath id="clip-path-3" transform="translate(0)"><path class="cls-1" d="M30.29,6.33c1.47.61,7.36,3.8,8.09,4.82a49.52,49.52,0,0,0-11.92,3.43l-.18.37a82.67,82.67,0,0,1,11.61-1.34,36.79,36.79,0,0,1-4,4.76l-.17.4c3.59-2.16,4.62-2.33,7.94-4.27,1.24,1.86,1.55,6.14,1.6,9.52,1.08-2.15,2.39-10.25,1.85-11.71,2-1.4,2.45-2.55,2.5-2.71v0a21,21,0,0,0-4.22.55A38.64,38.64,0,0,0,30.46,6Z"/></clipPath><linearGradient id="무제_그라디언트_6" x1="-162.07" y1="-34.89" x2="-155.58" y2="-34.89" gradientTransform="translate(258.6 -982.65) rotate(-90) scale(6.35)" gradientUnits="userSpaceOnUse"><stop offset="0" stop-color="#00a77d"/><stop offset="1" stop-color="#009462"/></linearGradient><clipPath id="clip-path-4" transform="translate(0)"><path class="cls-1" d="M8.3,31.49a22.73,22.73,0,0,0,0,6.79A23.72,23.72,0,0,0,5.34,39l-.17.37A38.61,38.61,0,0,0,9.3,41.64a14.38,14.38,0,0,0,3.14,4.45l.18-.38a8.07,8.07,0,0,1-.47-3,20.25,20.25,0,0,0,5.28.84l.16-.37a14.2,14.2,0,0,1-4.95-2.57,14.74,14.74,0,0,1,1.81-3.46l.16-.37c-1.5.22-2.88.76-4.19,1C9.39,36,9,33.49,8.48,31.12Z"/></clipPath><linearGradient id="무제_그라디언트_6-2" x1="-162.07" y1="-38.28" x2="-155.58" y2="-38.28" gradientTransform="translate(254.66 -983.01) rotate(-90) scale(6.35)" xlink:href="#무제_그라디언트_6"/><clipPath id="clip-path-5" transform="translate(0)"><path class="cls-1" d="M17.29,19.18a27.15,27.15,0,0,0-3-.06,29.43,29.43,0,0,0-5.1.56L9,20.06c1.82.07,4.33.56,5.29,1.52a29,29,0,0,0-5.52,8s5-4.67,7.14-5.84c0,0,1.13,3.77,1.91,5.65L18,29A31.07,31.07,0,0,1,19.7,22.5a5.6,5.6,0,0,1,1.91-.34,28,28,0,0,1,8.14.52l.19-.38a29.45,29.45,0,0,0-9-2.81h.13a20.63,20.63,0,0,1,1.27-2.93,14.86,14.86,0,0,0-5,2.62"/></clipPath><linearGradient id="무제_그라디언트_6-3" x1="-162.07" y1="-37.25" x2="-155.58" y2="-37.25" gradientTransform="translate(255.89 -982.35) rotate(-90) scale(6.35)" xlink:href="#무제_그라디언트_6"/><clipPath id="clip-path-6" transform="translate(0)"><path class="cls-1" d="M27.74,42.31c-.06-.74-.11-1.35-.16-2.18A37.7,37.7,0,0,1,25,43.3a11.14,11.14,0,0,1-3.22.26c-.41,0-.82,0-1.19,0l-.17.37a11,11,0,0,0,3,1,21.3,21.3,0,0,1-2.72,1.86l-.18.37a21.68,21.68,0,0,0,5.54-2.08A8.94,8.94,0,0,0,28.28,45s.18-.39.18-.37c-.11-.39-.44-.61-.53-1.15a41.34,41.34,0,0,0,3.94-3.58l.18-.38a35.05,35.05,0,0,1-4.31,2.8"/></clipPath><linearGradient id="무제_그라디언트_6-4" x1="-162.07" y1="-36.31" x2="-155.58" y2="-36.31" gradientTransform="translate(256.95 -982.79) rotate(-90) scale(6.35)" xlink:href="#무제_그라디언트_6"/></defs><g id="레이어_2" data-name="레이어 2"><g id="Layer_1" data-name="Layer 1"><g class="cls-2"><rect class="cls-3" width="53.71" height="53.7"/></g><g class="cls-4"><rect class="cls-5" x="0.97" y="0.95" width="51.62" height="51.01"/></g><g class="cls-6"><rect class="cls-7" x="26.28" y="5.96" width="21.37" height="18.07"/></g><g class="cls-8"><rect class="cls-9" x="5.17" y="31.12" width="12.43" height="14.97"/></g><g class="cls-10"><rect class="cls-11" x="8.78" y="16.56" width="21.16" height="13.01"/></g><g class="cls-12"><rect class="cls-13" x="20.44" y="39.51" width="11.6" height="7.7"/></g><path class="cls-14" d="M41.87,14.12c-3.32,2-4.33,2.11-7.94,4.27a36.06,36.06,0,0,0,4.13-5.15,81.08,81.08,0,0,0-11.6,1.34,46.2,46.2,0,0,1,12.09-3.81c-.72-1-6.62-4.2-8.09-4.81,4.67.37,10.38,2.1,13.14,3.79a21.71,21.71,0,0,1,4.25-.53,5.58,5.58,0,0,1-2.53,2.71c.55,1.48-.77,9.58-1.85,11.72,0-3.4-.34-7.67-1.6-9.53" transform="translate(0)"/><path class="cls-14" d="M17.6,43.16a13.22,13.22,0,0,1-4.79-2.94,15.2,15.2,0,0,1,1.81-3.47c-1.54.23-2.68.41-4,.65a20.71,20.71,0,0,1-2.13-6.28,22.31,22.31,0,0,0,0,6.78A22.47,22.47,0,0,0,5.34,39a37.09,37.09,0,0,0,4.13,2.27,14.26,14.26,0,0,0,3.14,4.45,8.42,8.42,0,0,1-.28-3.39,19.77,19.77,0,0,0,5.27.84" transform="translate(0)"/><path class="cls-14" d="M22.56,16.24h0a11,11,0,0,0-1.47,2.87,24.43,24.43,0,0,1,8.85,3.2,27.86,27.86,0,0,0-8.16-.53,5.92,5.92,0,0,0-1.91.33A33.39,33.39,0,0,0,18,29c-.78-1.88-1.91-5.65-1.91-5.65C13.94,24.51,9,29.2,9,29.2a28.51,28.51,0,0,1,5.51-8c-1-1-3.46-1.46-5.3-1.54a20.9,20.9,0,0,1,5.28-.92,26.14,26.14,0,0,1,3,0,14.89,14.89,0,0,1,5.09-2.57" transform="translate(0)"/><path class="cls-14" d="M27.76,39.76a39.49,39.49,0,0,1-2.57,3.17,15.58,15.58,0,0,1-4.58.64,12,12,0,0,0,3,1,21.45,21.45,0,0,1-2.91,2.24,21.81,21.81,0,0,0,5.54-2.09,9.47,9.47,0,0,0,2.24-.14,15,15,0,0,1-.37-1.5,40.7,40.7,0,0,0,4-3.6,27.07,27.07,0,0,1-4.14,2.42c-.06-.73-.11-1.35-.15-2.17" transform="translate(0)"/><path class="cls-15" d="M78.08,7.05c3.51,0,7.2,1.29,7.2,4.54,0,2-1.65,3.7-4.14,4.34,3.39,1,5.15,2.86,5.15,5.35,0,4-4.7,5.38-9.19,5.38H68c.25-2.58.31-6.28.31-10.28,0-2.69,0-6.76-.28-9.33Zm-3,2.18a12.65,12.65,0,0,0-1.74.12c-.11,2.6-.17,4-.17,7,0,3.55,0,5,.14,7.92.65,0,1.69,0,2.27,0,3.78,0,5.66-1.09,5.66-3.28,0-2.57-3.11-3.5-5.46-3.5H74.67l1.09-2.77h.67c1.6,0,3.87-.73,3.87-2.69s-1.4-2.86-5.24-2.86" transform="translate(0)"/><path class="cls-15" d="M106.69,7.05c-.2,2.24-.31,7.42-.31,9.33,0,1.73,0,7.56.34,10.28h-3.67L94.64,14.3a6.86,6.86,0,0,1-1-2.15h0c0,3,0,4.48,0,7.14,0,2.41.06,5.85.25,7.37H89.24c.28-2.72.31-8.55.31-10.28,0-1.91-.12-7.09-.26-9.33h5.16l6.27,9.22c1.35,2,1.63,2.38,1.85,3.1h0c0-.56,0-1.28,0-2a86.51,86.51,0,0,0-.56-10.28Z" transform="translate(0)"/><path class="cls-15" d="M119.78,7.05c4.11,0,9,1.15,9,5.69,0,3.94-3.51,5.91-10.68,5.91-.78,0-1.54-.09-1.79-.09.06,2.64.08,6.11.31,8.1H111.2c.26-2.72.31-7.17.31-10.28,0-2.94-.05-7.65-.28-9.33Zm-3.37,2.46c0,1.38-.08,2.8-.08,4.06,0,1,0,1.83.06,2.5a9.58,9.58,0,0,0,1.73.11c2.36,0,5.58-.61,5.58-3.44s-3.28-3.34-5.8-3.34a10.75,10.75,0,0,0-1.49.11" transform="translate(0)"/><path class="cls-15" d="M145.64,7.05c4.11,0,9,1.15,9,5.69,0,3.94-3.5,5.91-10.67,5.91-.78,0-1.54-.09-1.79-.09.06,2.64.08,6.11.31,8.1h-5.44c.26-2.72.31-7.17.31-10.28,0-2.94-.05-7.65-.28-9.33Zm-3.37,2.46c0,1.38-.08,2.8-.08,4.06,0,1,0,1.83.06,2.5a9.58,9.58,0,0,0,1.73.11c2.35,0,5.58-.61,5.58-3.44s-3.28-3.34-5.8-3.34a10.75,10.75,0,0,0-1.49.11" transform="translate(0)"/><path class="cls-15" d="M165.28,7.05c.75,2,7.2,16.36,8.71,19.61h-5.41c-.31-.9-1-2.52-1.79-4.62-1.12,0-2.27-.06-3.87-.06s-2.6,0-3.89.06c-.62,1.65-1.12,3.16-1.57,4.62h-4.71c1.12-2.44,7.71-16.73,8.74-19.61Zm.47,12.41L163,12.82c-.9,1.9-1.88,4.15-2.91,6.64.84,0,2,.05,2.91.05s1.85,0,2.8-.05" transform="translate(0)"/><path class="cls-15" d="M184.83,7.05c4.12,0,9,1.15,9,5.69,0,2.54-1.48,4.25-4.42,5.15a103.88,103.88,0,0,0,5.93,8.77h-5.85c-1.29-2.44-4.2-7.37-6.33-10.56a7.37,7.37,0,0,0,1.51.14c1.71,0,4.12-1.23,4.12-3.5,0-2.83-3.42-3.34-5.13-3.34a20.23,20.23,0,0,0-2.13.11c-.11,2.44-.16,5.5-.16,6.87,0,1.73,0,7.53.3,10.28h-5.46c.28-2.72.34-6.22.34-10.28,0-3.42,0-7.51-.28-9.33Z" transform="translate(0)"/><path class="cls-15" d="M203.46,7.05c-.16,2.27-.27,7.42-.27,9.36,0,1.7,0,7.53.27,10.25H198c.28-2.72.31-8.55.31-10.25,0-1.91-.12-7.09-.25-9.36Z" transform="translate(0)"/><path class="cls-15" d="M218.17,7.05c3.51,0,7.2,1.29,7.2,4.54,0,2-1.65,3.7-4.14,4.34,3.39,1,5.15,2.86,5.15,5.35,0,4-4.7,5.38-9.19,5.38h-9.1c.25-2.58.31-6.28.31-10.28,0-2.69,0-6.76-.28-9.33Zm-3,2.18a12.53,12.53,0,0,0-1.74.12c-.11,2.6-.17,4-.17,7,0,3.55,0,5,.14,7.92.65,0,1.68,0,2.27,0,3.78,0,5.66-1.09,5.66-3.28,0-2.57-3.11-3.5-5.46-3.5h-1.09l1.09-2.77h.67c1.6,0,3.86-.73,3.86-2.69S219,9.23,215.15,9.23" transform="translate(0)"/><path class="cls-15" d="M239.61,7.05c.75,2,7.2,16.36,8.71,19.61h-5.41c-.31-.9-.95-2.52-1.79-4.62-1.12,0-2.27-.06-3.87-.06s-2.6,0-3.89.06c-.62,1.65-1.12,3.16-1.57,4.62h-4.7c1.11-2.44,7.7-16.73,8.74-19.61Zm.47,12.41-2.8-6.64c-.89,1.9-1.88,4.15-2.91,6.64.84,0,2,.05,2.91.05s1.85,0,2.8-.05" transform="translate(0)"/><path class="cls-15" d="M258,6.71a23.73,23.73,0,0,1,6,.76v4.31a12.86,12.86,0,0,0-6.58-1.9c-1.74,0-3.06.47-3.06,1.71,0,3.55,11.38,3.13,11.38,9.35,0,3.84-3.42,6-9.19,6A20.83,20.83,0,0,1,250,26V21.75A15.55,15.55,0,0,0,257.65,24c2,0,3.45-.59,3.45-2.1,0-3.84-11.38-3.28-11.38-9.81,0-3.44,3.31-5.35,8.27-5.35" transform="translate(0)"/><path class="cls-15" d="M290.74,10.69a8,8,0,0,0-4.18-1.18c-5.09,0-6.86,4-6.86,7.48,0,4.79,2.94,7.2,6.89,7.2a8.84,8.84,0,0,0,6-2.6l0,4.14A17.57,17.57,0,0,1,285.72,27c-7.11,0-11.57-4.42-11.57-10,0-5.94,4.71-10.23,12.47-10.23a22.19,22.19,0,0,1,5.3.7Z" transform="translate(0)"/><path class="cls-15" d="M306.79,7.05c.76,2,7.2,16.36,8.71,19.61h-5.4c-.31-.9-1-2.52-1.79-4.62-1.12,0-2.27-.06-3.87-.06s-2.6,0-3.89.06c-.62,1.65-1.12,3.16-1.57,4.62h-4.71C295.4,24.22,302,9.93,303,7.05Zm.48,12.41-2.8-6.64c-.9,1.9-1.88,4.15-2.91,6.64.83,0,2,.05,2.91.05s1.85,0,2.8-.05" transform="translate(0)"/><path class="cls-15" d="M326.35,7.05c4.12,0,9,1.15,9,5.69,0,2.54-1.48,4.25-4.42,5.15a103.88,103.88,0,0,0,5.93,8.77H331c-1.29-2.44-4.2-7.37-6.33-10.56a7.3,7.3,0,0,0,1.51.14c1.71,0,4.12-1.23,4.12-3.5,0-2.83-3.42-3.34-5.12-3.34a20.46,20.46,0,0,0-2.14.11c-.11,2.44-.16,5.5-.16,6.87,0,1.73,0,7.53.3,10.28h-5.46c.28-2.72.34-6.22.34-10.28,0-3.42,0-7.51-.28-9.33Z" transform="translate(0)"/><path class="cls-15" d="M347,7.05c8.26,0,11.43,4.34,11.43,9.78,0,5.6-3.08,9.83-11.74,9.83h-7.28c.28-2.64.28-6.25.28-10.25,0-1.91,0-6.81-.28-9.36Zm-2.3,2.46c-.11,1.29-.13,4.62-.13,6.9,0,2.85,0,5.09.11,7.75a11.28,11.28,0,0,0,1.4.09c4.73,0,7.2-1.49,7.2-7.51,0-5.74-2.53-7.37-7.32-7.25Z" transform="translate(0)"/><path class="cls-15" d="M367.37,7.05c-.17,2.27-.28,7.42-.28,9.36,0,1.7,0,7.53.28,10.25h-5.43c.27-2.72.3-8.55.3-10.25,0-1.91-.11-7.09-.25-9.36Z" transform="translate(0)"/><path class="cls-15" d="M387,7.05V9.88c-1.54-.09-5.38-.2-6.67-.2-.95,0-2,0-3.11.09-.08,1.2-.11,2.71-.11,4,0,.64,0,1.23,0,1.71L384,15.4v3l-6.83-.28c0,2.49.05,6.36.31,8.49H372c.34-2.72.34-8.55.34-10.25,0-1.91-.14-7.09-.31-9.36Z" transform="translate(0)"/><path class="cls-15" d="M106.19,41.43c.29,0,.58,0,.87,0h.86V34h-1.45a.32.32,0,0,1-.2-.09.23.23,0,0,1-.11-.2V32.61a.24.24,0,0,1,.11-.2.32.32,0,0,1,.2-.09h9.35a.29.29,0,0,1,.19.08.32.32,0,0,1,.08.21v1.14a.27.27,0,0,1-.08.19.29.29,0,0,1-.19.08h-1.25v7.16l1-.08c.31,0,.62-.07.92-.12a.36.36,0,0,1,.2,0,.21.21,0,0,1,.13.13l.16,1.15c0,.1,0,.16,0,.21a.32.32,0,0,1-.17.09c-.72.11-1.51.21-2.35.29s-1.72.13-2.63.18-1.83.07-2.77.08-1.87,0-2.78,0A.25.25,0,0,1,106,43a.28.28,0,0,1-.07-.19V41.69a.23.23,0,0,1,.25-.26m6.37-.1V34h-2.63v7.41c.9,0,1.78-.06,2.63-.1m9.73-2.09a.25.25,0,0,1-.17.08h-2.46v8.57a.21.21,0,0,1-.24.23h-1.61a.21.21,0,0,1-.24-.23V31.16a.21.21,0,0,1,.24-.24h1.61a.21.21,0,0,1,.24.24v6.41h2.46a.28.28,0,0,1,.17.07.18.18,0,0,1,.09.15v1.29a.21.21,0,0,1-.09.16" transform="translate(0)"/><path class="cls-15" d="M134.06,43.2a.53.53,0,0,1-.25.12c-.35.08-.75.16-1.21.23s-.93.12-1.44.17l-1.54.13-1.5.07h-1.33c-.41,0-.74,0-1,0a1.85,1.85,0,0,1-1.09-.35,1.25,1.25,0,0,1-.3-1V38.25a1.25,1.25,0,0,1,.31-1,1.39,1.39,0,0,1,1-.29H130a.35.35,0,0,0,.2,0,.37.37,0,0,0,.05-.23V34.2a.49.49,0,0,0,0-.2.33.33,0,0,0-.22,0h-5.22a.23.23,0,0,1-.17-.07.21.21,0,0,1-.09-.16V32.46a.18.18,0,0,1,.09-.15.27.27,0,0,1,.17-.06h6.3c.52,0,.86.09,1,.29a1.52,1.52,0,0,1,.23.94v4a1.25,1.25,0,0,1-.28.94,1.43,1.43,0,0,1-1,.26h-4.3a.22.22,0,0,0-.25.25v2.87a.38.38,0,0,0,.07.26.46.46,0,0,0,.28.06c.53,0,1.09,0,1.67,0s1.18,0,1.77-.09,1.17-.1,1.73-.17,1.09-.16,1.59-.26a.34.34,0,0,1,.24,0,.3.3,0,0,1,.15.23l.17,1.08a.2.2,0,0,1-.08.23m3.37,4.69a.2.2,0,0,1-.23.23h-1.61a.21.21,0,0,1-.24-.23V31.16a.21.21,0,0,1,.24-.24h1.61c.16,0,.23.08.23.24Z" transform="translate(0)"/><path class="cls-15" d="M148.89,42.83a1.48,1.48,0,0,1-1.07.31h-5.33a1.63,1.63,0,0,1-1.09-.27,1.37,1.37,0,0,1-.29-1V32.08a.19.19,0,0,1,.08-.15.23.23,0,0,1,.16-.06h1.59a.32.32,0,0,1,.18.06.19.19,0,0,1,.08.15v4h3.89v-4a.25.25,0,0,1,.08-.17.2.2,0,0,1,.16-.07h1.61a.23.23,0,0,1,.17.07.28.28,0,0,1,.07.17v9.85a1.31,1.31,0,0,1-.29.91m-1.8-5.09H143.2v3.39c0,.2.11.3.32.3h3.25c.21,0,.32-.1.32-.3Zm9.25,1.48a.25.25,0,0,1-.17.08h-2.46v8.59a.21.21,0,0,1-.24.23h-1.61a.21.21,0,0,1-.24-.23V31.16a.22.22,0,0,1,.24-.24h1.61a.22.22,0,0,1,.24.24v6.4h2.46a.27.27,0,0,1,.17.06.18.18,0,0,1,.08.15V39a.19.19,0,0,1-.08.18" transform="translate(0)"/><path class="cls-15" d="M173.52,33.64a11.41,11.41,0,0,1-.67,3.21,13.28,13.28,0,0,1-1.55,3A13.9,13.9,0,0,1,169,42.42a16.34,16.34,0,0,1-3,2.13.48.48,0,0,1-.3.07.32.32,0,0,1-.24-.15l-.73-.91a.28.28,0,0,1,0-.26.29.29,0,0,1,.18-.2,15,15,0,0,0,3-2.26,13.47,13.47,0,0,0,2.2-2.76c-.75.07-1.54.13-2.37.17l-2.33.07a.31.31,0,0,1-.16-.07.27.27,0,0,1-.09-.22V36.85a.23.23,0,0,1,.09-.18.25.25,0,0,1,.14-.07l1.41,0,1.47-.07,1.42-.07c.46,0,.88,0,1.27-.09.1-.29.18-.58.25-.87l.18-.85a.67.67,0,0,0,0-.48.58.58,0,0,0-.44-.12h-5.1a.22.22,0,0,1-.25-.25V32.5c0-.14.08-.22.25-.22h6.55c.54,0,.9.11,1.06.34a1.45,1.45,0,0,1,.2,1M180.64,39a.28.28,0,0,1-.2.09H178v8.79a.21.21,0,0,1-.23.23h-1.62a.2.2,0,0,1-.23-.23V31.16c0-.16.07-.24.23-.24h1.62a.21.21,0,0,1,.23.24v6.2h2.44a.36.36,0,0,1,.2.06.21.21,0,0,1,.08.15v1.27a.25.25,0,0,1-.08.17" transform="translate(0)"/><path class="cls-15" d="M192.46,42.41a1,1,0,0,1-.18.09,11.59,11.59,0,0,1-1.83.38c-.74.11-1.51.2-2.29.27s-1.56.11-2.32.13-1.37,0-1.86,0a1.76,1.76,0,0,1-1-.3,1.15,1.15,0,0,1-.31-.92V33.43a1.23,1.23,0,0,1,.25-.89,1.38,1.38,0,0,1,.95-.26h6.77c.17,0,.25.08.25.24v1.27c0,.15-.08.23-.25.23H185.1c-.23,0-.34.11-.34.31V41c0,.2,0,.32.1.38a.92.92,0,0,0,.44.11,8.57,8.57,0,0,0,1.37,0c.53,0,1.11-.06,1.71-.12s1.22-.12,1.84-.21,1.21-.17,1.75-.27a.24.24,0,0,1,.32.22l.22,1a.26.26,0,0,1,0,.27m3.31,5.48a.2.2,0,0,1-.23.23h-1.62a.21.21,0,0,1-.23-.23V31.16a.21.21,0,0,1,.23-.24h1.62c.16,0,.23.08.23.24Z" transform="translate(0)"/><path class="cls-15" d="M214.44,45a.26.26,0,0,1-.18.09H198.47a.23.23,0,0,1-.18-.09.27.27,0,0,1-.07-.18v-1.2a.28.28,0,0,1,.07-.19.25.25,0,0,1,.18-.08h15.79a.32.32,0,0,1,.27.27v1.2a.26.26,0,0,1-.09.18M200.65,33.9a.32.32,0,0,1-.2-.09.27.27,0,0,1-.11-.2V32.5a.26.26,0,0,1,.11-.18.32.32,0,0,1,.2-.09h11.43a.27.27,0,0,1,.19.08.29.29,0,0,1,.08.19v1.12a.3.3,0,0,1-.08.2.27.27,0,0,1-.19.08h-1.81v4.89h2.16a.27.27,0,0,1,.27.27v1.13a.25.25,0,0,1-.08.18.25.25,0,0,1-.19.09H200.31a.3.3,0,0,1-.2-.09.28.28,0,0,1-.09-.2V39.06a.26.26,0,0,1,.09-.18.3.3,0,0,1,.2-.09h2.15V33.9Zm3.84,4.89h3.75V33.9h-3.75Z" transform="translate(0)"/><path class="cls-15" d="M216.88,40.33a.67.67,0,0,1-.3.1.36.36,0,0,1-.3-.14l-.66-.78c-.18-.19-.16-.38.07-.58a9.21,9.21,0,0,0,1.74-1.55,7.57,7.57,0,0,0,1.09-1.71,7.06,7.06,0,0,0,.58-1.86,13.62,13.62,0,0,0,.16-2.05.34.34,0,0,1,.08-.23.25.25,0,0,1,.17-.08l1.52.07c.16,0,.24.1.24.29a13.19,13.19,0,0,1-.27,2.74,6.24,6.24,0,0,0,1.21,2,9.6,9.6,0,0,0,1.89,1.67c.09,0,.14.12.13.19a.42.42,0,0,1-.1.22l-.69.93a.35.35,0,0,1-.52.07,9,9,0,0,1-1.52-1.22,6.78,6.78,0,0,1-1.25-1.61,9,9,0,0,1-1.37,1.93,9.87,9.87,0,0,1-1.9,1.57m13.89,4.37a2.25,2.25,0,0,1-.48,1.39,4.13,4.13,0,0,1-1.3,1.09,7.5,7.5,0,0,1-1.89.7,10.09,10.09,0,0,1-2.23.24,10.5,10.5,0,0,1-2.31-.24,7.35,7.35,0,0,1-1.84-.69,3.77,3.77,0,0,1-1.24-1.08A2.43,2.43,0,0,1,219,44.7a2.39,2.39,0,0,1,.44-1.39,3.77,3.77,0,0,1,1.24-1.08,7,7,0,0,1,1.84-.7,10.5,10.5,0,0,1,2.31-.24,10.09,10.09,0,0,1,2.23.24,7.91,7.91,0,0,1,1.89.69,4.36,4.36,0,0,1,1.3,1.07,2.27,2.27,0,0,1,.48,1.41m-2.14,0a1.08,1.08,0,0,0-.34-.79,2.67,2.67,0,0,0-.87-.56,5.65,5.65,0,0,0-1.2-.34,7.82,7.82,0,0,0-2.73,0,5.46,5.46,0,0,0-1.18.34,2.42,2.42,0,0,0-.82.56,1.13,1.13,0,0,0-.31.79,1,1,0,0,0,.31.75,2.54,2.54,0,0,0,.82.54,5.41,5.41,0,0,0,1.19.32,7.83,7.83,0,0,0,1.37.11,7.68,7.68,0,0,0,1.35-.11,5.67,5.67,0,0,0,1.2-.32,2.81,2.81,0,0,0,.87-.54,1,1,0,0,0,.34-.75m-.06-13.59c0-.16.09-.24.26-.24h1.55a.21.21,0,0,1,.24.24v9.69c0,.17-.08.26-.24.26h-1.57c-.16,0-.24-.09-.24-.26V37.07h-1.63v3.3a.21.21,0,0,1-.23.23h-1.49c-.17,0-.25-.08-.25-.23V31.45c0-.16.08-.24.25-.24h1.49a.21.21,0,0,1,.23.24v3.88h1.63Z" transform="translate(0)"/><path class="cls-15" d="M241.45,39.83a1.34,1.34,0,0,1-1,.28H235.1a1.53,1.53,0,0,1-1.06-.28,1.36,1.36,0,0,1-.28-1V32.9A1.3,1.3,0,0,1,234,32a1.39,1.39,0,0,1,1-.27h5.48a1.51,1.51,0,0,1,1,.25,1.3,1.3,0,0,1,.28,1v.49h3.08V31.16a.21.21,0,0,1,.23-.24h1.62a.21.21,0,0,1,.23.24v9.66c0,.17-.08.25-.23.25H245c-.15,0-.23-.08-.23-.25V38.55h-3.08v.29a1.41,1.41,0,0,1-.28,1m-1.75-6.24a.32.32,0,0,0,0-.21.27.27,0,0,0-.19-.05H236a.35.35,0,0,0-.19,0s0,.09,0,.2v4.64c0,.11,0,.17,0,.2a.38.38,0,0,0,.19,0h3.44a.38.38,0,0,0,.19,0,.28.28,0,0,0,0-.2ZM247,44.7a2.54,2.54,0,0,1-.41,1.39,3.47,3.47,0,0,1-1.13,1.09,6.13,6.13,0,0,1-1.72.7,9.33,9.33,0,0,1-2.18.24,9.59,9.59,0,0,1-2.23-.24,6,6,0,0,1-1.69-.69,3.28,3.28,0,0,1-1.08-1.08,2.71,2.71,0,0,1-.38-1.41,2.66,2.66,0,0,1,.38-1.39,3.28,3.28,0,0,1,1.08-1.08,5.69,5.69,0,0,1,1.69-.7,9.59,9.59,0,0,1,2.23-.24,9.33,9.33,0,0,1,2.18.24,6.44,6.44,0,0,1,1.72.69,3.64,3.64,0,0,1,1.13,1.07A2.56,2.56,0,0,1,247,44.7m-2.14,0a1.23,1.23,0,0,0-.26-.79,2.17,2.17,0,0,0-.72-.56,4.18,4.18,0,0,0-1.05-.34,6.44,6.44,0,0,0-1.27-.12,5.21,5.21,0,0,0-2.34.45,1.47,1.47,0,0,0-.88,1.36,1.38,1.38,0,0,0,.9,1.29,5.4,5.4,0,0,0,2.32.43,7.35,7.35,0,0,0,1.27-.1A4.63,4.63,0,0,0,243.9,46a2.27,2.27,0,0,0,.72-.54,1.11,1.11,0,0,0,.26-.75M244.81,35h-3.08v1.9h3.08Z" transform="translate(0)"/><path class="cls-15" d="M72,31.83c2.91,0,4.65.88,4.65,3.71a3.38,3.38,0,0,1-2.19,3.28c1.72.34,2.6,1.39,2.6,3.38,0,2.88-1.78,4-5,4H68V31.83Zm-1.74,6.11H72a2,2,0,0,0,2.3-2.11c0-1.5-.8-1.95-2.36-1.95H70.21Zm0,6.18H72c1.77,0,2.61-.57,2.61-2S73.94,40,72,40h-1.8Z" transform="translate(0)"/><polygon class="cls-15" points="81.85 31.83 88.14 42.09 88.14 31.83 90.31 31.83 90.31 46.17 88.18 46.17 81.87 35.93 81.87 46.17 79.69 46.17 79.69 31.83 81.85 31.83"/><path class="cls-15" d="M97.72,31.83c3.52,0,5,1.11,5,4.69s-2.15,4.82-5,4.82a6.29,6.29,0,0,1-1.62-.15v5H93.87V31.83Zm-1.64,7.38a6.1,6.1,0,0,0,1.44.14c1.82,0,3-.64,3-2.73s-.82-2.74-2.77-2.74H96.08Z" transform="translate(0)"/></g></g></svg>