<svg xmlns="http://www.w3.org/2000/svg" viewBox="0 0 165.13 64.81"><defs><style>.cls-1{fill:#38d200;}.cls-2{fill:#0473ea;}.cls-3{fill:#b6282c;}.cls-4{fill:#525355;}</style></defs><g id="레이어_2" data-name="레이어 2"><g id="Layer_1" data-name="Layer 1"><path class="cls-1" d="M31.59,63.86,4.43,46.17a9.48,9.48,0,0,1-4.18-5.6c-1.1-5.13,2.51-9.52,2.51-9.52L38,54a5.88,5.88,0,1,1-6.42,9.85"/><path class="cls-2" d="M5.87,27.26a9.83,9.83,0,0,1-4.16-8.32,9.73,9.73,0,0,1,4.16-8.27L20.71,1a5.88,5.88,0,0,1,6.41,9.85L14.61,19,35.93,32.84s3.84,2.2,4.59,5.91C41.58,43.93,38,48.2,38,48.2Z"/><path class="cls-3" d="M33.82,13.16a5.8,5.8,0,0,0-3.36,1.07L23.21,19l7.25,4.72a5.79,5.79,0,1,0,3.36-10.51"/><path class="cls-2" d="M5.79,64.79a5.8,5.8,0,0,0,3.36-1.07L16.39,59,9.15,54.28a5.94,5.94,0,0,0-3.36-1.07,5.79,5.79,0,0,0,0,11.58"/><path class="cls-4" d="M64,38.45a6.07,6.07,0,0,0,4.08-1.38v2.16a7.42,7.42,0,0,1-4.29,1.22,6.36,6.36,0,0,1-6.65-6.65,6.4,6.4,0,0,1,6.71-6.62,6.81,6.81,0,0,1,4.1,1.29v2.37a5.3,5.3,0,0,0-4-1.66A4.43,4.43,0,0,0,59.3,33.8,4.48,4.48,0,0,0,64,38.45"/><path class="cls-4" d="M72.5,40.22H70.39V23.35l2.11,1.3v4.94a5.13,5.13,0,0,1,4.44-2.41c3.22,0,4.93,2.36,4.93,5.5v7.54H79.74V33.05c0-2.5-1.09-3.82-3.32-3.82s-3.92,2-3.92,4.57Z"/><path class="cls-4" d="M94.94,38a5.6,5.6,0,0,1-4.7,2.41,6.28,6.28,0,0,1-6.42-6.57,6.34,6.34,0,0,1,6.42-6.7,5.57,5.57,0,0,1,4.7,2.46V27.41h2.13V40.22H94.94ZM86,33.85a4.47,4.47,0,1,0,8.93,0,4.47,4.47,0,1,0-8.93,0"/><path class="cls-4" d="M102.45,40.22h-2.1V27.41h2.1v2.73a5.15,5.15,0,0,1,4.68-3v2.41c-2.55-.36-4.68,1.35-4.68,4.52Z"/><path class="cls-4" d="M128.69,34.63h-10.1a4.4,4.4,0,0,0,4.67,3.85,7.84,7.84,0,0,0,4.58-1.43v2a8.07,8.07,0,0,1-4.58,1.37c-4,0-6.91-2.6-6.91-6.52s2.45-6.75,6.32-6.75c3.69,0,6.1,2.72,6.1,6.39a6.08,6.08,0,0,1-.08,1.06m-10.08-1.71h7.93c-.21-2.19-1.59-3.8-3.85-3.8s-3.74,1.64-4.08,3.8"/><path class="cls-4" d="M133.19,40.22h-2.11V27.41h2.11v2.73a5.15,5.15,0,0,1,4.68-3v2.41c-2.55-.36-4.68,1.35-4.68,4.52Z"/><path class="cls-4" d="M150.36,34.63h-10.1a4.4,4.4,0,0,0,4.67,3.85,7.86,7.86,0,0,0,4.58-1.43v2a8.07,8.07,0,0,1-4.58,1.37c-4,0-6.91-2.6-6.91-6.52s2.44-6.75,6.32-6.75c3.68,0,6.1,2.72,6.1,6.39a7.23,7.23,0,0,1-.08,1.06m-10.08-1.71h7.93c-.21-2.19-1.59-3.8-3.85-3.8s-3.74,1.64-4.08,3.8"/><path class="cls-4" d="M163,38a5.56,5.56,0,0,1-4.71,2.47,6.28,6.28,0,0,1-6.41-6.58,6.34,6.34,0,0,1,6.41-6.7A5.53,5.53,0,0,1,163,29.73V23.35l2.13,1.3V40.22H163Zm-8.94-4.13a4.47,4.47,0,1,0,8.94,0,4.47,4.47,0,1,0-8.94,0"/><path class="cls-4" d="M110.81,36a2.25,2.25,0,0,0,2.47,2.49,5.07,5.07,0,0,0,3-.93v2a5.48,5.48,0,0,1-3.17.91c-2.73,0-4.39-1.22-4.39-4.68V23.35l2.11,1.3Z"/><path class="cls-4" d="M114.21,27.24A1.63,1.63,0,1,0,112.44,30l0,0a1.65,1.65,0,0,0,1.76,0l2.09-1.35Z"/><path class="cls-4" d="M61.5,20c1.51,0,2.6-.65,2.6-1.82,0-.7-.36-1.25-1.32-1.64l-3-1.22c-1.56-.67-2.42-1.56-2.42-3.22,0-2.23,1.79-3.64,4.39-3.64a6.51,6.51,0,0,1,3.9,1.17v2.21a6.08,6.08,0,0,0-3.87-1.64c-1.35,0-2.31.63-2.31,1.67,0,.78.36,1.25,1.37,1.64l3,1.22c1.64.7,2.39,1.69,2.39,3.06,0,2.44-2,3.95-4.75,3.95a7.3,7.3,0,0,1-4.34-1.3V18.14A6.29,6.29,0,0,0,61.5,20"/><path class="cls-4" d="M70.24,17.2a2.24,2.24,0,0,0,2.46,2.49,5.08,5.08,0,0,0,3-.93v2a5.48,5.48,0,0,1-3.17.91c-2.73,0-4.39-1.22-4.39-4.68V5.88l2.11-1.31Z"/><path class="cls-4" d="M87.46,19.3a5.59,5.59,0,0,1-4.7,2.42,6.28,6.28,0,0,1-6.42-6.57,6.35,6.35,0,0,1,6.42-6.71,5.58,5.58,0,0,1,4.7,2.47V8.68h2.13V21.49H87.46Zm-8.94-4.18a4.47,4.47,0,1,0,8.94,0,4.47,4.47,0,1,0-8.94,0"/><path class="cls-4" d="M95,21.49h-2.1V8.68H95v2.18a5.14,5.14,0,0,1,4.44-2.42c3.22,0,4.94,2.37,4.94,5.51v7.54h-2.13V14.32c0-2.5-1.09-3.82-3.33-3.82S95,12.52,95,15.07Z"/><path class="cls-4" d="M117.42,19.25a5.53,5.53,0,0,1-4.71,2.47,6.27,6.27,0,0,1-6.41-6.57,6.34,6.34,0,0,1,6.41-6.71A5.55,5.55,0,0,1,117.42,11V5.88l2.13-1.3V21.49h-2.13Zm-8.94-4.13a4.47,4.47,0,1,0,8.94,0,4.47,4.47,0,1,0-8.94,0"/><path class="cls-4" d="M156.39,19.25a5.53,5.53,0,0,1-4.7,2.47,6.28,6.28,0,0,1-6.42-6.57,6.35,6.35,0,0,1,6.42-6.71,5.55,5.55,0,0,1,4.7,2.52V5.88l2.13-1.3V21.49h-2.13Zm-8.94-4.13a4.47,4.47,0,1,0,8.94,0,4.47,4.47,0,1,0-8.94,0"/><path class="cls-4" d="M133,19.3a5.62,5.62,0,0,1-4.71,2.42,6.27,6.27,0,0,1-6.41-6.57,6.34,6.34,0,0,1,6.41-6.71A5.61,5.61,0,0,1,133,10.91V8.68h2.13V21.49H133ZM124,15.12a4.47,4.47,0,1,0,8.94,0,4.47,4.47,0,1,0-8.94,0"/><path class="cls-4" d="M140.46,21.49h-2.1V8.68h2.1v2.73a5.17,5.17,0,0,1,4.68-3v2.42c-2.54-.36-4.68,1.35-4.68,4.52Z"/><path class="cls-4" d="M73.2,11.41a1.64,1.64,0,0,0,1.77,0,1.62,1.62,0,0,0,0-2.74l0,0a1.63,1.63,0,0,0-1.75,0L71.08,10Z"/><path class="cls-4" d="M63.82,53l-3-1.22c-1-.39-1.38-.86-1.38-1.64,0-1,1-1.66,2.32-1.66a6.06,6.06,0,0,1,3.87,1.63V47.93a6.51,6.51,0,0,0-3.9-1.17c-2.6,0-4.39,1.41-4.39,3.64,0,1.67.85,2.55,2.41,3.23l3,1.22c1,.39,1.32.94,1.32,1.64,0,1.17-1.09,1.82-2.6,1.82a6.33,6.33,0,0,1-4.37-1.84v2.28a7.26,7.26,0,0,0,4.35,1.3c2.78,0,4.76-1.5,4.76-3.95,0-1.38-.76-2.37-2.4-3.07"/><path class="cls-4" d="M69.88,53.4a4.44,4.44,0,0,1,4.65-4.63,5.32,5.32,0,0,1,4,1.66V48.06a6.82,6.82,0,0,0-4.11-1.3,6.65,6.65,0,1,0-.05,13.29,7.44,7.44,0,0,0,4.29-1.22V56.67a6.14,6.14,0,0,1-4.08,1.38,4.48,4.48,0,0,1-4.68-4.65"/><polygon class="cls-4" points="115.13 56.18 113.26 56.18 113.26 60.08 123.74 60.08 123.74 58.5 115.13 58.5 115.13 56.18"/><rect class="cls-4" x="111.93" y="53.78" width="12.74" height="1.57"/><polygon class="cls-4" points="137.4 46.77 137.4 49.99 135.9 49.99 135.9 46.77 134.24 46.77 134.24 54.56 135.9 54.56 135.9 51.46 137.4 51.46 137.4 54.89 139.01 54.89 139.01 46.77 137.4 46.77"/><polygon class="cls-4" points="133.25 47.48 130.83 47.48 130.83 46.29 128.99 46.29 128.99 47.48 126.57 47.48 126.57 48.81 133.25 48.81 133.25 47.48"/><path class="cls-4" d="M98.8,52.53a4.59,4.59,0,0,0,5.59,0,3.18,3.18,0,0,0,0-5,4.6,4.6,0,0,0-5.6,0,3.17,3.17,0,0,0,0,5M100,48.61a2.51,2.51,0,0,1,1.62-.58,2.55,2.55,0,0,1,1.63.57,1.74,1.74,0,0,1,.7,1.38,1.79,1.79,0,0,1-.71,1.41,2.49,2.49,0,0,1-3.24,0A1.79,1.79,0,0,1,99.26,50a1.72,1.72,0,0,1,.71-1.37"/><path class="cls-4" d="M114.52,52a8.76,8.76,0,0,0,7.57,0,2.49,2.49,0,0,0,0-4.5,7.16,7.16,0,0,0-3.79-.87,7,7,0,0,0-3.78.89,2.5,2.5,0,0,0,0,4.5m1.35-3.43a5.63,5.63,0,0,1,2.43-.48,5.38,5.38,0,0,1,2.44.49c.63.32,1,.71,1,1.15s-.3.8-.9,1.13a5.29,5.29,0,0,1-2.49.5,5.23,5.23,0,0,1-2.5-.51c-.61-.33-.91-.71-.91-1.13s.33-.83,1-1.15"/><path class="cls-4" d="M130,54.76a3.67,3.67,0,0,0,2.4-.76,2.44,2.44,0,0,0,.94-2,2.35,2.35,0,0,0-.93-2,4.31,4.31,0,0,0-4.77,0,2.33,2.33,0,0,0-.94,1.93,2.46,2.46,0,0,0,.95,2,3.59,3.59,0,0,0,2.35.77m-1.31-3.67a2.28,2.28,0,0,1,1.32-.38,2.23,2.23,0,0,1,1.35.38,1.09,1.09,0,0,1,.49.93,1.19,1.19,0,0,1-.48,1,2.06,2.06,0,0,1-1.36.41,2.12,2.12,0,0,1-1.32-.41,1.14,1.14,0,0,1-.53-1,1.08,1.08,0,0,1,.53-.93"/><path class="cls-4" d="M137.3,55.87a9.86,9.86,0,0,0-4.17-.7,10.5,10.5,0,0,0-4.19.67c-1,.46-1.49,1.07-1.49,1.81s.5,1.37,1.47,1.86a9.66,9.66,0,0,0,4.18.72,9.79,9.79,0,0,0,4.18-.7c1-.47,1.46-1.08,1.46-1.82s-.48-1.36-1.44-1.84m-1.62,2.68a7.77,7.77,0,0,1-2.56.35,8.2,8.2,0,0,1-2.65-.35c-.63-.22-.94-.52-.94-.89s.31-.67.94-.87a9.27,9.27,0,0,1,2.63-.31,8.91,8.91,0,0,1,2.59.31c.61.2.92.5.92.89s-.32.65-.93.87"/><polygon class="cls-4" points="107.39 47.85 107.39 53.21 109.23 53.21 109.23 46.77 109.21 46.77 107.39 47.85"/><polygon class="cls-4" points="98.38 55.69 107.63 55.69 107.63 56.62 98.38 56.62 98.38 60.08 109.21 60.08 109.21 58.77 99.94 58.77 99.94 57.84 109.21 57.84 109.21 54.28 98.38 54.28 98.38 55.69"/><path class="cls-4" d="M86.36,52.24V48.78h2.15V47.14H82.38v1.64H84.5v3.46a11.24,11.24,0,0,1-2.9,6.9l0,0,1.32,1.06,0,0a11.49,11.49,0,0,0,2.54-4.61h0A11.49,11.49,0,0,0,88,60.2l0,0,1.32-1.06,0,0a11.16,11.16,0,0,1-3-6.9"/><polygon class="cls-4" points="93.25 60.08 95 60.08 95 47.82 93.25 46.78 93.25 60.08"/><polygon class="cls-4" points="90.14 51.66 88.24 51.66 88.24 53.42 90.14 53.42 90.15 60.08 91.91 60.08 91.91 47.83 90.15 46.79 90.14 51.66"/><path class="cls-1" d="M33.82,13.16a5.8,5.8,0,0,0-3.36,1.07L23.21,19l7.25,4.72a5.79,5.79,0,1,0,3.36-10.51"/></g></g></svg>