<svg xmlns="http://www.w3.org/2000/svg" viewBox="0 0 108.67 19.57"><defs><style>.cls-1{fill:#004494;}</style></defs><g id="레이어_2" data-name="레이어 2"><g id="Layer_1" data-name="Layer 1"><polygon class="cls-1" points="44.01 9.97 46.33 9.97 46.33 0.01 44.01 0.01 44.01 2.27 41.31 2.27 41.31 4.27 44.01 4.27 44.01 5.8 41.31 5.8 41.31 7.8 44.01 7.8 44.01 9.97"/><polygon class="cls-1" points="57.76 6.66 55.75 6.66 55.75 8.66 57.76 8.66 57.76 18.94 60.09 18.94 60.09 0 57.76 0 57.76 6.66"/><rect class="cls-1" x="61.07" width="2.33" height="18.94"/><polygon class="cls-1" points="102.54 15.46 102.54 10.14 100.21 10.14 100.21 15.46 94.2 15.46 94.2 17.46 108.67 17.46 108.67 15.46 102.54 15.46"/><polygon class="cls-1" points="76.79 12.91 79.11 12.91 79.11 0.12 76.79 0.12 76.79 1.97 74.98 1.97 74.98 3.96 76.79 3.96 76.79 5.99 74.98 5.99 74.98 7.98 76.79 7.98 76.79 12.91"/><polygon class="cls-1" points="69.99 10.91 67.67 10.91 67.67 18.37 68.9 18.37 69.99 18.37 79.12 18.37 79.12 16.37 69.99 16.37 69.99 10.91"/><polygon class="cls-1" points="89.61 8.82 91.94 8.82 92.21 0.68 91.72 0.68 89.88 0.68 81.1 0.68 81.1 2.67 89.82 2.67 89.61 8.82"/><polygon class="cls-1" points="80.28 11.57 85.41 11.57 85.41 19.08 87.73 19.08 87.73 11.57 93.46 11.57 93.46 9.57 80.28 9.57 80.28 11.57"/><path class="cls-1" d="M41.27,1.3s0-.11,0-.5H33.36v2h5.08s-.34,3.77-5.52,5l.75,2A9.33,9.33,0,0,0,41.27,1.3Z"/><path class="cls-1" d="M53.93,6.21V2.66h2.51v-2H49.13v2h2.64V6.21s0,4.94-3.69,8l1.48,1.51a13,13,0,0,0,3.29-5,13,13,0,0,0,3.29,5l1.48-1.51C54,11.15,53.93,6.21,53.93,6.21Z"/><path class="cls-1" d="M101.24,5.27a9.71,9.71,0,0,0,5.86,4.24L108,7.64A7.28,7.28,0,0,1,102.45.3H100a7.26,7.26,0,0,1-5.59,7.34l.94,1.87A9.71,9.71,0,0,0,101.24,5.27Z"/><polygon class="cls-1" points="14.33 6.38 16.43 6.38 16.43 4.36 14.37 4.36 14.37 0.19 11.96 0.19 11.96 10.05 14.33 10.05 14.33 6.38"/><polygon class="cls-1" points="28.39 10.05 30.77 10.05 30.77 0.19 28.35 0.19 28.35 3.51 25.31 3.51 25.31 5.52 28.39 5.52 28.39 10.05"/><path class="cls-1" d="M5.12,5.43C5.84,7.72,9,9.81,9,9.81l1.25-1.72c-4.32-2.21-4-7.54-4-7.54H4s.32,5.33-4,7.54L1.24,9.81S4.41,7.72,5.12,5.43Z"/><path class="cls-1" d="M21.21,5.43c.72,2.29,3.62,4.2,3.62,4.2l1.24-1.72C22,5.88,22.34.55,22.34.55H20.1s.31,5.33-3.74,7.36L17.6,9.63S20.5,7.72,21.21,5.43Z"/><path class="cls-1" d="M40.53,9.94c-3.46,0-6.26,2.16-6.26,4.81s2.8,4.81,6.26,4.81,6.26-2.16,6.26-4.81S44,9.94,40.53,9.94Zm0,7.51c-2.17,0-3.93-1.21-3.93-2.7s1.76-2.7,3.93-2.7,3.93,1.21,3.93,2.7S42.7,17.45,40.53,17.45Z"/><path class="cls-1" d="M74.54,5a4.64,4.64,0,1,0-9.27,0,4.64,4.64,0,1,0,9.27,0ZM67.41,5a2.51,2.51,0,1,1,5,0,2.51,2.51,0,1,1-5,0Z"/><path class="cls-1" d="M3,18.92H14.37V10.85H3Zm2.32-6.1h6.73V17H5.32Z"/><path class="cls-1" d="M24.86,9.94c-3.54,0-6.4,2.15-6.4,4.81s2.86,4.82,6.4,4.82,6.4-2.16,6.4-4.82S28.39,9.94,24.86,9.94Zm0,7.5c-2.2,0-4-1.2-4-2.69s1.78-2.69,4-2.69,4,1.21,4,2.69S27.06,17.44,24.86,17.44Z"/></g></g></svg>