<?xml version="1.0" encoding="utf-8"?>
<!-- Generator: Adobe Illustrator 26.2.1, SVG Export Plug-In . SVG Version: 6.00 Build 0)  -->
<svg version="1.1" id="레이어_1" xmlns="http://www.w3.org/2000/svg" xmlns:xlink="http://www.w3.org/1999/xlink" x="0px"
	 y="0px" viewBox="0 0 120.3 34" style="enable-background:new 0 0 120.3 34;" xml:space="preserve">
<style type="text/css">
	.st0{fill:#004098;}
</style>
<g id="레이어_2_00000158022158819837436260000012850094494848060850_">
	<g id="Layer_1">
		<polygon class="st0" points="31.2,4.1 31.2,16.8 34.3,16.8 34.3,11.7 37,11.7 37,9.1 34.3,9.1 34.3,4.1 		"/>
		<path class="st0" d="M31.4,25.7v-5.3h-8.7v5.3C22.6,25.7,31.4,25.7,31.4,25.7z M19.6,28.3V17.8h14.7v10.5L19.6,28.3"/>
		<polygon class="st0" points="55.6,4.1 55.6,16.8 52.5,16.8 52.5,11.7 48.4,11.7 48.4,9.1 52.4,9.1 52.4,4.1 		"/>
		<path class="st0" d="M52.9,23c0-1.8-2.2-3.3-5.1-3.3s-5.1,1.4-5.1,3.3c0,1.8,2.2,3.3,5.1,3.3S52.9,24.8,52.9,23z M47.8,28.9
			c-4.5,0-8.1-2.6-8.1-5.9s3.7-5.9,8.1-5.9S56,19.7,56,23S52.3,28.9,47.8,28.9"/>
		<path class="st0" d="M23.8,4.5c0,0-0.4,6.9,5.2,9.8l-1.6,2.2c0,0-4.1-2.7-5.1-5.7c-0.9,2.9-5,5.7-5,5.7l-1.6-2.2
			c5.6-2.8,5.2-9.8,5.2-9.8H23.8z"/>
		<path class="st0" d="M43.2,10.8c-0.9,2.9-4.7,5.4-4.7,5.4L36.9,14c5.3-2.6,4.9-9.6,4.9-9.6h2.9c0,0-0.4,6.9,4.9,9.6l-1.6,2.2
			C47.9,16.3,44.1,13.8,43.2,10.8z"/>
		<path class="st0" d="M74.3,4.4h7.1c2.9,0,5.1,1.1,6.2,3.6c0.9,1.9,1,6.6,1,7.4c0,5-0.4,7.8-1.4,9.5c-1.2,2-3.6,3-7.6,3h-5.3V4.4z
			 M77.2,25.2h2.7c4.1,0,5.6-1.5,5.6-7v-4.8c0-4.8-1.4-6.5-4.5-6.5h-3.9C77.2,6.9,77.2,25.2,77.2,25.2z"/>
		<path class="st0" d="M61.1,21v0.7c0,3.2,1.9,4.2,3.9,4.2c2.3,0,4.1-1,4.1-3.8c0-5.2-10.4-4.6-10.4-11.6c0-4.2,2.9-6.3,6.8-6.3
			c4.2,0,6.6,2,6.4,6.8h-3c0-2.5-0.7-4.3-3.6-4.3c-1.7,0-3.6,0.9-3.6,3.5c0,5.1,10.4,4.4,10.4,11.8c0,4.9-3.4,6.5-7.1,6.5
			c-6.8,0.1-6.8-5.2-6.7-7.4h2.8V21z"/>
		<path class="st0" d="M92.9,21v0.7c0,3.2,1.9,4.2,3.9,4.2c2.3,0,4.1-1,4.1-3.8c0-5.2-10.4-4.6-10.4-11.6c0-4.2,2.9-6.3,6.7-6.3
			c4.2,0,6.6,2,6.4,6.8h-3c0-2.5-0.7-4.3-3.6-4.3c-1.7,0-3.6,0.9-3.6,3.5c0,5.1,10.4,4.4,10.4,11.8c0,4.9-3.4,6.5-7.1,6.5
			c-6.8,0.1-6.8-5.2-6.7-7.4h2.9V21z"/>
	</g>
</g>
</svg>
