<svg xmlns="http://www.w3.org/2000/svg" xmlns:xlink="http://www.w3.org/1999/xlink" viewBox="0 0 280.34 55.32"><defs><style>.cls-1{fill:none;}.cls-2{clip-path:url(#clip-path);}.cls-3{fill:url(#무제_그라디언트_3);}.cls-4{clip-path:url(#clip-path-2);}.cls-5{fill:url(#무제_그라디언트_2);}.cls-6{clip-path:url(#clip-path-3);}.cls-7{fill:url(#무제_그라디언트_6);}.cls-8{clip-path:url(#clip-path-4);}.cls-9{fill:url(#무제_그라디언트_6-2);}.cls-10{clip-path:url(#clip-path-5);}.cls-11{fill:url(#무제_그라디언트_6-3);}.cls-12{clip-path:url(#clip-path-6);}.cls-13{fill:url(#무제_그라디언트_6-4);}.cls-14{fill:#fff;}.cls-15{fill:#1d1d1b;}</style><clipPath id="clip-path" transform="translate(0)"><rect class="cls-1" width="55.32" height="55.32"/></clipPath><linearGradient id="무제_그라디언트_3" x1="732.31" y1="115.6" x2="739" y2="115.6" gradientTransform="translate(1037.49 -6398.42) rotate(90) scale(8.74)" gradientUnits="userSpaceOnUse"><stop offset="0" stop-color="#17754d"/><stop offset="0.6" stop-color="#8ac9ad"/><stop offset="1" stop-color="#009462"/></linearGradient><clipPath id="clip-path-2" transform="translate(0)"><path class="cls-1" d="M4.32,1c-1.07,0-1.78.91-1.95,2.17,0,0-1.37,7.26-1.37,22.68A209.84,209.84,0,0,0,2.37,51.35a2.16,2.16,0,0,0,2,2.17H52.2a2,2,0,0,0,1.94-2.17S53.61,39.53,53.61,28s.53-24.83.53-24.83A2.06,2.06,0,0,0,52.2,1Z"/></clipPath><linearGradient id="무제_그라디언트_2" x1="730.78" y1="101.75" x2="737.46" y2="101.75" gradientTransform="translate(1026.34 -7186.97) rotate(90) scale(9.82)" gradientUnits="userSpaceOnUse"><stop offset="0" stop-color="#009462"/><stop offset="0.3" stop-color="#8ac9ad"/><stop offset="0.55" stop-color="#009462"/><stop offset="0.84" stop-color="#17754d"/><stop offset="0.89" stop-color="#127e56"/><stop offset="0.98" stop-color="#04966d"/><stop offset="1" stop-color="#009d73"/></linearGradient><clipPath id="clip-path-3" transform="translate(0)"><path class="cls-1" d="M31.21,6.52c1.51.63,7.58,3.92,8.32,5A51.64,51.64,0,0,0,27.26,15l-.19.39A84.85,84.85,0,0,1,39,14,38,38,0,0,1,35,18.92l-.19.41c3.71-2.22,4.76-2.4,8.18-4.39,1.28,1.91,1.6,6.32,1.65,9.81,1.12-2.22,2.46-10.56,1.91-12.07a6.22,6.22,0,0,0,2.58-2.79v0a20.49,20.49,0,0,0-4.35.57,39.9,39.9,0,0,0-13.36-4.3Z"/></clipPath><linearGradient id="무제_그라디언트_6" x1="715.73" y1="-182.05" x2="722.41" y2="-182.05" gradientTransform="translate(1194.49 4594.71) rotate(-90) scale(6.35)" gradientUnits="userSpaceOnUse"><stop offset="0" stop-color="#00a77d"/><stop offset="1" stop-color="#009462"/></linearGradient><clipPath id="clip-path-4" transform="translate(0)"><path class="cls-1" d="M8.55,32.44a23.39,23.39,0,0,0,0,7,23,23,0,0,0-3,.75l-.18.38a40.2,40.2,0,0,0,4.26,2.33,15,15,0,0,0,3.23,4.59l.19-.4a8.07,8.07,0,0,1-.48-3.1,20.92,20.92,0,0,0,5.44.86l.16-.38A14.63,14.63,0,0,1,13,41.81a15.26,15.26,0,0,1,1.86-3.57l.17-.38c-1.55.23-3,.79-4.31,1.06-1.07-1.87-1.48-4.43-2-6.87Z"/></clipPath><linearGradient id="무제_그라디언트_6-2" x1="715.73" y1="-185.51" x2="722.42" y2="-185.51" gradientTransform="translate(1190.57 4596.45) rotate(-90) scale(6.35)" xlink:href="#무제_그라디언트_6"/><clipPath id="clip-path-5" transform="translate(0)"><path class="cls-1" d="M17.81,19.76a25.79,25.79,0,0,0-3.1-.06,29.34,29.34,0,0,0-5.26.58l-.17.38c1.88.08,4.46.58,5.45,1.57A29.66,29.66,0,0,0,9,30.46s5.13-4.81,7.36-6c0,0,1.17,3.87,2,5.82l.18-.39a31.5,31.5,0,0,1,1.74-6.7,5.71,5.71,0,0,1,2-.36,29.19,29.19,0,0,1,8.39.54l.19-.39a30.65,30.65,0,0,0-9.29-2.9h.14a19.86,19.86,0,0,1,1.31-3,15.24,15.24,0,0,0-5.19,2.7"/></clipPath><linearGradient id="무제_그라디언트_6-3" x1="715.72" y1="-184.53" x2="722.41" y2="-184.53" gradientTransform="translate(1191.75 4593.26) rotate(-90) scale(6.35)" xlink:href="#무제_그라디언트_6"/><clipPath id="clip-path-6" transform="translate(0)"><path class="cls-1" d="M28.57,43.59c-.05-.77-.11-1.4-.16-2.25a38,38,0,0,1-2.63,3.27,12.26,12.26,0,0,1-3.32.27c-.43,0-.85,0-1.23,0l-.17.38a11.62,11.62,0,0,0,3.06,1.07,24.1,24.1,0,0,1-2.8,1.91l-.19.39a22.59,22.59,0,0,0,5.7-2.15,9.5,9.5,0,0,0,2.3-.13l.19-.39c-.11-.4-.45-.63-.55-1.18a42.53,42.53,0,0,0,4.06-3.69L33,40.7a34.58,34.58,0,0,1-4.44,2.89"/></clipPath><linearGradient id="무제_그라디언트_6-4" x1="715.73" y1="-183.5" x2="722.41" y2="-183.5" gradientTransform="translate(1192.84 4595.36) rotate(-90) scale(6.35)" xlink:href="#무제_그라디언트_6"/></defs><g id="레이어_2" data-name="레이어 2"><g id="Layer_1" data-name="Layer 1"><g class="cls-2"><rect class="cls-3" width="55.32" height="55.32"/></g><g class="cls-4"><rect class="cls-5" x="1" y="0.98" width="53.17" height="52.54"/></g><g class="cls-6"><rect class="cls-7" x="27.07" y="6.14" width="22.01" height="18.61"/></g><g class="cls-8"><rect class="cls-9" x="5.32" y="32.05" width="12.8" height="15.42"/></g><g class="cls-10"><rect class="cls-11" x="9.04" y="17.06" width="21.79" height="13.4"/></g><g class="cls-12"><rect class="cls-13" x="21.06" y="40.7" width="11.95" height="7.93"/></g><path class="cls-14" d="M43.13,14.55c-3.42,2-4.46,2.17-8.18,4.4a37.49,37.49,0,0,0,4.26-5.31A84.34,84.34,0,0,0,27.26,15a48.19,48.19,0,0,1,12.45-3.92c-.74-1-6.81-4.32-8.33-4.95,4.81.38,10.69,2.16,13.54,3.91a21.55,21.55,0,0,1,4.37-.56,5.74,5.74,0,0,1-2.61,2.8c.57,1.53-.79,9.86-1.9,12.07-.05-3.5-.35-7.9-1.65-9.81" transform="translate(0)"/><path class="cls-14" d="M18.13,44.46a13.55,13.55,0,0,1-4.93-3,15.39,15.39,0,0,1,1.87-3.58c-1.6.24-2.77.43-4.15.68a21.19,21.19,0,0,1-2.19-6.48,23.06,23.06,0,0,0,0,7,22.46,22.46,0,0,0-3.2,1.13,41.1,41.1,0,0,0,4.25,2.34A15,15,0,0,0,13,47.09a8.44,8.44,0,0,1-.28-3.5,20,20,0,0,0,5.42.87" transform="translate(0)"/><path class="cls-14" d="M23.24,16.73h0a10.92,10.92,0,0,0-1.51,3A25,25,0,0,1,30.84,23a28.51,28.51,0,0,0-8.4-.54,6.08,6.08,0,0,0-2,.34,35.17,35.17,0,0,0-1.91,7.1c-.8-1.94-2-5.82-2-5.82-2.23,1.19-7.36,6-7.36,6a29.15,29.15,0,0,1,5.68-8.22c-1-1-3.57-1.5-5.46-1.58a21.32,21.32,0,0,1,5.43-1,27.67,27.67,0,0,1,3.11.05,15.76,15.76,0,0,1,5.25-2.64" transform="translate(0)"/><path class="cls-14" d="M28.6,41A40.21,40.21,0,0,1,26,44.22a16.2,16.2,0,0,1-4.72.66,12.3,12.3,0,0,0,3.07,1.06,21.73,21.73,0,0,1-3,2.31A22.31,22.31,0,0,0,27,46.1,10,10,0,0,0,29.32,46a12.58,12.58,0,0,1-.38-1.55A40.55,40.55,0,0,0,33,40.7a27.34,27.34,0,0,1-4.26,2.49c-.06-.75-.11-1.39-.15-2.24" transform="translate(0)"/><path class="cls-15" d="M80.13,20.61c3.9,0,5.33.82,5.33,2.95a2.24,2.24,0,0,1-.53,1.5c-.75.9-2.2,1.36-4.06,1.25h-.09l-1.09,2.83h1.09a6.23,6.23,0,0,1,5,1.8,2.87,2.87,0,0,1,.66,1.84c0,2.21-2,3.36-5.81,3.36-.65,0-1.71,0-2.36,0-.11-3-.16-7-.16-8.18,0-1.4.09-4.52.16-7.19a11.81,11.81,0,0,1,1.87-.14M72.9,18.56c.12,2.11.25,7.44.25,9.38,0,1.79,0,7.77-.32,10.35l0,.21h9.36c4.6,0,9.46-1.43,9.46-5.52,0-2.55-1.85-4.44-5.32-5.48,2.57-.69,4.29-2.44,4.29-4.45,0-3.33-3.83-4.59-7.43-4.68H72.85Z" transform="translate(0)"/><path class="cls-15" d="M113.23,18.38h-4.56l.19,5.07c.08,2.51.17,5.09.35,7.59a14.92,14.92,0,0,0-1.95-3.2c0-.07-4.74-7.35-6.38-9.42l0,0H95.54v.19c.17,2.1.24,7.42.24,9.37,0,1.78,0,7.77-.25,10.36l0,.2h4.71v-.2c-.27-4.92-.27-9.87-.27-14.68A6.9,6.9,0,0,0,101,25.8c.06.13,8.17,11.94,8.56,12.61l0,.09h3.77v-.2c-.29-2.59-.31-8.58-.31-10.36,0-2,.13-7.27.25-9.37l.06-.19Z" transform="translate(0)"/><path class="cls-15" d="M125.57,20.81c2.63-.06,4.46.48,5.33,1.58a2.76,2.76,0,0,1,.62,1.81c0,2.91-3.28,3.55-6,3.55l-1.11-.07-.46,0c0-.67,0-1.56,0-2.56,0-1.26,0-2.77.06-4.16a12.6,12.6,0,0,1,1.59-.11m-6.9-2.25c.19,2.11.26,7.44.26,9.38,0,1.79,0,7.77-.28,10.35v.21h5.6l0-.21c-.2-1.85-.29-5.4-.31-8.1l1,0,.8,0c7.37,0,11-2,11-6.06,0-4.66-5-5.74-9.22-5.83h-8.83Z" transform="translate(0)"/><path class="cls-15" d="M154.3,20.81c2.63-.06,4.46.48,5.35,1.58a2.74,2.74,0,0,1,.6,1.81c0,2.91-3.27,3.55-6,3.55l-1.11-.07-.46,0c0-.67,0-1.57,0-2.56,0-1.28,0-2.77.06-4.16a11.83,11.83,0,0,1,1.57-.11m-6.89-2.25c.18,2.11.28,7.44.28,9.38,0,1.79,0,7.77-.31,10.35v.21H153l0-.21c-.18-1.85-.28-5.4-.28-8.1l1,0,.81,0c7.37,0,11-2,11-6.06,0-4.66-5.05-5.74-9.26-5.83h-8.8Z" transform="translate(0)"/><path class="cls-15" d="M174.33,24.3c.44,1,1.6,3.64,2.9,6.83h-.45l-2.45,0-3,0c1.06-2.55,2.1-4.86,3-6.83M173,18.38h-.07l0,.1c-1,2.86-7.76,17.52-8.82,19.77l-.09.25h4.77l0-.11c.42-1.38,1-2.94,1.6-4.6l4-.06,3.29,0,.69,0c.85,2.17,1.5,3.8,1.79,4.62l.05.09h5.53l-8.93-20.12H173Z" transform="translate(0)"/><path class="cls-15" d="M187.93,18.56c.16,2.11.24,7.44.24,9.38,0,1.79,0,7.77-.31,10.35v.21h5.64l0-.21c-.29-2.59-.32-8.56-.32-10.35,0-1.4,0-4.52.19-7,.42,0,1.07-.09,1.52-.09,2.6-.06,4.44.48,5.31,1.58a2.71,2.71,0,0,1,.6,1.81c0,2.33-2.17,3.5-4.19,3.61a5.9,5.9,0,0,1-1.18-.06l-.4-.07.22.37c2,2.92,5,8,6.23,10.36l0,.09h6l-.15-.27c-.24-.34-4.16-6.11-5.83-8.58l-.14-.15c3.08-.92,4.57-2.65,4.57-5.3,0-4.63-5-5.73-9.27-5.83h-8.77Z" transform="translate(0)"/><path class="cls-15" d="M215.47,18.38H210.1l0,.19c.14,2.1.25,7.42.25,9.37,0,1.78,0,7.76-.28,10.36l0,.2h5.56l0-.2c-.21-2.6-.27-8.58-.27-10.36,0-2,.13-7.27.27-9.37v-.19Z" transform="translate(0)"/><path class="cls-15" d="M227.94,20.61h0c3.93,0,5.36.82,5.36,2.95a2.19,2.19,0,0,1-.54,1.5c-.71.9-2.22,1.36-4.06,1.25h-.09l-1.09,2.83h1.09a6.16,6.16,0,0,1,5,1.8,2.74,2.74,0,0,1,.69,1.84c0,2.21-2,3.36-5.84,3.36-.62,0-1.67,0-2.32,0-.17-3-.17-7-.17-8.18,0-1.4.06-4.52.17-7.19a11.17,11.17,0,0,1,1.83-.14m-7.22-2.05c.16,2.11.26,7.44.26,9.38,0,1.79,0,7.77-.29,10.35l0,.21H230c4.58,0,9.46-1.43,9.46-5.52,0-2.55-1.85-4.44-5.35-5.48,2.58-.69,4.31-2.44,4.31-4.45,0-3.33-3.84-4.59-7.4-4.68H220.69Z" transform="translate(0)"/><path class="cls-15" d="M251,24.29c.45.94,1.59,3.62,2.9,6.82l-.44,0-2.46,0L248,31.11c1-2.57,2.06-4.86,2.95-6.82m2.31-5.91h-3.77l0,.09c-1.13,3-8.22,18.48-8.82,19.76l-.1.27h4.79l0-.12c.4-1.38,1-2.93,1.58-4.62l4-.06,3.3,0h.7c.86,2.16,1.51,3.81,1.79,4.62l.05.12h5.55l-8.93-20.12Z" transform="translate(0)"/><path class="cls-15" d="M263.88,23.58c0,3.53,3.54,5,6.68,6.26,2.43,1,5,2,5,3.68a1.72,1.72,0,0,1-.39,1.24c-.58.69-1.77,1-3.66.88a17.22,17.22,0,0,1-6.34-1.76l-.93-.45v4.39l.63.16.37.06a24.43,24.43,0,0,0,5.68.83c5.9,0,9.43-2.36,9.43-6.26,0-3.66-3.64-5.08-6.86-6.36-2.37-1-4.82-1.92-4.82-3.49,0-.45,0-1.77,3.06-1.77a16.18,16.18,0,0,1,5.7,1.4l1.13.47v-4.4l-1.12-.2a26,26,0,0,0-5-.61c-5.1,0-8.5,2.4-8.5,5.93" transform="translate(0)"/></g></g></svg>