<svg xmlns="http://www.w3.org/2000/svg" viewBox="0 0 102.77 66.27"><defs><style>.cls-1{fill:#002d72;}.cls-2{fill:red;}</style></defs><g id="레이어_2" data-name="레이어 2"><g id="Layer_1" data-name="Layer 1"><path class="cls-1" d="M31.33,53.43l-.18.19a13.93,13.93,0,0,1-9.94,4.63c-7.38,0-12.75-5.55-12.75-13.19s5.37-13.18,12.75-13.18a13.93,13.93,0,0,1,9.94,4.63l.18.19L36.08,31,36,30.8a18.13,18.13,0,0,0-14.51-6.94A22.07,22.07,0,0,0,6.39,29.37C2.21,33.22,0,38.65,0,45.06S2.21,56.9,6.39,60.75a22,22,0,0,0,15.06,5.52A18.13,18.13,0,0,0,36,59.33l.12-.15Z"/><polygon class="cls-1" points="40.88 24.52 40.88 65.48 49.27 65.48 49.27 62.17 49.27 24.52 40.88 24.52"/><path class="cls-1" d="M82.15,56.58A12.17,12.17,0,0,1,76,58.63C73.23,58.63,72,57.2,72,54V32.28h8.54V24.56H72V11.81l-8.23,4.41v8.34h-7.1v7.72h7.1V55.39c0,6.31,3.74,10.61,9.31,10.72a13,13,0,0,0,7.44-1.89l.08,0,2-7.89Z"/><polygon class="cls-1" points="89.1 24.52 89.1 65.48 97.49 65.48 97.49 62.17 97.49 24.52 89.1 24.52"/><path class="cls-2" d="M102.77,17.89a40.74,40.74,0,0,0-67.46,0H45a32.95,32.95,0,0,1,48.18,0Z"/></g></g></svg>