<svg xmlns="http://www.w3.org/2000/svg" xmlns:xlink="http://www.w3.org/1999/xlink" viewBox="0 0 241.64 43.14"><defs><style>.cls-1{fill:none;}.cls-2{clip-path:url(#clip-path);}.cls-3{fill:url(#radial-gradient);}.cls-4{clip-path:url(#clip-path-2);}.cls-5{fill:url(#radial-gradient-2);}.cls-6{fill:#6f7271;}</style><clipPath id="clip-path" transform="translate(0.51)"><path class="cls-1" d="M20.36.31a20.84,20.84,0,1,0,1,0l-1,0"/></clipPath><radialGradient id="radial-gradient" cx="-173.95" cy="-412.37" r="1.07" gradientTransform="matrix(18.59, 0, 0, -18.59, 3258.59, -7648.42)" gradientUnits="userSpaceOnUse"><stop offset="0" stop-color="#fff"/><stop offset="1" stop-color="#d2a143"/></radialGradient><clipPath id="clip-path-2" transform="translate(0.51)"><path class="cls-1" d="M16.51,39.38a13.38,13.38,0,0,1-7.62-3.09,14.77,14.77,0,0,1-4.32-7c-.7-2.41-1-5.23.16-5,.35.07,1,1.62,1.62,2.75a7.32,7.32,0,0,0,1.76,2.19c.24.18,1-1.6,2.21-2.62.68-.56,1.43-.75,1.55.92.14,2.05-.23,4.5.37,4.5s1.82-.43,4.6-.66c1-.09,1.63.1.65,1.51a10.84,10.84,0,0,1-2.74,2.82c2.36,2.2,5.19,1.94,5.24,2.88,0,.54-1,.84-2.41.84a10,10,0,0,1-1.07-.06m7.94-19.85a3.4,3.4,0,0,1-2.6-2.42,6.92,6.92,0,0,1-.08-2.67,17.89,17.89,0,0,1,1.64-5.22c1-2.43-1.38-3.85-1-4.74.53-1.2,2.2.33,4.07.44,1.61.09,2.57,0,3.82.18,1.66.22,3.64.78,4.53,1.82S34.4,9,32.91,8.3c-1.09-.53-2.46-.21-1.66.93a3.68,3.68,0,0,0,2.42,1.37c2.71.71,2.78,3.31.94,4.66-2.1,1.53-4.22.89-5.06-2.11-.43-1.5-1.48-2.26-2.57-1.83s-.44,2.39.38,4.22c1.43,3.63-1.46,4-2.55,4l-.36,0M22.89,40.06c0-.48.69-.6.69-.6C29.88,38.22,28,34.08,25.8,32c-.93-.88-9.71-8.46-9.71-8.46-8.37-7.2-7.7-12.83-7.7-12.83.41-6.92,6.46-8.63,11.05-8.24.54.05.84.37.74.83s-.81.52-.81.52a7.52,7.52,0,0,0-3.76.9c-3.69,2.48-2.6,6.72,2.32,11.42l2,1.85s1,.87,3,2.74c3.79,3.5,5.86,5.38,5.86,5.38,6.68,5.56,4.4,10.64,1.85,12.41a12.75,12.75,0,0,1-6.93,2.13h-.08a.62.62,0,0,1-.66-.57M20.35,0a21.36,21.36,0,1,0,1,0l-1,0"/></clipPath><radialGradient id="radial-gradient-2" cx="-175.94" cy="-383.14" r="1.07" gradientTransform="matrix(41.55, 0, 0, -41.55, 7334.75, -15904.17)" gradientUnits="userSpaceOnUse"><stop offset="0" stop-color="#00b8ee"/><stop offset="0.22" stop-color="#0092d3"/><stop offset="0.3" stop-color="#007bc2"/><stop offset="0.38" stop-color="#0069b5"/><stop offset="0.47" stop-color="#005ead"/><stop offset="0.57" stop-color="#005bab"/><stop offset="1" stop-color="#005bab"/></radialGradient></defs><g id="레이어_2" data-name="레이어 2"><g id="Layer_1" data-name="Layer 1"><g class="cls-2"><rect class="cls-3" x="0.29" y="0.28" width="43.07" height="42.56"/></g><g class="cls-4"><rect class="cls-5" width="43.65" height="43.14"/></g><path class="cls-6" d="M58.83,16.3c2.77,3.41,6.54,5.39,10,5.18l.37,0V19.4l-.35,0c-4.75-.59-7.51-4.46-7.57-10.64v-.4H54.89c-.29,0-1,0-1,.58,0,.2.08.66.82.66a2.88,2.88,0,0,1,.84.1c.26.06.52.18.59,1,0,4.8-3,8.4-7.22,8.71l-.36,0v2.11h.38a10.83,10.83,0,0,0,9.92-5.18" transform="translate(0.51)"/><path class="cls-6" d="M60.69,33c-1.85,0-2.7-1-2.7-3V24.29H52.06c-.28,0-1,0-1,.59,0,.2.08.66.81.66a4.09,4.09,0,0,1,.85.08c.27.07.54.21.6,1.11v2c0,.68.15,6.71,5.54,6.71H76.35V33Z" transform="translate(0.51)"/><path class="cls-6" d="M70.32,8.08c-.28,0-1,0-1,.59,0,.2.08.65.81.65a3.26,3.26,0,0,1,.84.09c.26.06.51.18.59.92V25.91h4.69V8.08Z" transform="translate(0.51)"/><path class="cls-6" d="M82.27,16.47c0,3.59,4,6.5,9,6.5s9-2.91,9-6.5a5.87,5.87,0,0,0-2.91-4.77h3.87V9.28H93.87V6.63H87.94c-.28,0-1,0-1,.59,0,.2.08.66.81.66a2.92,2.92,0,0,1,.84.09c.27.06.54.19.6,1v.26H80.49l1.42,2.42h3.27a5.9,5.9,0,0,0-2.91,4.77m9,4a4.29,4.29,0,0,1-4.43-4.14,4.43,4.43,0,0,1,8.84,0,4.28,4.28,0,0,1-4.41,4.14" transform="translate(0.51)"/><path class="cls-6" d="M93.23,33c-2.43,0-2.69-1-2.69-3V24.3H84.61c-.28,0-1,0-1,.6,0,.19.08.65.81.65a3.4,3.4,0,0,1,.85.09c.27.06.54.2.59,1.07v2c0,4.39,1.92,6.71,5.55,6.71h17.54V33Z" transform="translate(0.51)"/><path class="cls-6" d="M113,15.28V12.84H109V8.08h-5.9c-.27,0-1,0-1,.59,0,.2.08.65.81.65a3.32,3.32,0,0,1,.84.09c.23.05.45.16.56.7v15.8H109V15.28Z" transform="translate(0.51)"/><polygon class="cls-6" points="179.83 24.01 181.26 26.37 193.24 26.37 193.24 35.43 198.08 35.43 198.08 26.37 209.26 26.37 209.26 24.01 179.83 24.01"/><path class="cls-6" d="M181,9.93a3.29,3.29,0,0,1,.83.09c.27.06.54.2.59,1.09v4.21c0,1,.27,6.14,5.47,6.14h19.72V19.05H189.67c-2.45,0-2.65-1.3-2.65-2.52v-.3h20.09V13.85H187V11.09h20.56V8.71H181.17c-.29,0-1,0-1,.57,0,.2.07.65.8.65" transform="translate(0.51)"/><path class="cls-6" d="M223.07,11.43h5.17V8.8h-17l1.39,2.63H218c.29,10.56-1.91,16.45-6.93,18.8l-.22.1v2.06l.45-.06c2.62-.38,6-1.74,9.36-8.89,2.05,4.43,5.75,8.9,9.54,8.9h.39v-2l-.26-.09c-5.07-1.85-8-9.3-7.26-18.79" transform="translate(0.51)"/><path class="cls-6" d="M241.14,15.49h-4V8.08h-5.9c-.28,0-1,0-1,.59,0,.2.07.66.81.66a3.32,3.32,0,0,1,.84.09c.25.06.51.17.59.91v25.1h4.68V18h4Z" transform="translate(0.51)"/><path class="cls-6" d="M162.57,17.71c6.85,0,12.22-2.35,12.22-5.36S169.42,7,162.57,7s-12.22,2.35-12.22,5.35,5.37,5.36,12.22,5.36m0-8.24c4.19,0,7.34,1.24,7.34,2.88s-3.22,2.88-7.34,2.88-7.33-1.27-7.33-2.88,3.15-2.88,7.33-2.88" transform="translate(0.51)"/><path class="cls-6" d="M147.05,18.75l1.45,2.39h6.62v3.49c-3.16,1.15-5.19,3-5.19,5.19,0,3.59,5.56,6.39,12.65,6.39s12.67-2.8,12.67-6.39c0-2.08-1.87-3.89-4.83-5.05V21.14h6.45V18.75Zm15.57,14.92c-4.47,0-7.84-1.66-7.84-3.87s3.37-3.87,7.84-3.87,7.84,1.66,7.84,3.87-3.37,3.87-7.84,3.87m0-10.24a24.68,24.68,0,0,0-3,.18V21.14H166v2.52a25,25,0,0,0-3.42-.23" transform="translate(0.51)"/><path class="cls-6" d="M117.24,23.17c-.27,0-1,0-1,.61,0,.19.08.65.82.65a3.33,3.33,0,0,1,.84.1c.26,0,.52.18.59,1v3.74c0,3.14.65,6,5.53,6h17.62V23.18Zm19.69,9.67H125.84c-2.53,0-2.69-.38-2.69-3V25.65h13.78Z" transform="translate(0.51)"/><path class="cls-6" d="M140.86,18.21l.68-5.59a4,4,0,0,0-1-3c-1.06-1-2.73-1-3.95-1H117.13l1.43,2.44H136c.59,0,.81,0,.81,1l-.69,6.13H114.57L116,20.75h28.42V18.21Z" transform="translate(0.51)"/></g></g></svg>