<svg xmlns="http://www.w3.org/2000/svg" viewBox="0 0 125.91 26.46"><defs><style>.cls-1{fill:#231815;}.cls-2{fill:#d0102c;}.cls-3{fill:#727171;}</style></defs><g id="레이어_2" data-name="레이어 2"><g id="Layer_1" data-name="Layer 1"><path class="cls-1" d="M76.09,5.54A4.06,4.06,0,0,1,78,6a.06.06,0,0,0,.06,0,.07.07,0,0,0,0,0l.39-1.28a.09.09,0,0,0,0-.09,5.41,5.41,0,0,0-2.37-.5,4.8,4.8,0,0,0-5,5,4.49,4.49,0,0,0,4.68,4.81,6.69,6.69,0,0,0,2.69-.54.07.07,0,0,0,0-.08L78.17,12s0,0,0,0a0,0,0,0,0-.06,0,4.69,4.69,0,0,1-2,.43A3.09,3.09,0,0,1,72.9,9a3.15,3.15,0,0,1,3.19-3.43"/><path class="cls-1" d="M92.35,8.14c-1.17-.45-1.69-.77-1.69-1.52,0-.59.45-1.18,1.45-1.18A3.73,3.73,0,0,1,94,6,0,0,0,0,0,94,6a.08.08,0,0,0,0,0l.4-1.2a.08.08,0,0,0,0-.09,4.44,4.44,0,0,0-2.29-.58c-1.9,0-3.27,1.17-3.27,2.79,0,1.17.85,2.08,2.51,2.68C92.61,10,93,10.4,93,11.15s-.63,1.3-1.7,1.3a4.76,4.76,0,0,1-2.19-.64h-.07s0,0,0,0l-.4,1.26a.08.08,0,0,0,0,.09,5.33,5.33,0,0,0,2.64.66c2.13,0,3.51-1.12,3.51-2.86,0-1.34-.76-2.22-2.47-2.86"/><path class="cls-1" d="M106.11,4.05a3.17,3.17,0,0,0-2.07.66,3.88,3.88,0,0,0-1,1.14,2.79,2.79,0,0,0-2.62-1.8,3.26,3.26,0,0,0-2.92,1.62c0-.25-.06-1.34-.06-1.34a.08.08,0,0,0-.08-.07H95.88a.07.07,0,0,0-.06,0,.11.11,0,0,0,0,0v.06c0,.74.08,1.5.08,2.45v6.74a.07.07,0,0,0,.08.07H97.6a.07.07,0,0,0,.07-.07V8a2.44,2.44,0,0,1,.13-.8,2.25,2.25,0,0,1,2-1.63c1.16,0,1.85.93,1.85,2.47v5.54a.08.08,0,0,0,.08.07h1.65a.07.07,0,0,0,.07-.07V7.85a2.92,2.92,0,0,1,.13-.82,2.15,2.15,0,0,1,1.93-1.46c1.6,0,1.93,1.51,1.93,2.77v5.24a.08.08,0,0,0,.08.07h1.64a.08.08,0,0,0,.08-.07V8.13c0-3-1.62-4.08-3.14-4.08"/><path class="cls-1" d="M123.44,8.14c-1.17-.45-1.69-.77-1.69-1.52,0-.59.45-1.18,1.45-1.18a3.73,3.73,0,0,1,1.85.52.06.06,0,0,0,.07,0,.1.1,0,0,0,0,0l.4-1.2a.07.07,0,0,0,0-.09,4.44,4.44,0,0,0-2.29-.58c-1.89,0-3.27,1.17-3.27,2.79,0,1.17.85,2.08,2.52,2.68,1.21.46,1.65.89,1.65,1.63s-.64,1.3-1.7,1.3a4.76,4.76,0,0,1-2.2-.64h-.07l0,0-.4,1.26a.08.08,0,0,0,0,.09,5.38,5.38,0,0,0,2.64.66c2.13,0,3.51-1.12,3.51-2.86,0-1.34-.76-2.22-2.47-2.86"/><path class="cls-1" d="M83.57,4.05c-2.74,0-4.65,2.05-4.65,5s1.85,4.83,4.5,4.83h0a4.62,4.62,0,0,0,4.66-5c0-2.88-1.82-4.81-4.53-4.81m-.09,8.4h0C81.9,12.45,80.77,11,80.77,9c0-1.74.85-3.51,2.75-3.51s2.69,1.79,2.69,3.46c0,2-1.15,3.53-2.73,3.53"/><path class="cls-1" d="M114.83,4.05c-2.74,0-4.66,2.05-4.66,5s1.85,4.83,4.51,4.83h0a4.63,4.63,0,0,0,4.67-5c0-2.88-1.82-4.81-4.53-4.81m-.1,8.4h0C113.16,12.45,112,11,112,9c0-1.74.85-3.51,2.75-3.51s2.69,1.79,2.69,3.46c0,2-1.15,3.53-2.73,3.53"/><path class="cls-1" d="M39.42,4.26H37.1V2.12a.15.15,0,0,0,0-.07H37l-1.65.52a.08.08,0,0,0-.05.07V4.26H33.94a.07.07,0,0,0-.07.07V5.61a.08.08,0,0,0,.07.08H35.3v5A3.68,3.68,0,0,0,36,13.13a2.49,2.49,0,0,0,1.87.73,4.63,4.63,0,0,0,1.52-.23.08.08,0,0,0,0-.08l-.08-1.28a.05.05,0,0,0,0,0,.06.06,0,0,0-.07,0,3.38,3.38,0,0,1-.95.11c-.83,0-1.18-.52-1.18-1.72V5.69h2.32a.08.08,0,0,0,.08-.08V4.33a.07.07,0,0,0-.08-.07"/><path class="cls-1" d="M58.83,4.05a3.46,3.46,0,0,0-3,1.61c0-.28-.09-1.33-.09-1.33a.07.07,0,0,0-.07-.07H54.15a.07.07,0,0,0-.06,0,.11.11,0,0,0,0,.06c0,.73.08,1.48.08,2.5v6.74a.07.07,0,0,0,.07.07H55.9a.08.08,0,0,0,.08-.07V8a2.39,2.39,0,0,1,.11-.76,2.34,2.34,0,0,1,2.18-1.67c1.8,0,2.07,1.68,2.07,2.68v5.33a.07.07,0,0,0,.07.07h1.68a.08.08,0,0,0,.08-.07V8.06c0-3.82-2.79-4-3.34-4"/><path class="cls-1" d="M66.82,8.14c-1.17-.45-1.69-.77-1.69-1.52,0-.59.45-1.18,1.45-1.18A3.73,3.73,0,0,1,68.43,6a.06.06,0,0,0,.07,0,.1.1,0,0,0,0,0l.4-1.2a.08.08,0,0,0,0-.09,4.44,4.44,0,0,0-2.29-.58c-1.9,0-3.27,1.17-3.27,2.79,0,1.17.85,2.08,2.52,2.68,1.21.46,1.64.89,1.64,1.63s-.63,1.3-1.69,1.3a4.76,4.76,0,0,1-2.2-.64h-.07l0,0-.4,1.26a.08.08,0,0,0,0,.09,5.35,5.35,0,0,0,2.64.66c2.13,0,3.51-1.12,3.51-2.86,0-1.34-.76-2.22-2.47-2.86"/><path class="cls-1" d="M52.79,7.9c0-1.76-.63-3.85-3.61-3.85a6.11,6.11,0,0,0-3.1.81.08.08,0,0,0,0,.09l.38,1.12a.08.08,0,0,0,0,0,.06.06,0,0,0,.07,0,4.4,4.4,0,0,1,2.38-.67,2,2,0,0,1,1.5.5A2.1,2.1,0,0,1,51,7.5v.12c-2.17,0-3.8.47-4.7,1.37a2.89,2.89,0,0,0-.85,2.14,2.69,2.69,0,0,0,2.9,2.73,3.46,3.46,0,0,0,2.82-1.32c0,.19.14,1,.14,1a.08.08,0,0,0,.08.07h1.5l.06,0a.08.08,0,0,0,0-.06,15.35,15.35,0,0,1-.13-2.21Zm-4.07,4.57a1.4,1.4,0,0,1-1.49-1.53,1.62,1.62,0,0,1,.47-1.19A4.68,4.68,0,0,1,51,8.93v1.53a1.57,1.57,0,0,1-.07.51,2.26,2.26,0,0,1-2.2,1.5"/><path class="cls-2" d="M45.19,4A1.84,1.84,0,0,0,44.72,4a2.81,2.81,0,0,0-2.47,1.63.06.06,0,0,0,0,0V7.81s0,.06.07.06.07,0,.08-.07h0a2.29,2.29,0,0,1,2.18-2.08l.55,0h0a.07.07,0,0,0,.06,0s0,0,0-.06V4.11A.07.07,0,0,0,45.19,4"/><path class="cls-1" d="M42.39,6.08V5.65s-.07-1.39-.07-1.39a.08.08,0,0,0-.08-.07H40.71l-.06,0a.07.07,0,0,0,0,.06c.07,1,.1,1.92.1,2.89v6.37a.07.07,0,0,0,.07.08h1.53s0,0,.05,0a.11.11,0,0,0,0-.06V6.08Z"/><path class="cls-2" d="M15.23,7.9S-12.23,12,6.6,19C6.6,19-3,13.31,15.23,7.9"/><path class="cls-2" d="M22.66,26.46s13-1.74,4.35-5.38c0,0,5,2.78-4.35,5.38"/><path class="cls-3" d="M20.47,1.3A11.62,11.62,0,0,1,25,3.6l.76-.18A12.27,12.27,0,0,0,20.1.57Z"/><path class="cls-3" d="M7.43,7h3.92c-.17.44-.32.91-.46,1.41l.7-.15A12.34,12.34,0,0,1,12,7H16.2L18,6.09V1.32a10.37,10.37,0,0,1,1.61,1l-.22-.91c-.23-.15-.44-.27-.63-.37l.56.07L19.11.41A11.84,11.84,0,0,0,17.64.32a12.33,12.33,0,0,0-12,9.44l.71-.23A11.87,11.87,0,0,1,7.43,7m9.89-.63h-5a11,11,0,0,1,2-2.89,10.05,10.05,0,0,1,3-2.08ZM16.6,1a10.83,10.83,0,0,0-2.67,2,11.49,11.49,0,0,0-2.31,3.35H7.81A11.68,11.68,0,0,1,16.6,1"/><polygon class="cls-2" points="22.34 4.64 22.84 2.48 21.5 4.25 19.4 0 20.5 4.6 18.34 4.1 20.11 5.45 15.86 7.54 20.47 6.44 19.96 8.6 21.31 6.83 23.4 11.08 22.3 6.47 24.46 6.98 22.69 5.63 26.94 3.54 22.34 4.64"/><path class="cls-3" d="M26.56,4.15l-.6.3a11.88,11.88,0,0,1,1.51,1.87H24.23l.82.63h2.8a11.65,11.65,0,0,1,1.47,5.37H25a15.38,15.38,0,0,0-1-5.05l-.74-.17a14.81,14.81,0,0,1,1.07,5.22H18V7.43l-.63.15v4.74H11a15.69,15.69,0,0,1,.27-2.69l-.69.28a17.87,17.87,0,0,0-.21,2.41H6.23a8.41,8.41,0,0,0-.9.86A12.33,12.33,0,0,0,17.32,25H18a12.31,12.31,0,0,0,8.61-20.8M6,13h4.4a15.74,15.74,0,0,0,1,5.38H7.43A11.66,11.66,0,0,1,6,13m1.86,6H11.6a12.14,12.14,0,0,0,2.32,3.47,10.94,10.94,0,0,0,2.22,1.8A11.7,11.7,0,0,1,7.81,19m9.51,5.21a11.21,11.21,0,0,1-5-5.21h5Zm0-5.84H12A14.74,14.74,0,0,1,11,13h6.34ZM18,13h6.44a14.65,14.65,0,0,1-.95,5.38H18Zm0,6h5.22A10.86,10.86,0,0,1,21,22.1,9.87,9.87,0,0,1,18,24.22Zm1.41,5.24a11.08,11.08,0,0,0,2.08-1.64A11.37,11.37,0,0,0,23.86,19h3.61a11.7,11.7,0,0,1-8.11,5.24m8.49-5.87H24.11A15.58,15.58,0,0,0,25,13h4.3a11.65,11.65,0,0,1-1.47,5.38"/><path class="cls-3" d="M39.31,22.94a.05.05,0,0,1-.05,0L37.07,19.5l-.66.76v2.62a.06.06,0,0,1-.06.06H35.27a.06.06,0,0,1-.06-.06V15.71a.06.06,0,0,1,.06-.06h1.08a.06.06,0,0,1,.06.06v3.36h0l0,0c.15-.23.32-.47.49-.7l.06-.09,2-2.58a.05.05,0,0,1,.05,0h1.3a.07.07,0,0,1,.06,0,.07.07,0,0,1,0,.06l-2.53,3,2.71,4.09a.06.06,0,0,1,0,.06.06.06,0,0,1-.06,0Z"/><path class="cls-3" d="M43.09,23.05a2.52,2.52,0,0,1-2.62-2.7,2.59,2.59,0,0,1,2.7-2.77,2.51,2.51,0,0,1,2.6,2.69,2.59,2.59,0,0,1-2.68,2.78m0-4.64c-1.05,0-1.42,1-1.42,1.91,0,1.12.58,1.9,1.41,1.9s1.41-.81,1.41-1.92c0-.94-.43-1.89-1.4-1.89"/><path class="cls-3" d="M46.43,22.94a.06.06,0,0,1-.06-.06V19.29c0-.63,0-1.1,0-1.54a.08.08,0,0,1,0,0l0,0h.93a.06.06,0,0,1,.06.06l0,.9h0l0,0A1.6,1.6,0,0,1,49,17.58a1.06,1.06,0,0,1,.25,0,.06.06,0,0,1,0,.06v.93a.08.08,0,0,1,0,.05h0l-.29,0c-.8,0-1.31.6-1.31,1.53v2.72a.06.06,0,0,1-.06.06Z"/><path class="cls-3" d="M52,23.05a2.5,2.5,0,0,1-2.72-2.66,2.56,2.56,0,0,1,2.58-2.81,2.24,2.24,0,0,1,2.25,2.52c0,.16,0,.29,0,.42a.06.06,0,0,1-.06.05H50.48a1.58,1.58,0,0,0,1.74,1.63A3.77,3.77,0,0,0,53.6,22h0l0,0,.17.67a.07.07,0,0,1,0,.07,4.92,4.92,0,0,1-1.77.3m1-3.27a1.5,1.5,0,0,0-.38-1.1,1.09,1.09,0,0,0-.82-.31,1.42,1.42,0,0,0-1.32,1.41Z"/><path class="cls-3" d="M56.12,23.05a1.55,1.55,0,0,1-1.68-1.54c0-1.26,1.14-2,3.2-2,0-.41,0-1.17-1.15-1.17a2.93,2.93,0,0,0-1.33.32h0a.08.08,0,0,1,0,0l-.21-.62a.06.06,0,0,1,0-.07,3.87,3.87,0,0,1,1.81-.41,1.9,1.9,0,0,1,2.15,2.13v2a6.24,6.24,0,0,0,.07,1.18.08.08,0,0,1,0,.05l0,0h-1a.06.06,0,0,1-.06-.05l-.08-.56h0l0,0a2,2,0,0,1-1.58.7m1.55-2.75c-1.37,0-2,.36-2,1.1a.79.79,0,0,0,.84.84,1.12,1.12,0,0,0,1.19-1.07Z"/></g></g></svg>