<svg xmlns="http://www.w3.org/2000/svg" viewBox="0 0 257.99 67.45"><defs><style>.cls-1{fill:#a42025;}.cls-2{fill:#fff;}</style></defs><g id="레이어_2" data-name="레이어 2"><g id="Layer_1" data-name="Layer 1"><rect class="cls-1" width="67.45" height="67.45"/><rect class="cls-2" x="6.28" y="37.01" width="55.18" height="0.48"/><path class="cls-2" d="M20.85,32.12,19.6,28.38H12.1l-1.27,3.74H6.53L14.21,11h3.23l7.71,21.11ZM15.93,17.23,13.26,24.9h5.25Z"/><path class="cls-2" d="M40.94,30.1a7.68,7.68,0,0,1-5.57,2H27.76V11h7.61a7.67,7.67,0,0,1,5.57,2c2.38,2.38,2.14,5.28,2.14,8.44S43.32,27.72,40.94,30.1ZM38.07,16A3.7,3.7,0,0,0,35,14.68H31.88V28.44H35a3.68,3.68,0,0,0,3.08-1.31c.78-.94.9-2.46.9-5.67S38.85,16.94,38.07,16Z"/><path class="cls-2" d="M51.42,14.68v5.2h8.32v3.66H51.42v8.58H47.29V11H61.2v3.67Z"/><path class="cls-2" d="M12.66,47l-.29-.87H10.69l-.3.87H9.7l1.56-4.27h.52L13.34,47Zm-1.12-3.31-.66,1.9h1.31Z"/><path class="cls-2" d="M14.86,47a1.68,1.68,0,0,1-1.28-.44l.41-.4a1.17,1.17,0,0,0,.87.32c.37,0,.67-.14.67-.42s-.12-.34-.41-.36l-.49,0c-.56-.05-.89-.31-.89-.84s.51-.93,1.14-.93a1.68,1.68,0,0,1,1.12.34l-.38.4a1.15,1.15,0,0,0-.74-.23c-.38,0-.56.17-.56.39s.1.32.42.35l.48,0c.57.06.9.33.9.86S15.58,47,14.86,47Z"/><path class="cls-2" d="M16.85,43.34v-.65h.64v.65Zm0,3.64v-3h.6v3Z"/><path class="cls-2" d="M20.07,47v-.29a.94.94,0,0,1-.8.32,1.09,1.09,0,0,1-.82-.28.94.94,0,0,1-.24-.65c0-.51.36-.87,1.05-.87h.81V45c0-.38-.2-.57-.67-.57a.7.7,0,0,0-.66.3l-.41-.38a1.24,1.24,0,0,1,1.09-.44c.83,0,1.26.36,1.26,1v2Zm0-1.35h-.72c-.36,0-.54.16-.54.44s.17.43.55.43a.74.74,0,0,0,.57-.17.62.62,0,0,0,.14-.45Z"/><path class="cls-2" d="M26.16,46.57a1.49,1.49,0,0,1-1.09.41h-1.5V42.71h1.5a1.45,1.45,0,0,1,1.09.41,2.15,2.15,0,0,1,.44,1.69A2.31,2.31,0,0,1,26.16,46.57Zm-.43-3a1,1,0,0,0-.74-.29h-.77v3.09H25a1,1,0,0,0,.74-.27,2.11,2.11,0,0,0,.22-1.3C26,44.22,26,43.82,25.73,43.58Z"/><path class="cls-2" d="M27.93,45.63a.75.75,0,0,0,.77.85.92.92,0,0,0,.74-.31l.39.36a1.42,1.42,0,0,1-1.14.48c-.76,0-1.37-.41-1.37-1.56,0-1,.51-1.55,1.29-1.55a1.29,1.29,0,0,1,1.29,1.46v.27Zm1.28-.83a.63.63,0,0,0-.6-.39.62.62,0,0,0-.6.39.83.83,0,0,0-.08.41H29.3A1,1,0,0,0,29.21,44.8Z"/><path class="cls-2" d="M31.82,47h-.5l-1.11-3h.64l.73,2.13.71-2.13h.64Z"/><path class="cls-2" d="M33.85,45.63a.75.75,0,0,0,.78.85.93.93,0,0,0,.73-.31l.38.36a1.37,1.37,0,0,1-1.12.48c-.77,0-1.37-.41-1.37-1.56,0-1,.51-1.55,1.28-1.55a1.29,1.29,0,0,1,1.29,1.46v.27Zm1.28-.83a.63.63,0,0,0-.6-.39.62.62,0,0,0-.6.39,1,1,0,0,0-.08.41h1.36A.83.83,0,0,0,35.13,44.8Z"/><path class="cls-2" d="M37.44,47a.78.78,0,0,1-.83-.85V42.71h.61V46.1c0,.23.08.35.33.35h.27V47Z"/><path class="cls-2" d="M40.4,46.65a1.25,1.25,0,0,1-.91.36,1.24,1.24,0,0,1-.91-.36,2.16,2.16,0,0,1,0-2.39,1.24,1.24,0,0,1,.91-.36,1.25,1.25,0,0,1,.91.36,2.22,2.22,0,0,1,0,2.39Zm-.47-2a.61.61,0,0,0-.44-.18.65.65,0,0,0-.45.18,1.82,1.82,0,0,0,0,1.66.61.61,0,0,0,.45.18.57.57,0,0,0,.44-.18,1.68,1.68,0,0,0,0-1.66Z"/><path class="cls-2" d="M43.72,46.74A1,1,0,0,1,43,47a.92.92,0,0,1-.8-.36V48.2h-.61V43.94h.6v.32a1,1,0,0,1,.8-.36,1,1,0,0,1,.74.27,1.79,1.79,0,0,1,.34,1.28A1.82,1.82,0,0,1,43.72,46.74Zm-.89-2.3c-.56,0-.64.47-.64,1s.08,1,.64,1,.62-.47.62-1S43.37,44.44,42.83,44.44Z"/><path class="cls-2" d="M48.58,47V45.12a.59.59,0,0,0-.61-.68.6.6,0,0,0-.63.65V47h-.6V45.12a.62.62,0,1,0-1.23,0V47h-.62v-3h.59v.3a1.13,1.13,0,0,1,.81-.34,1,1,0,0,1,.86.44,1.17,1.17,0,0,1,1-.44,1,1,0,0,1,.76.28,1.14,1.14,0,0,1,.33.85V47Z"/><path class="cls-2" d="M50.59,45.63c0,.52.27.85.76.85a.92.92,0,0,0,.74-.31l.39.36a1.4,1.4,0,0,1-1.14.48C50.59,47,50,46.6,50,45.45c0-1,.51-1.55,1.29-1.55a1.29,1.29,0,0,1,1.28,1.46v.27Zm1.27-.83a.62.62,0,0,0-.59-.39.64.64,0,0,0-.61.39.84.84,0,0,0-.07.41H52A1,1,0,0,0,51.86,44.8Z"/><path class="cls-2" d="M55.2,47V45.12c0-.47-.26-.68-.6-.68a.61.61,0,0,0-.63.68V47h-.61v-3H54v.3a1.11,1.11,0,0,1,.81-.34,1,1,0,0,1,.74.28,1.09,1.09,0,0,1,.31.85V47Z"/><path class="cls-2" d="M57.66,47a.8.8,0,0,1-.83-.86V44.46h-.35V44h.35v-.92h.61V44H58v.47h-.58V46.1a.31.31,0,0,0,.33.35H58V47Z"/><path class="cls-2" d="M20.18,50.47v1.3H22v.58H20.18v1.8h-.65V49.89h2.72v.58Z"/><path class="cls-2" d="M24.79,53.83a1.29,1.29,0,0,1-.91.36,1.25,1.25,0,0,1-.9-.36,1.6,1.6,0,0,1-.36-1.2A1.58,1.58,0,0,1,23,51.44a1.17,1.17,0,0,1,.9-.36,1.21,1.21,0,0,1,.91.36,1.58,1.58,0,0,1,.36,1.19A1.6,1.6,0,0,1,24.79,53.83Zm-.47-2a.55.55,0,0,0-.44-.17.57.57,0,0,0-.44.17,1.75,1.75,0,0,0,0,1.66.61.61,0,0,0,.44.18.59.59,0,0,0,.44-.18,1.68,1.68,0,0,0,0-1.66Z"/><path class="cls-2" d="M27.81,54.15v-.31a1.1,1.1,0,0,1-.82.35,1.07,1.07,0,0,1-.74-.28,1.12,1.12,0,0,1-.3-.86V51.12h.61V53c0,.47.26.67.6.67a.6.6,0,0,0,.63-.67V51.12h.61v3Z"/><path class="cls-2" d="M31.22,54.15V52.3a.59.59,0,0,0-.61-.67.6.6,0,0,0-.63.67v1.85h-.6v-3H30v.3a1.07,1.07,0,0,1,.81-.34,1,1,0,0,1,.74.28,1.07,1.07,0,0,1,.31.85v1.94Z"/><path class="cls-2" d="M34.51,54.15v-.32a1,1,0,0,1-.8.36,1,1,0,0,1-.74-.28,1.78,1.78,0,0,1-.35-1.28A1.82,1.82,0,0,1,33,51.34a1,1,0,0,1,.73-.26,1,1,0,0,1,.8.34V49.89h.61v4.26Zm-.64-2.52c-.55,0-.63.47-.63,1s.08,1,.63,1,.63-.47.63-1S34.43,51.63,33.87,51.63Z"/><path class="cls-2" d="M37.71,54.15v-.27a1,1,0,0,1-.81.31,1.06,1.06,0,0,1-.81-.28.92.92,0,0,1-.24-.65c0-.51.35-.88,1-.88h.81v-.21c0-.38-.19-.56-.66-.56a.7.7,0,0,0-.67.28l-.4-.37a1.24,1.24,0,0,1,1.09-.44c.83,0,1.25.36,1.25,1v2Zm0-1.34H37c-.36,0-.54.16-.54.43s.17.43.55.43a.69.69,0,0,0,.56-.17.6.6,0,0,0,.14-.45Z"/><path class="cls-2" d="M40.15,54.15a.79.79,0,0,1-.83-.85V51.64H39v-.47h.35v-.92h.61v.92h.58v.47h-.58v1.64a.31.31,0,0,0,.33.35h.25v.52Z"/><path class="cls-2" d="M41.27,50.52v-.65h.65v.65Zm0,3.63v-3h.61v3Z"/><path class="cls-2" d="M44.9,53.83a1.29,1.29,0,0,1-.91.36,1.25,1.25,0,0,1-.9-.36,1.6,1.6,0,0,1-.36-1.2,1.58,1.58,0,0,1,.36-1.19,1.17,1.17,0,0,1,.9-.36,1.21,1.21,0,0,1,.91.36,1.58,1.58,0,0,1,.36,1.19A1.6,1.6,0,0,1,44.9,53.83Zm-.46-2a.59.59,0,0,0-.45-.17.6.6,0,0,0-.44.17,1.75,1.75,0,0,0,0,1.66.65.65,0,0,0,.44.18.63.63,0,0,0,.45-.18,1.82,1.82,0,0,0,0-1.66Z"/><path class="cls-2" d="M47.93,54.15V52.3a.59.59,0,0,0-.61-.67.59.59,0,0,0-.62.67v1.85h-.62v-3h.6v.3a1.1,1.1,0,0,1,.81-.34,1,1,0,0,1,.75.28,1.11,1.11,0,0,1,.31.85v1.94Z"/><path class="cls-1" d="M80.62,29.53a6.73,6.73,0,0,1,1.89-4.72,6.6,6.6,0,0,1,2.08-1.45,6.4,6.4,0,0,1,5.1,0,6.56,6.56,0,0,1,2.07,1.45,6.91,6.91,0,0,1,1.42,2.13,6.67,6.67,0,0,1,0,5.21,6.84,6.84,0,0,1-1.42,2.14,6.45,6.45,0,0,1-9.25,0,6.76,6.76,0,0,1-1.39-2.14A6.87,6.87,0,0,1,80.62,29.53Zm10.25,0a4.32,4.32,0,0,0-1.07-3,3.39,3.39,0,0,0-2.65-1.23,3.35,3.35,0,0,0-2.66,1.23,4.66,4.66,0,0,0,0,5.92,3.36,3.36,0,0,0,2.66,1.21A3.4,3.4,0,0,0,89.8,32.5,4.3,4.3,0,0,0,90.87,29.53Zm9.43-.4h3v2.32h-3V43.66H98V21.8h2.26Z"/><path class="cls-1" d="M121.15,36l-1.63,1.78a11.75,11.75,0,0,1-1.62-1.11q-.84-.67-1.62-1.44a17.78,17.78,0,0,1-1.42-1.61,9.16,9.16,0,0,1-1-1.63,11.73,11.73,0,0,1-1.06,1.65,18.53,18.53,0,0,1-1.4,1.59c-.56.55-1.15,1.09-1.78,1.61A16.32,16.32,0,0,1,108,38l-1.75-1.72a20.17,20.17,0,0,0,3-2.59,12.34,12.34,0,0,0,1.94-2.68,10.94,10.94,0,0,0,.91-2.71,16.77,16.77,0,0,0,.29-3.25V22.86h2.89V25a17.63,17.63,0,0,0,.32,3.46,9.79,9.79,0,0,0,1,2.87,9.61,9.61,0,0,0,1.8,2.4A19.41,19.41,0,0,0,121.15,36Zm2.41,7.71V21.77h2.78V43.66Z"/><path class="cls-1" d="M132.18,29.53a6.83,6.83,0,0,1,.5-2.59,6.65,6.65,0,0,1,1.39-2.13,6.49,6.49,0,0,1,2.08-1.45,6.4,6.4,0,0,1,5.1,0,6.56,6.56,0,0,1,2.07,1.45,7.09,7.09,0,0,1,1.42,2.13,6.67,6.67,0,0,1,0,5.21,7,7,0,0,1-1.42,2.14,6.33,6.33,0,0,1-4.61,1.94,6.43,6.43,0,0,1-2.56-.51,6.28,6.28,0,0,1-2.08-1.43,6.59,6.59,0,0,1-1.39-2.14A6.87,6.87,0,0,1,132.18,29.53Zm10.25,0a4.32,4.32,0,0,0-1.07-3,3.48,3.48,0,0,0-5.31,0,4.66,4.66,0,0,0,0,5.92,3.52,3.52,0,0,0,5.31,0A4.3,4.3,0,0,0,142.43,29.53Zm8.83-.4h3.63v2.32h-3.63V43.66h-2.72V21.8h2.72Z"/><path class="cls-1" d="M158.39,22.6h2.75v3.61h5.59V22.6h2.75V34H158.39Zm2.75,5.87v3.24h5.59V28.47Zm2.26,12.15H174V38.53H163.4V36.35H177v6.36H166.41V45h11.11v2.27H163.4ZM177,27h3.61v2.41H177V35h-2.75V21.77H177Z"/><path class="cls-1" d="M188.9,25.21h-4.59V22.89h12.12v2.32h-4.58V26.7a7.21,7.21,0,0,0,.45,2.58,7.28,7.28,0,0,0,1.27,2.11,10.1,10.1,0,0,0,1.77,1.68,14.06,14.06,0,0,0,2.18,1.36l-1.46,2a11.37,11.37,0,0,1-1.58-.87A13.26,13.26,0,0,1,193,34.32a14.27,14.27,0,0,1-1.41-1.39,8.77,8.77,0,0,1-1.08-1.51,8.63,8.63,0,0,1-.84,1.42,17.14,17.14,0,0,1-1.16,1.42,16.93,16.93,0,0,1-1.71,1.58A12.77,12.77,0,0,1,185,37l-1.8-1.86a13.84,13.84,0,0,0,2.17-1.53,11.89,11.89,0,0,0,1.87-2,10.11,10.11,0,0,0,1.2-2.25,7.43,7.43,0,0,0,.46-2.59Zm.83,14.12h2.77v5.5h11.75v2.38H189.73ZM200.9,27.64v-5.9h2.75V40.45H200.9V30h-5.24V27.64Z"/><path class="cls-1" d="M213.5,25.64h-3.61V23.2h9.83v2.44h-3.5v1.14a16.79,16.79,0,0,0,.23,2.85,8.69,8.69,0,0,0,.78,2.42,10,10,0,0,0,1.37,2.17,17.84,17.84,0,0,0,2.18,2.16L219.37,38a7.09,7.09,0,0,1-1.31-1,15.18,15.18,0,0,1-1.26-1.38,11.35,11.35,0,0,1-1.09-1.44A7.61,7.61,0,0,1,215,32.8a7.56,7.56,0,0,1-.73,1.4,14.22,14.22,0,0,1-1.07,1.49,17.26,17.26,0,0,1-1.36,1.49,13.64,13.64,0,0,1-1.42,1.23l-1.69-1.63a15.12,15.12,0,0,0,2.4-2.41,11.25,11.25,0,0,0,1.52-2.49,11.19,11.19,0,0,0,.68-2.35,16,16,0,0,0,.21-2.69Zm13.81,3.09V21.8H230V43.85h-2.69V31.37h-2.92V43.2h-2.58v-21h2.58v6.53Z"/><path class="cls-1" d="M249.68,32.8V35a18.18,18.18,0,0,1-2,.31q-1.2.12-2.52.21c-.86.06-1.7.1-2.52.13s-1.49,0-2,0l-4.66,0V22.89H246.7v2.4h-7.93v8.14l2.34,0c.58,0,1.23,0,1.95,0l2.21-.1,2.28-.19Q248.68,33,249.68,32.8Zm-9.17,6.53h2.78v5.5h11.46v2.38H240.51ZM254.35,28.9H258v2.41h-3.64v9.14H251.6V21.74h2.75Z"/></g></g></svg>