<svg xmlns="http://www.w3.org/2000/svg" xmlns:xlink="http://www.w3.org/1999/xlink" viewBox="0 0 416.51 67.33"><defs><style>.cls-1{fill:#046eb7;}.cls-2{fill:url(#radial-gradient);}.cls-3{fill:url(#radial-gradient-2);}</style><radialGradient id="radial-gradient" cx="44.43" cy="28.31" r="23.06" gradientUnits="userSpaceOnUse"><stop offset="0" stop-color="#8dc220"/><stop offset="0.17" stop-color="#87bf21"/><stop offset="0.41" stop-color="#75b825"/><stop offset="0.68" stop-color="#57ab2c"/><stop offset="0.98" stop-color="#2f9934"/><stop offset="1" stop-color="#2c9835"/></radialGradient><radialGradient id="radial-gradient-2" cx="41.09" cy="40.76" r="44.38" gradientUnits="userSpaceOnUse"><stop offset="0" stop-color="#1eade5"/><stop offset="0.23" stop-color="#1ca7e1"/><stop offset="0.52" stop-color="#1597d5"/><stop offset="0.86" stop-color="#0a7cc1"/><stop offset="1" stop-color="#046eb7"/></radialGradient></defs><g id="레이어_2" data-name="레이어 2"><g id="Layer_1" data-name="Layer 1"><path class="cls-1" d="M205,38.88,199.32,31h0v7.88h-2.44V23.25h2.44v7.17h0l5.55-7.17h2.78l-5.81,7.45,5.92,8.18Z"/><path class="cls-1" d="M213.72,39.12c-3.3,0-5.12-2.61-5.12-6.07s1.82-6,5.12-6,5.12,2.6,5.12,6S217,39.12,213.72,39.12Zm0-10.24c-1.83,0-2.74,1.65-2.74,4.15s.91,4.17,2.74,4.17,2.75-1.66,2.75-4.17S215.56,28.88,213.72,28.88Z"/><path class="cls-1" d="M226.75,29.06a4.88,4.88,0,0,0-1.19-.13,5,5,0,0,0-1.84.3v9.65h-2.35V27.83a12.1,12.1,0,0,1,4.51-.83,8,8,0,0,1,1.32.09Z"/><path class="cls-1" d="M238.45,33l-7.73,1.08a3.29,3.29,0,0,0,3.57,3.15,7.31,7.31,0,0,0,3.21-.71l.7,1.77a9.47,9.47,0,0,1-4.06.82c-3.68,0-5.73-2.35-5.73-6.07,0-3.56,2-6,5.25-6,3,0,4.82,2,4.82,5.12C238.48,32.4,238.48,32.71,238.45,33Zm-4.83-4.28c-1.82,0-3,1.38-3.05,3.8l5.64-.77C236.19,29.73,235.17,28.73,233.62,28.73Z"/><path class="cls-1" d="M245.32,39.12c-3.34,0-5-1.36-5-3.65,0-3.24,3.46-3.82,7-4v-.73c0-1.47-1-2-2.46-2a8.44,8.44,0,0,0-3.22.72L241,27.83A10.89,10.89,0,0,1,245,27c2.79,0,4.47,1.08,4.47,4V38.3A10.13,10.13,0,0,1,245.32,39.12Zm2-6.09c-2.38.13-4.75.33-4.75,2.4,0,1.23.95,2,2.74,2a5.75,5.75,0,0,0,2-.31Z"/><path class="cls-1" d="M266.47,38.88v-7h-5.74v7h-2.45V23.25h2.45V29.9h5.74V23.25h2.44V38.88Z"/><path class="cls-1" d="M276.69,39.12c-3.31,0-5.12-2.61-5.12-6.07s1.81-6,5.12-6,5.12,2.6,5.12,6S280,39.12,276.69,39.12Zm0-10.24c-1.84,0-2.74,1.65-2.74,4.15s.9,4.17,2.74,4.17,2.74-1.66,2.74-4.17S278.52,28.88,276.69,28.88Z"/><path class="cls-1" d="M289,39.12c-3.06,0-4.71-1.27-4.71-4.19V27.24h2.36V35c0,1.49.8,2.21,2.35,2.21a5.58,5.58,0,0,0,2.08-.33V27.24h2.35V38.3A10.85,10.85,0,0,1,289,39.12Z"/><path class="cls-1" d="M299.39,39.12a8.39,8.39,0,0,1-3.63-.82l.8-1.81a6.59,6.59,0,0,0,2.76.75c1.28,0,2.12-.62,2.12-1.6s-.88-1.46-2.07-1.9c-1.56-.58-3.31-1.29-3.31-3.47,0-1.93,1.49-3.27,4.09-3.27a6.77,6.77,0,0,1,3.39.83l-.74,1.64a5.14,5.14,0,0,0-2.4-.69c-1.23,0-1.92.64-1.92,1.49,0,1.05.87,1.42,2,1.85,1.62.61,3.41,1.28,3.41,3.55C303.9,37.76,302.31,39.12,299.39,39.12Z"/><path class="cls-1" d="M307.64,25.13a1.34,1.34,0,1,1,1.41-1.34A1.37,1.37,0,0,1,307.64,25.13Zm-1.19,13.75V27.24h2.38V38.88Z"/><path class="cls-1" d="M318.79,38.88V31.11c0-1.36-.82-2.2-2.44-2.2a6.2,6.2,0,0,0-2.14.34v9.63h-2.36V27.83a11.72,11.72,0,0,1,4.47-.83c3.27,0,4.84,1.43,4.84,3.89v8Z"/><path class="cls-1" d="M328.4,43.74a9.78,9.78,0,0,1-4.15-.88l.69-1.86a7.28,7.28,0,0,0,3.24.73c1.93,0,2.85-1,2.85-2.89V38a6.07,6.07,0,0,1-2.35.47c-2.94,0-5-2-5-5.55,0-4,2.36-5.9,5.79-5.9a8.91,8.91,0,0,1,3.89.83v11C333.37,42,331.47,43.74,328.4,43.74ZM331,29.14a4.84,4.84,0,0,0-1.72-.3c-1.84,0-3.24,1.17-3.24,4,0,2.54,1.23,3.82,3.06,3.82a4.68,4.68,0,0,0,1.9-.41Z"/><path class="cls-1" d="M350.11,37.5a4.32,4.32,0,0,1-3.61,1.6c-3.39,0-4.95-2.07-4.95-4.38a4.74,4.74,0,0,1,2.81-4.35,5,5,0,0,1-1.6-3.34c0-1.41,1.11-3.44,4.13-3.44,2.79,0,3.82,1.77,3.82,3.29,0,2-1.75,3.26-2.78,4l2.37,3.09a6.53,6.53,0,0,0,.82-3.44h2.42a8.84,8.84,0,0,1-1.79,5.36l2.37,3h-2.93ZM345.81,32a3,3,0,0,0-1.58,2.66,2.44,2.44,0,0,0,2.38,2.46,2.86,2.86,0,0,0,2.24-1.15Zm.95-6.67a1.59,1.59,0,0,0-1.66,1.64,4,4,0,0,0,1.38,2.53c.84-.57,1.9-1.41,1.9-2.66A1.47,1.47,0,0,0,346.76,25.28Z"/><path class="cls-1" d="M367.09,39.1c-2.94,0-5.21-1.75-5.21-4.77V23.25h2.44v11.1a2.77,2.77,0,0,0,5.53,0V23.25h2.44V34.33C372.29,37.35,370,39.1,367.09,39.1Z"/><path class="cls-1" d="M380.76,29.06a4.88,4.88,0,0,0-1.19-.13,4.94,4.94,0,0,0-1.83.3v9.65h-2.36V27.83A12.12,12.12,0,0,1,379.9,27a8,8,0,0,1,1.31.09Z"/><path class="cls-1" d="M387.2,39.12a9.39,9.39,0,0,1-3.91-.82V21.93h2.35v5.61a6.14,6.14,0,0,1,2.27-.47c3,0,5,2.16,5,5.72C392.94,37.18,390.67,39.12,387.2,39.12Zm.3-10.21a4.6,4.6,0,0,0-1.86.38v7.65a4.79,4.79,0,0,0,1.69.3c1.87,0,3.26-1.29,3.26-4.27C390.59,30.42,389.38,28.91,387.5,28.91Z"/><path class="cls-1" d="M400,39.12c-3.34,0-5-1.36-5-3.65,0-3.24,3.46-3.82,7-4v-.73c0-1.47-1-2-2.47-2a8.38,8.38,0,0,0-3.21.72l-.61-1.62a10.89,10.89,0,0,1,4.06-.83c2.79,0,4.47,1.08,4.47,4V38.3A10.17,10.17,0,0,1,400,39.12Zm2-6.09c-2.38.13-4.75.33-4.75,2.4,0,1.23.94,2,2.74,2a5.8,5.8,0,0,0,2-.31Z"/><path class="cls-1" d="M414.05,38.88V31.11c0-1.36-.83-2.2-2.45-2.2a6.18,6.18,0,0,0-2.13.34v9.63h-2.36V27.83a11.72,11.72,0,0,1,4.47-.83c3.26,0,4.84,1.43,4.84,3.89v8Z"/><path class="cls-1" d="M203.35,62.92c-4.12,0-7-3-7-8.05s3-8.06,7.2-8.06a8.21,8.21,0,0,1,3.84.82l-.8,1.92a6.1,6.1,0,0,0-3-.67c-2.63,0-4.83,1.88-4.83,6s2.13,6,4.42,6a5.36,5.36,0,0,0,2.08-.32v-5H202.4V53.66h5.17V62.1A9.39,9.39,0,0,1,203.35,62.92Z"/><path class="cls-1" d="M215.47,62.92c-3.07,0-4.71-1.27-4.71-4.19V51h2.36v7.74c0,1.49.8,2.2,2.35,2.2a5.84,5.84,0,0,0,2.08-.32V51h2.35V62.1A10.85,10.85,0,0,1,215.47,62.92Z"/><path class="cls-1" d="M227.5,62.92c-3.34,0-5-1.36-5-3.65,0-3.24,3.46-3.82,7-4v-.74c0-1.47-1-2-2.46-2a8.39,8.39,0,0,0-3.22.72l-.61-1.62a10.9,10.9,0,0,1,4.06-.82c2.79,0,4.47,1.08,4.47,3.95V62.1A10,10,0,0,1,227.5,62.92Zm1.95-6.09c-2.38.13-4.75.33-4.75,2.4,0,1.23,1,2,2.74,2a5.8,5.8,0,0,0,2-.31Z"/><path class="cls-1" d="M240.2,52.86a4.74,4.74,0,0,0-1.18-.13,5.21,5.21,0,0,0-1.84.3v9.66h-2.35V51.63a12.07,12.07,0,0,1,4.51-.82,8.25,8.25,0,0,1,1.32.08Z"/><path class="cls-1" d="M247.12,62.92c-3.35,0-5-1.36-5-3.65,0-3.24,3.46-3.82,7-4v-.74c0-1.47-1-2-2.46-2a8.48,8.48,0,0,0-3.22.72l-.61-1.62a10.91,10.91,0,0,1,4.07-.82c2.78,0,4.47,1.08,4.47,3.95V62.1A10,10,0,0,1,247.12,62.92Zm1.94-6.09c-2.38.13-4.75.33-4.75,2.4,0,1.23.95,2,2.74,2a5.75,5.75,0,0,0,2-.31Z"/><path class="cls-1" d="M261.37,62.69V54.91c0-1.36-.82-2.2-2.44-2.2a6.29,6.29,0,0,0-2.14.34v9.64h-2.35V51.63a11.73,11.73,0,0,1,4.47-.82c3.26,0,4.84,1.42,4.84,3.88v8Z"/><path class="cls-1" d="M270.73,62.84c-2.05,0-3.2-1.15-3.2-3.42V52.81H266V51h1.58v-2.7l2.31-.71V51h2.36v1.77h-2.36v6.48a1.38,1.38,0,0,0,1.56,1.47,2.15,2.15,0,0,0,.8-.15v2A4,4,0,0,1,270.73,62.84Z"/><path class="cls-1" d="M284.08,56.81l-7.74,1.08A3.29,3.29,0,0,0,279.91,61a7.28,7.28,0,0,0,3.21-.71l.7,1.77a9.47,9.47,0,0,1-4.06.82c-3.68,0-5.73-2.35-5.73-6.07,0-3.56,2-6,5.25-6,3,0,4.82,2,4.82,5.11C284.1,56.21,284.1,56.51,284.08,56.81Zm-4.84-4.28c-1.82,0-3,1.39-3.05,3.81l5.64-.78C281.81,53.53,280.79,52.53,279.24,52.53Z"/><path class="cls-1" d="M296.41,56.81l-7.73,1.08A3.28,3.28,0,0,0,292.24,61a7.32,7.32,0,0,0,3.22-.71l.69,1.77a9.43,9.43,0,0,1-4.06.82c-3.67,0-5.72-2.35-5.72-6.07,0-3.56,2-6,5.24-6,3,0,4.82,2,4.82,5.11C296.43,56.21,296.43,56.51,296.41,56.81Zm-4.84-4.28c-1.81,0-3,1.39-3,3.81l5.63-.78C294.14,53.53,293.13,52.53,291.57,52.53Z"/><path class="cls-1" d="M310.82,62.92c-3.37,0-6.18-2.59-6.18-8.05s2.81-8.06,6.18-8.06a6.63,6.63,0,0,1,3.37.82l-.8,2a4.12,4.12,0,0,0-2.31-.65c-2.21,0-3.91,1.92-3.91,5.9s1.7,5.89,3.91,5.89a4.21,4.21,0,0,0,2.31-.62l.8,2A6.42,6.42,0,0,1,310.82,62.92Z"/><path class="cls-1" d="M320.86,62.92c-3.3,0-5.12-2.61-5.12-6.07s1.82-6,5.12-6,5.12,2.59,5.12,6S324.17,62.92,320.86,62.92Zm0-10.23c-1.83,0-2.74,1.64-2.74,4.14S319,61,320.86,61s2.74-1.66,2.74-4.17S322.7,52.69,320.86,52.69Z"/><path class="cls-1" d="M334.06,52.86a4.88,4.88,0,0,0-1.19-.13A5.15,5.15,0,0,0,331,53v9.66h-2.36V51.63a12.17,12.17,0,0,1,4.52-.82,8.11,8.11,0,0,1,1.31.08Z"/><path class="cls-1" d="M341,62.81a6.83,6.83,0,0,1-1.9-.28v4.8h-2.36V51.63a9.42,9.42,0,0,1,4-.82c3.63,0,5.65,2.26,5.65,6S344.54,62.81,341,62.81Zm-.22-10.15a4.45,4.45,0,0,0-1.68.31v7.75a5.32,5.32,0,0,0,1.68.26c2.14,0,3.26-1.77,3.26-4.21S342.92,52.66,340.8,52.66Z"/><path class="cls-1" d="M353.82,62.92c-3.3,0-5.11-2.61-5.11-6.07s1.81-6,5.11-6,5.12,2.59,5.12,6S357.13,62.92,353.82,62.92Zm0-10.23c-1.83,0-2.74,1.64-2.74,4.14S352,61,353.82,61s2.75-1.66,2.75-4.17S355.66,52.69,353.82,52.69Z"/><path class="cls-1" d="M367,52.86a4.76,4.76,0,0,0-1.19-.13A5.15,5.15,0,0,0,364,53v9.66h-2.36V51.63a12.17,12.17,0,0,1,4.52-.82,8.25,8.25,0,0,1,1.32.08Z"/><path class="cls-1" d="M373.93,62.92c-3.34,0-5-1.36-5-3.65,0-3.24,3.46-3.82,7-4v-.74c0-1.47-1-2-2.46-2a8.39,8.39,0,0,0-3.22.72l-.61-1.62a10.9,10.9,0,0,1,4.06-.82c2.79,0,4.47,1.08,4.47,3.95V62.1A10,10,0,0,1,373.93,62.92Zm1.95-6.09c-2.38.13-4.75.33-4.75,2.4,0,1.23.95,2,2.74,2a5.75,5.75,0,0,0,2-.31Z"/><path class="cls-1" d="M385.1,62.84c-2.05,0-3.19-1.15-3.19-3.42V52.81h-1.58V51h1.58v-2.7l2.31-.71V51h2.35v1.77h-2.35v6.48a1.37,1.37,0,0,0,1.55,1.47,2.11,2.11,0,0,0,.8-.15v2A4,4,0,0,1,385.1,62.84Z"/><path class="cls-1" d="M390.31,48.93a1.34,1.34,0,1,1,1.4-1.34A1.37,1.37,0,0,1,390.31,48.93Zm-1.19,13.76V51h2.38V62.69Z"/><path class="cls-1" d="M399.38,62.92c-3.3,0-5.12-2.61-5.12-6.07s1.82-6,5.12-6,5.12,2.59,5.12,6S402.69,62.92,399.38,62.92Zm0-10.23c-1.84,0-2.74,1.64-2.74,4.14s.9,4.17,2.74,4.17,2.74-1.66,2.74-4.17S401.22,52.69,399.38,52.69Z"/><path class="cls-1" d="M414.13,62.69V54.91c0-1.36-.82-2.2-2.44-2.2a6.29,6.29,0,0,0-2.14.34v9.64H407.2V51.63a11.73,11.73,0,0,1,4.47-.82c3.26,0,4.84,1.42,4.84,3.88v8Z"/><path class="cls-1" d="M105.52,51.32c0,6.58,7.63,11.94,17,11.94s17-5.36,17-11.94V24.76a1.57,1.57,0,0,0-1.61-1.52h-6.65V51.08c0,3.52-4,6.5-8.74,6.5s-8.75-3-8.75-6.5V24.76a1.57,1.57,0,0,0-1.61-1.52H101.84v4.17h1.63a2,2,0,0,1,2,2.1Z"/><path class="cls-1" d="M95,23.24H88.34V39.68H70.85V24.76a1.57,1.57,0,0,0-1.61-1.52H58.91v4.17h1.62a2,2,0,0,1,2,2.1V59a3.69,3.69,0,0,0,3.68,3.69h4.59V45.79H88.34V59A3.7,3.7,0,0,0,92,62.66h4.59V24.76A1.58,1.58,0,0,0,95,23.24Z"/><path class="cls-1" d="M180.3,59.75V41.67a1.55,1.55,0,0,0-1.58-1.51H164.3v5.57H170a2.53,2.53,0,0,1,2.63,2.7V56c-1.8,1.05-4.82,1.18-5.9,1.19a12.46,12.46,0,0,1-5.61-1.29c-4.08-2.1-6.57-5.22-7.29-11.47-.77-6.54,1-11.43,4.75-14.45a11.5,11.5,0,0,1,7.06-2.14,12.83,12.83,0,0,1,2,.13c3.39.43,7,1.9,7.06,7v1.27l.41.06a4.47,4.47,0,0,0,4.06-1.56,6.44,6.44,0,0,0,1.52-4.84,6.86,6.86,0,0,0-4-5.24c-2.22-1.18-5.74-1.86-9.66-1.86a28.05,28.05,0,0,0-6.82.78,20.26,20.26,0,0,0-8.25,4.3c-4.94,4.17-7,9.37-6.72,16.85a17.77,17.77,0,0,0,6.53,13.61c3.55,2.79,8.58,4.32,14.55,4.43C172,62.84,177.85,61.17,180.3,59.75Z"/><path class="cls-2" d="M34.91,3.73c7.15-.88,10.5.86,11.51,2.83.86,1.66.74,4-2.05,6.18,0,0-3.45,2.62-2.89,6.18s6.12,7.43,12.21,4.43,6.9-10.81,4.48-15.11S50.64,1.66,43.72,1.5a30.79,30.79,0,0,0-8.73,1s-.77.19-.84.64S34.43,3.76,34.91,3.73Z"/><path class="cls-3" d="M43,27.22c-.87-.87-3.64.33-3.23-3.67.35-3.43-3.27-3.94-4.88-4-.28,0-.55,0-.79,0-.83,0-2,0-2,0-6.53-.24-11.69-2.8-12.91-7s1-8.75,9.12-11.36c0,0,.88-.35.43-1-.25-.34-1-.2-1-.2C8.58,3.11-2.3,14.27.41,26.44c1.27,5.7,7.76,10.63,14.94,12.13.64.14,9.36,2.52,18.16-.16,4.21-1.27,7.31-3.21,9-5.84C43.92,30.22,43.9,28.08,43,27.22Z"/></g></g></svg>