<?xml version="1.0" encoding="utf-8"?>
<!-- Generator: Adobe Illustrator 26.2.1, SVG Export Plug-In . SVG Version: 6.00 Build 0)  -->
<svg version="1.1" id="레이어_1" xmlns="http://www.w3.org/2000/svg" xmlns:xlink="http://www.w3.org/1999/xlink" x="0px"
	 y="0px" viewBox="0 0 114 34.9" style="enable-background:new 0 0 114 34.9;" xml:space="preserve">
<style type="text/css">
	.st0{fill:#004097;}
</style>
<g id="레이어_2_00000152945500363397399950000018250586446111844270_">
	<g id="Layer_1">
		<polygon class="st0" points="35.5,9.6 32.7,9.6 32.7,4.3 29.3,4.3 29.3,17.8 32.7,17.8 32.7,12.3 35.5,12.3 		"/>
		<path class="st0" d="M17.1,29.9h15.6v-11H17.1V29.9z M20.2,21.6h9.2v5.7h-9.2V21.6z"/>
		<path class="st0" d="M20,11.6c1,3.1,5.3,6,5.3,6l1.7-2.3c-5.9-3-5.5-10.3-5.5-10.3h-3.1c0,0,0.4,7.3-5.5,10.3l1.7,2.3
			C14.7,17.6,19,14.7,20,11.6"/>
		<polygon class="st0" points="51.8,17.8 55.1,17.8 55.1,4.3 51.7,4.3 51.7,9.6 47.6,9.6 47.6,12.3 51.8,12.3 		"/>
		<path class="st0" d="M46.9,18.1c-4.8,0-8.6,2.8-8.6,6.2s3.9,6.3,8.6,6.3s8.6-2.8,8.6-6.3S51.7,18.1,46.9,18.1 M46.9,27.9
			c-3,0-5.4-1.6-5.4-3.5s2.4-3.5,5.4-3.5c2.9,0,5.4,1.5,5.4,3.5S49.8,27.9,46.9,27.9"/>
		<path class="st0" d="M42,11.4c1,3.1,4.9,5.7,4.9,5.7l1.7-2.3C43.1,12,43.5,4.7,43.5,4.7h-3.1c0,0,0.4,7.3-5.1,10.1l1.7,2.4
			C37,17.2,41,14.6,42,11.4"/>
		<path class="st0" d="M68.7,18.1c-4.8,0-8.6,2.8-8.6,6.2s3.9,6.3,8.6,6.3s8.6-2.8,8.6-6.3S73.5,18.1,68.7,18.1 M68.7,27.9
			c-3,0-5.4-1.6-5.4-3.5s2.4-3.5,5.4-3.5s5.4,1.6,5.4,3.5S71.7,27.9,68.7,27.9"/>
		<polygon class="st0" points="75.3,9.6 75.2,9.6 73.2,9.6 73.2,4.3 70.2,4.3 70.2,17.8 73.1,17.8 73.1,12.3 75.2,12.3 75.4,12.3 
			75.4,17.8 78.4,17.8 78.4,4.3 75.3,4.3 		"/>
		<path class="st0" d="M63,11.4c0.9,3.1,4.7,5.7,4.7,5.7l1.6-2.3C64,12,64.5,4.7,64.5,4.7h-2.9c0,0,0.4,7.3-4.9,10.1l1.6,2.4
			C58.2,17.2,62,14.6,63,11.4"/>
		<path class="st0" d="M92.2,16.4V5H80.7v11.4C80.7,16.4,92.2,16.4,92.2,16.4z M89.1,13.6h-5.3V7.5h5.3V13.6z"/>
		<polygon class="st0" points="95.5,17.8 98.7,17.8 98.7,4.3 95.5,4.3 95.5,6.8 92.9,6.8 92.9,9.4 95.5,9.4 95.5,11.5 92.9,11.5 
			92.9,14.1 95.5,14.1 		"/>
		<path class="st0" d="M90.5,18.1c-4.8,0-8.6,2.8-8.6,6.2s3.9,6.3,8.6,6.3s8.7-2.8,8.7-6.3S95.3,18.1,90.5,18.1 M90.5,27.9
			c-3,0-5.4-1.6-5.4-3.5s2.4-3.5,5.4-3.5s5.4,1.6,5.4,3.5S93.4,27.9,90.5,27.9"/>
	</g>
</g>
</svg>
