<svg xmlns="http://www.w3.org/2000/svg" viewBox="0 0 102.89 19.07"><defs><style>.cls-1{fill:#004997;}.cls-2{fill:#92c64c;}</style></defs><g id="레이어_2" data-name="레이어 2"><g id="Layer_1" data-name="Layer 1"><path class="cls-1" d="M24.27,8a2.22,2.22,0,0,1,2.17,2.35H22A2.27,2.27,0,0,1,24.27,8Zm4.78,7a11.62,11.62,0,0,1-1.46.4,8.84,8.84,0,0,1-1.79.19c-2,0-3.51-.66-3.76-2.22h8.4a9,9,0,0,0,.18-1.79c0-3.55-1.77-6.81-6.27-6.81s-6.71,3.43-6.71,7.28c0,4.43,3.1,7,7.43,7a12.24,12.24,0,0,0,2.57-.24,10.13,10.13,0,0,0,2.09-.65Z"/><path class="cls-1" d="M89.53,8a2.22,2.22,0,0,1,2.17,2.35H87.21A2.27,2.27,0,0,1,89.53,8Zm4.79,7a12.26,12.26,0,0,1-1.47.4,8.74,8.74,0,0,1-1.78.19c-2,0-3.52-.66-3.77-2.22h8.41a10.09,10.09,0,0,0,.17-1.79c0-3.55-1.77-6.81-6.27-6.81S82.9,8.25,82.9,12.1c0,4.43,3.1,7,7.43,7a12.16,12.16,0,0,0,2.57-.24A10.13,10.13,0,0,0,95,18.18Z"/><path class="cls-1" d="M32.68.3V18.78h4.55V.3Z"/><path class="cls-1" d="M46.39,15.69c-1.48,0-2.45-1.47-2.45-3.73,0-1.8.65-3.73,2.46-3.73s2.38,2,2.38,3.71C48.78,14.21,47.83,15.69,46.39,15.69Zm-.06,3.38a6.83,6.83,0,0,0,7.16-7.24c0-3-1.77-7-6.94-7s-7.26,3.87-7.26,7.2A6.7,6.7,0,0,0,46.33,19.07Z"/><path class="cls-1" d="M55.47,5.14V18.78H60V5.14Z"/><path class="cls-1" d="M55.47.31V3.85H60V.31Z"/><path class="cls-1" d="M63.64,1.44v3.7H61.88V8.52h1.76v5.59c0,3.07,1.4,4.95,4.61,4.95a12.39,12.39,0,0,0,1.9-.16,12.1,12.1,0,0,0,1.32-.26s0-3.56,0-3.58a9.74,9.74,0,0,1-1.55.23,1.74,1.74,0,0,1-1.3-.45,2,2,0,0,1-.48-1.5V8.52h3V5.14h-3V.93Z"/><path class="cls-1" d="M74.18,1.44v3.7H72.43V8.52h1.75v5.59c0,3.07,1.41,4.95,4.61,4.95a12.62,12.62,0,0,0,1.91-.16A11.32,11.32,0,0,0,82,18.64s0-3.56,0-3.58a9.89,9.89,0,0,1-1.56.23,1.77,1.77,0,0,1-1.3-.45,2,2,0,0,1-.47-1.5V8.52h2.94V5.14H78.65V.93Z"/><path class="cls-2" d="M97.84,16.55a2.53,2.53,0,1,1,2.52,2.52A2.52,2.52,0,0,1,97.84,16.55Z"/><path class="cls-1" d="M0,18.8H5.16c.35,0,.77,0,1.1,0,7.06-.36,10-4.54,10-9.37,0-6-4.07-9.4-11.08-9.4C3.38,0,1.78.06,0,.21Zm6.59-3.68-.65,0H4.49V3.79c.5,0,1.14-.08,1.56-.08A5.31,5.31,0,0,1,11.53,9.4C11.53,13.55,8.87,14.93,6.59,15.12Z"/></g></g></svg>