<svg xmlns="http://www.w3.org/2000/svg" xmlns:xlink="http://www.w3.org/1999/xlink" viewBox="0 0 185.99 49.15"><defs><style>.cls-1{fill:none;}.cls-2{clip-path:url(#clip-path);}.cls-3{clip-path:url(#clip-path-2);}.cls-4{fill:url(#radial-gradient);}.cls-5{clip-path:url(#clip-path-3);}.cls-6{clip-path:url(#clip-path-4);}.cls-7{fill:url(#radial-gradient-2);}.cls-8{fill:#6f7271;}</style><clipPath id="clip-path" transform="translate(0.58)"><path class="cls-1" d="M23.2.35a23.85,23.85,0,1,0,1.11,0L23.2.35"/></clipPath><clipPath id="clip-path-2" transform="translate(0.58)"><polyline class="cls-1" points="-0.25 0.32 48.83 0.32 48.83 48.83 -0.25 48.83 -0.25 0.32"/></clipPath><radialGradient id="radial-gradient" cx="300.61" cy="335.47" r="1.26" gradientTransform="translate(-5410.13 -6052.18) scale(18.09)" gradientUnits="userSpaceOnUse"><stop offset="0" stop-color="#fff"/><stop offset="1" stop-color="#d2a145"/></radialGradient><clipPath id="clip-path-3" transform="translate(0.58)"><path class="cls-1" d="M18.81,44.88a15.27,15.27,0,0,1-8.67-3.53,16.67,16.67,0,0,1-4.93-8c-.79-2.74-1.12-5.94.18-5.69.4.07,1.1,1.84,1.85,3.12a8.36,8.36,0,0,0,2,2.51c.27.2,1.19-1.83,2.53-3,.77-.65,1.61-.86,1.76,1,.16,2.34-.26,5.12.42,5.12S16,36,19.19,35.77c1.19-.1,1.87.12.73,1.72a11.88,11.88,0,0,1-3.11,3.21c2.68,2.52,5.91,2.22,6,3.29,0,.61-1.17.95-2.74.95q-.59,0-1.23-.06m9.05-22.62a3.88,3.88,0,0,1-3-2.75,8.13,8.13,0,0,1-.08-3.06,20.49,20.49,0,0,1,1.86-5.95c1.1-2.76-1.56-4.38-1.13-5.39.6-1.37,2.5.37,4.63.5,1.83.1,2.93,0,4.35.2,1.89.25,4.16.89,5.17,2.08s-.5,2.4-2.19,1.57c-1.24-.6-2.8-.23-1.88,1.06a4.12,4.12,0,0,0,2.75,1.55c3.1.82,3.16,3.79,1.06,5.32-2.37,1.74-4.8,1-5.76-2.4-.48-1.71-1.68-2.58-2.92-2.09s-.5,2.73.43,4.81c1.62,4.13-1.65,4.56-2.9,4.56h-.42M26.08,45.65c0-.54.78-.68.78-.68,7.19-1.42,5.09-6.13,2.54-8.53-1.06-1-11.06-9.64-11.06-9.64C8.8,18.58,9.56,12.18,9.56,12.18c.47-7.89,7.37-9.85,12.6-9.39.61,0,.95.42.83.93s-.92.6-.92.6a8.35,8.35,0,0,0-4.28,1c-4.2,2.83-3,7.65,2.65,13,.7.67,1.45,1.39,2.23,2.11,0,0,1.12,1,3.37,3.13,4.32,4,6.68,6.12,6.68,6.12,7.61,6.33,5,12.13,2.11,14.14a14.5,14.5,0,0,1-7.91,2.43h-.08a.72.72,0,0,1-.76-.65M23.18,0A24.4,24.4,0,1,0,24.3,0L23.18,0"/></clipPath><clipPath id="clip-path-4" transform="translate(0.58)"><polyline class="cls-1" points="-0.58 0 49.16 0 49.16 49.16 -0.58 49.16 -0.58 0"/></clipPath><radialGradient id="radial-gradient-2" cx="319.97" cy="345.61" r="1.26" gradientTransform="translate(-12915.41 -13963.48) scale(40.45)" gradientUnits="userSpaceOnUse"><stop offset="0" stop-color="#27baed"/><stop offset="0.22" stop-color="#0092d2"/><stop offset="0.29" stop-color="#007dc2"/><stop offset="0.38" stop-color="#006bb5"/><stop offset="0.47" stop-color="#0060ae"/><stop offset="0.57" stop-color="#005dab"/><stop offset="1" stop-color="#005dab"/></radialGradient></defs><g id="레이어_2" data-name="레이어 2"><g id="Layer_1" data-name="Layer 1"><g class="cls-2"><g class="cls-3"><rect class="cls-4" x="0.33" y="0.32" width="49.08" height="48.5"/></g></g><g class="cls-5"><g class="cls-6"><rect class="cls-7" width="49.74" height="49.15"/></g></g><path class="cls-8" d="M57.5,26.31A5.63,5.63,0,0,0,58.74,26a14,14,0,0,0,1.54-.73c.54-.3,1.07-.62,1.58-.95a17,17,0,0,0,4.5-4.37,11,11,0,0,0,1.88,2,18.59,18.59,0,0,0,2.33,1.71,12.5,12.5,0,0,0,3.36,1.59c.81.18,1.32.07,1.54-.33l1.43-2.69A21.82,21.82,0,0,1,74,21a12.72,12.72,0,0,1-2.59-1.73A8.63,8.63,0,0,1,69.54,17,6,6,0,0,1,68.81,14V9.62H63.08a.5.5,0,0,0-.5.3.62.62,0,0,0,.17.66,2.46,2.46,0,0,1,.58,1.05A6.16,6.16,0,0,1,63.44,13v1.39a6.61,6.61,0,0,1-.64,2.92A8.7,8.7,0,0,1,61,19.7a14.28,14.28,0,0,1-2.61,2,20.1,20.1,0,0,1-3.13,1.51l1.53,2.88c.11.2.33.28.68.25" transform="translate(0.58)"/><path class="cls-8" d="M66.49,35.59A1.9,1.9,0,0,1,66,34V28H60.36a.48.48,0,0,0-.49.3A.61.61,0,0,0,60,29,2.65,2.65,0,0,1,60.61,30a5.83,5.83,0,0,1,.12,1.34v3.18a6.72,6.72,0,0,0,.4,2.52,3.52,3.52,0,0,0,1.22,1.59,5.19,5.19,0,0,0,2.06.83,16,16,0,0,0,2.88.23H85.18V36H68.12a2.75,2.75,0,0,1-1.63-.38" transform="translate(0.58)"/><path class="cls-8" d="M84.69,29.71V9.09H79a.54.54,0,0,0-.51.28.57.57,0,0,0,.15.65,3.07,3.07,0,0,1,.64,1.06,4.39,4.39,0,0,1,.19,1.39V29.71Z" transform="translate(0.58)"/><path class="cls-8" d="M93.54,37.06a3.47,3.47,0,0,0,1.22,1.59,5.19,5.19,0,0,0,2.06.83,15.13,15.13,0,0,0,2.88.24h17.63V36H100.6a2.8,2.8,0,0,1-1.68-.4A2,2,0,0,1,98.41,34V29.34H92.78a.49.49,0,0,0-.5.3.61.61,0,0,0,.16.66,3,3,0,0,1,.53.83,2.28,2.28,0,0,1,.17.89v2.49a6.82,6.82,0,0,0,.4,2.55" transform="translate(0.58)"/><path class="cls-8" d="M90.47,17.44a6.55,6.55,0,0,0-.41,2.35,7.15,7.15,0,0,0,.58,2.9A6.57,6.57,0,0,0,92.31,25,7.92,7.92,0,0,0,95,26.59a12.21,12.21,0,0,0,7.31,0A7.83,7.83,0,0,0,105,25a6.55,6.55,0,0,0,1.66-2.34,7.49,7.49,0,0,0,.56-2.9,6.19,6.19,0,0,0-.44-2.33,6.84,6.84,0,0,0-1.22-1.94h3.49V11.87h-7.53V8.16H95.86a.55.55,0,0,0-.52.28c-.1.19,0,.41.18.65a2.78,2.78,0,0,1,.59,1.08,7.05,7.05,0,0,1,.11,1.37v.33h-8v3.65h3.48a6.34,6.34,0,0,0-1.18,1.92M96,16.8a3.69,3.69,0,0,1,5.35,0,4.28,4.28,0,0,1,1,2.83,4.14,4.14,0,0,1-1,2.73,3.69,3.69,0,0,1-5.35,0A4.18,4.18,0,0,1,95,19.63,4.32,4.32,0,0,1,96,16.8" transform="translate(0.58)"/><path class="cls-8" d="M116.93,9.09h-5.66a.53.53,0,0,0-.52.28c-.1.19,0,.4.19.65a3.47,3.47,0,0,1,.63,1.07,5.12,5.12,0,0,1,.16,1.38v17.7h5.2V20.49h3.78V16.75h-3.78Z" transform="translate(0.58)"/><path class="cls-8" d="M146.64,10.66a12.57,12.57,0,0,0-3.79-1.4,29.46,29.46,0,0,0-10.81,0,12.33,12.33,0,0,0-3.77,1.4,6.13,6.13,0,0,0-2.22,2.19,5.52,5.52,0,0,0-.73,2.8,5.34,5.34,0,0,0,.73,2.75,6.09,6.09,0,0,0,2.22,2.17A12.32,12.32,0,0,0,132,22a25.18,25.18,0,0,0,5.41.51,25,25,0,0,0,5.4-.51,12.56,12.56,0,0,0,3.79-1.43,6.08,6.08,0,0,0,2.24-2.17,5.34,5.34,0,0,0,.73-2.75,5.52,5.52,0,0,0-.73-2.8,6.12,6.12,0,0,0-2.24-2.19m-3.82,7.41a12,12,0,0,1-5.37.87,12,12,0,0,1-5.37-.87,2.65,2.65,0,0,1-1.59-2.42,2.74,2.74,0,0,1,1.59-2.43,11.45,11.45,0,0,1,5.37-.92,11.47,11.47,0,0,1,5.37.92,2.74,2.74,0,0,1,1.59,2.43,2.65,2.65,0,0,1-1.59,2.42" transform="translate(0.58)"/><path class="cls-8" d="M150,36H132.41a2.24,2.24,0,0,1-1.17-.23c-.24-.16-.35-.54-.35-1.13V29.7h-5.64a.49.49,0,0,0-.49.3.61.61,0,0,0,.16.66,3.17,3.17,0,0,1,.53.83,2.37,2.37,0,0,1,.17.9V35.5a5.33,5.33,0,0,0,.34,2.07,3,3,0,0,0,1.07,1.3,4.49,4.49,0,0,0,1.82.66,16.39,16.39,0,0,0,2.6.18H150Z" transform="translate(0.58)"/><rect class="cls-8" x="122.22" y="24.1" width="31.58" height="3.61"/><path class="cls-8" d="M156.32,17a6.09,6.09,0,0,0-.31,2,8.1,8.1,0,0,0,.51,2.92A6.11,6.11,0,0,0,158,24.1a6.69,6.69,0,0,0,2.42,1.44,10.7,10.7,0,0,0,6.59,0,6.61,6.61,0,0,0,2.42-1.44,6.26,6.26,0,0,0,1.5-2.25,8.1,8.1,0,0,0,.51-2.92,5.84,5.84,0,0,0-.33-2,6.51,6.51,0,0,0-.9-1.69h2.23V11.61h-5.9V8.06h-5.47a.55.55,0,0,0-.53.3c-.12.2-.06.43.16.7a2.3,2.3,0,0,1,.57,1,7.58,7.58,0,0,1,.09,1.41v.1h-6.79v3.65h2.62a5.91,5.91,0,0,0-.88,1.69m4.52.67a3.65,3.65,0,0,1,.55-1.16,2.89,2.89,0,0,1,1-.81,3,3,0,0,1,1.38-.3,2.92,2.92,0,0,1,1.37.3,2.83,2.83,0,0,1,1,.81,3.43,3.43,0,0,1,.54,1.16,5.49,5.49,0,0,1,.17,1.35,5.07,5.07,0,0,1-.17,1.29,3.15,3.15,0,0,1-.54,1.12,2.8,2.8,0,0,1-1,.8,2.92,2.92,0,0,1-1.37.3,3,3,0,0,1-1.38-.3,2.86,2.86,0,0,1-1-.8,3.35,3.35,0,0,1-.55-1.12,5.07,5.07,0,0,1-.16-1.29,5.48,5.48,0,0,1,.16-1.35" transform="translate(0.58)"/><path class="cls-8" d="M173.34,9.29a.47.47,0,0,0-.46.25c-.09.17,0,.39.16.68a4.5,4.5,0,0,1,.48.84,3.55,3.55,0,0,1,.18,1.31V25.46h4.74V19.3h2.22v7.06h4.74V9.09h-4.74v6.3h-2.22V9.29Z" transform="translate(0.58)"/><path class="cls-8" d="M161.48,33.91a5.48,5.48,0,0,0,.76,2.85A6.46,6.46,0,0,0,164.52,39a13.15,13.15,0,0,0,3.74,1.41,24.07,24.07,0,0,0,5.18.5,23.88,23.88,0,0,0,5.12-.5A12.81,12.81,0,0,0,182.3,39a6.61,6.61,0,0,0,2.3-2.21,5.24,5.24,0,0,0,.8-2.85,5.74,5.74,0,0,0-3.08-5.09c-2-1.24-5-1.87-8.88-1.87s-6.94.63-8.95,1.87a5.74,5.74,0,0,0-3,5.09m5.61-1.41a2.65,2.65,0,0,1,1.14-1,7.85,7.85,0,0,1,2.08-.61,23.43,23.43,0,0,1,6.26,0,7.8,7.8,0,0,1,2.06.61,2.65,2.65,0,0,1,1.12,1,2.73,2.73,0,0,1,.35,1.41,2.67,2.67,0,0,1-.35,1.38,2.61,2.61,0,0,1-1.12,1,7.06,7.06,0,0,1-2.06.64,23.43,23.43,0,0,1-6.26,0,7.11,7.11,0,0,1-2.08-.64,2.61,2.61,0,0,1-1.14-1,2.77,2.77,0,0,1-.35-1.38,2.83,2.83,0,0,1,.35-1.41" transform="translate(0.58)"/></g></g></svg>