<svg xmlns="http://www.w3.org/2000/svg" viewBox="0 0 280.8 69.18"><defs><style>.cls-1{fill:#fff;}.cls-2{fill:#005f40;}</style></defs><g id="레이어_2" data-name="레이어 2"><g id="Layer_1" data-name="Layer 1"><path class="cls-1" d="M68.34,34.17A34.17,34.17,0,1,1,34.17,0,34.17,34.17,0,0,1,68.34,34.17"/><path class="cls-2" d="M37.61,14.78a19.87,19.87,0,0,0-6.88,0c-.17,0-.23-.14-.1-.24l3.54-2.69,3.54,2.69c.14.1.07.26-.1.24M31.69,31.7a.39.39,0,0,0-.23.22c.72.55,1.22,1.8,2.71,1.8s2-1.25,2.71-1.8a.39.39,0,0,0-.23-.22,12.53,12.53,0,0,1-2.48.21,12.53,12.53,0,0,1-2.48-.21m2.48-2.12c-.41,0-.51-.15-.79-.15a1.4,1.4,0,0,0-.91.41.47.47,0,0,0,.12.27c.61.09.88.43,1.58.43s1-.34,1.58-.43a.42.42,0,0,0,.12-.27,1.38,1.38,0,0,0-.91-.41c-.28,0-.37.15-.79.15m34.12,6.47c-.05.81-.12,1.62-.22,2.42-3.86.64-5.25-2.8-9.21-2.63a24.53,24.53,0,0,1,.58,2.57c3.26,0,4.58,3.05,8.22,2.6-.2.94-.42,1.86-.69,2.77-2.87.28-3.89-2.58-7.21-2.5,0,.47,0,.95,0,1.44,0,.26,0,.53,0,.79,2.83,0,3.76,2.59,6.46,2.47-.34.92-.72,1.81-1.13,2.69-2-.1-2.62-2.59-5.57-2.4-.09.65-.2,1.28-.34,1.9,2.57-.18,3.12,2.18,5,2.37-.47.86-1,1.69-1.51,2.5-1.09-.59-2-2.35-4.09-2.45.21-.66.39-1.32.55-2a8.55,8.55,0,0,1-5.68-2.32C54,43,49,39.74,49,37.36c0-2.57,1.31-4,1.31-7.47a10.91,10.91,0,0,0-3.14-7.3A6.25,6.25,0,0,0,46,21.65,12.18,12.18,0,0,1,49,29.3c0,3.27-1.52,5-1.52,8s4.42,5.64,4.42,8.75c0,1.22-.39,2.42-1.68,4.77a10,10,0,0,0,6.23,3.07,1,1,0,0,0,1-.59c.17-.37.32-.74.47-1.12,1.8.07,2.62,1.71,3.62,2.36-.55.73-1.12,1.44-1.72,2.12-.67-.73-1.57-2-2.88-2.32-.23.46-.48.91-.74,1.34a5.56,5.56,0,0,1,2.5,2.2q-1,1-2,1.92a6.73,6.73,0,0,0-1.88-2c-.28.38-.57.75-.88,1.11a5.92,5.92,0,0,1,1.59,1.87c-.8.65-1.64,1.26-2.5,1.84-.42-3.47-5.16-5.85-3.89-9.88a5.24,5.24,0,0,0-.91,2.67c0,2.91,3.1,5.22,3.35,8.12-.65.39-1.31.75-2,1.09-.12-3.18-3.41-6.67-3.41-9.28,0-2.92,3.83-5.85,3.83-9.29s-4.41-5.83-4.41-8.86,1.87-4.76,1.87-8.63A10.35,10.35,0,0,0,44.11,21a6,6,0,0,0-1.17-.81A11.13,11.13,0,0,1,46.05,28c0,3.64-2.15,5.66-2.15,9.23s4.32,5.55,4.32,8.88-4,6.13-4,9.55c0,3.1,3.55,6.21,3.6,9.9-.78.33-1.57.64-2.37.92.45-3.72-3.54-7.57-3.54-10.6,0-3.33,4.17-6.19,4.17-9.77s-4.24-5.25-4.24-8.93,2.6-5.72,2.6-9.78a9.88,9.88,0,0,0-3.85-7.78l-.14-.11c-.22-.16-.39,0-.24.22a10.43,10.43,0,0,1,2.48,7.09c0,3.71-3,6.74-3,10.34,0,4.25,4,5.46,4,9s-4.31,6.27-4.31,10c0,3.43,4.08,7.24,3.38,11.2-.82.22-1.65.4-2.49.55C41,62.86,37,59.32,37,56.09c0-3.49,4.47-6.61,4.47-10,0-3.22-3.21-4.27-3.63-7.57a.77.77,0,0,0-.91-.7,10.92,10.92,0,0,1-2.8.55,10.74,10.74,0,0,1-2.79-.55.78.78,0,0,0-.92.7c-.42,3.3-3.62,4.35-3.62,7.57,0,3.41,4.46,6.53,4.46,10,0,3.23-4,6.77-3.24,11.71-.84-.15-1.66-.33-2.48-.55-.7-4,3.38-7.77,3.38-11.2,0-3.71-4.32-6.49-4.32-10s4-4.7,4-9c0-3.6-3-6.63-3-10.34a10.44,10.44,0,0,1,2.49-7.09c.15-.19,0-.38-.25-.22l-.14.11a9.88,9.88,0,0,0-3.85,7.78c0,4.06,2.61,6.1,2.61,9.78s-4.25,5.34-4.25,8.93,4.18,6.44,4.18,9.77c0,3-4,6.88-3.55,10.6-.8-.28-1.59-.59-2.37-.92.06-3.69,3.6-6.8,3.6-9.9,0-3.42-4-6.23-4-9.55s4.32-5.31,4.32-8.88S22.3,31.6,22.3,28a11.12,11.12,0,0,1,3.1-7.74,6,6,0,0,0-1.17.81,10.35,10.35,0,0,0-3.43,7.55c0,3.87,1.87,5.61,1.87,8.63s-4.4,5.41-4.4,8.86,3.82,6.37,3.82,9.29c0,2.61-3.29,6.1-3.4,9.28-.67-.34-1.33-.7-2-1.09.25-2.9,3.36-5.21,3.36-8.12a5.25,5.25,0,0,0-.92-2.67c1.27,4-3.46,6.41-3.89,9.88-.86-.58-1.7-1.19-2.5-1.84a5.92,5.92,0,0,1,1.59-1.87c-.3-.36-.6-.73-.88-1.11a6.73,6.73,0,0,0-1.88,2q-1-.91-2-1.92a5.56,5.56,0,0,1,2.5-2.2c-.26-.43-.51-.88-.74-1.34C10,54.7,9.13,56,8.47,56.68c-.6-.68-1.18-1.39-1.73-2.12,1-.65,1.82-2.29,3.62-2.36.15.38.31.75.47,1.12a1,1,0,0,0,1,.59,10,10,0,0,0,6.23-3.07c-1.29-2.35-1.68-3.55-1.68-4.77,0-3.11,4.42-5.73,4.42-8.75s-1.52-4.75-1.52-8a12.18,12.18,0,0,1,3.07-7.65,6.19,6.19,0,0,0-1.17.94,10.88,10.88,0,0,0-3.15,7.3c0,3.47,1.31,4.9,1.31,7.47,0,2.38-5,5.68-4.46,8.92A8.6,8.6,0,0,1,9.22,48.6c.16.67.35,1.33.56,2-2.07.1-3,1.86-4.1,2.45-.54-.81-1-1.64-1.51-2.5,1.84-.19,2.39-2.55,5-2.37-.14-.62-.25-1.25-.34-1.9-2.95-.19-3.62,2.3-5.57,2.4-.41-.88-.79-1.77-1.13-2.69,2.71.13,3.63-2.5,6.47-2.47,0-.26,0-.53,0-.79,0-.49,0-1,0-1.44-3.32-.08-4.34,2.78-7.21,2.5C1.1,42.87.87,42,.68,41c3.64.45,5-2.6,8.22-2.6a24.53,24.53,0,0,1,.58-2.57c-4-.17-5.35,3.27-9.21,2.63-.1-.8-.18-1.61-.22-2.42,4.5.5,6.18-3.2,10.28-2.74a23.72,23.72,0,0,1,1.33-2.84C6.53,29.57,4.79,33.86,0,33.2a34.17,34.17,0,0,1,68.32,0c-4.78.66-6.52-3.63-11.65-2.73A23.72,23.72,0,0,1,58,33.31c4.1-.46,5.78,3.24,10.28,2.74M19.48,21.71a8.89,8.89,0,0,0-8.16.88,8.9,8.9,0,0,0-3.59-5.86.3.3,0,0,0-.5.29c.39,5.11-2.6,9.55-6.27,13.46,3.79,1.13,7-3.75,11.92-2a25.91,25.91,0,0,1,6.6-6.73m14.69-3.09c-3.17,0-5.83,1.8-6.52,4.11-.06.18,0,.3.22.2a4.78,4.78,0,0,1,1.93-.38,4,4,0,0,1,3.1,1.3,5.54,5.54,0,0,1,0,3.23c-.53-.12-.72-.53-1.24-.53s-.93.36-1.81.36-1-.42-1.56-.42-.81.71-.81,1.5c0,3.53,3.25,8.4,6.7,8.4s6.71-4.87,6.71-8.4c0-.79-.17-1.47-.88-1.56a2.2,2.2,0,0,1-1.5.48c-.88,0-1.12-.36-1.64-.36s-.57,1.32-1.31,1.39a6.27,6.27,0,0,1-.11-4.09,4,4,0,0,1,3.11-1.3,4.73,4.73,0,0,1,1.92.38c.21.1.28,0,.23-.2-.7-2.31-3.36-4.11-6.53-4.11m5,5.07a3,3,0,0,0-2.21.86.86.86,0,0,0,0,.59c1.38-.47,2.6-.49,3.18.17a1.06,1.06,0,0,0,.42-.84c0-.46-.47-.78-1.41-.78M28.13,25.31c.66-.67,2.06-.64,3.52-.1.06-.73-1.23-1.52-2.53-1.52-.94,0-1.41.32-1.41.78a1.06,1.06,0,0,0,.42.84M50,13.34a11.31,11.31,0,0,0-6.44,2.47,25.89,25.89,0,0,1,2.89-5.76,12.37,12.37,0,0,0-7.79,3.49l-1.53-4,3.38-3L36,6.24,34.17,2l-1.81,4.2-4.52.33,3.38,3-1.52,4a12.42,12.42,0,0,0-7.8-3.49,25.06,25.06,0,0,1,2.89,5.76,11.28,11.28,0,0,0-6.44-2.47,29.74,29.74,0,0,1,3.82,6.21.42.42,0,0,0,.61.2,25.72,25.72,0,0,1,22.78,0,.41.41,0,0,0,.61-.2A29.74,29.74,0,0,1,50,13.34m5.46,15.1c4.92-1.71,8.15,3.17,11.93,2-3.67-3.91-6.66-8.35-6.27-13.46a.3.3,0,0,0-.5-.29A8.94,8.94,0,0,0,57,22.59a8.88,8.88,0,0,0-8.16-.88,25.72,25.72,0,0,1,6.59,6.73"/><polygon class="cls-2" points="54.84 69.18 54.31 69.18 54.31 65.87 53.09 65.87 53.09 65.41 56.05 65.41 56.05 65.87 54.84 65.87 54.84 69.18"/><polygon class="cls-2" points="58.52 68.3 58.53 68.3 59.65 65.41 60.48 65.41 60.48 69.18 59.94 69.18 59.94 66.03 59.93 66.03 58.68 69.18 58.34 69.18 57.08 66.03 57.07 66.03 57.07 69.18 56.55 69.18 56.55 65.41 57.38 65.41 58.52 68.3"/><path class="cls-2" d="M210,37.8c0,5.76-3.22,8.85-9.23,8.85s-9.23-3.17-9.23-8.79V27.65h6.64v9.88c0,2.74.75,3.95,2.54,3.95s2.65-1.09,2.65-4.23v-9.6H210Z"/><polygon class="cls-2" points="114.9 32.37 114.9 46.27 108.2 46.27 108.2 32.37 102.59 32.37 102.59 27.65 120.51 27.65 120.51 32.37 114.9 32.37"/><path class="cls-2" d="M131.79,31.9l-1.65,6.37h3.35Zm4.32,14.37L135,42.86h-6.3l-1.19,3.41h-6.67l6.77-18.62h8.48l6.71,18.62Z"/><path class="cls-2" d="M231.51,44.82l-2-4.83a6.7,6.7,0,0,1-4.33,1.69c-2.63,0-4.38-2.16-4.38-4.8S222.33,32,225.06,32a7.25,7.25,0,0,1,4.44,1.82l2-4.72a15.66,15.66,0,0,0-7.48-1.8c-5.63,0-9.91,3.86-9.91,9.56,0,6,4.16,9.82,10.1,9.82a13.57,13.57,0,0,0,7.32-1.83"/><polygon class="cls-2" points="246.57 46.27 242.38 39.48 242.38 46.27 235.87 46.27 235.87 27.65 242.38 27.65 242.38 34.47 246.31 27.65 253.57 27.65 247.47 36.83 254.36 46.27 246.57 46.27"/><path class="cls-2" d="M91.39,46.64c4.22,0,8.6-1.5,8.6-6.26,0-4.29-3.65-5.47-6.5-6.08-2.15-.46-3.17-.68-3.17-1.54,0-1.14,1.44-1.23,2.22-1.23a10.36,10.36,0,0,1,5.28,1.73L99.55,29A20,20,0,0,0,92,27.27c-4.38,0-7.81,2.12-7.81,6.37,0,3.49,2.65,4.84,5.56,5.56,2,.5,3.32.65,3.32,1.65s-1,1.29-2,1.29a8.66,8.66,0,0,1-5.41-2l-2.1,4.11a14.6,14.6,0,0,0,7.82,2.39"/><path class="cls-2" d="M264.22,46.64c4.22,0,8.6-1.5,8.6-6.26,0-4.29-3.65-5.47-6.5-6.08-2.15-.46-3.18-.68-3.18-1.54,0-1.14,1.45-1.23,2.22-1.23a10.36,10.36,0,0,1,5.28,1.73L272.38,29a20,20,0,0,0-7.6-1.75c-4.38,0-7.8,2.12-7.8,6.37,0,3.49,2.64,4.84,5.56,5.56,2,.5,3.32.65,3.32,1.65s-1,1.29-2,1.29a8.66,8.66,0,0,1-5.41-2l-2.1,4.11a14.63,14.63,0,0,0,7.83,2.39"/><path class="cls-2" d="M160.45,39.31A5.6,5.6,0,0,0,164,34c0-4.4-3-6.39-7.27-6.39H146.63V46.27h6.46V40.74h1.63l3.36,5.53h7Zm-3-5.25a1.82,1.82,0,0,1-2,1.93h-2.3V32.11h2.32a1.78,1.78,0,0,1,2,1.9Z"/><path class="cls-2" d="M183.06,36.76c2.43-.52,3.62-1.88,3.62-4.16,0-3.17-2.38-5-6.56-5H169.5V46.27h10.2c4.92,0,7.37-1.74,7.37-5.25a4,4,0,0,0-4-4.26m-7.17-5.07h2.34c1.23,0,2,.53,2,1.62v0c0,1-.77,1.64-2.06,1.64h-2.31Zm4.47,8.81c0,1.1-.79,1.73-2.11,1.73h-2.36V38.74h2.39c1.26,0,2.08.56,2.08,1.71Z"/><path class="cls-2" d="M278,27.27a2.84,2.84,0,1,1-2.83,2.84A2.82,2.82,0,0,1,278,27.27m0,5.27a2.43,2.43,0,1,0-2.33-2.43A2.36,2.36,0,0,0,278,32.54m-1.08-4.09h1.25c.79,0,1.16.31,1.16.94a.85.85,0,0,1-.88.91l1,1.47h-.54l-.91-1.43h-.54v1.43h-.5Zm.5,1.48h.52c.45,0,.89,0,.89-.56s-.4-.51-.74-.51h-.67Z"/></g></g></svg>