<svg xmlns="http://www.w3.org/2000/svg" viewBox="0 0 142.82 22.52"><defs><style>.cls-1{fill:#008375;}.cls-2{fill:#d50037;}.cls-3{fill:#1a141a;}</style></defs><g id="레이어_2" data-name="레이어 2"><g id="Layer_1" data-name="Layer 1"><path class="cls-1" d="M16.21,13.35a3.65,3.65,0,0,0-.29-1A4.86,4.86,0,0,0,14,10.1a4.41,4.41,0,0,0-4.52,0A4.1,4.1,0,0,0,8,11.73a5.24,5.24,0,0,0-.28.69A4.88,4.88,0,0,0,8,16.24a2,2,0,0,0,.91.79,1.32,1.32,0,0,0,1.18-.09,1.23,1.23,0,0,0,.44-1.32,3.52,3.52,0,0,1,.05-1.85,1.33,1.33,0,0,1,.32-.52,1.11,1.11,0,0,1,.32-.21,1.31,1.31,0,0,1,.78-.13,1.46,1.46,0,0,1,1,.85,3.54,3.54,0,0,1,.29,1.37,20.79,20.79,0,0,1-.91,6.11c-.06.2-.11.4-.17.6s-.12.35,0,.5a.36.36,0,0,0,.18.14c.3.13.55-.06.75-.26a11,11,0,0,0,2.49-4.35,14.74,14.74,0,0,0,.47-1.82,7.88,7.88,0,0,0,.09-2.7"/><path class="cls-1" d="M24.77,3.92a.52.52,0,0,0-.56-.5,2.75,2.75,0,0,0-.84.27A34,34,0,0,1,6.64,5.27c-.95-.14-1.91-.33-2.86-.48C3.18,4.7,2.59,4.57,2,4.52a2.16,2.16,0,0,0-1.57.3,1.65,1.65,0,0,0-.19,2,4.33,4.33,0,0,0,1.7,1.64,4,4,0,0,0,2.23.76c2.12-.13,4.23-.34,6.33-.61,3.59-.46,7.36-.9,10.73-2.3a13.35,13.35,0,0,0,3.13-1.75c.17-.13.42-.35.42-.6"/><path class="cls-2" d="M9.69,2.12a2.07,2.07,0,0,0,4.14,0,1.25,1.25,0,0,0-.11-.5c-.18-.37-.38-.55-.36-1,0-.61-.75-.62-1.17-.62a3,3,0,0,0-1.36.27A2.11,2.11,0,0,0,10,1a2,2,0,0,0-.33,1.07v.05"/><path class="cls-3" d="M29.18,7V5.41h2.34V7h3.12V8.5H33a5.29,5.29,0,0,1,.87,1.59,6.12,6.12,0,0,1,.34,2,6.84,6.84,0,0,1-.3,2,4.64,4.64,0,0,1-.8,1.55,3.67,3.67,0,0,1-1.22,1,3.32,3.32,0,0,1-1.55.37,3.28,3.28,0,0,1-1.6-.36,3.67,3.67,0,0,1-1.22-1,4.64,4.64,0,0,1-.79-1.57,6.51,6.51,0,0,1-.28-2,5.87,5.87,0,0,1,.33-2,5.29,5.29,0,0,1,.87-1.59H26.13V7Zm1.17,1.54c-.47,0-.86.32-1.18,1a5.77,5.77,0,0,0-.45,2.58,5.24,5.24,0,0,0,.45,2.49c.31.62.7.93,1.16.93s.86-.31,1.17-.92a5.62,5.62,0,0,0,.47-2.5,6,6,0,0,0-.46-2.62C31.21,8.85,30.82,8.54,30.35,8.54Zm8,3v9H36.14V5.41H38.4V10h2.17v1.51Z"/><path class="cls-3" d="M44.22,14.68h4.5c.23,0,.46,0,.68,0a5.13,5.13,0,0,0,.66-.13,3.29,3.29,0,0,0,.69-.29V5.41H53V10h2.17v1.51H53v9H50.75V15.73a4.63,4.63,0,0,1-1.34.36,12.13,12.13,0,0,1-1.45.09H43a1.52,1.52,0,0,1-1.24-.61,2.22,2.22,0,0,1-.49-1.46v-8h2.25v8a.59.59,0,0,0,.18.46A.82.82,0,0,0,44.22,14.68Z"/><path class="cls-3" d="M65,11.57a7,7,0,0,0,.27-1.42c0-.52.08-1.05.08-1.6V7.25H57.45V5.75H67.63V8.5a12.58,12.58,0,0,1-.11,1.65,7.32,7.32,0,0,1-.31,1.42h2.07v1.51H55.76V11.57Zm2.58,3v6.13H59a1.31,1.31,0,0,1-1.09-.61,2.39,2.39,0,0,1-.45-1.46V14.56Zm-7.93,1.5v2.53a.53.53,0,0,0,.18.46.76.76,0,0,0,.48.14h5V16.06Z"/><path class="cls-3" d="M81.1,16.2a4.5,4.5,0,0,1,.17.6,3.18,3.18,0,0,1,.07.62A3.15,3.15,0,0,1,81,19a3.55,3.55,0,0,1-1,1.14,4.33,4.33,0,0,1-1.35.7,5.29,5.29,0,0,1-1.52.23,5.38,5.38,0,0,1-1.62-.24,4.15,4.15,0,0,1-1.35-.71,3.57,3.57,0,0,1-.91-1.13,3.3,3.3,0,0,1-.34-1.52,4.51,4.51,0,0,1,0-.65,2.64,2.64,0,0,1,.2-.62V12.78H70.37V11.27h3.45a3.59,3.59,0,0,1-.63-1.11A4,4,0,0,1,73,8.85a3.6,3.6,0,0,1,.3-1.43,3.51,3.51,0,0,1,.84-1.22,4.18,4.18,0,0,1,1.32-.88A4.29,4.29,0,0,1,77.15,5a4.37,4.37,0,0,1,1.68.31,4.28,4.28,0,0,1,1.32.85A3.79,3.79,0,0,1,81,7.4a3.5,3.5,0,0,1,.31,1.45,3.81,3.81,0,0,1-.23,1.32,3.87,3.87,0,0,1-.64,1.1h3.44v1.51H81.1Zm-4-.92a2,2,0,0,0-1,.25,1.73,1.73,0,0,0-.74.75,2,2,0,0,0-.2.53,2.27,2.27,0,0,0-.07.61,1.93,1.93,0,0,0,.6,1.57,2,2,0,0,0,1.35.53,2.1,2.1,0,0,0,.7-.12,1.87,1.87,0,0,0,.64-.4,2.26,2.26,0,0,0,.45-.66,2.19,2.19,0,0,0,.18-.92,2.16,2.16,0,0,0-.17-.9,2.28,2.28,0,0,0-.46-.67,1.89,1.89,0,0,0-.62-.42A1.76,1.76,0,0,0,77.13,15.28Zm0-8.78a1.7,1.7,0,0,0-1.4.69,2.55,2.55,0,0,0-.52,1.66,2.48,2.48,0,0,0,.53,1.67,1.71,1.71,0,0,0,2.74,0,2.62,2.62,0,0,0,.57-1.68A2.93,2.93,0,0,0,78.9,8a2.56,2.56,0,0,0-.42-.76,2.27,2.27,0,0,0-.61-.51A1.44,1.44,0,0,0,77.15,6.5Zm0,7.28a5.12,5.12,0,0,1,.87.08,5.32,5.32,0,0,1,.83.23V12.78h-3.4v1.3a4.53,4.53,0,0,1,.82-.23A5.14,5.14,0,0,1,77.13,13.78Z"/><path class="cls-3" d="M88.05,14.68h4.5c.23,0,.45,0,.67,0a4.53,4.53,0,0,0,.66-.13,3.6,3.6,0,0,0,.7-.29V5.41h2.25V10H99v1.51H96.83v9H94.58V15.73a4.61,4.61,0,0,1-1.35.36,11.84,11.84,0,0,1-1.44.09h-5a1.54,1.54,0,0,1-1.25-.61,2.22,2.22,0,0,1-.49-1.46v-8h2.25v8a.56.56,0,0,0,.19.46A.79.79,0,0,0,88.05,14.68Z"/><path class="cls-3" d="M105.21,15V14H99.58v-1.5h13.53V14h-5.63v1h4v5.68h-8.65a1.34,1.34,0,0,1-1.09-.61,2.39,2.39,0,0,1-.45-1.46V15Zm6.24-3.67H103a1.56,1.56,0,0,1-1.25-.62,2.28,2.28,0,0,1-.5-1.47V5.73h2.25V9.22a.59.59,0,0,0,.19.46.88.88,0,0,0,.57.16h7.17Zm-7.94,5.18v2.07a.56.56,0,0,0,.17.46.78.78,0,0,0,.48.14h5V16.52Z"/><path class="cls-3" d="M120.6,7.75h-2.15V9.24A9.64,9.64,0,0,0,119,12.8a3.27,3.27,0,0,0,1.83,2v1.62a4.38,4.38,0,0,1-1.24-.4,5.65,5.65,0,0,1-1.11-.7,5,5,0,0,1-.87-.83,2,2,0,0,1-.44-.76,2.33,2.33,0,0,1-.46.78,5.54,5.54,0,0,1-.8.81,6,6,0,0,1-1.07.7,4.18,4.18,0,0,1-1.19.4V14.76a3.39,3.39,0,0,0,1.84-2,9.64,9.64,0,0,0,.58-3.57V7.75h-2.17V6.25h6.66Zm3.19,3.84v8.93h-2.17V5.41h2.17v4.68h1.09V5.41h2.17V20.52h-2.17V11.59Z"/><path class="cls-3" d="M128.88,5.91H136V7.42h-4.84v4.3a.57.57,0,0,0,.18.46.8.8,0,0,0,.55.16h4c.48,0,.93,0,1.34-.06a3.47,3.47,0,0,0,1.23-.36V5.41h2.25V9h2.17v1.51h-2.17v5.84H138.4v-3a4.09,4.09,0,0,1-1.24.4,8.61,8.61,0,0,1-1.38.1h-5.16a1.51,1.51,0,0,1-1.24-.61,2.23,2.23,0,0,1-.5-1.46ZM133.73,19h6.92v1.5h-8.24a1.41,1.41,0,0,1-1.16-.6,2.28,2.28,0,0,1-.45-1.4V15.18h2.26v3.17a.69.69,0,0,0,.18.49A.67.67,0,0,0,133.73,19Z"/></g></g></svg>