<svg xmlns="http://www.w3.org/2000/svg" viewBox="0 0 96.91 20.1"><defs><style>.cls-1{fill:#073290;fill-rule:evenodd;}</style></defs><g id="레이어_2" data-name="레이어 2"><g id="Layer_1" data-name="Layer 1"><path class="cls-1" d="M24.3,18.9c-1.5,0-1.5-.9-1.5-2.4-.3-4.2-.3-9.6-.3-12.9,0-1.8,0-2.4,2.1-2.7h.6V0a9.25,9.25,0,0,1-2.7.3A8.44,8.44,0,0,1,20.1,0c0,1.5-.9,3-2.1,5.7l-2.7,5.7c-.9,1.5-1.5,3-2.4,4.5h0a18.33,18.33,0,0,1-2.1-4.2L7.5,5.1C6.6,3,5.7,1.2,6,0A9.25,9.25,0,0,1,3.3.3,5.86,5.86,0,0,1,1.2,0,1.1,1.1,0,0,0,.9.9h.6c1.8.3,2.1.6,1.8,2.7A58.26,58.26,0,0,1,3,10.2c0,2.7-.3,4.5-.3,6.3-.3,2.1-.6,2.4-1.8,2.4l-.9.3s0,.6.3.6H6.6v-.6l-1.2-.3c-1.2,0-1.2-.6-1.2-2.7V9.3a30.85,30.85,0,0,0,.3-5.4h0A30.28,30.28,0,0,1,6.6,8.4l2.7,5.7c.6,1.5,2.1,4.2,2.4,5.7a.29.29,0,0,0,.3.3c.3,0,.3,0,.3-.3.6-1.2,1.8-3.9,3.3-6.6l2.7-5.1c.6-1.2,1.5-3.6,1.8-3.9h0V16.5c0,1.8,0,2.4-1.2,2.4l-.9.3c-.3,0-.3.6,0,.6h7.2v-.6l-.9-.3Z"/><path class="cls-1" d="M32.7,6.6a6.86,6.86,0,0,0-7.2,6.9c0,3.6,2.7,6.6,7.2,6.6,4.2,0,7.2-2.7,7.2-6.9,0-3.6-2.4-6.6-7.2-6.6Zm.6,12.6c-3.3.3-4.8-2.7-5.1-5.7-.6-4.2,1.8-6,3.9-6,3.3-.3,5.1,2.7,5.4,5.7.3,4.2-1.8,6-4.2,6Z"/><path class="cls-1" d="M89.41,3c0-1.5-.9-2.7-2.1-2.7s-1.5.6-1.5,1.2.3.6.9.6c.6.3,1.5.6,1.5,1.8S87,6,85.81,6.3a1.1,1.1,0,0,0,.3.9A4.5,4.5,0,0,0,89.41,3Z"/><path class="cls-1" d="M94.51,12.6l-1.8-.9c-1.2-.6-1.8-1.2-1.8-2.4a2.13,2.13,0,0,1,2.4-2.1c1.5,0,2.4,1.8,2.7,2.7,0,.3.6.3.6,0a8.36,8.36,0,0,0-.3-3c-.9,0-1.8-.3-2.7-.3-3,0-4.8,1.5-4.8,3.6,0,1.5,1.2,2.7,2.7,3.6l1.2.6c1.8.9,2.1,1.8,2.1,2.7,0,1.5-.9,2.1-2.4,2.1-2.1,0-3.3-2.1-3.6-3,0-.3-.6-.3-.6,0a5.56,5.56,0,0,0,.6,3,5.34,5.34,0,0,0,3.3.9c3,0,4.8-1.5,4.8-3.6a4.17,4.17,0,0,0-2.4-3.9Z"/><path class="cls-1" d="M67.51,7.5A10.25,10.25,0,0,0,63,6.9h-5.7a.56.56,0,0,0,0,.9h.9c.6,0,.6.6.6,2.7v6c0,2.1,0,2.4-1.2,2.4l-.6.3c-.3,0-.3.6,0,.6h6.6a8.11,8.11,0,0,0,4.5-.9,6.17,6.17,0,0,0,3.6-5.7,5.76,5.76,0,0,0-4.2-5.7Zm-3.9,11.4c-2.1,0-2.4-.9-2.4-2.7V8.1c.3-.3.9-.3,1.8-.3,3.3,0,6,1.8,6,5.4s-1.8,5.7-5.4,5.7Z"/><path class="cls-1" d="M84.31,6.9h-4.2c-.3,0-.3.6-.3.6h.6c.9.3.9.6.3,1.2l-1.2,2.4A10.52,10.52,0,0,1,78,13.5a9,9,0,0,0-1.2-2.4L75.61,9c-.3-.9-.3-1.2.3-1.5h.6c.3,0,0-.6,0-.6h-5.4c-.3,0-.3.6,0,.6l.6.3c.9,0,1.2.3,1.8,1.5l2.1,3.9a4,4,0,0,1,.9,2.7v.9c0,1.8,0,2.1-1.5,2.1l-.6.3c-.3,0-.3.6,0,.6h6.3c.3,0,.3-.6.3-.6l-.9-.3c-1.2,0-1.5-.3-1.5-2.1V15.3c0-.9.3-1.2,1.2-2.7l1.8-3c.9-1.5,1.2-1.8,2.1-1.8l.6-.3c.3,0,.3-.6,0-.6Z"/><path class="cls-1" d="M48.6,6.6a6.86,6.86,0,0,0-7.2,6.9c0,3.6,2.7,6.6,7.2,6.6,4.2,0,7.21-2.7,7.21-6.9,0-3.6-2.4-6.6-7.21-6.6Zm.6,12.6c-3.3.3-4.8-2.7-5.1-5.7-.6-4.2,1.8-6,3.9-6,3.3-.3,5.1,2.7,5.41,5.7.3,4.2-1.81,6-4.21,6Z"/></g></g></svg>