<svg xmlns="http://www.w3.org/2000/svg" viewBox="0 0 230.89 59.94"><defs><style>.cls-1{fill:#fff;}.cls-2{fill:#cc141d;}.cls-3{fill:#010000;}</style></defs><g id="레이어_2" data-name="레이어 2"><g id="Layer_1" data-name="Layer 1"><rect class="cls-1" x="31.14" width="62.13" height="59.87"/><polygon class="cls-2" points="124.32 30.01 93.26 0 93.26 59.94 124.32 30.01"/><polygon class="cls-2" points="62.2 30.01 93.26 0 31.14 0 62.2 30.01"/><polygon class="cls-2" points="0 30.01 31.14 59.94 31.14 0 0 30.01"/><polygon class="cls-2" points="62.2 30.01 31.14 59.94 93.26 59.94 62.2 30.01"/><path class="cls-3" d="M151.59,31.77H140.33v10.7H134.7V17.4h5.63V27.68h11.26V17.4h5.62V42.47h-5.62Z"/><path class="cls-3" d="M170.81,43c-5.63,0-10.23-2.19-10.31-8.17h5.63c.07,2.67,1.68,4.29,4.75,4.29,2.27,0,4.9-1.12,4.9-3.59,0-2-1.76-2.54-4.68-3.38l-1.9-.49C165.11,30.5,161,29,161,24.44c0-5.56,5.41-7.46,10.31-7.46s9.43,1.69,9.5,7.25h-5.63c-.22-2.25-1.6-3.59-4.24-3.59-2.12,0-4.16,1.05-4.16,3.31,0,1.83,1.75,2.39,5.41,3.52l2.19.63c4.46,1.34,7.31,2.82,7.31,7C181.63,40.78,175.92,43,170.81,43Z"/><path class="cls-3" d="M184.84,17.47h9.06a25.14,25.14,0,0,1,5.12.28c3.14.7,5.55,2.68,5.55,6.06s-2.11,4.86-5.18,5.63c3.5.64,6.14,2.33,6.14,6.06,0,5.71-5.85,7-10.38,7H184.91Zm9.06,10.42c2.49,0,5-.49,5-3.38,0-2.6-2.34-3.31-4.68-3.31h-4v6.69Zm.52,10.85c2.63,0,5.18-.56,5.18-3.66s-2.19-3.66-4.89-3.66h-4.46v7.32Z"/><path class="cls-3" d="M220.14,43C211.74,43,208,37.82,208,30.15s4.17-13.24,12.42-13.24c5.19,0,10.24,2.25,10.38,7.88H225c-.3-2.53-2.05-3.8-4.54-3.8-5.11,0-6.65,5.28-6.65,9.3S215.32,39,220.22,39c2.55,0,4.45-1.34,4.82-3.87h5.85C230.3,40.85,225.55,43,220.14,43Z"/></g></g></svg>