<svg xmlns="http://www.w3.org/2000/svg" viewBox="0 0 179.91 19.21"><defs><style>.cls-1{fill:#a5cd3e;}.cls-2{fill:#0691d2;}.cls-3{fill:#0060ab;}</style></defs><g id="레이어_2" data-name="레이어 2"><g id="Layer_1" data-name="Layer 1"><path d="M83.07,10.71a1.39,1.39,0,0,1,.13-.58,1.82,1.82,0,0,1,.36-.54,2.05,2.05,0,0,1,.6-.41A2.15,2.15,0,0,1,85,9a2,2,0,0,1,.82.16,1.9,1.9,0,0,1,.57.41,1.75,1.75,0,0,1,.34.54,1.54,1.54,0,0,1,.12.58Zm5,2.7a5.5,5.5,0,0,1-1,.54,4,4,0,0,1-1.73.32,2.5,2.5,0,0,1-1.7-.54,1.75,1.75,0,0,1-.64-1.27h6.35V12a7.15,7.15,0,0,0-.28-2.07,4.67,4.67,0,0,0-.85-1.61,3.93,3.93,0,0,0-1.38-1.06A4.5,4.5,0,0,0,85,6.89a4.64,4.64,0,0,0-1.94.39,4.42,4.42,0,0,0-2.35,2.55,5.62,5.62,0,0,0,0,3.74,4.35,4.35,0,0,0,1,1.52,4.54,4.54,0,0,0,1.55,1,5.6,5.6,0,0,0,2.06.36,6.36,6.36,0,0,0,1.52-.17A6.77,6.77,0,0,0,88,15.88a5.14,5.14,0,0,0,.79-.42l.45-.32Zm-30.3.33a5.3,5.3,0,0,1-.57.33,1.74,1.74,0,0,1-.72.14.94.94,0,0,1-.81-.35,1.68,1.68,0,0,1-.26-1V9.34h2.3V7.2h-2.3V4.81H52.72V7.2H51.3V9.34h1.42v3.37a6,6,0,0,0,.17,1.52,2.79,2.79,0,0,0,.57,1.17,2.63,2.63,0,0,0,1,.76,4.17,4.17,0,0,0,1.6.28,4.45,4.45,0,0,0,2.81-1ZM81.51,4a3.68,3.68,0,0,0-1.35-.72,5.31,5.31,0,0,0-1.46-.21,4,4,0,0,0-1.34.22A3.38,3.38,0,0,0,76.19,4a3.23,3.23,0,0,0-.83,1.14,3.86,3.86,0,0,0-.31,1.63V7.2H73.6V9.34h1.45v6.77h2.71V9.34h2.12V7.2H77.76V6.7a1.42,1.42,0,0,1,.35-1A1.2,1.2,0,0,1,79,5.31a2.06,2.06,0,0,1,.7.12,2.08,2.08,0,0,1,.63.32Zm-12,12.09h2.74V7.2H69.48Zm-9.54,0h8.34V13.76H62.81V3.43H59.94ZM44.3,10.71a1.54,1.54,0,0,1,.12-.58,2.08,2.08,0,0,1,.37-.54,1.88,1.88,0,0,1,.59-.41A2.17,2.17,0,0,1,46.22,9a2,2,0,0,1,.82.16,1.9,1.9,0,0,1,.57.41,2,2,0,0,1,.34.54,1.53,1.53,0,0,1,.11.58Zm5,2.7a5.5,5.5,0,0,1-1,.54,4.08,4.08,0,0,1-1.73.32,2.5,2.5,0,0,1-1.7-.54,1.71,1.71,0,0,1-.64-1.27h6.35V12a7.14,7.14,0,0,0-.29-2.07,4.66,4.66,0,0,0-.84-1.61,4,4,0,0,0-1.38-1.06,4.5,4.5,0,0,0-1.9-.38,4.64,4.64,0,0,0-1.94.39A4.42,4.42,0,0,0,42,9.83a5.2,5.2,0,0,0-.31,1.8A5.45,5.45,0,0,0,42,13.57a4.22,4.22,0,0,0,1,1.52,4.54,4.54,0,0,0,1.55,1,5.55,5.55,0,0,0,2,.36,6.3,6.3,0,0,0,1.52-.17,6.23,6.23,0,0,0,1.15-.37,4.34,4.34,0,0,0,.79-.42l.46-.32Zm-22,2.7H30l.32-8.23,2.78,4.89h1.48l2.63-4.95.36,8.29h2.87L39.89,3.43H37.15l-3.23,6-3.31-6H27.89ZM70.85,6.18a1.55,1.55,0,1,1,0-3.09,1.53,1.53,0,0,1,1.54,1.54,1.56,1.56,0,0,1-1.54,1.55"/><path class="cls-1" d="M10.43,6.22a17,17,0,0,1,3.43,10.26,17.54,17.54,0,0,1-.22,2.73h6.24a1,1,0,0,0,1-1V1a1,1,0,0,0-1.23-1,17,17,0,0,0-9.2,6.19"/><path class="cls-2" d="M7.22,19.21A16.4,16.4,0,0,1,7,16.48,17,17,0,0,1,10.43,6.22,17,17,0,0,0,1.22,0,1,1,0,0,0,0,1V18.22a1,1,0,0,0,1,1Z"/><path class="cls-3" d="M10.43,6.22A17,17,0,0,0,7,16.48a16.4,16.4,0,0,0,.22,2.73h6.42a17.54,17.54,0,0,0,.22-2.73A17,17,0,0,0,10.43,6.22"/><path d="M172.44,9.37V8.31c0-.13,0-.26,0-.38s0-.24,0-.38h.79c0,.14,0,.26,0,.37s0,.24,0,.37,0,.28,0,.45v.61a4.92,4.92,0,0,1,.42-.64,3.57,3.57,0,0,1,.68-.66,3.5,3.5,0,0,1,1-.52,3.73,3.73,0,0,1,1.3-.21,4,4,0,0,1,1.55.27,2.37,2.37,0,0,1,1,.76,3,3,0,0,1,.56,1.2,6.35,6.35,0,0,1,.17,1.57v5.06h-.84V11.4a6.53,6.53,0,0,0-.17-1.6,2.45,2.45,0,0,0-.5-1,1.77,1.77,0,0,0-.81-.53,3.64,3.64,0,0,0-1.09-.15,2.8,2.8,0,0,0-1.43.34,3.2,3.2,0,0,0-1,.86,3.79,3.79,0,0,0-.59,1.17,4.24,4.24,0,0,0-.2,1.25v4.45h-.84ZM159,7.55h.85v8.63H159Zm-.17-3H160V5.75h-1.19Zm-6,3.83h-1.73V7.55h1.73V4.7h.84V7.55h2.85v.79H153.7v5a5.74,5.74,0,0,0,.11,1.23,1.59,1.59,0,0,0,.33.69,1,1,0,0,0,.5.31,2.39,2.39,0,0,0,.62.08,1.78,1.78,0,0,0,.8-.17,2.09,2.09,0,0,0,.68-.58l.53.5a2.79,2.79,0,0,1-.86.76,2.64,2.64,0,0,1-1.25.26,3.43,3.43,0,0,1-.93-.12,1.53,1.53,0,0,1-.74-.45A2.41,2.41,0,0,1,153,15a5.07,5.07,0,0,1-.16-1.41Zm-4.13,3.43c-.26-.06-.59-.11-1-.16s-.9-.06-1.51-.06a4.19,4.19,0,0,0-1.52.23,2.23,2.23,0,0,0-.85.58,1.78,1.78,0,0,0-.38.75,4.06,4.06,0,0,0-.08.73,1.54,1.54,0,0,0,.63,1.38,2.8,2.8,0,0,0,1.6.42,3.17,3.17,0,0,0,1.2-.23,3.28,3.28,0,0,0,1-.6,2.83,2.83,0,0,0,.66-.85,2,2,0,0,0,.25-1Zm.07,4.41c0-.17,0-.37,0-.58v-.86a3.7,3.7,0,0,1-.76.81,3.56,3.56,0,0,1-.83.52,3.46,3.46,0,0,1-.85.26,4.8,4.8,0,0,1-.79.08,5.68,5.68,0,0,1-1.09-.11,2.76,2.76,0,0,1-1-.41,2.08,2.08,0,0,1-.7-.79,2.61,2.61,0,0,1-.27-1.26,3.29,3.29,0,0,1,.2-1.18,2.4,2.4,0,0,1,.66-.95,3.15,3.15,0,0,1,1.16-.64,5.47,5.47,0,0,1,1.73-.24q.8,0,1.41.06c.41,0,.76.08,1.05.13v-.49a3.59,3.59,0,0,0-.17-1.18A1.67,1.67,0,0,0,148,8.6a1.84,1.84,0,0,0-.82-.39,4.78,4.78,0,0,0-1.13-.12,4,4,0,0,0-1.7.31,5.28,5.28,0,0,0-1,.59L143,8.41a4.65,4.65,0,0,1,3.09-1.09,4.06,4.06,0,0,1,2.59.72,2.83,2.83,0,0,1,.9,2.36v4.69c0,.21,0,.41,0,.57l0,.52Zm-9.41-7.11a3.2,3.2,0,0,0-.66-.47,3.83,3.83,0,0,0-.82-.34,4.15,4.15,0,0,0-1.17-.15,3.82,3.82,0,0,0-1.3.22,3.05,3.05,0,0,0-1.13.68,3.55,3.55,0,0,0-.8,1.2,4.61,4.61,0,0,0-.3,1.75,5.69,5.69,0,0,0,.17,1.39,3.44,3.44,0,0,0,.54,1.16,2.59,2.59,0,0,0,1,.81,3.45,3.45,0,0,0,2.79,0,3.27,3.27,0,0,0,1-.72,2.88,2.88,0,0,0,.57-.91,2.32,2.32,0,0,0,.19-.86Zm0,7.11c0-.17,0-.41,0-.7s0-.56,0-.8a2.88,2.88,0,0,1-.75.87,4.63,4.63,0,0,1-1,.59,3.49,3.49,0,0,1-1.44.27,4,4,0,0,1-1.73-.35,3.35,3.35,0,0,1-1.21-.95,3.91,3.91,0,0,1-.71-1.41,6.24,6.24,0,0,1-.24-1.76,5.23,5.23,0,0,1,.33-1.9,4.28,4.28,0,0,1,.92-1.46A4.23,4.23,0,0,1,135,7.65a4.71,4.71,0,0,1,1.79-.33,4,4,0,0,1,1,.13c.3.09.58.19.83.29a6,6,0,0,1,.79.41V3.66h.83V15.29c0,.25,0,.54,0,.89ZM123.09,9.37V8.31c0-.13,0-.26,0-.38a2.64,2.64,0,0,0,0-.38h.79c0,.14,0,.26,0,.37s0,.24,0,.37,0,.28,0,.45v.61a4.92,4.92,0,0,1,.42-.64,3.57,3.57,0,0,1,.68-.66,3.65,3.65,0,0,1,1-.52,3.73,3.73,0,0,1,1.3-.21,4,4,0,0,1,1.55.27,2.37,2.37,0,0,1,1,.76,3,3,0,0,1,.56,1.2,6.35,6.35,0,0,1,.17,1.57v5.06h-.84V11.4a6.53,6.53,0,0,0-.17-1.6,2.45,2.45,0,0,0-.5-1,1.77,1.77,0,0,0-.81-.53,3.59,3.59,0,0,0-1.09-.15,2.83,2.83,0,0,0-1.43.34,3.05,3.05,0,0,0-1,.86,3.82,3.82,0,0,0-.6,1.17,4.22,4.22,0,0,0-.19,1.25v4.45h-.85Zm-9.83-1.82h.84v4.79a6.49,6.49,0,0,0,.16,1.59,2.5,2.5,0,0,0,.48,1,1.66,1.66,0,0,0,.79.53,3.54,3.54,0,0,0,1.09.15,2.77,2.77,0,0,0,1.4-.34,3.05,3.05,0,0,0,1-.86,3.59,3.59,0,0,0,.57-1.16,4.33,4.33,0,0,0,.19-1.26V7.55h.84v7.87c0,.13,0,.26,0,.38l0,.38h-.79c0-.13,0-.26,0-.37s0-.24,0-.37,0-.28,0-.44v-.62a4.92,4.92,0,0,1-.42.64,3.41,3.41,0,0,1-.65.67,3.71,3.71,0,0,1-.95.51,3.63,3.63,0,0,1-1.29.21,4.09,4.09,0,0,1-1.54-.26,2.54,2.54,0,0,1-1-.76,2.93,2.93,0,0,1-.54-1.2,6.77,6.77,0,0,1-.16-1.57Zm52.87,8.09a3.29,3.29,0,0,0,1.4-.3,3.58,3.58,0,0,0,1.14-.81,3.65,3.65,0,0,0,.75-1.19,4,4,0,0,0,.27-1.47,3.73,3.73,0,0,0-.28-1.44,4.07,4.07,0,0,0-.76-1.21,3.49,3.49,0,0,0-1.14-.83,3.26,3.26,0,0,0-1.38-.3,3.31,3.31,0,0,0-1.42.3,3.66,3.66,0,0,0-1.13.81,3.76,3.76,0,0,0-.75,1.19,4,4,0,0,0-.27,1.48,3.66,3.66,0,0,0,.28,1.44,4.15,4.15,0,0,0,.76,1.2,3.49,3.49,0,0,0,1.14.83,3.28,3.28,0,0,0,1.39.3m0,.77a4.19,4.19,0,0,1-1.73-.36,4.65,4.65,0,0,1-1.42-1,4.76,4.76,0,0,1-1-1.45,4.75,4.75,0,0,1,0-3.53,4.6,4.6,0,0,1,1-1.44,4.51,4.51,0,0,1,1.42-1,4.31,4.31,0,0,1,3.45,0,4.51,4.51,0,0,1,1.42,1,4.43,4.43,0,0,1,1,1.44,4.75,4.75,0,0,1,0,3.53,4.59,4.59,0,0,1-1,1.45,4.65,4.65,0,0,1-1.42,1,4.18,4.18,0,0,1-1.72.36m-59-.77a3.37,3.37,0,0,0,1.41-.3,3.54,3.54,0,0,0,1.13-.81,3.65,3.65,0,0,0,.75-1.19,3.81,3.81,0,0,0,.28-1.47,3.74,3.74,0,0,0-.29-1.44,3.88,3.88,0,0,0-.76-1.21,3.35,3.35,0,0,0-1.13-.83,3.31,3.31,0,0,0-1.39-.3,3.35,3.35,0,0,0-1.42.3,3.5,3.5,0,0,0-1.12.81,3.76,3.76,0,0,0-.75,1.19,3.95,3.95,0,0,0,0,2.92,4.37,4.37,0,0,0,.76,1.2,3.49,3.49,0,0,0,1.14.83,3.31,3.31,0,0,0,1.39.3m0,.77a4.22,4.22,0,0,1-1.73-.36,4.49,4.49,0,0,1-1.41-1,4.59,4.59,0,0,1-1-1.45,4.63,4.63,0,0,1,0-3.53,4.43,4.43,0,0,1,1-1.44,4.36,4.36,0,0,1,1.41-1,4.34,4.34,0,0,1,3.46,0,4.62,4.62,0,0,1,2.37,2.42,4.59,4.59,0,0,1-1,5,4.61,4.61,0,0,1-1.41,1,4.22,4.22,0,0,1-1.73.36m-12-12.75h7.5v.85H96V9.24h5.16v.84H96v6.1h-.9Z"/></g></g></svg>