<svg xmlns="http://www.w3.org/2000/svg" viewBox="0 0 309.44 78.81"><defs><style>.cls-1{fill:#fbb584;}.cls-2{fill:#f89b6c;}.cls-3{fill:#f37321;}</style></defs><g id="레이어_2" data-name="레이어 2"><g id="Layer_1" data-name="Layer 1"><path class="cls-1" d="M32.09,40.4C31,30.15,41.7,21.93,56.07,22S83,30.55,84.14,40.79s-9.6,18.46-24,18.34S33.22,50.64,32.09,40.4m54.72,3.18c-1.29-12.71-15.76-23.12-32.3-23.25S25.6,30.38,26.9,43.08,42.67,66.2,59.21,66.34s28.91-10.06,27.6-22.76"/><path class="cls-2" d="M61.84,66.59c-8.15,8.52-21.23,9.22-29.22,1.58s-7.84-20.74.31-29.25,21.24-9.22,29.21-1.58,7.85,20.74-.3,29.25M31.65,38.65c-9.48,9.89-9.63,25.12-.35,34s24.49,8.06,34-1.83,9.64-25.13.35-34-24.48-8.06-33.95,1.84"/><path class="cls-3" d="M32.51,6.78C49.46.43,66.22,6.85,70,21.13S63,52.14,46,58.48,12.29,58.41,8.57,44.13s7-31,23.94-37.35M16.77,12.24C-.81,26.16-5.29,46.34,6.77,57.29s36.1,8.56,53.68-5.36,22.07-34.09,10-45-36.1-8.57-53.68,5.36"/><path d="M118.38,30.84H98.64V27.69h19.74Zm-9.87,13.88a9.41,9.41,0,0,1-6.09-1.89,5.51,5.51,0,0,1,0-9,10.76,10.76,0,0,1,12.18,0,5.51,5.51,0,0,1,0,9A9.39,9.39,0,0,1,108.51,44.72ZM110,52h17.06v3.38H109q-5.86,0-5.87-5.47V46.37h4.4v3A2.27,2.27,0,0,0,110,52Zm-6.57-28.62h10.13v3.19H103.45Zm5.06,18.27a4.67,4.67,0,0,0,3-1,2.93,2.93,0,0,0,1.22-2.39A2.87,2.87,0,0,0,111.47,36a5,5,0,0,0-5.91,0,2.85,2.85,0,0,0-1.23,2.34,2.91,2.91,0,0,0,1.23,2.39A4.64,4.64,0,0,0,108.51,41.63ZM126.93,32h4.56v3.45h-4.56V46.55h-4.36V23.91h4.36Z"/><path d="M142.94,44.53a8.35,8.35,0,0,1-4-1.76,5.5,5.5,0,0,1,.07-9,10.76,10.76,0,0,1,12.18,0,5.51,5.51,0,0,1,.08,9,8.64,8.64,0,0,1-3.93,1.76v3.34h4.88c4.4,0,6.61-1.7,6.61-5.1V23.91h4.36V34.48h4.55V38h-4.55V55.43h-4.36V49.52q-2,1.77-5.88,1.77H134.46V47.87h8.48Zm12-13.69H135.15V27.69H154.9ZM140,23.36h10.12v3.19H140Zm5.06,18.27a4.67,4.67,0,0,0,3-1,2.93,2.93,0,0,0,1.22-2.39A2.87,2.87,0,0,0,148.06,36a5,5,0,0,0-5.91,0,2.85,2.85,0,0,0-1.23,2.34,2.91,2.91,0,0,0,1.23,2.39A4.64,4.64,0,0,0,145.1,41.63Z"/><path d="M202.9,46.66H189v8.77h-4.48V46.66H170.72V43.18H202.9ZM178.64,33.74V35.1c0,1.18.68,1.76,2,1.76h18.79V40.2H180.11q-5.84,0-5.83-4.8V24.28h24.95v3.33H178.64v2.83h20.59v3.3Z"/><path d="M215.42,29.23V27.84h-7.49V24.42H227.2v3.42h-7.45v1.39q0,7.74,2.71,11.6a14,14,0,0,0,5.43,4.66v3.45a18.34,18.34,0,0,1-8.4-5.54,13.66,13.66,0,0,1-1.91-2.87,13.28,13.28,0,0,1-1.91,2.87,18.34,18.34,0,0,1-8.4,5.54V45.49a14,14,0,0,0,5.43-4.66Q215.42,37,215.42,29.23Zm24.84,8.7h-4.7v17.5H231.2V23.91h4.36V34.4h4.7Z"/><path d="M243.23,38.7h32.19v3.48H243.23Zm29.25-11.12H261.8a9,9,0,0,0,3.89,4.29,13.34,13.34,0,0,0,7.27,1.8v3.27a20,20,0,0,1-9.8-2.1,11.33,11.33,0,0,1-3.81-3,11.85,11.85,0,0,1-3.86,3,20,20,0,0,1-9.8,2.1V33.67a13.34,13.34,0,0,0,7.27-1.8,9,9,0,0,0,3.89-4.29H246.21v-3.3h26.27Zm-.62,22.35q0,3.07-3.3,4.55a29.37,29.37,0,0,1-18.35,0Q246.9,53,246.9,49.93c0-2.06,1.1-3.57,3.31-4.55a29.37,29.37,0,0,1,18.35,0C270.76,46.36,271.86,47.87,271.86,49.93Zm-12.51,2.68a21.93,21.93,0,0,0,5.81-.61c1.43-.4,2.15-1.08,2.15-2s-.72-1.67-2.15-2.09a27.35,27.35,0,0,0-11.58,0c-1.44.42-2.16,1.12-2.16,2.09s.72,1.64,2.16,2A21.9,21.9,0,0,0,259.35,52.61Z"/><path d="M294.54,24.28q5.54,0,5.54,5v6.46h2.57v3.34H291.57v6.09H287.2V39.07h-7.56V35.73h16.11v-5.8c0-1.59-.9-2.39-2.72-2.39H281.47V24.28ZM291.31,52h18.13v3.38H290.1c-3.92,0-5.87-1.94-5.87-5.84v-3h4.36v2.75A2.42,2.42,0,0,0,291.31,52Zm18.06-28.07V48H305V44.68h-8.37V41.45H305V23.91Z"/></g></g></svg>