<svg xmlns="http://www.w3.org/2000/svg" viewBox="0 0 109.11 56.14"><defs><style>.cls-1{fill:#cc1719;}</style></defs><g id="레이어_2" data-name="레이어 2"><g id="Layer_1" data-name="Layer 1"><path class="cls-1" d="M86.6,1.14,78,30.74,70.24,1.14H46.14V9.77C42.73,5,39.1,0,25.91,0S1.82,7.73,1.82,19.77H18c.11-4.09,3.18-6.36,6.82-6.36s6.59.91,6.59,3.86-2.16,4.78-3.52,4.78H19.32V32.5h5.91a5,5,0,0,1,5,5.23c0,2.05-.68,5.23-6.14,5.23s-7.95-4.55-7.72-9.09H0c0,9.77,5.68,22.27,24.09,22.27,18.21,0,20.25-8.72,22.27-9.35l.07,8,16.36-.45V25.69l7.45,28.64H84.79l7.95-28.64V54.33h16.37V1.14ZM46.14,30.8h0a9.88,9.88,0,0,0-4.43-4.21c2.16-.56,3.69-3.06,4.43-4.94V30.8Z"/></g></g></svg>