<svg xmlns="http://www.w3.org/2000/svg" viewBox="0 0 121.87 18.67"><defs><style>.cls-1{fill:#004295;}</style></defs><g id="레이어_2" data-name="레이어 2"><g id="Layer_1" data-name="Layer 1"><path class="cls-1" d="M115.71,8.2v2.54h1.78v2.52a2.79,2.79,0,0,1,0,.66,1.63,1.63,0,0,1-1.79,1.27,1.61,1.61,0,0,1-1.77-1.27,4.43,4.43,0,0,1,0-.66v-8a3.6,3.6,0,0,1,.08-.83,1.83,1.83,0,0,1,3.48,0c0,.26,0,.68,0,.68v1h4.38V5.54a10.81,10.81,0,0,0,0-1.15c-.33-3.27-3-4.3-6.11-4.3s-5.73,1-6.11,4.3a10.71,10.71,0,0,0-.09,1.15v7.33a9.86,9.86,0,0,0,.07,1.15c.28,3.17,3,4.3,6.12,4.3s5.83-1.13,6.13-4.3c0-.59,0-.83.06-1.15V8.2ZM85.45.55h-4.4V13.44a3.55,3.55,0,0,1,0,.67,1.74,1.74,0,0,1-3.34,0,2.88,2.88,0,0,1,0-.67V.55H73.22V13c0,.33,0,1,0,1.16.31,3.25,2.87,4.31,6.07,4.31s5.78-1.06,6.09-4.31a10.15,10.15,0,0,0,0-1.16ZM45,.55l-2.2,13.62L40.57.55H33.46L33.09,18h4.35l.12-16.13,3,16.13H45L48,1.85,48.09,18h4.37L52.07.55ZM18.65.55,15.42,18h4.71L22.56,1.85,24.94,18h4.67L26.4.55Zm82.2,14-4.1-14H90.28V17.8h4.28L94.31,3.32,98.72,17.8h6.2V.55h-4.3ZM61.29,5.09a2.27,2.27,0,0,1,0-.9A1.42,1.42,0,0,1,62.85,3a1.47,1.47,0,0,1,1.6,1.57V5.66h4.3V4.44C68.75.69,65.38.1,62.94.1c-3.06,0-5.57,1-6,3.83a5.92,5.92,0,0,0,0,2.33c.75,3.52,6.88,4.54,7.77,6.77a2.3,2.3,0,0,1,0,1.27c-.13.58-.52,1.17-1.68,1.17a1.54,1.54,0,0,1-1.73-1.57V12.23H56.71v1.33c0,3.85,3,5,6.27,5s5.68-1.07,6.09-3.95a8.41,8.41,0,0,0,0-2.83c-.72-3.61-7.25-4.69-7.75-6.71m-56.66,0a2.4,2.4,0,0,1,0-.92A1.44,1.44,0,0,1,6.21,3,1.49,1.49,0,0,1,7.83,4.54V5.62h4.34V4.39C12.17.6,8.75,0,6.29,0,3.2,0,.67,1,.21,3.87a6,6,0,0,0,0,2.35c.75,3.56,7,4.59,7.85,6.85a2.16,2.16,0,0,1,0,1.28,1.5,1.5,0,0,1-1.7,1.18,1.55,1.55,0,0,1-1.74-1.59V12.27H0V13.6c0,3.89,3.06,5.07,6.33,5.07s5.74-1.08,6.16-4a8.71,8.71,0,0,0,0-2.86c-.74-3.65-7.34-4.73-7.84-6.77"/></g></g></svg>