<svg xmlns="http://www.w3.org/2000/svg" xmlns:xlink="http://www.w3.org/1999/xlink" viewBox="0 0 166.56 21.28"><defs><style>.cls-1{fill:none;}.cls-2{fill:#fff;}.cls-3{fill:#007fc5;}.cls-4{clip-path:url(#clip-path);}.cls-5{fill:#0081c6;}.cls-6{fill:#0083c8;}.cls-7{fill:#0085c9;}.cls-8{fill:#0087cb;}.cls-9{fill:#0089cc;}.cls-10{fill:#008bcd;}.cls-11{fill:#008dcf;}.cls-12{fill:#008fd0;}.cls-13{fill:#0091d2;}.cls-14{fill:#0093d3;}.cls-15{fill:#0095d4;}.cls-16{fill:#0097d6;}.cls-17{fill:#0099d7;}.cls-18{fill:#029bd9;}.cls-19{fill:#049dda;}.cls-20{fill:#069fdb;}.cls-21{fill:#09a1dd;}.cls-22{fill:#0ba3de;}.cls-23{fill:#0da5df;}.cls-24{fill:#0fa7e1;}.cls-25{fill:#11a9e2;}.cls-26{fill:#12abe3;}.cls-27{fill:#14ade5;}.cls-28{fill:#16afe6;}.cls-29{fill:#18b0e7;}.cls-30{fill:#19b2e9;}.cls-31{fill:#1bb4ea;}.cls-32{fill:#1cb6eb;}.cls-33{fill:#1eb8ed;}.cls-34{fill:#20baee;}.cls-35{fill:#23bcef;}.cls-36{fill:#37beef;}.cls-37{fill:#45c0f0;}.cls-38{fill:#51c2f0;}.cls-39{fill:#5cc5f1;}.cls-40{fill:#65c7f2;}.cls-41{fill:#6ec9f2;}.cls-42{fill:#76cbf3;}.cls-43{fill:#7ecef3;}.cls-44{fill:#86d0f4;}.cls-45{fill:#8dd3f5;}.cls-46{fill:#94d5f5;}.cls-47{fill:#9bd7f6;}.cls-48{fill:#a2daf6;}.cls-49{fill:#a8dcf7;}.cls-50{fill:#aedef8;}.cls-51{fill:#b4e0f8;}.cls-52{fill:#bae3f9;}.cls-53{fill:#bfe5f9;}.cls-54{fill:#c5e7fa;}.cls-55{fill:#cae9fa;}.cls-56{fill:#cfebfb;}.cls-57{fill:#d4edfb;}.cls-58{fill:#daeffc;}.cls-59{fill:#dff1fc;}.cls-60{fill:#e4f3fd;}.cls-61{fill:#e8f6fd;}.cls-62{fill:#edf7fd;}.cls-63{fill:#f2f9fe;}.cls-64{fill:#f7fbfe;}.cls-65{fill:#fbfdff;}.cls-66{fill:#0062a7;}</style><clipPath id="clip-path" transform="translate(0.01)"><path class="cls-1" d="M10.65,20.78A10.14,10.14,0,1,0,.51,10.65,10.14,10.14,0,0,0,10.65,20.78Z"/></clipPath></defs><g id="레이어_2" data-name="레이어 2"><g id="Layer_1" data-name="Layer 1"><path class="cls-2" d="M21.28,10.64A10.64,10.64,0,1,1,10.64,0,10.64,10.64,0,0,1,21.28,10.64Z" transform="translate(0.01)"/><path class="cls-3" d="M10.65,20.78A10.14,10.14,0,1,0,.52,10.64,10.14,10.14,0,0,0,10.65,20.78Z" transform="translate(0.01)"/><g class="cls-4"><path class="cls-3" d="M10.74,15.53c4.46,0,8.27,1.25,9.91,3a10.41,10.41,0,0,0,.85-4.1A10.65,10.65,0,0,0,10.74,3.91,10.64,10.64,0,0,0,0,14.44a10.4,10.4,0,0,0,.84,4.1C2.47,16.78,6.29,15.53,10.74,15.53Z" transform="translate(0.01)"/><path class="cls-5" d="M10.74,15.54c4.45,0,8.25,1.24,9.89,3a10.17,10.17,0,0,0,.84-4.06A10.61,10.61,0,0,0,10.74,4,10.61,10.61,0,0,0,0,14.46a10.17,10.17,0,0,0,.85,4.06C2.49,16.78,6.3,15.54,10.74,15.54Z" transform="translate(0.01)"/><path class="cls-6" d="M10.74,15.55c4.43,0,8.23,1.23,9.86,3a10,10,0,0,0,.84-4A10.56,10.56,0,0,0,10.74,4.09,10.57,10.57,0,0,0,0,14.48a10,10,0,0,0,.84,4C2.51,16.78,6.31,15.55,10.74,15.55Z" transform="translate(0.01)"/><path class="cls-7" d="M10.74,15.56c4.42,0,8.2,1.22,9.83,2.94a10,10,0,0,0,.84-4A10.51,10.51,0,0,0,10.74,4.18,10.51,10.51,0,0,0,.07,14.5a9.92,9.92,0,0,0,.84,4C2.53,16.78,6.32,15.56,10.74,15.56Z" transform="translate(0.01)"/><path class="cls-8" d="M10.73,15.58c4.42,0,8.19,1.2,9.81,2.9a9.73,9.73,0,0,0,.84-4A10.48,10.48,0,0,0,10.73,4.27,10.47,10.47,0,0,0,.09,14.52a9.69,9.69,0,0,0,.84,4C2.55,16.78,6.33,15.58,10.73,15.58Z" transform="translate(0.01)"/><path class="cls-9" d="M10.73,15.59c4.4,0,8.17,1.19,9.79,2.88a9.74,9.74,0,0,0,.83-3.93A10.42,10.42,0,0,0,10.73,4.36,10.44,10.44,0,0,0,.12,14.54,9.59,9.59,0,0,0,1,18.47C2.57,16.78,6.34,15.59,10.73,15.59Z" transform="translate(0.01)"/><path class="cls-10" d="M10.73,15.6c4.39,0,8.15,1.18,9.76,2.86a9.44,9.44,0,0,0,.83-3.9A10.39,10.39,0,0,0,10.73,4.45,10.39,10.39,0,0,0,.14,14.56,9.45,9.45,0,0,0,1,18.46C2.59,16.78,6.35,15.6,10.73,15.6Z" transform="translate(0.01)"/><path class="cls-11" d="M10.73,15.61c4.38,0,8.12,1.17,9.73,2.84a9.34,9.34,0,0,0,.83-3.87,10.35,10.35,0,0,0-10.56-10,10.35,10.35,0,0,0-10.56,10A9.5,9.5,0,0,0,1,18.45C2.61,16.78,6.36,15.61,10.73,15.61Z" transform="translate(0.01)"/><path class="cls-12" d="M10.73,15.62c4.37,0,8.1,1.16,9.71,2.81a9.27,9.27,0,0,0,.83-3.83c0-5.45-4.72-10-10.54-10S.2,9.16.2,14.6A9.12,9.12,0,0,0,1,18.43C2.63,16.78,6.37,15.62,10.73,15.62Z" transform="translate(0.01)"/><path class="cls-13" d="M10.73,15.63c4.35,0,8.08,1.16,9.68,2.79a9.17,9.17,0,0,0,.83-3.8c0-5.4-4.71-9.9-10.51-9.9S.22,9.22.22,14.62a9.14,9.14,0,0,0,.83,3.8C2.65,16.79,6.38,15.63,10.73,15.63Z" transform="translate(0.01)"/><path class="cls-14" d="M10.73,15.64c4.34,0,8.06,1.15,9.65,2.77a9.07,9.07,0,0,0,.83-3.77c0-5.35-4.7-9.83-10.48-9.83S.25,9.29.25,14.64a9,9,0,0,0,.83,3.77C2.67,16.79,6.39,15.64,10.73,15.64Z" transform="translate(0.01)"/><path class="cls-15" d="M10.72,15.65c4.34,0,8,1.14,9.64,2.74a8.84,8.84,0,0,0,.82-3.73c0-5.31-4.68-9.76-10.46-9.76S.28,9.36.28,14.66a8.84,8.84,0,0,0,.82,3.73C2.69,16.79,6.4,15.65,10.72,15.65Z" transform="translate(0.01)"/><path class="cls-16" d="M10.72,15.67c4.32,0,8,1.12,9.61,2.71a8.71,8.71,0,0,0,.82-3.7C21.15,9.42,16.48,5,10.72,5S.3,9.42.3,14.68a8.86,8.86,0,0,0,.82,3.7C2.71,16.79,6.41,15.67,10.72,15.67Z" transform="translate(0.01)"/><path class="cls-17" d="M10.72,15.68c4.31,0,8,1.11,9.58,2.69a8.57,8.57,0,0,0,.82-3.67c0-5.21-4.66-9.62-10.4-9.62S.33,9.49.33,14.7a8.57,8.57,0,0,0,.82,3.67C2.73,16.79,6.42,15.68,10.72,15.68Z" transform="translate(0.01)"/><path class="cls-18" d="M10.72,15.69c4.3,0,8,1.1,9.56,2.66a8.54,8.54,0,0,0,.81-3.63c0-5.17-4.64-9.55-10.37-9.55S.35,9.56.35,14.72a8.54,8.54,0,0,0,.82,3.63C2.75,16.79,6.43,15.69,10.72,15.69Z" transform="translate(0.01)"/><path class="cls-19" d="M10.72,15.7c4.29,0,8,1.09,9.53,2.64a8.43,8.43,0,0,0,.81-3.6c0-5.12-4.63-9.48-10.34-9.48S.38,9.62.38,14.74a8.27,8.27,0,0,0,.82,3.6C2.77,16.79,6.44,15.7,10.72,15.7Z" transform="translate(0.01)"/><path class="cls-20" d="M10.72,15.71c4.27,0,7.93,1.08,9.5,2.62A8.17,8.17,0,0,0,21,14.76c0-5.07-4.63-9.41-10.32-9.41S.41,9.69.41,14.76a8.3,8.3,0,0,0,.81,3.57C2.79,16.79,6.45,15.71,10.72,15.71Z" transform="translate(0.01)"/><path class="cls-21" d="M10.72,15.72c4.26,0,7.91,1.08,9.47,2.6A8,8,0,0,0,21,14.78c0-5-4.61-9.34-10.29-9.34S.43,9.76.43,14.78a8.17,8.17,0,0,0,.81,3.54C2.81,16.8,6.46,15.72,10.72,15.72Z" transform="translate(0.01)"/><path class="cls-22" d="M10.71,15.73c4.26,0,7.9,1.07,9.46,2.57A8,8,0,0,0,21,14.8c0-5-4.6-9.27-10.27-9.27S.46,9.82.46,14.8a8,8,0,0,0,.81,3.5C2.83,16.8,6.47,15.73,10.71,15.73Z" transform="translate(0.01)"/><path class="cls-23" d="M10.71,15.75c4.24,0,7.87,1.05,9.43,2.54A7.87,7.87,0,0,0,21,14.82c0-4.93-4.58-9.2-10.24-9.2S.48,9.89.48,14.82a7.87,7.87,0,0,0,.81,3.47C2.85,16.8,6.48,15.75,10.71,15.75Z" transform="translate(0.01)"/><path class="cls-24" d="M10.71,15.76c4.23,0,7.85,1,9.4,2.52a7.74,7.74,0,0,0,.81-3.44c0-4.89-4.57-9.13-10.21-9.13S.51,10,.51,14.84a7.74,7.74,0,0,0,.81,3.44C2.87,16.8,6.49,15.76,10.71,15.76Z" transform="translate(0.01)"/><path class="cls-25" d="M10.71,15.77c4.22,0,7.83,1,9.38,2.49a7.6,7.6,0,0,0,.8-3.41c0-4.83-4.56-9-10.18-9S.54,10,.54,14.85a7.57,7.57,0,0,0,.8,3.41C2.89,16.8,6.5,15.77,10.71,15.77Z" transform="translate(0.01)"/><path class="cls-26" d="M10.71,15.78c4.21,0,7.81,1,9.35,2.47a7.48,7.48,0,0,0,.8-3.38c0-4.78-4.54-9-10.15-9S.56,10.09.56,14.87a7.49,7.49,0,0,0,.81,3.38C2.91,16.8,6.51,15.78,10.71,15.78Z" transform="translate(0.01)"/><path class="cls-27" d="M10.71,15.79c4.19,0,7.78,1,9.32,2.45a7.35,7.35,0,0,0,.8-3.35C20.83,10.15,16.3,6,10.71,6S.59,10.16.59,14.89a7.35,7.35,0,0,0,.8,3.35C2.93,16.8,6.52,15.79,10.71,15.79Z" transform="translate(0.01)"/><path class="cls-28" d="M10.71,15.8c4.18,0,7.76,1,9.3,2.42a7.28,7.28,0,0,0,.79-3.31c0-4.69-4.52-8.84-10.09-8.84S.61,10.22.61,14.91a7.28,7.28,0,0,0,.8,3.31C3,16.8,6.53,15.8,10.71,15.8Z" transform="translate(0.01)"/><path class="cls-29" d="M10.7,15.81c4.18,0,7.75,1,9.28,2.4a7.19,7.19,0,0,0,.8-3.28c0-4.64-4.51-8.77-10.08-8.77S.64,10.29.64,14.93a7.07,7.07,0,0,0,.8,3.28C3,16.8,6.54,15.81,10.7,15.81Z" transform="translate(0.01)"/><path class="cls-30" d="M10.7,15.83c4.16,0,7.73,1,9.25,2.37a7,7,0,0,0,.8-3.25c0-4.6-4.5-8.7-10-8.7S.67,10.36.67,15a7.06,7.06,0,0,0,.79,3.25C3,16.81,6.55,15.83,10.7,15.83Z" transform="translate(0.01)"/><path class="cls-31" d="M10.7,15.84c4.15,0,7.7,1,9.23,2.35A7,7,0,0,0,20.72,15c0-4.55-4.49-8.63-10-8.63S.69,10.42.69,15a7,7,0,0,0,.8,3.22C3,16.81,6.56,15.84,10.7,15.84Z" transform="translate(0.01)"/><path class="cls-32" d="M10.7,15.85c4.14,0,7.68,1,9.2,2.32A6.81,6.81,0,0,0,20.69,15c0-4.5-4.47-8.56-10-8.56S.72,10.49.72,15a6.78,6.78,0,0,0,.79,3.18C3,16.81,6.57,15.85,10.7,15.85Z" transform="translate(0.01)"/><path class="cls-33" d="M10.7,15.86c4.13,0,7.66.95,9.17,2.3A6.69,6.69,0,0,0,20.66,15c0-4.46-4.46-8.49-10-8.49s-10,4-10,8.49a6.81,6.81,0,0,0,.79,3.15C3.05,16.81,6.58,15.86,10.7,15.86Z" transform="translate(0.01)"/><path class="cls-34" d="M10.7,15.87c4.11,0,7.64.94,9.14,2.28A6.46,6.46,0,0,0,20.63,15c0-4.41-4.45-8.42-9.93-8.42S.77,10.62.77,15a6.57,6.57,0,0,0,.79,3.12C3.07,16.81,6.59,15.87,10.7,15.87Z" transform="translate(0.01)"/><path class="cls-35" d="M10.7,15.88c4.1,0,7.62.93,9.12,2.25a6.38,6.38,0,0,0,.78-3.08c0-4.36-4.43-8.35-9.9-8.35s-9.9,4-9.9,8.35a6.49,6.49,0,0,0,.78,3.08C3.09,16.81,6.6,15.88,10.7,15.88Z" transform="translate(0.01)"/><path class="cls-36" d="M10.7,15.91c4.09,0,7.6.92,9.11,2.24a6.5,6.5,0,0,0,.78-3.06c0-4.34-4.43-8.31-9.89-8.31s-9.89,4-9.89,8.3a6.51,6.51,0,0,0,.78,3.07C3.1,16.83,6.61,15.91,10.7,15.91Z" transform="translate(0.01)"/><path class="cls-37" d="M10.7,15.93c4.09,0,7.59.92,9.09,2.23a6.29,6.29,0,0,0,.79-3c0-4.31-4.43-8.26-9.88-8.26s-9.88,4-9.88,8.25a6.3,6.3,0,0,0,.79,3.05C3.11,16.85,6.61,15.93,10.7,15.93Z" transform="translate(0.01)"/><path class="cls-38" d="M10.7,16c4.08,0,7.58.91,9.08,2.21a6.2,6.2,0,0,0,.78-3c0-4.28-4.41-8.2-9.86-8.2S.84,10.87.84,15.15a6.31,6.31,0,0,0,.78,3C3.12,16.87,6.62,16,10.7,16Z" transform="translate(0.01)"/><path class="cls-39" d="M10.7,16c4.08,0,7.57.9,9.07,2.19a6.27,6.27,0,0,0,.78-3C20.55,10.93,16.14,7,10.7,7S.85,10.93.85,15.18a6.21,6.21,0,0,0,.78,3C3.13,16.89,6.63,16,10.7,16Z" transform="translate(0.01)"/><path class="cls-40" d="M10.7,16c4.07,0,7.56.9,9.06,2.18a6.16,6.16,0,0,0,.78-3c0-4.22-4.41-8.1-9.84-8.1S.86,11,.86,15.21a6.16,6.16,0,0,0,.78,3C3.14,16.91,6.63,16,10.7,16Z" transform="translate(0.01)"/><path class="cls-41" d="M10.7,16c4.07,0,7.55.89,9,2.16a6,6,0,0,0,.78-3c0-4.19-4.4-8-9.82-8s-9.82,3.85-9.82,8a6,6,0,0,0,.78,3C3.15,16.93,6.64,16,10.7,16Z" transform="translate(0.01)"/><path class="cls-42" d="M10.7,16.06c4.06,0,7.54.89,9,2.15a6,6,0,0,0,.78-2.94c0-4.17-4.39-8-9.81-8s-9.81,3.83-9.81,8a6,6,0,0,0,.78,2.94C3.16,17,6.64,16.06,10.7,16.06Z" transform="translate(0.01)"/><path class="cls-43" d="M10.7,16.09c4.05,0,7.53.88,9,2.13a5.93,5.93,0,0,0,.78-2.92c0-4.14-4.39-7.94-9.8-7.94S.9,11.16.9,15.3a5.93,5.93,0,0,0,.78,2.92C3.17,17,6.65,16.09,10.7,16.09Z" transform="translate(0.01)"/><path class="cls-44" d="M10.7,16.11c4.05,0,7.52.88,9,2.12a5.81,5.81,0,0,0,.77-2.89c0-4.12-4.38-7.9-9.78-7.9S.92,11.22.92,15.33a5.89,5.89,0,0,0,.77,2.91C3.18,17,6.65,16.11,10.7,16.11Z" transform="translate(0.01)"/><path class="cls-45" d="M10.7,16.14c4,0,7.51.87,9,2.11a5.81,5.81,0,0,0,.78-2.88c0-4.09-4.38-7.84-9.77-7.84S.93,11.28.93,15.36a5.92,5.92,0,0,0,.77,2.89C3.19,17,6.66,16.14,10.7,16.14Z" transform="translate(0.01)"/><path class="cls-46" d="M10.7,16.17c4,0,7.5.86,9,2.09a5.77,5.77,0,0,0,.78-2.86c0-4.06-4.38-7.79-9.76-7.79S.94,11.34.94,15.4a5.71,5.71,0,0,0,.78,2.86C3.2,17,6.66,16.17,10.7,16.17Z" transform="translate(0.01)"/><path class="cls-47" d="M10.7,16.19c4,0,7.49.86,9,2.08a5.66,5.66,0,0,0,.77-2.84c0-4-4.36-7.74-9.74-7.74S1,11.4,1,15.43a5.66,5.66,0,0,0,.77,2.84C3.21,17.05,6.67,16.19,10.7,16.19Z" transform="translate(0.01)"/><path class="cls-48" d="M10.7,16.22c4,0,7.48.85,9,2.06a5.69,5.69,0,0,0,.77-2.82c0-4-4.36-7.69-9.73-7.69S1,11.46,1,15.46a5.69,5.69,0,0,0,.77,2.82C3.22,17.07,6.68,16.22,10.7,16.22Z" transform="translate(0.01)"/><path class="cls-49" d="M10.7,16.24c4,0,7.47.85,8.94,2.05a5.48,5.48,0,0,0,.77-2.8c0-4-4.35-7.63-9.71-7.63S1,11.52,1,15.49a5.58,5.58,0,0,0,.77,2.8C3.23,17.09,6.68,16.24,10.7,16.24Z" transform="translate(0.01)"/><path class="cls-50" d="M10.7,16.27c4,0,7.46.84,8.93,2a5.44,5.44,0,0,0,.77-2.78c0-3.94-4.35-7.58-9.7-7.58S1,11.58,1,15.52a5.44,5.44,0,0,0,.77,2.78C3.24,17.11,6.69,16.27,10.7,16.27Z" transform="translate(0.01)"/><path class="cls-51" d="M10.7,16.29c4,0,7.45.84,8.92,2a5.44,5.44,0,0,0,.77-2.76C20.39,11.64,16.05,8,10.7,8S1,11.64,1,15.55a5.44,5.44,0,0,0,.77,2.76C3.25,17.13,6.69,16.3,10.7,16.29Z" transform="translate(0.01)"/><path class="cls-52" d="M10.7,16.32c4,0,7.44.83,8.91,2a5.35,5.35,0,0,0,.76-2.73C20.37,11.7,16,8.1,10.7,8.1S1,11.7,1,15.58a5.37,5.37,0,0,0,.77,2.74C3.26,17.15,6.7,16.32,10.7,16.32Z" transform="translate(0.01)"/><path class="cls-53" d="M10.7,16.35c4,0,7.43.82,8.89,2a5.28,5.28,0,0,0,.77-2.72c0-3.86-4.33-7.43-9.66-7.43S1,11.76,1,15.62a5.34,5.34,0,0,0,.76,2.72C3.27,17.17,6.7,16.35,10.7,16.35Z" transform="translate(0.01)"/><path class="cls-54" d="M10.7,16.37c4,0,7.42.82,8.88,2a5.28,5.28,0,0,0,.77-2.7c0-3.83-4.33-7.38-9.65-7.38s-9.65,3.55-9.65,7.38a5.27,5.27,0,0,0,.76,2.7C3.28,17.19,6.71,16.37,10.7,16.37Z" transform="translate(0.01)"/><path class="cls-55" d="M10.7,16.4c4,0,7.41.81,8.87,2a5.2,5.2,0,0,0,.76-2.68c0-3.8-4.31-7.33-9.63-7.33s-9.63,3.53-9.63,7.33a5.2,5.2,0,0,0,.76,2.68C3.29,17.21,6.71,16.4,10.7,16.4Z" transform="translate(0.01)"/><path class="cls-56" d="M10.7,16.42c4,0,7.4.81,8.86,1.95a5.1,5.1,0,0,0,.76-2.66c0-3.77-4.31-7.28-9.62-7.28s-9.62,3.51-9.62,7.28a5.1,5.1,0,0,0,.76,2.66C3.3,17.23,6.72,16.43,10.7,16.42Z" transform="translate(0.01)"/><path class="cls-57" d="M10.7,16.45c4,0,7.39.8,8.85,1.93a5.15,5.15,0,0,0,.76-2.64C20.31,12,16,8.52,10.7,8.52S1.09,12,1.09,15.74a5.06,5.06,0,0,0,.76,2.64C3.31,17.25,6.73,16.45,10.7,16.45Z" transform="translate(0.01)"/><path class="cls-58" d="M10.7,16.48c4,0,7.38.79,8.83,1.91a5,5,0,0,0,.76-2.62c0-3.71-4.3-7.17-9.59-7.17s-9.59,3.46-9.59,7.17a5,5,0,0,0,.75,2.62C3.32,17.27,6.73,16.48,10.7,16.48Z" transform="translate(0.01)"/><path class="cls-59" d="M10.7,16.5c4,0,7.37.79,8.82,1.9a4.89,4.89,0,0,0,.76-2.59c0-3.69-4.29-7.13-9.58-7.13S1.12,12.12,1.12,15.8a4.9,4.9,0,0,0,.76,2.6C3.33,17.29,6.74,16.5,10.7,16.5Z" transform="translate(0.01)"/><path class="cls-60" d="M10.7,16.53c4,0,7.36.78,8.81,1.88a4.94,4.94,0,0,0,.76-2.57c0-3.66-4.29-7.07-9.57-7.07s-9.57,3.41-9.57,7.06a4.83,4.83,0,0,0,.76,2.58C3.34,17.31,6.74,16.53,10.7,16.53Z" transform="translate(0.01)"/><path class="cls-61" d="M10.7,16.55c4,0,7.35.78,8.8,1.87a4.83,4.83,0,0,0,.75-2.55c0-3.64-4.28-7-9.55-7s-9.55,3.39-9.55,7a4.89,4.89,0,0,0,.75,2.56C3.35,17.33,6.75,16.55,10.7,16.55Z" transform="translate(0.01)"/><path class="cls-62" d="M10.7,16.58c4,0,7.34.77,8.78,1.86a4.74,4.74,0,0,0,.76-2.54c0-3.61-4.28-7-9.54-7s-9.54,3.37-9.54,7a4.82,4.82,0,0,0,.75,2.54C3.36,17.35,6.75,16.58,10.7,16.58Z" transform="translate(0.01)"/><path class="cls-63" d="M10.7,16.6c3.94,0,7.33.77,8.77,1.85a4.74,4.74,0,0,0,.76-2.52C20.23,12.35,16,9,10.7,9s-9.53,3.35-9.53,6.92a4.73,4.73,0,0,0,.75,2.52C3.37,17.37,6.76,16.61,10.7,16.6Z" transform="translate(0.01)"/><path class="cls-64" d="M10.7,16.63c3.94,0,7.32.76,8.76,1.83a4.69,4.69,0,0,0,.75-2.5c0-3.55-4.26-6.86-9.51-6.86S1.19,12.41,1.19,16a4.6,4.6,0,0,0,.75,2.5C3.38,17.39,6.76,16.63,10.7,16.63Z" transform="translate(0.01)"/><path class="cls-65" d="M10.7,16.66c3.93,0,7.31.75,8.75,1.81A4.62,4.62,0,0,0,20.2,16c0-3.52-4.26-6.81-9.5-6.81S1.2,12.47,1.2,16A4.59,4.59,0,0,0,2,18.47C3.39,17.41,6.77,16.66,10.7,16.66Z" transform="translate(0.01)"/><path class="cls-2" d="M10.7,16.68c3.93,0,7.3.75,8.73,1.8A4.54,4.54,0,0,0,20.19,16c0-3.49-4.26-6.76-9.49-6.76S1.21,12.53,1.21,16A4.53,4.53,0,0,0,2,18.48C3.4,17.43,6.78,16.68,10.7,16.68Z" transform="translate(0.01)"/></g><path class="cls-3" d="M10.65,13.2a26.6,26.6,0,0,0-9.26,1.57,10.14,10.14,0,0,0,18.52,0A26.68,26.68,0,0,0,10.65,13.2Z" transform="translate(0.01)"/><polygon class="cls-66" points="24.05 13.67 30.75 13.67 30.75 19.45 33.38 19.45 33.38 13.67 40.08 13.67 40.08 12.04 24.05 12.04 24.05 13.67"/><path class="cls-66" d="M28,9.32a6.22,6.22,0,0,0,1.83.95,7.23,7.23,0,0,0,2.26.35,7.1,7.1,0,0,0,2.24-.35,6.28,6.28,0,0,0,1.84-.95,5.19,5.19,0,0,0,1.25-1.45,3.69,3.69,0,0,0,.46-1.78,3.63,3.63,0,0,0-.46-1.75,5.05,5.05,0,0,0-1.25-1.45,6.55,6.55,0,0,0-1.84-1,6.79,6.79,0,0,0-2.24-.36,7,7,0,0,0-2.26.36,6.49,6.49,0,0,0-1.83,1,4.73,4.73,0,0,0-1.24,1.45,3.63,3.63,0,0,0-.46,1.75,3.69,3.69,0,0,0,.46,1.78A4.84,4.84,0,0,0,28,9.32Zm.93-3.23A2.49,2.49,0,0,1,29.14,5a2.79,2.79,0,0,1,.68-.92,3.06,3.06,0,0,1,1-.64,3.38,3.38,0,0,1,2.45,0,3.23,3.23,0,0,1,1,.64A3.13,3.13,0,0,1,35,5a2.57,2.57,0,0,1,.26,1.1A2.52,2.52,0,0,1,35,7.21a3,3,0,0,1-.69.92,2.91,2.91,0,0,1-1,.64,3.5,3.5,0,0,1-2.45,0,3,3,0,0,1-1-.64,2.8,2.8,0,0,1-.67-.92A2.52,2.52,0,0,1,28.89,6.09Z" transform="translate(0.01)"/><path class="cls-66" d="M54.32,1.87h-2l.13.16a.4.4,0,0,1,.09.21,5.49,5.49,0,0,1,.09,1.17v8.13c0,.51-.3.85-.91,1a4.21,4.21,0,0,1-1,.13H45.17c-.3,0-.39-.06-.42-.1a.64.64,0,0,1-.09-.38V9h4.8a.81.81,0,0,0,.59-.17.74.74,0,0,0,.17-.52V3.08A.7.7,0,0,0,50,2.56a.86.86,0,0,0-.6-.17h-7.5V4H47.6V7.36H41.76l.17.36a2.35,2.35,0,0,1,.1.75v4.68a1.07,1.07,0,0,0,.31.76,1.75,1.75,0,0,0,1.32.43h6.56l1,0A3.19,3.19,0,0,0,52.59,14v5.3h2.62V2.58C55.21,2.27,55.06,1.89,54.32,1.87Z" transform="translate(0.01)"/><path class="cls-66" d="M61.34,8.93a6,6,0,0,0,1.75.93,6.84,6.84,0,0,0,4.26,0,6,6,0,0,0,1.75-.93,4.55,4.55,0,0,0,1.19-1.37,3.33,3.33,0,0,0,.45-1.68,3.3,3.3,0,0,0-.45-1.67A4.58,4.58,0,0,0,69.1,2.83a5.94,5.94,0,0,0-1.75-.92,6.5,6.5,0,0,0-2.12-.34,6.57,6.57,0,0,0-2.14.34,5.94,5.94,0,0,0-1.75.92,4.58,4.58,0,0,0-1.19,1.38,3.38,3.38,0,0,0-.43,1.67,3.42,3.42,0,0,0,.43,1.68A4.55,4.55,0,0,0,61.34,8.93Zm1-3a2.4,2.4,0,0,1,.22-1A2.8,2.8,0,0,1,63.19,4a3.12,3.12,0,0,1,.93-.58,2.75,2.75,0,0,1,1.11-.22,2.7,2.7,0,0,1,1.1.22,3.15,3.15,0,0,1,.91.58,2.85,2.85,0,0,1,.63.86,2.41,2.41,0,0,1,.23,1,2.51,2.51,0,0,1-.23,1,3.31,3.31,0,0,1-.62.86,3.4,3.4,0,0,1-.92.57,3,3,0,0,1-2.22,0,3.2,3.2,0,0,1-.91-.57,2.9,2.9,0,0,1-.62-.86A2.5,2.5,0,0,1,62.36,5.88Z" transform="translate(0.01)"/><path class="cls-66" d="M57.21,13.1h2.21a.49.49,0,0,1,.39.26.53.53,0,0,1,.06.28c0,.14,0,.28,0,.42v4a1.17,1.17,0,0,0,.31.75,1.75,1.75,0,0,0,1.32.44h9.58V17.62H63c-.26,0-.36-.05-.4-.1a.64.64,0,0,1-.09-.38V13.82a1.43,1.43,0,0,0-.09-.5.78.78,0,0,0-.12-.22H73.24V11.47h-16Z" transform="translate(0.01)"/><path class="cls-66" d="M87,13a6.29,6.29,0,0,0-1.7-.85,6.82,6.82,0,0,0-4.13,0,6.21,6.21,0,0,0-1.71.85,4.35,4.35,0,0,0-1.15,1.28,3.12,3.12,0,0,0-.41,1.54,3.16,3.16,0,0,0,.41,1.56,4.23,4.23,0,0,0,1.15,1.28,6.2,6.2,0,0,0,1.71.84,7,7,0,0,0,4.13,0,6.13,6.13,0,0,0,1.7-.84,4.14,4.14,0,0,0,1.16-1.28,3,3,0,0,0,0-3.11A4.22,4.22,0,0,0,87,13Zm-1,2.82a1.86,1.86,0,0,1-.22.91,2.4,2.4,0,0,1-.59.76,2.87,2.87,0,0,1-.87.5,3,3,0,0,1-2.1,0,2.7,2.7,0,0,1-.86-.5,2.48,2.48,0,0,1-.59-.75,2,2,0,0,1-.21-.92,2,2,0,0,1,.21-.9,2.61,2.61,0,0,1,.58-.75,3.4,3.4,0,0,1,.87-.52,3.07,3.07,0,0,1,1.06-.19,3,3,0,0,1,1,.19,3.14,3.14,0,0,1,.87.52,2.48,2.48,0,0,1,.59.75A1.9,1.9,0,0,1,85.94,15.84Z" transform="translate(0.01)"/><path class="cls-66" d="M88.41,2a.8.8,0,0,0-.58-.17H86l.1.15a.61.61,0,0,1,.1.22,5.13,5.13,0,0,1,.09,1.13V5.29h-.82V2.54a.73.73,0,0,0-.16-.5.83.83,0,0,0-.6-.17H82.84l.1.15a.84.84,0,0,1,.1.22,5.13,5.13,0,0,1,.09,1.13v8h2.31V7h.82v4.39h2.31V2.54A.73.73,0,0,0,88.41,2Z" transform="translate(0.01)"/><path class="cls-66" d="M79.71,11.34a4.13,4.13,0,0,0,1.37-.86A3.91,3.91,0,0,0,82,9.21a3.75,3.75,0,0,0,0-3.12,4.18,4.18,0,0,0-.91-1.26h1.47V3.2H79.38v-1a.66.66,0,0,0-.75-.71H76.38l.2.17a.25.25,0,0,1,.09.11,2.54,2.54,0,0,1,.08.72V3.2H73.57V4.83H75a3.88,3.88,0,0,0-.9,1.26,3.85,3.85,0,0,0,0,3.12A3.88,3.88,0,0,0,75,10.48a4.13,4.13,0,0,0,1.37.86,4.42,4.42,0,0,0,1.66.32A4.37,4.37,0,0,0,79.71,11.34ZM76.81,6a1.53,1.53,0,0,1,1.25-.7,1.55,1.55,0,0,1,1.26.7,2.71,2.71,0,0,1,.55,1.68,2.67,2.67,0,0,1-.55,1.68,1.48,1.48,0,0,1-2.52,0,2.66,2.66,0,0,1-.54-1.68A2.65,2.65,0,0,1,76.81,6Z" transform="translate(0.01)"/><polygon class="cls-66" points="156.27 6.29 155.35 11.08 153.72 6.29 151.45 6.29 149.77 14.98 151.8 14.98 152.78 9.91 154.5 14.98 156.62 14.98 158.3 6.29 156.27 6.29"/><polygon class="cls-66" points="166.56 6.29 163.85 6.29 161.34 8.95 161.85 6.29 159.71 6.29 158.03 14.98 160.18 14.98 160.79 11.83 162.48 14.98 165.01 14.98 162.56 10.51 166.56 6.29"/><path class="cls-66" d="M141.87,8.56c.28-1.43-.55-2.27-2.2-2.27h-3.95L134.06,15H138c2,0,3.18-.89,3.51-2.62a1.87,1.87,0,0,0-.67-2.09,2.75,2.75,0,0,0,1-1.71m-2.43,3.7c-.11.56-.38.9-1.35,1h-1.54l.38-2h1.32c1.38,0,1.25.66,1.19,1m.29-3.47c-.11.54-.29.72-.9.76h-1.58l.29-1.5h1.27c1,0,1,.19.92.74" transform="translate(0.01)"/><path class="cls-66" d="M145.94,6.29,141,15h2.34l.91-1.65,2.69,0,.19,1.63h2.17L148,6.29Zm-.77,5.39,1.31-2.57.31,2.57Z" transform="translate(0.01)"/><polygon class="cls-66" points="104.03 6.29 102.14 11.21 101.37 6.29 99.72 6.29 97.09 11.18 97.08 6.29 95.1 6.29 95.1 14.98 97.13 14.98 99.91 9.87 100.74 14.98 102.75 14.98 106.09 6.29 104.03 6.29"/><path class="cls-66" d="M110,6.17c-2.37,0-3.86,1.48-4.42,4.4-.33,1.67-.18,2.85.45,3.62a3,3,0,0,0,2.39.92c2.38,0,3.87-1.48,4.43-4.4.33-1.67.18-2.85-.45-3.62A3,3,0,0,0,110,6.17Zm-1.39,7.23a.81.81,0,0,1-.66-.26c-.22-.26-.41-.89-.12-2.43.37-1.9,1-2.83,2-2.83a.81.81,0,0,1,.66.26c.22.26.41.9.12,2.43C110.21,12.47,109.56,13.4,108.59,13.4Z" transform="translate(0.01)"/><path class="cls-66" d="M117.87,6.17c-2.38,0-3.87,1.48-4.43,4.4-.32,1.67-.17,2.85.45,3.62a3,3,0,0,0,2.4.92c2.38,0,3.87-1.48,4.43-4.4.32-1.67.17-2.85-.46-3.62A3,3,0,0,0,117.87,6.17Zm-1.4,7.23a.82.82,0,0,1-.66-.26c-.21-.26-.41-.89-.11-2.43.36-1.9,1-2.83,2-2.83a.81.81,0,0,1,.66.26c.22.26.42.9.12,2.43C118.09,12.47,117.44,13.4,116.47,13.4Z" transform="translate(0.01)"/><polygon class="cls-66" points="129.61 6.29 127.93 14.98 130.23 14.98 131.9 6.29 129.61 6.29"/><path class="cls-66" d="M126.24,11.54A3.59,3.59,0,0,0,128,8.29c0-2.22-2.64-2-2.64-2h-2.73l-1.83,8.65h2l.6-3h.8a.73.73,0,0,1,.63.68c.08.78.19,2.32.19,2.32h2.06s-.19-2.11-.24-2.43a1.24,1.24,0,0,0-.63-1M124.32,7.9c.56,0,1.89-.45,1.66,1.13s-2.14,1.38-2.14,1.38Z" transform="translate(0.01)"/></g></g></svg>