<svg xmlns="http://www.w3.org/2000/svg" viewBox="0 0 111.14 81.2"><defs><style>.cls-1{fill:#081226;}.cls-2{fill:#ffd900;}</style></defs><g id="레이어_2" data-name="레이어 2"><g id="Layer_1" data-name="Layer 1"><polygon class="cls-1" points="75.47 57.76 75.47 55.26 71.78 55.26 71.78 57.76 66.14 57.76 66.14 60.87 81.08 60.87 81.08 57.76 75.47 57.76"/><polygon class="cls-1" points="89.72 62.7 86.53 62.7 86.53 54.97 82.5 54.97 82.5 73.48 86.53 73.48 86.53 66.42 89.72 66.42 89.72 62.7"/><polygon class="cls-1" points="74.35 76.04 74.35 72.7 70.04 72.7 70.04 79.76 87.12 79.76 87.12 76.04 74.35 76.04"/><polygon class="cls-1" points="107.08 54.97 107.08 57.78 104.23 57.78 104.23 61.59 107.08 61.59 107.08 63.68 104.23 63.68 104.23 67.39 107.08 67.39 107.08 70.15 110.95 70.15 110.95 54.97 107.08 54.97"/><path class="cls-1" d="M106.72,75.27c0,1.34-2,2.43-4.56,2.43s-4.55-1.09-4.55-2.43,2-2.43,4.55-2.43S106.72,73.93,106.72,75.27Zm-4.56-5.62c-5,0-9,2.52-9,5.62s4,5.62,9,5.62,9-2.52,9-5.62S107.12,69.65,102.16,69.65Z"/><path class="cls-1" d="M99.83,62.3a2.9,2.9,0,1,1-2.89-3A2.95,2.95,0,0,1,99.83,62.3Zm-2.89-6.43a6.44,6.44,0,1,0,6.57,6.43A6.5,6.5,0,0,0,96.94,55.87Z"/><path class="cls-1" d="M76.52,66.58c0,1.1-1.31,2-2.91,2s-2.9-.88-2.9-2,1.3-2,2.9-2S76.52,65.49,76.52,66.58Zm-2.91-5.19c-3.7,0-6.69,2.33-6.69,5.19s3,5.19,6.69,5.19,6.69-2.32,6.69-5.19S77.3,61.39,73.61,61.39Z"/><polygon class="cls-1" points="12.8 65.31 27.3 65.31 27.3 56.9 12.8 56.9 12.8 50.28 28.83 50.28 23.52 41.06 0.78 41.06 0.78 81.14 32.84 81.14 32.84 71.92 12.8 71.92 12.8 65.31"/><polygon class="cls-1" points="54.19 41.06 47.38 54.14 40.58 41.06 27.3 41.06 41.3 65.31 41.3 81.14 53.28 81.14 53.28 65.31 67.3 41.06 54.19 41.06"/><polygon class="cls-1" points="12.82 65.34 27.33 65.34 27.33 56.92 12.82 56.92 12.82 50.29 28.87 50.29 23.54 41.06 0.78 41.06 0.78 81.19 32.88 81.19 32.88 71.96 12.82 71.96 12.82 65.34"/><polygon class="cls-1" points="54.25 41.06 47.43 54.16 40.63 41.06 27.33 41.06 41.34 65.34 41.34 81.19 53.34 81.19 53.34 65.34 67.38 41.06 54.25 41.06"/><polygon class="cls-2" points="79.47 0 0 29.01 79.47 14.97 79.47 0"/></g></g></svg>