<svg xmlns="http://www.w3.org/2000/svg" viewBox="0 0 95.12 19.36"><defs><style>.cls-1{fill:#004298;}</style></defs><g id="레이어_2" data-name="레이어 2"><g id="Layer_1" data-name="Layer 1"><path class="cls-1" d="M12.11,16.87H5.35V12.73h6.76Zm2.34-6.12H3v8.1H14.45ZM9.05,9.69,10.3,8C6,5.75,6.27.39,6.27.39H4S4.35,5.75,0,8L1.25,9.69s3.18-2.1,3.9-4.39c.72,2.29,3.9,4.39,3.9,4.39M14.45,6h2.07v-2H14.45V0H12v9.9h2.43Zm8-5.57H20.2s.32,5.36-3.76,7.4l1.25,1.72S20.6,7.59,21.32,5.3C22,7.59,25,9.51,25,9.51L26.2,7.79c-4.07-2-3.75-7.4-3.75-7.4m6.09,9.54h2.39V0H28.5V3.94H25.43V6h3.11Zm.34,4.85c0,1.41-1.77,2.56-3.94,2.56S21,16.19,21,14.78s1.77-2.57,3.94-2.57,3.94,1.16,3.94,2.57m2.4,0c0-2.53-2.84-4.59-6.34-4.59s-6.34,2.06-6.34,4.59,2.83,4.58,6.34,4.58,6.34-2.05,6.34-4.58M38.9,3a1.58,1.58,0,0,1-3.12,0A1.58,1.58,0,0,1,38.9,3m1.92,0a3.26,3.26,0,0,0-3.48-3,3.26,3.26,0,0,0-3.48,3,3.26,3.26,0,0,0,3.48,3,3.26,3.26,0,0,0,3.48-3m.8,8.2H43.8V.2H41.62V6.31H33.18V8.23h3.2v3H38.7v-3h2.92v.55h-2.1v1.71h2.1Zm3.32,0h2.27V0H44.94ZM35.6,18.93H47.26V17.09H37.9v-1h9.31V11.8H35.6v1.85h9.31v.8H35.6Zm26.22-7.72,1.09-1.73A8.41,8.41,0,0,1,57.63,1.4V.52H55.05s0,.65,0,.88a8.41,8.41,0,0,1-5.29,8.08l1.1,1.73s4.3-2.13,5.47-5c1.2,2.93,5.49,5,5.49,5M49.13,16.86H63.46v-2H49.13Zm16.31,0H79.8v-2h-6V11h4.74V9.1H69.05V6.73h9.27v-2H69.05V2.63h9.48V.7H66.76V11h4.7v3.84h-6ZM82,15.19h9V13.24h-6.7V8.47h5.57V.68H82v2H87.6V6.52H82ZM95.12.11H92.84V18.94h2.28Z"/></g></g></svg>