<svg xmlns="http://www.w3.org/2000/svg" viewBox="0 0 132.51 24.08"><defs><style>.cls-1{fill:#0062a7;}</style></defs><g id="레이어_2" data-name="레이어 2"><g id="Layer_1" data-name="Layer 1"><path class="cls-1" d="M61.34,12.16c-.32.37-.61.68-.86,1S60,13.43,60,13V9.05c0-1.67-.83-1.92-1.14-1.92s-.61-.12-1.43.75a15,15,0,0,0-1.9,3.29c-.32.68-.57.43-.57.18V9.61c0-1.3-.45-2.17-1.24-2.2s-1,.15-1.88.84a6.47,6.47,0,0,1-1.39.83,2.47,2.47,0,0,0-2.16-1.45c-1.74,0-1.33,2.07-.35,2.42a3.16,3.16,0,0,0,1.89.2,2.82,2.82,0,0,1,.08.8c0,1.27-.67,2.42-2.12,2.42s-2-1.59-2.07-2.49a4.25,4.25,0,0,1,1.05-2.67c.51-.46.63-1-.1-1a8.79,8.79,0,0,0-5.55,2.79,26.55,26.55,0,0,1-1.24-2.48c0-.5-.47-.88-.69-.16s-3,5.37-3.21,5.71-.35.25-.35.07c0,0,0-1.18,0-3.67S34.81,7.1,34.3,7.1s-.67.22-1.14.75A32.7,32.7,0,0,0,31,11.7c-.25.49-.35.43-.35.12s0-.75,0-1.4c0-1.27,0-3.2-1.24-3.14A1.22,1.22,0,0,0,28.24,8c-.57,1-2.95,4.62-3.17,4.9s-.42.28-.42-.06,0-3.63,0-4.25a1.18,1.18,0,0,0-1.18-1.21c-1.24,0-2.69,3.07-3.17,4s-.44.3-.44,0S19.84,10,19.84,8A8.85,8.85,0,0,0,22.4,2.78C22.59-.14,20.34,0,19.45,1.14a7.44,7.44,0,0,0-1.33,4.47c0,.94,0,1.88,0,2.86a9.75,9.75,0,0,1-.82.55,3.79,3.79,0,0,1-1.55.51,3.56,3.56,0,0,0-.92-1.38c-2.17-2-3.59,1.43-1.08,2.21a3.87,3.87,0,0,0,1.25.16,3,3,0,0,1,.05.71c0,.59-.76,2.33-2.09,2.39s-2.07-1.24-2.16-2.55a3.34,3.34,0,0,1,.89-2.76c.6-.65.44-.84-.32-.68s-2.48.77-4.92,3.2C6.32,9.37,6.16,8,6.06,6.6A19.15,19.15,0,0,1,6.47,1C6.66.33,6.63-.11,6,0A8.3,8.3,0,0,0,0,7.75c0,3.72,1.3,5,3.33,7l0,0A14.72,14.72,0,0,0,1,21.32c0,1.33.23,2.76,1.56,2.76,1.5,0,4.44-3.44,4.22-9.19,0-1-.11-1.94-.18-2.84a11.89,11.89,0,0,1,2.24-2c.19-.13.54-.36.25.28A5.3,5.3,0,0,0,9,11.94a3.47,3.47,0,0,0,3.55,3.36c2.73-.13,3.46-2.92,3.49-4.07a4.62,4.62,0,0,0,0-.83,6.65,6.65,0,0,0,1.44-.48,4.34,4.34,0,0,0,.71-.42c0,.29,0,.59,0,.89,0,.74,0,2.92,0,3.6s0,.75.48,1,.52.39.95-.38,2.66-5.61,3-5.12c0,0,.1,3.69.16,4.35a1.36,1.36,0,0,0,.86,1.3c.57.22,1.12-.3,1.43-.68,1.14-1.43,3.21-5.81,3.49-4.94.13.4.06,2.67.09,4.5s1.24,1.25,1.84.22,2.73-5.31,3-5v4.6a1.45,1.45,0,0,0,1,1.3,1.73,1.73,0,0,0,1.65-.65,31.26,31.26,0,0,0,2.7-4.13,4,4,0,0,1,.86,1.22,4.27,4.27,0,0,0-1.05,2.14,1.31,1.31,0,0,0,1.23,1.42c.86,0,1.84-.78,1.94-2.52a4.63,4.63,0,0,0-.37-1.75,6.72,6.72,0,0,1,2.91-1.94c.22,0,.16.12,0,.31a3,3,0,0,0-.77,2.27c0,1.36,1.11,3.85,3.68,3.79s3.62-2.27,3.69-4a4.88,4.88,0,0,0-.16-1.38A7.38,7.38,0,0,0,52,9.05c.51-.4.91-.4,1,.25.06.87,0,3.6,0,4.6s.35,1.4.82,1.4.8-.53,1.18-1.18c.47-.81,2-3.95,2.31-4.45.19-.32.45-.4.41,0s.07,3.41.1,3.91.25,1.83,1.49,1.86,2-1.83,2.57-2.7-.19-.93-.5-.56M1.84,7.75C1.78,4.65,3.48,1.67,5,1c.67-.28.8-.12.54.44A16.28,16.28,0,0,0,4,8.15a34.86,34.86,0,0,0,.61,4.73c-.26.32-.5.66-.73,1A8.84,8.84,0,0,1,1.84,7.75M5.24,17.9c-.07,2.11-.83,4.68-2.16,4.63-.8,0-1-1.12-.89-2.17a12.25,12.25,0,0,1,2.66-6.29,21.69,21.69,0,0,1,.39,3.83m8.69-8.53c-.73-.23-.19-.78.19-.35l.43.48a4.26,4.26,0,0,1-.62-.13m7-8.11c.22,0,.41-.06.41,1.62a6.31,6.31,0,0,1-1.44,3.91c0-.43,0-.88,0-1.36.07-3.61.8-4.17,1-4.17M39.54,13.62a2.65,2.65,0,0,1,.53-1.16,2.74,2.74,0,0,1,.23,1.06c-.08,1-.79.84-.76.1m9.17-4.25c-1-.25-.4-1,.28-.53a1.9,1.9,0,0,1,.46.54,2,2,0,0,1-.74,0"/><path class="cls-1" d="M131.78,12.16c-.32.37-.61.68-.86,1s-.51.28-.51-.18V9.05c0-1.67-.82-1.92-1.14-1.92s-.6-.12-1.43.75a15,15,0,0,0-1.9,3.29c-.32.68-.57.43-.57.18V9.61c0-1.3-.45-2.17-1.24-2.2s-1,.15-1.87.84a7,7,0,0,1-1.39.83,2.48,2.48,0,0,0-2.17-1.45c-1.74,0-1.33,2.07-.34,2.42a3.14,3.14,0,0,0,1.89.2,3.26,3.26,0,0,1,.07.8c0,1.27-.66,2.42-2.12,2.42s-2-1.59-2.07-2.49a4.25,4.25,0,0,1,1.05-2.67c.51-.46.64-1-.09-1a8.82,8.82,0,0,0-5.56,2.79,24.29,24.29,0,0,1-1.23-2.48c0-.5-.48-.88-.7-.16s-3,5.37-3.21,5.71-.35.25-.35.07c0,0,0-1.18,0-3.67s-.93-2.47-1.34-2.47-.62.21-1.1.74a35.83,35.83,0,0,0-2.16,3.85c-.25.49-.35.43-.35.12s0-.75,0-1.4c0-1.27,0-3.17-1.24-3.1A1.18,1.18,0,0,0,98.68,8c-.57,1-3,4.62-3.17,4.9s-.41.28-.41-.06,0-3.63,0-4.25A1.18,1.18,0,0,0,94,7.38c-1.24,0-2.7,3.07-3.18,4s-.44.3-.44,0,0-1.41-.06-3.43a8.85,8.85,0,0,0,2.56-5.21C93-.14,90.78,0,89.89,1.14a7.44,7.44,0,0,0-1.33,4.47c0,.94,0,1.88,0,2.86-.33.24-.61.43-.81.55a3.88,3.88,0,0,1-1.56.51,3.46,3.46,0,0,0-.92-1.38c-2.16-2-3.58,1.43-1.08,2.21a3.91,3.91,0,0,0,1.25.16,3,3,0,0,1,.05.71c0,.59-.76,2.33-2.09,2.39s-2.06-1.24-2.16-2.55a3.4,3.4,0,0,1,.89-2.76c.6-.65.44-.84-.32-.68s-2.48.77-4.92,3.2C76.76,9.37,76.6,8,76.5,6.6A18.68,18.68,0,0,1,76.92,1c.19-.66.15-1.1-.45-1a8.3,8.3,0,0,0-6,7.73,7.86,7.86,0,0,0,1.11,4.45,11.88,11.88,0,0,0-2.56.24,10.15,10.15,0,0,0-.39-2.95c-.19-.56-.41-.56-.67-.47s-.55.25-.85.35-.32.21-.1.49a3.93,3.93,0,0,1,.67,1.4c0,.34-.06.31-.26.12a3.41,3.41,0,0,0-2.66-.9c-1,0-1.9.37-1.87,1.27,0,1.47,2,1.93,3.81,1.93a5.85,5.85,0,0,0,1.08-.12l0,.18c.12,1.68.82,1.34,1.08.1,0-.18.06-.37.08-.55A6,6,0,0,1,72.17,13a22.08,22.08,0,0,0,1.6,1.67l0,0a14.67,14.67,0,0,0-2.36,6.6c0,1.33.22,2.76,1.55,2.76,1.5,0,4.44-3.44,4.22-9.19,0-1-.11-1.94-.18-2.84a11.89,11.89,0,0,1,2.24-2c.19-.13.55-.36.26.28a4.94,4.94,0,0,0-.1,1.58A3.48,3.48,0,0,0,83,15.3c2.73-.13,3.45-2.92,3.49-4.07a5.78,5.78,0,0,0,0-.83,6.44,6.44,0,0,0,1.44-.48,4.34,4.34,0,0,0,.71-.42c0,.29,0,.59,0,.89,0,.74,0,2.92,0,3.6s0,.75.48,1,.52.39,1-.38,2.67-5.61,3-5.12c0,0,.09,3.69.15,4.35a1.36,1.36,0,0,0,.86,1.3c.57.22,1.12-.3,1.43-.68C96.65,13,98.72,8.65,99,9.52c.13.4.06,2.67.09,4.5s1.24,1.25,1.85.22,2.72-5.31,3-5v4.6a1.45,1.45,0,0,0,1,1.3,1.73,1.73,0,0,0,1.65-.65,31.26,31.26,0,0,0,2.7-4.13,4.17,4.17,0,0,1,.87,1.22,4.31,4.31,0,0,0-1.06,2.14,1.31,1.31,0,0,0,1.24,1.42c.85,0,1.84-.78,1.93-2.52a4.44,4.44,0,0,0-.37-1.75,6.78,6.78,0,0,1,2.91-1.94c.22,0,.16.12,0,.31a3.06,3.06,0,0,0-.76,2.27c0,1.36,1.11,3.85,3.68,3.79s3.62-2.27,3.68-4a4.88,4.88,0,0,0-.16-1.38,7.85,7.85,0,0,0,1.24-.83c.5-.4.9-.4,1,.25.06.87,0,3.6,0,4.6s.35,1.4.83,1.4.79-.53,1.17-1.18c.47-.81,2-3.95,2.32-4.45.18-.32.44-.4.41,0s.06,3.41.09,3.91.26,1.83,1.5,1.86,2-1.83,2.57-2.7-.19-.93-.51-.56m-65.72.59c-.66-.09-1.3-.62-1.33-.93s.26-.47.82-.47a3,3,0,0,1,1.83,1.34,5.71,5.71,0,0,1-1.32.06m6.22-5c-.06-3.1,1.65-6.08,3.21-6.74.66-.28.79-.12.54.44a16.23,16.23,0,0,0-1.56,6.7,36.52,36.52,0,0,0,.61,4.73c-.26.32-.5.66-.73,1a8.84,8.84,0,0,1-2.07-6.11m3.4,10.15c-.07,2.11-.83,4.68-2.16,4.63-.79,0-1-1.12-.89-2.17a12.25,12.25,0,0,1,2.66-6.29,21.69,21.69,0,0,1,.39,3.83m8.69-8.53c-.73-.23-.19-.78.19-.35.15.17.3.32.43.48a4.26,4.26,0,0,1-.62-.13m6.95-8.11c.22,0,.41-.06.41,1.62a6.31,6.31,0,0,1-1.44,3.91c0-.43,0-.88,0-1.36.07-3.61.8-4.17,1-4.17m19.42,12.26c-.08,1-.78.84-.76.1a2.78,2.78,0,0,1,.53-1.16,2.74,2.74,0,0,1,.23,1.06m8.41-4.15c-1-.25-.4-1,.28-.53a2.07,2.07,0,0,1,.47.54,2.08,2.08,0,0,1-.75,0"/></g></g></svg>