<svg xmlns="http://www.w3.org/2000/svg" viewBox="0 0 59.97 25.85"><defs><style>.cls-1{fill:#3a308e;fill-rule:evenodd;}.cls-2{fill:#ef7f1b;}.cls-3{fill:#4f1e7f;}</style></defs><g id="레이어_2" data-name="레이어 2"><g id="Layer_1" data-name="Layer 1"><polygon class="cls-1" points="35.05 24.3 35.05 23.81 32.21 23.81 32.21 21.53 34.81 21.53 34.81 21.04 32.21 21.04 32.21 18.95 34.92 18.95 34.92 18.46 31.68 18.46 31.68 24.3 35.05 24.3"/><path class="cls-1" d="M37.35,21.87l-1.19-1.63h-.65l1.5,2-1.55,2.06,0,0H36l1.28-1.76,1.3,1.76h.64l-1.59-2.1,1.46-2h-.51Z"/><path class="cls-1" d="M40.17,22.17c0-.82.37-1.61,1.31-1.61s1.24.86,1.24,1.64S42.48,24,41.55,24,40.17,23.09,40.17,22.17Zm0,1.5h0a1.66,1.66,0,0,0,1.41.75c1.18,0,1.64-1.15,1.64-2.17s-.46-2.13-1.66-2.13a1.63,1.63,0,0,0-1.39.73h0l0-.6h-.5c0,.28.05.6,0,.91v4.7h.48Z"/><path class="cls-1" d="M44.75,21.86c0-.78.39-1.3,1.11-1.3.1,0,.2,0,.3,0v-.47a3.85,3.85,0,0,0-.48,0,1.06,1.06,0,0,0-.92.72h0l0-.6h-.5a8.84,8.84,0,0,1,0,.91V24.3h.49Z"/><path class="cls-1" d="M49.73,22.38c0-1.27-.49-2.26-1.85-2.26-1.15,0-1.73,1.05-1.73,2.15s.51,2.15,1.7,2.15A1.7,1.7,0,0,0,49.68,23h-.51A1.22,1.22,0,0,1,48,24c-1,0-1.31-.73-1.33-1.6Zm-3-.44c.06-.71.4-1.38,1.2-1.38a1.29,1.29,0,0,1,1.31,1.38Z"/><path class="cls-1" d="M50.2,21.25c0,.75.56.94,1.2,1.09s1.22.31,1.22.89-.48.75-1,.75a.9.9,0,0,1-1-.86h-.52a1.3,1.3,0,0,0,1.42,1.3c.86,0,1.64-.35,1.64-1.26a1.05,1.05,0,0,0-.69-1c-1.1-.39-1.72-.34-1.72-.94s.37-.66.82-.66,1,.17,1,.68h.53c-.07-.85-.71-1.12-1.48-1.12S50.2,20.41,50.2,21.25Z"/><path class="cls-1" d="M53.6,21.25c0,.75.55.94,1.19,1.09s1.22.31,1.22.89-.47.75-1,.75a.9.9,0,0,1-1-.86h-.53a1.31,1.31,0,0,0,1.43,1.3c.85,0,1.64-.35,1.64-1.26a1.05,1.05,0,0,0-.69-1c-1.1-.39-1.72-.34-1.72-.94s.36-.66.82-.66.95.17,1,.68h.52c-.06-.85-.71-1.12-1.48-1.12S53.6,20.41,53.6,21.25Z"/><polygon class="cls-2" points="49.91 16.18 47.66 13.67 45.44 16.18 40.77 16.18 45.34 11.05 40.77 5.91 45.59 5.91 47.85 8.41 50.03 5.91 54.69 5.91 50.14 11.03 54.75 16.18 49.91 16.18"/><polygon class="cls-2" points="31.94 16.18 31.94 0 40.77 0 40.77 3.61 35.59 3.61 35.59 5.91 40.77 5.91 40.77 9.38 35.59 9.38 35.59 12.57 40.77 12.57 40.77 16.18 31.94 16.18"/><path class="cls-3" d="M28,0V6.62h0a3.86,3.86,0,0,0-3.1-1.3,5.22,5.22,0,0,0-5,4,5.42,5.42,0,0,0-5.57-4,5.65,5.65,0,0,0-5.14,2.8V5.91H4.3V3.61H9.56V0H0V16.19H4.3V9.38H8.61A6.37,6.37,0,0,0,8.39,11a5.66,5.66,0,0,0,5.87,5.75,5.54,5.54,0,0,0,5.56-3.67H16.13a1.85,1.85,0,0,1-1.87.92,2.21,2.21,0,0,1-2.15-2.2h7.52a5.45,5.45,0,0,0,5.26,5A3.67,3.67,0,0,0,28,15.14h0v1.05h3.79V0ZM12.23,9.43a2.07,2.07,0,0,1,2-1.7,2,2,0,0,1,2,1.7Zm13.46,4.29a2.46,2.46,0,0,1-2.26-2.66c0-1.45.75-2.85,2.26-2.85s2.19,1.4,2.19,2.85S27.22,13.72,25.69,13.72Z"/><path class="cls-2" d="M56.55,14.87a1.71,1.71,0,1,1,1.71,1.72A1.71,1.71,0,0,1,56.55,14.87Zm3.12,0a1.41,1.41,0,1,0-1.41,1.42A1.41,1.41,0,0,0,59.67,14.87ZM57.9,15v.87h-.31v-2h.65c.37,0,.75.1.75.55a.46.46,0,0,1-.41.47h0c.28.06.31.18.34.4a2.85,2.85,0,0,0,.12.58h-.4c0-.11-.06-.24-.07-.36a.78.78,0,0,0-.11-.43c-.08-.08-.19-.07-.3-.08Zm.33-.31c.3,0,.37-.13.37-.29s-.07-.23-.32-.23H57.9v.52Z"/></g></g></svg>