<svg xmlns="http://www.w3.org/2000/svg" xmlns:xlink="http://www.w3.org/1999/xlink" viewBox="0 0 130.65 64.63"><defs><style>.cls-1,.cls-2{fill-rule:evenodd;}.cls-1{fill:url(#linear-gradient);}.cls-2{fill:#fff;}.cls-3{fill:#0071bb;}</style><linearGradient id="linear-gradient" x1="65.33" x2="65.33" y2="64.63" gradientUnits="userSpaceOnUse"><stop offset="0" stop-color="#00b8f1"/><stop offset="0.2" stop-color="#00a2e0"/><stop offset="0.51" stop-color="#0087cc"/><stop offset="0.79" stop-color="#0077bf"/><stop offset="1" stop-color="#0071bb"/></linearGradient></defs><g id="레이어_2" data-name="레이어 2"><g id="Layer_1" data-name="Layer 1"><polyline class="cls-1" points="0 64.63 66.03 64.63 130.65 0 0 0 0 64.63"/><path class="cls-2" d="M77.53,12.15H64.67V42.72L53.44,12.14H42.3L32.71,37.72C31.69,31.27,25,29,19.77,27.37c-3.47-1.11-7.14-2.75-7.11-4.56,0-1.48,2-2.86,5.82-2.65a21.1,21.1,0,0,1,9.42,2.53l4.46-7.78a34.79,34.79,0,0,0-14.57-3.44h0c-5.48,0-10,1.77-12.87,4.69a10.83,10.83,0,0,0-3.07,7.5,10.07,10.07,0,0,0,4.41,9,29.9,29.9,0,0,0,8.75,4c3.57,1.11,6.48,2.07,6.45,4.12a3,3,0,0,1-.85,2c-.89.92-2.25,1.26-4.14,1.3-3.65.08-6.35-.5-10.65-3l-4,7.89A29.71,29.71,0,0,0,16.39,52.8h.66a17.57,17.57,0,0,0,11.07-3.71l.47-.41L27.3,52.12H39l2-6a22.25,22.25,0,0,0,13.57.06l1.89,5.91H75.46V39.77h4.15c10,0,16-5.11,16-13.69C95.6,16.53,89.82,12.15,77.53,12.15ZM47.81,38.32a11.9,11.9,0,0,1-4.12-.72l4.08-12.87h.07l4,12.9A12.09,12.09,0,0,1,47.81,38.32Zm30.48-7.39H75.46V20.57h2.83c3.78,0,6.79,1.25,6.79,5.11s-3,5.25-6.79,5.25"/><path class="cls-3" d="M81.69,60.38a3.4,3.4,0,1,1,3.41,3.5A3.4,3.4,0,0,1,81.69,60.38Zm3.41,4.19a4.18,4.18,0,1,0-4.25-4.19A4.18,4.18,0,0,0,85.1,64.57Zm-.89-3.86h.84l1.26,2.09h.83l-1.38-2.12A1.26,1.26,0,0,0,87,59.35c0-1-.57-1.37-1.7-1.37H83.48V62.8h.73Zm0-.62V58.6h1c.51,0,1,.1,1,.7,0,.75-.55.79-1.16.79Z"/></g></g></svg>