<svg xmlns="http://www.w3.org/2000/svg" viewBox="0 0 242.73 82.93"><defs><style>.cls-1{fill:#4b4a4a;}.cls-2{fill:#9c8e6a;}.cls-3{fill:#aa8432;}.cls-4{fill:#8b8e90;}</style></defs><g id="레이어_2" data-name="레이어 2"><g id="Layer_1" data-name="Layer 1"><path class="cls-1" d="M146.57,80.24h-8.15V71.31h6.15V74h2.06V66.64h-2.06v2.65h-6.15v-8.5h7.83v3h2v-6h-2.06v1H131.86v1.74h2.62v20h-2.62v1.76h16.77V77.15h-2.06Zm88.68-21.51v1.74h2.65V75.39L225.73,58.73h-6.1v1.74h2.53l.83,1.18V80.5h-2.65v1.76h7.51V80.5h-2.66V64.65l13.08,18h1.84V60.47h2.62V58.73Zm-30.31-.42a12.21,12.21,0,0,0,0,24.4c6.41,0,11.62-5.48,11.62-12.22s-5.21-12.18-11.62-12.18m0,22.13c-4.37,0-7.41-4.1-7.41-10s3.07-9.91,7.45-9.91,7.27,4.07,7.27,9.91-3,10-7.31,10m-92.12-4.79L104.9,58.73H98.33v1.74H101v20H98.33v1.76h7.52V80.5h-2.66V64.18L112,82.93l8.33-18.34V80.5h-2.62v1.76h9.18V80.5h-2.63v-20h2.63V58.73h-6.24Zm55.81,4.59H160.9V60.47h2.62V58.73h-9.19v1.74H157v20h-2.63v1.76H170.7V77.15h-2.07Zm20.17,0H181V60.47h2.62V58.73h-9.18v1.74h2.63v20h-2.63v1.76h16.37V77.15h-2ZM77.37,60.47h3l-5,8.34-5.44-8.34h2.73V58.73h-9.5v1.74h2.12l7.16,11v9H69.78v1.76H79V80.5H76.3V71.26l6.61-10.79h1.91V58.73H77.37ZM29.23,69.84a5.46,5.46,0,0,0,4.31-5.16c0-3.61-2.68-6-6.84-6H15.9v1.74h2.62v20H15.9v1.76H27.32c4.4,0,7.34-2.51,7.34-6.24S32,70.44,29.23,69.84m-6.77-9.05h2.88c1.53,0,4.1.52,4.1,4A4,4,0,0,1,25.15,69H22.46Zm3,19.45h-3V71.07h3c3.14,0,5.16,1.87,5.16,4.77,0,3.24-2.77,4.4-5.16,4.4M53.84,60.47H56.5V75.39L44.32,58.73H38.24v1.74h2.51l.83,1.18V80.51H38.93v1.75h7.51V80.51H43.8V64.65l13.07,18H58.7V60.47h2.63V58.73H53.84Z"/><path class="cls-2" d="M0,47s3.05-9.91,13.06-20.59A72.48,72.48,0,0,0,29.2,35.55Z"/><path class="cls-3" d="M60.06,23.49,31.25,12.22A71.63,71.63,0,0,0,15.9,23.49,72.63,72.63,0,0,0,31.25,34.75Z"/><path class="cls-4" d="M0,0S3.05,9.92,13.06,20.59A72.49,72.49,0,0,1,29.2,11.41Z"/></g></g></svg>