<?xml version="1.0" encoding="utf-8"?>
<!-- Generator: Adobe Illustrator 26.2.1, SVG Export Plug-In . SVG Version: 6.00 Build 0)  -->
<svg version="1.1" id="레이어_1" xmlns="http://www.w3.org/2000/svg" xmlns:xlink="http://www.w3.org/1999/xlink" x="0px"
	 y="0px" viewBox="0 0 169.8 34" style="enable-background:new 0 0 169.8 34;" xml:space="preserve">
<style type="text/css">
	.st0{fill:#004097;}
</style>
<g id="레이어_2_00000165192629540819369490000000683541058839351424_">
	<g id="Layer_1">
		<path class="st0" d="M15.7,30.6h17.5V18.2H15.7V30.6z M19.3,21.2h10.3v6.3H19.3V21.2z"/>
		<path class="st0" d="M49.2,17c-5.4,0-9.8,3.2-9.8,7.2s4.3,7.2,9.8,7.2s9.8-3.3,9.8-7.2S54.6,17,49.2,17 M49.2,28.3
			c-3.4,0-6.1-1.8-6.1-4.1s2.7-4.1,6.1-4.1c3.4,0,6.1,1.8,6.1,4.1S52.5,28.3,49.2,28.3"/>
		<path class="st0" d="M19,9.9c1.1,3.5,6,6.7,6,6.7l1.9-2.6c-6.6-3.4-6.2-11.6-6.2-11.6h-3.5c0,0,0.5,8.1-6.1,11.6l1.9,2.6
			C13,16.6,17.9,13.4,19,9.9"/>
		<path class="st0" d="M43.6,9.9c1.1,3.5,5.5,6.4,5.5,6.4l1.9-2.6c-6.2-3.2-5.7-11.3-5.7-11.3h-3.4c0,0,0.5,8.2-5.8,11.3l1.9,2.6
			C38.1,16.3,42.5,13.4,43.6,9.9"/>
		<polygon class="st0" points="36.3,8.3 33.2,8.3 33.2,1.9 29.5,1.9 29.5,17 33.2,17 33.2,11.3 36.3,11.3 		"/>
		<polygon class="st0" points="54.6,17 58.3,17 58.3,1.9 54.6,1.9 54.6,7 49.9,7 49.9,10.1 54.6,10.1 		"/>
		<polygon class="st0" points="111.7,20.6 121,20.6 121,30.6 124.6,30.6 124.6,20.6 133.8,20.6 133.8,17.7 111.7,17.7 		"/>
		<polygon class="st0" points="132.1,12.8 117.1,12.8 117.1,10.5 131.6,10.5 131.6,7.6 117.1,7.6 117.1,5.5 132.1,5.5 132.1,2.7 
			113.6,2.7 113.6,15.7 132.1,15.7 		"/>
		<polygon class="st0" points="70.2,18.5 66.5,18.5 66.5,30.6 84.1,30.6 84.1,27.6 70.2,27.6 		"/>
		<rect x="80.5" y="1.9" class="st0" width="3.6" height="18.5"/>
		<polygon class="st0" points="75.6,20.4 79.2,20.4 79.2,1.9 75.6,1.9 75.6,7.4 72.8,7.4 72.8,10.3 75.6,10.3 		"/>
		<path class="st0" d="M72.2,2.8h-3.7v3.9h-3.1V2.8h-3.6v13.3h10.4V2.8z M68.5,13.2h-3.1V9.7h3.1L68.5,13.2z"/>
		<polygon class="st0" points="104.3,11.4 100.8,11.4 100.8,14.3 104.3,14.3 104.3,30.6 108.2,30.6 108.2,2.6 104.3,2.6 		"/>
		<path class="st0" d="M96.6,8.2h5v-3h-5V1.9h-3.9v3.3h-5v3h5.1c-0.1,4.3-0.2,9.8-6.2,15l2.7,2.1c2.3-1.8,4.1-4.1,5.4-6.7
			c1.3,2.6,3.2,4.9,5.4,6.7l2.7-2.1C96.7,18.1,96.6,12.6,96.6,8.2"/>
		<polygon class="st0" points="154.8,11.2 154.8,2.6 151.2,2.6 151.2,30.6 154.8,30.6 154.8,14.1 158.6,14.1 158.6,11.2 		"/>
		<path class="st0" d="M144.1,7.2V6.7h4.5V3.8h-13v2.9h4.4v0.5c0,4.5,0.4,10.3-6,16l2.7,2.1c2.3-1.8,4.1-4.1,5.4-6.7
			c1.3,2.6,3.2,4.9,5.4,6.7l2.7-2.1C143.7,17.7,144.1,11.7,144.1,7.2"/>
	</g>
</g>
</svg>
