<svg xmlns="http://www.w3.org/2000/svg" viewBox="0 0 403.01 89.44"><defs><style>.cls-1{fill:#231f20;}.cls-2{fill:#fff;}.cls-3{fill:#ea0029;}</style></defs><g id="레이어_2" data-name="레이어 2"><g id="Layer_1" data-name="Layer 1"><path d="M310.06,33.34c0-5.28,3-8.13,6.91-8.13,3.66,0,5.41,2,6.1,4.89l-2.53.73c-.59-2.08-1.5-3.15-3.59-3.15-2.65,0-4.21,2.06-4.21,5.63,0,3.74,1.6,5.81,4.25,5.81,2.05,0,3.19-1,3.79-3.38l2.53.57c-.77,3.13-2.7,5.23-6.34,5.23-4,0-6.91-2.78-6.91-8.2"/><path d="M324.76,35.61c0-4.17,2.74-5.87,5.5-5.87s5.51,1.7,5.51,5.87-2.76,5.87-5.51,5.87-5.5-1.75-5.5-5.87m8.37,0c0-2.11-.89-3.63-2.87-3.63s-2.87,1.36-2.87,3.63.87,3.68,2.87,3.68,2.87-1.36,2.87-3.68"/><path d="M337.61,41.24V30h2.61v1.56a5.13,5.13,0,0,1,3.87-1.77c1.89,0,2.64.75,3.08,1.85a5.41,5.41,0,0,1,4-1.85c2.29,0,3.29,1.39,3.29,3.4v8.1h-2.61V33.8c0-1.25-.36-1.82-1.59-1.82a4.43,4.43,0,0,0-2.9,1.46v7.8h-2.61V33.8c0-1.25-.36-1.82-1.6-1.82a4.47,4.47,0,0,0-2.89,1.46v7.8Z"/><path d="M356.83,45.5V30h2.61v1.49a4.59,4.59,0,0,1,3.6-1.7c2.57,0,4.46,1.94,4.46,5.85s-1.93,5.82-4.82,5.82A4.34,4.34,0,0,1,359.44,40V45.5Zm8.06-9.89c0-2.38-1-3.63-2.7-3.63a3.78,3.78,0,0,0-2.75,1.42v4.53a3.48,3.48,0,0,0,2.67,1.4c2,0,2.78-1.21,2.78-3.72"/><path d="M368.65,38.52c0-2.44,2.09-4.08,7.36-4.67V33.5c0-1.12-.59-1.61-1.85-1.61a6.08,6.08,0,0,0-3.8,1.53l-1.28-1.64a8.1,8.1,0,0,1,5.44-2c3,0,4.06,1.45,4.06,4.08v4.66a7.78,7.78,0,0,0,.32,2.76h-2.63A4,4,0,0,1,376,39.8a5.41,5.41,0,0,1-4.16,1.61c-1.83,0-3.2-1-3.2-2.89M376,38.1V35.61c-3.13.43-4.78,1.19-4.78,2.42,0,.89.62,1.36,1.57,1.36A4.51,4.51,0,0,0,376,38.1"/><path d="M380.94,41.24V30h2.62v1.81a5.32,5.32,0,0,1,4-2,3,3,0,0,1,3.33,3.3v8.2h-2.61V33.78c0-1.23-.51-1.87-1.7-1.87a4.48,4.48,0,0,0-3.06,1.47v7.86Z"/><path d="M391.57,45.28l.6-2.1a7.69,7.69,0,0,0,1.91.23,1.69,1.69,0,0,0,1.78-1.28l.32-.83L391.84,30h2.72l2.91,8.23h0L400.41,30H403L398.2,42.47c-.74,2-1.72,3.15-3.95,3.15a9.41,9.41,0,0,1-2.68-.34"/><polygon points="110.83 41.22 110.83 27.95 105.99 27.95 105.99 25.49 118.34 25.49 118.34 27.95 113.49 27.95 113.49 41.22 110.83 41.22"/><path d="M119.91,41.22V25.49h2.63v6a5.65,5.65,0,0,1,4.13-1.74c2,0,3.25,1.17,3.25,3.4v8.1h-2.64V33.78c0-1.26-.53-1.83-1.68-1.83a4.56,4.56,0,0,0-3.06,1.47v7.8Z"/><path d="M131.7,35.58c0-4.29,3-5.86,5.38-5.86,2.53,0,4.95,1.51,4.95,6.1v.61h-7.72a2.8,2.8,0,0,0,3,2.94,4.09,4.09,0,0,0,3.17-1.32l1.38,1.36a6.08,6.08,0,0,1-4.74,2c-2.83,0-5.44-1.72-5.44-5.87m7.92-1.1c-.14-1.72-1-2.64-2.56-2.64a2.66,2.66,0,0,0-2.71,2.64Z"/><path d="M244.63,22s.39-.58.71-1a18,18,0,0,1,2.48-2.62l.54-.45s-.46,0-.72.09a5.6,5.6,0,0,0-2,1.11c-.74.64-1.56,1.67-1.19,2.59,0,.13.14.3.14.3m4.12,1.11a7.82,7.82,0,0,0,3.3-1c1-.56,2.48-1.65,2.33-2.94a1.11,1.11,0,0,0-.67-.88,1.55,1.55,0,0,0-1.25,0,3.91,3.91,0,0,0-1,.43A15.14,15.14,0,0,0,247.8,22c-.21.27-.42.57-.58.78s-.18.24-.17.27a5.19,5.19,0,0,0,1.7.09m-3,2.19a5.31,5.31,0,0,0-.38.66,1.71,1.71,0,0,1-.29.34.62.62,0,0,1-.87,0,2.06,2.06,0,0,1-.66-1.48,5.34,5.34,0,0,0,0-.7,4.57,4.57,0,0,0-.61-1,4,4,0,0,1-.41-1.48A5,5,0,0,1,244.11,18a10.27,10.27,0,0,1,3.47-2.38A6.76,6.76,0,0,1,252,15.2a3.48,3.48,0,0,1,1.39.93.86.86,0,0,0,.19.22,1.21,1.21,0,0,0,.34.08,3.23,3.23,0,0,1,1.33.63,2.51,2.51,0,0,1,.94,1.49A4.11,4.11,0,0,1,255,22a12.59,12.59,0,0,1-4.58,3.15,7.09,7.09,0,0,1-2.91.51c-.27,0-.56-.09-.83-.11a3.55,3.55,0,0,1-.7-.18c-.07-.05-.15-.1-.16-.08M203,29a4.88,4.88,0,0,0,1.79-.34c.32-.14.69-.45.51-.82s-.5-.31-.74-.29a1.86,1.86,0,0,0-1.6,1.39s0,.06,0,.06M206.25,27a3.44,3.44,0,0,1,.67,1.89,2.9,2.9,0,0,1-.57,1.93,3.94,3.94,0,0,1-2.93,1.45,7.32,7.32,0,0,1-1.31,0l-.09,0a4.85,4.85,0,0,0-.21.86c-.1.78-.23,1.33-.32,2s-.12,1-.17,1.53a37.55,37.55,0,0,0,.09,7.5,3,3,0,0,1,0,.52.82.82,0,0,1-.63.68c-1.05.28-2.05-.76-2.57-1.58-1.2-1.94-.81-5.9-.46-7.85a26,26,0,0,1,.77-3.26,11,11,0,0,0,.34-1.06s-.57-.24-1.07-.43a10.74,10.74,0,0,1-1.1-.57,5.67,5.67,0,0,1-1.32-1.07,5.91,5.91,0,0,1-.56-.85,2.51,2.51,0,0,1-.06-2.08c.07-.19.46-1,.72-1s.29.65.38,1a1.29,1.29,0,0,0,.23.39,8.41,8.41,0,0,0,2.95,1.5,6.52,6.52,0,0,0,1.37.29s.25-.4.39-.62a1.57,1.57,0,0,1,.24-.32,5.41,5.41,0,0,1,2.66-1.62,3.21,3.21,0,0,1,1.72.23,2.7,2.7,0,0,1,.84.66m-10.47,8.61.12,0c.5.22.5,1.12.38,1.55A6,6,0,0,1,194,40.1a7.4,7.4,0,0,1-2.28,1,2.59,2.59,0,0,1-2.82-1,5.73,5.73,0,0,1-.86-2.89A23.47,23.47,0,0,1,190,27.78c.14-.32.87-1.8,1.55-2s1,.55,1,1.15a8.43,8.43,0,0,1-.35,2.58c-.34,1.42-.82,3.66-.94,4.3a12.23,12.23,0,0,0-.3,2.86c.05.39.12.59.42.56.14,0,2-.88,3.09-1.27a3.25,3.25,0,0,1,1.32-.27m-14.13-1.31h.45c.71,0,1.9-.14,1.9-.14s-.13-1.05-.24-1.73a8.26,8.26,0,0,0-.23-1.07,3.83,3.83,0,0,0-.26-.79l-.06-.07s-.57,1.12-.9,1.89c-.25.61-.38,1.07-.56,1.45a1,1,0,0,0-.1.3v.16m-3.82.12.61-1.35a44.35,44.35,0,0,1,2.28-4.25c.64-.89,1.88-2.58,1.89-2.63a1.72,1.72,0,0,1,.24-.79,1,1,0,0,1,.79-.32,1,1,0,0,1,.89.54,19.66,19.66,0,0,1,.95,2.54A60.25,60.25,0,0,1,187,36.33c.06.54.23,3.33.25,4a3,3,0,0,1-.26,1.54.55.55,0,0,1-.44.24,2.1,2.1,0,0,1-.92-.52,3.29,3.29,0,0,1-1.07-1.76c-.1-.58-.25-2.25-.25-2.25l-2.49.09-1.38,0-.24.59c-.23.58-.44,1.16-.53,1.48-.18.65-.53,1.94-.62,2.15-.17.42-.32.67-.74.72a1.74,1.74,0,0,1-1.1-.08,2.37,2.37,0,0,1-1-1.81c-.18-1.26.33-2.29.86-3.78.22-.64-.09-.85-.61-1.67a.93.93,0,0,1-.15-.3.52.52,0,0,1,.18-.39s0,0,.11,0l1.25-.06m-14.21-8.2s0-.8-.1-1.24a2.27,2.27,0,0,0-.31-1c-.2-.32-.35-.52-.66-.57s-.6.21-.83.59a10.6,10.6,0,0,0-.83,2.05,13.59,13.59,0,0,0-.53,2.34,24.73,24.73,0,0,0-.22,6.13c0,.31.13.78.13.78l.66-.73c.12-.13.68-1,.74-1.08s.36-.61.39-.71.47-1,.54-1.18c.14-.39.34-1,.49-1.48a17.66,17.66,0,0,0,.53-2.77,7.86,7.86,0,0,0,0-1.17h0M160.9,38l.27.47a3.62,3.62,0,0,0,3,1.8,7.47,7.47,0,0,0,4-1.36c2.74-1.91,4.19-5.35,5-8.64A22.66,22.66,0,0,0,173,18.63a17.14,17.14,0,0,0-3.42-6.5c-.46-.49-1.17-1.15-1.37-1.41s-.26-.51.06-.7,1.07.21,1.44.43a12,12,0,0,1,4.05,3.75c.27.4,1.35,2.18,1.55,2.56a19,19,0,0,1,2.17,6.79,22.87,22.87,0,0,1-1,10.08,20.3,20.3,0,0,1-2,4.1c-.19.29-1.33,1.82-1.47,2-.39.41-1.35,1.25-1.8,1.61-2.27,1.81-4.71,3-7.39,2.68a7.35,7.35,0,0,1-3.86-1.63,7.81,7.81,0,0,1-1.53-1.7,6.14,6.14,0,0,0-.47-.79s-.17.08-.31.18a8.72,8.72,0,0,1-.94.44,6.24,6.24,0,0,1-5.58-.57,7.44,7.44,0,0,1-2.72-3.67,14,14,0,0,1-.46-6.28,24.65,24.65,0,0,1,3.76-10.19,18.74,18.74,0,0,1,4.76-5.21c.21-.16,1.38-.84,1.62-1,.44-.2,1-.39,1.34,0,.18.19.17.34,0,.58a7.22,7.22,0,0,1-1,1.2c-.25.26-1.66,2-2,2.4s-1.76,2.59-1.95,2.92a25,25,0,0,0-3.11,12,15,15,0,0,0,.33,2.69,5.47,5.47,0,0,0,1.74,3,2.8,2.8,0,0,0,3,.18c.3-.12.73-.32.73-.32s-.33-.84-.55-1.48A17.59,17.59,0,0,1,156,30.2a10,10,0,0,1,1.25-4.08,10.8,10.8,0,0,1,2.31-2.83,6.5,6.5,0,0,1,3.73-1.52,3.06,3.06,0,0,1,2.78,1.43,10.56,10.56,0,0,1,.78,6.22,11.59,11.59,0,0,1-3.84,7C162.31,37,160.9,38,160.9,38m86.47-10,.21.06a1.84,1.84,0,0,1,1,1.46,42.62,42.62,0,0,1,.57,6.06c.05,1,.07,1.91.11,2.86a11.59,11.59,0,0,1-.07,2.64,1.23,1.23,0,0,1-.5.75,2.36,2.36,0,0,1-1.35.13c-.92-.19-1.22-.78-1.36-1.69a45.18,45.18,0,0,1,0-8.24,17.8,17.8,0,0,1,.59-3.29c.11-.27.34-.82.73-.74M219,31.32s-1.36.1-2.3.2a25.89,25.89,0,0,0-4.73,1c-.39.14-1.18.47-1.25.87a1.33,1.33,0,0,0,.48,1.07c.16.19,1.1,1.09,1.36,1.31a23.86,23.86,0,0,0,5,3c.57.23,1.5.57,1.5.57s-.07-2.66-.06-5.27c0-1.38,0-2.75,0-2.75m25,1.06a12.28,12.28,0,0,1-.14,2.24,11.38,11.38,0,0,1-.42,1.47c-.25.57-.5,1-.75,1.51a12.71,12.71,0,0,1-2.15,2.63,17.87,17.87,0,0,1-9.09,3.56,23.15,23.15,0,0,1-6.78-.2c-.77-.14-1.91-.4-1.91-.4s0,.46,0,.78a3.82,3.82,0,0,1-.19.66,1,1,0,0,1-.82.58,2.38,2.38,0,0,1-1.4-.07,2,2,0,0,1-1.09-1.73c-.1-.61-.21-1.68-.21-1.68l-1-.47a25.85,25.85,0,0,1-3.8-2.33c-.31-.23-1.66-1.36-2-1.64a11.2,11.2,0,0,1-2.15-2.6,2.46,2.46,0,0,1-.24-2.33c.47-1.16,2.14-2,3.29-2.54a27.46,27.46,0,0,1,4.54-1.39c.51-.07,1.31-.21,1.36-.24l0-.05a15.37,15.37,0,0,0,.06-1.61c0-.42.31-3.15.41-3.73a7,7,0,0,1,.53-1.82.48.48,0,0,1,.67-.06c1.24.77,1.63,3.46,1.71,4.83.06.83.09,2.08.09,2.08s1.43,0,2.31,0a19.41,19.41,0,0,1,2.68.29,18.86,18.86,0,0,1,4.61,1.31,4.64,4.64,0,0,1,2.34,2.37,2.4,2.4,0,0,1-.19,2.24,3.18,3.18,0,0,1-2.43,1.6,4.11,4.11,0,0,1-1.71-.39.31.31,0,0,1,0-.41s.55-.31.84-.47a2.55,2.55,0,0,0,.4-.28,1,1,0,0,0,.45-.74c0-.37-.43-.59-.79-.74a29,29,0,0,0-6.87-1.36c-.65,0-1.59-.07-1.59-.07l.2,9.23s.77.15,1.38.25c.34.05,1.82.18,2.21.19a20.25,20.25,0,0,0,9.05-1.48,9.26,9.26,0,0,0,3.14-2.22,6.47,6.47,0,0,0,1.53-4.79,12.57,12.57,0,0,0-2.66-5.73c-2.93-3.76-7.94-6.86-12.35-8.67a39.36,39.36,0,0,0-13.73-3.09,22.77,22.77,0,0,0-5.27.39c-.2.05-.39.12-.58.16a1.39,1.39,0,0,0-.42.18l-.07.06.16.08c.15.06.75.11,1.07.16a1,1,0,0,1,.68.41.41.41,0,0,1,0,.51c-.31.38-1.47.31-2,.23s-1.19-.25-1.31-.71a2.18,2.18,0,0,1,.4-1.57,3.82,3.82,0,0,1,2.54-1.82,26.25,26.25,0,0,1,5.35-.83,31,31,0,0,1,10.39,1.54,48.58,48.58,0,0,1,6.47,2.51,49.81,49.81,0,0,1,4.71,2.65c.38.25,2.6,1.88,2.94,2.17.72.59,1.67,1.44,2.35,2.11a22.15,22.15,0,0,1,3.76,4.9c.19.38.33.76.58,1.2a9.86,9.86,0,0,1,.51,1.32c.07.25.15.63.16.65a9.49,9.49,0,0,1,.18,1.22m15.36.67.15,0a11,11,0,0,1,3,.71,3.08,3.08,0,0,1,1.61,1.51,4.31,4.31,0,0,1-2.07,6,7.8,7.8,0,0,1-2.7.74,9.7,9.7,0,0,1-5.12-.92,6.08,6.08,0,0,1-2.59-2.2,2.17,2.17,0,0,1,.1-2.36c.81-1.1,2.52-1.34,3.82-1.29a15.55,15.55,0,0,1,3.7.67,7.73,7.73,0,0,1,1.39.64.48.48,0,0,1,.14.45c-.22.66-1.81,1-2.26,1.07-1.24.19-1.88-.27-3.28-.83a5.41,5.41,0,0,0-1.16-.32c-.64-.06-1.4.12-1.53.81-.05.36.37.69.69.84a5.25,5.25,0,0,0,2.09.45,11.1,11.1,0,0,0,6.43-1.59,1,1,0,0,0,.48-.75c0-.05-.06-.39-.17-.43H262s-.1-.13-.16-.2a2.74,2.74,0,0,0-.75-.42,18.88,18.88,0,0,0-4.57-.84c-1.2-.1-3.09-.26-3.54-.33a5.47,5.47,0,0,1-1.38-.34,1.69,1.69,0,0,1-.92-1,3.19,3.19,0,0,1,.51-2.48c1.19-1.71,4-2.37,6.07-2.63s5.29-.24,7.27.81c.31.16.47.32.4.65a1.59,1.59,0,0,1-1.15,1.18,12.16,12.16,0,0,1-2.34.29c-2.39.14-5.28.07-7.56.69a1.34,1.34,0,0,0-.58.25c-.36.38.66.49.87.54l.15,0,5,.6m7.47,9c-1-.36-1.19-1.92-1.23-2.71A24.56,24.56,0,0,1,267,30.75c.24-.7.6-1.81,1.37-1.75a1.82,1.82,0,0,1,1.2.87c.76,1.07,1.75,2.52,2.41,3.52s1.44,2.27,2.14,3.3a1.75,1.75,0,0,0,.27.32c.12.1.23.11.28,0s0-1.33,0-1.59-.08-.75-.12-1.11c-.14-1-.47-2.5-.72-3.48s-.64-2.26-.9-3.33a4.23,4.23,0,0,1-.16-1,.55.55,0,0,1,.81-.56c1,.34,2.29,2.47,2.67,3.22.12.25.63,1.52.75,1.87a15.67,15.67,0,0,1,.76,3.71,10.2,10.2,0,0,1-.53,4.46,4.71,4.71,0,0,1-1,1.42,2.23,2.23,0,0,1-2.35.47c-.81-.46-2.14-2.76-2.36-3.16-.77-1.34-2.1-4-2.3-4.27a.38.38,0,0,0-.21-.16c-.08,0-.11.14-.13.25-.13.76-.22,4.35-.22,4.45a19.08,19.08,0,0,1-.23,2.81c-.12.47-.23.86-.67,1.06a1.07,1.07,0,0,1-.92,0m13.32-.23a4.75,4.75,0,0,1-.4-.39,6.53,6.53,0,0,1-.43-.7c-.07-.14-.11-.24-.16-.35a4.42,4.42,0,0,1-.13-2.5,10.59,10.59,0,0,1,.74-2,.67.67,0,0,0,.05-.19c0-.15-.24-1.18-.25-1.52,0-.51.38-.86,1-.94h.14c.27-.06.44-.57.58-1,.2-.57.52-1.44.52-1.44a12.32,12.32,0,0,1-1.28-.36,1.85,1.85,0,0,1-1.11-.89c-.26-.53-.09-.83.47-1,.2-.07,1.83-.38,2.34-.45s1.23-.18,1.84-.25,2.95-.35,3.72-.32a3,3,0,0,1,2.62,1.5c.38.54.63,1.17.07,1.51-.86.52-3.63.56-4.14.57h-1.93L283.88,33l3.1,0a3.29,3.29,0,0,1,.7.05c.57.13.76.56.79,1.19s-.11,1.09-.7,1.18c-.3,0-3.72.07-4.18.12l-.59.08s-.25.64-.46,1.29-.4,1.37-.4,1.37h.31a3.36,3.36,0,0,0,.67-.07c1.05-.19,2.59-.41,3.86-.62.69-.11,1-.15,1.39.3a2,2,0,0,1,.5,1.22c0,.45-.33.75-.76,1.08a12.54,12.54,0,0,1-5.35,2.33,3.42,3.42,0,0,1-1.67-.18,2.86,2.86,0,0,1-.6-.28l-.35-.24m21.58-9.49a18.86,18.86,0,0,0-2.57,3c-.72,1-1.41,2.22-2,3.14a6.33,6.33,0,0,0-.55,1,2.31,2.31,0,0,0,.89,0A7.62,7.62,0,0,0,300.3,38a6.06,6.06,0,0,0,2.07-3.28,3.41,3.41,0,0,0-.2-2.41.31.31,0,0,0-.45-.06m-7,10.79s-.28.82-.48,1.46c-.36,1.11-1.13,4.09-1.32,5-.26,1.37-1,5-1.07,5.05a.47.47,0,0,1-.22.22c-.32.19-.45.12-.84-.08a3.73,3.73,0,0,1-1.31-1c-.75-1-.57-2.81-.42-3.89a34.24,34.24,0,0,1,2.47-9.18.12.12,0,0,0,0-.14,7.49,7.49,0,0,1-.69-3c0-2.94,1.69-5.85,3.59-8.18.14-.19,1.07-1.3,1.49-1.28s.5.52.43.93a12.54,12.54,0,0,1-1.82,3.88,11.88,11.88,0,0,0-1.25,3A7.84,7.84,0,0,0,293.1,37a7,7,0,0,0,.07.71s1.2-1.67,2-2.7c.43-.57.74-.94,1.1-1.35s1.76-1.87,2.17-2.25a7.71,7.71,0,0,1,2.14-1.62,1.87,1.87,0,0,1,2.09,0,4.87,4.87,0,0,1,1.74,3.56,8.65,8.65,0,0,1-.83,4.51,9.41,9.41,0,0,1-3.35,3.63,8.86,8.86,0,0,1-5,1.63l-.5,0"/><path class="cls-1" d="M92.78,43.79C92.66,42.5,92,41.54,90,40.62a21.86,21.86,0,0,0-4.82-1.46c-1.65-1.25-3.58-2-5.49-1.28a3.24,3.24,0,0,0-.87.52c-1.74-.14-3.38-.29-4.84-.54a19.36,19.36,0,0,1,1.64-1.46,1.89,1.89,0,0,0,.34-.09c5.08-1.5,6.92-5.12,6.59-8.82a4.24,4.24,0,0,0,1.47-2.24c.9-3.35-2.49-5.08-4.22-3.53A6.53,6.53,0,0,0,78.38,24a4.32,4.32,0,0,0-1.24.17C76.9,15.43,70,11.41,64.63,11.91,67.76,9,66.6,4.45,64,2.07s-8.22-3.29-11.58.46C48.45,6.92,50.79,13.92,56,14.22a10,10,0,0,0-4.64,5,6.45,6.45,0,0,0-8.85-5.44c-4.67,2-5.8,8.15-3.84,12.46,2.09,4.58,8.66,5,11.78,1.3A14.12,14.12,0,0,0,56.75,37a43.62,43.62,0,0,0-11,2.56c-2.07-1.17-3.86-.43-4.41,1-5.76,1.33-8.43,10-2.87,12.28a4.41,4.41,0,0,0,2.95,1.62,3.68,3.68,0,0,0,2.68,1.7c2.88.45,4.91-2.4,5-4.66a4.13,4.13,0,0,0,3-3.85c.14-1.87-1.28-3.51-2.79-4.72A30.21,30.21,0,0,1,61.87,41.3c.18,2.38-1.06,4.1-3.21,5.9-3.28,2.73-7.09,3.71-8.2,9a11.84,11.84,0,0,0-.25,2.42c-4,1.27-9.09.66-13.9-1.14C23.84,52.76,10.55,42.41,0,50.07c11.6-7.09,23.91,3.49,36,8,7.26,2.73,11.66,2.59,14.27,1.74a12.54,12.54,0,0,0,1.45,4.23,7.62,7.62,0,0,1-4.3.8,2.5,2.5,0,0,0-2.89-2,3,3,0,0,0-2.82-.94c-2.78.34-8.19,8.83-5.38,14.79,3,6.39,14.89,5.38,17-.34.78-2.15-.77-5.26-4.79-5.49l-.76,0a2.17,2.17,0,0,0-.67-.73,2.8,2.8,0,0,0,.41-.83A13.87,13.87,0,0,0,54,68a18,18,0,0,1,1.25,2.89c.22.68,2.2,0,4.34-1.19a83,83,0,0,1,6.11,9.71C64.64,81.13,64,83.13,65.29,84a1.56,1.56,0,0,0,.68.25c-1,2.64.78,5.73,5.24,5.1,5.22-.74,11.33-6,13-12.85,2-8.08-4.25-12-8.78-9.21-2.63,1.59-4.35,4.67-5,8a1.59,1.59,0,0,0-1.18,0,74.81,74.81,0,0,0-5.38-8.62c.91-1,.9-1.58.67-1.83a3.42,3.42,0,0,1-.27-.32c3.38-4.35,7-5.51,9.72-13.5a18,18,0,0,0,.53-8.38c.69,0,1.56.12,2.13.19a6.35,6.35,0,0,0,0,1.68,4,4,0,0,0,.42,1.16A1.85,1.85,0,0,0,76,48.05c.32.89,1.35,1.21,2,1.92.89.94,1.35,1.55,2.07,1.61a2,2,0,0,0,1.84-2.41,6.88,6.88,0,0,0,1.57,0A2.88,2.88,0,0,0,86.18,51a3.16,3.16,0,0,0,2.73-1.59,2.64,2.64,0,0,0,.92,0,3.66,3.66,0,0,0,2.81-2.75,2,2,0,0,0,.14-2.82"/><path class="cls-2" d="M76.8,24.26c-.17.06-.33.13-.48.2a15.22,15.22,0,0,0-.41-2.64c-.75-2.72-2.25-4.55-3.11-4.12-.71.36-.1,2.35.85,5.41.39,1.26.68,2.28,1,3a3.59,3.59,0,0,0-.48,1.48,5.51,5.51,0,0,1,4.06-3.18,10.25,10.25,0,0,0-.52,2c-.21,1.43,1.11,2.33,2.62,2.12a4.74,4.74,0,0,0,1.77-.63c.28,2.8-1.43,6.44-6.3,7.85-5.48,1.59-10.45-.94-12-5a8.64,8.64,0,0,1,2.67-.12c-2.34-.86-5.57.16-6.26,1.86a5.86,5.86,0,0,1,2.54-1.48c2.28,2.55,1.21,7.86,4.55,9,3,1,4.49-1.56,6.36-3.16a11.27,11.27,0,0,0,1.3-.17c-2.58,2.06-4.31,5-7.31,4.47-3.15-.59-3.59-3.21-4.4-4.17a16.34,16.34,0,0,0,.68,1.92,13.61,13.61,0,0,1-6.6-2.08c-4.79-3.76-1.63-10.92,7.49-9-4.38-4.1-5.42-11.87-2.17-14.34,2.31-1.74,5.9.82,6.78,2.23,0-.56,0-1.65,0-2.34a12.41,12.41,0,0,1,7.34,11"/><path class="cls-2" d="M88.42,42.26C89.93,42,94,44,92.64,46c-.24-1.43-1.62-1.82-4.22-3.69"/><path class="cls-1" d="M89.79,41.13c1.47.71,2,1.22,2.34,2C91,42.27,89.2,41.55,88,42c-.32-.35-1.25-1.45-1.89-2a16.9,16.9,0,0,1,3.66,1.2"/><path class="cls-1" d="M74.87,25.71c-.23-.69-.48-1.66-.8-2.73a.46.46,0,0,0,0-.09c.3,0,.72.73,1,1.74.06.27.1.53.13.77a3.88,3.88,0,0,0-.26.31"/><path class="cls-2" d="M75.37,25.14a4.15,4.15,0,0,0-.1-.58c-.28-1.2-.87-2.08-1.31-2h0c-.74-2.4-1.47-4.33-1-4.65s1.85,1.3,2.52,4A16.52,16.52,0,0,1,76,24.67a4,4,0,0,0-.61.47"/><path class="cls-3" d="M68.54,38.26a3.07,3.07,0,0,0-.3-1.26,2.53,2.53,0,0,1,2.94,1.55,3.58,3.58,0,0,1-3.69,1C66,39,65.54,37.76,65.14,36.2c1.67-.64,2.83.52,3.4,2.06"/><path class="cls-1" d="M71.46,38.32a2.63,2.63,0,0,0-3.37-1.59,2.28,2.28,0,0,0-3-.87,13.62,13.62,0,0,0-1.93-5.05l.3-.07c1.27,3.83,5.39,6.16,9.7,6-.57.5-1.11,1.06-1.67,1.55"/><path class="cls-1" d="M50.51,26.83c-3.27,3.86-9.29,3.36-11.33-.86-1.59-3.3-1-9.71,3.51-11.72s8.41,2,8.39,6.22a12,12,0,0,1,6-6.45C50.63,14,49.55,6.5,52.81,2.87S61.66.58,63.62,2.54c2.86,2.85,3.33,7.07.06,9.72a13.66,13.66,0,0,1,5.45.83,10.39,10.39,0,0,0,0,1.67c-1.21-1.55-4.38-3.39-6.69-1.75C58.84,15.56,60.15,23.44,64,27.25c-7.62-1.38-11.35,4.27-8.42,8.23a15.77,15.77,0,0,1-5.11-8.65"/><path class="cls-2" d="M43.69,40.6a8.59,8.59,0,0,1,1.44-.81c-2.77-1.3-4.91,1.86-2,4.4,2.48,2.17,5.6,1,5.41-1-.75.26-1.54.54-1.93.66-2.26.67-4.09-2.39-2.93-3.21"/><path class="cls-2" d="M49.12,43.29c.07,2.35-3.46,3.87-6.43,1.17A3.9,3.9,0,0,1,41.2,41C36.62,42.48,34,49.23,38,52.11a3.6,3.6,0,0,1-.37-2.45,4.74,4.74,0,0,0,3.48,4.2,9.62,9.62,0,0,1-.63-3.24c.75,2.29,1,4.46,3.63,4.9,2.87.49,5-3.15,4.54-4.92-.4,1-.93,2-1.78,2.22,1-1.22,1.28-3.07,2.44-4-.14.32-.28.74-.44,1.19a2.71,2.71,0,0,1,.24.92,3.71,3.71,0,0,0,2.41-3.36c.13-1.46-1-3-2.41-4.29"/><path class="cls-1" d="M62.2,40.87c-8-.87-13.92,2-15.7,2.46S43.38,41.39,44,40.92c2.44-1.75,9-3.09,13.42-3.53a13.35,13.35,0,0,0,6.69,1.9,4.82,4.82,0,0,0,3.47,2.29c2.24.4,3.69-.94,5.27-2.57a17.84,17.84,0,0,1,1,10.11C69.53,53,61.27,52.46,58.68,48l.4-.33c2-1.65,3.59-4,3.12-6.8"/><path class="cls-2" d="M44.69,71.66c-1.85-.28-3.38.14-4.18,1.09a8,8,0,0,1,3.35-.69,8,8,0,0,0-2.59,2.1c2-1.48,4.61-2.84,7.31-2.68,3.54.21,5,3,4.31,4.71-2,5-13.06,6.3-15.91.29-2.67-5.63,2.45-13.79,4.94-14.12A2.78,2.78,0,0,1,44.1,63c-1,.45-1.89,1.6-2,3.63-.18,3.86,3.11,5,4.67,3.83a1.53,1.53,0,0,1,.42.48,9.72,9.72,0,0,0-2.51.7"/><path class="cls-2" d="M42.55,66.76c.17-3.72,3.53-4.42,4.38-1.91-.39,0-.94-.07-1.17,0-1.86.1-1.81,3.43-.17,4.1a5.94,5.94,0,0,0,1.41.35c-.81,2.16-4.63,1.23-4.45-2.49"/><path class="cls-1" d="M45.83,68.45c-1.43-.54-1.24-3.24,0-3.24,1,0,4,.56,6.19-.71.58,1,1.22,2.06,1.8,3.08-2,1.08-6.1,1.58-7.94.87"/><path class="cls-3" d="M56,70.65a11,11,0,0,1,2.41-2.44c.26.31.52.66.79,1A11.85,11.85,0,0,1,56,70.65"/><path class="cls-1" d="M62.39,65.73A87.34,87.34,0,0,1,69.16,76.2c.48,1.2-1,4.34-2.16,4.91a68.76,68.76,0,0,0-8.22-13.19,20.6,20.6,0,0,1,3.61-2.19"/><path class="cls-2" d="M70.3,75.94a15.12,15.12,0,0,0,.37,6.58c-.68-6,1.28-12.41,5-14.72,4.6-2.81,9.62,1.41,7.83,8.51-1.51,6-6.63,11.33-12.43,12.46-3.5.67-5.72-1.84-4.65-4.52a2.39,2.39,0,0,0,2-1.87c-.84,1.18-2.24,1.69-2.87,1.24s-.48-2,.46-3.59c.33.63.63,1.23.87,1.75,2-1,3.17-4.34,2.71-5.7a1.83,1.83,0,0,0-.14-.28,1.37,1.37,0,0,1,.85.14"/><path class="cls-3" d="M63.5,66.24c-.2-.27-.39-.51-.57-.74a3.43,3.43,0,0,1,1.15-.28c.06.17-.09.51-.58,1"/><path class="cls-3" d="M63.86,64l-1-1.43a6.29,6.29,0,0,0,2.9-2,12.55,12.55,0,0,1-3.22,1.56,20.3,20.3,0,0,0-3.37-3.74c1.4,1.6,3.62,5.09,4.54,6.34C61.55,65,57,68,55.61,70.23a21.92,21.92,0,0,0-1.24-2.66c-2-3.73-4-6.72-3.19-11.12.84-4.59,4.15-5.9,7.19-8.21,2.08,4.2,10.34,5.75,15.32,1.47a11.17,11.17,0,0,1-.31,1.11c-2.72,8-6.4,9.34-9.52,13.19"/><path class="cls-1" d="M74.4,42.11a12.22,12.22,0,0,0-1.21-3.41c.17-.19.36-.38.55-.57a34,34,0,0,0,4.6.75,6.72,6.72,0,0,0-1.63,3.46c-.75-.11-1.67-.18-2.31-.23"/><path class="cls-2" d="M78.24,49.47c-.67-.59-1.47-1.06-1.68-1.64a1.26,1.26,0,0,1,.83-1.67,3,3,0,0,0,2.07,1,3.21,3.21,0,0,0,2.05,2c.06.86-.52,2-1.46,2-.58,0-.86-.79-1.81-1.62"/><path class="cls-2" d="M89.71,48.92a2.8,2.8,0,0,1-1.58-.1,2.28,2.28,0,0,0,.94-1.13c-1.18,1.15-2.09,1.15-2.49,1.83.38-.14.75-.28,1.09-.44.31.05.59.16.88.23a3.25,3.25,0,0,1-2.35,1.25,2.38,2.38,0,0,1-2.3-1.73c-.27-1.07.42-2.82,1.85-4.28a4.29,4.29,0,0,0-2.35,4.24c-1.58.19-3.16-.68-3.42-2s.18-3.29,2.22-5.59a6,6,0,0,0-2.83,5.5,2.76,2.76,0,0,1-2.17-2.35c-.36-2.24,1.14-5.44,2.7-6.06,3.86-1.55,7.75,4.2,9.57,5.79a14.41,14.41,0,0,0-.79-1.26c1.86,1.65,3.47,2,3.57,3.3.12,1.5-1.66,2.58-2.54,2.77"/><path class="cls-1" d="M80.18,28c-1.23.19-2.26-.41-2-1.7a9.25,9.25,0,0,1,1.92-4.08c1.35-1.37,4.09,0,3.42,2.88A4.06,4.06,0,0,1,80.18,28"/><path class="cls-1" d="M40.61,44.05a17,17,0,0,0-2.73,3.15c-.24-1,1.66-3,2.73-3.15"/><path class="cls-1" d="M41.38,44.85c-1,.65-2.52,2.88-2.11,3.74.63-1,.9-1.9,2.11-3.74"/><path class="cls-1" d="M42.69,45.71c-.68.86-1.4,2.56-1.16,3.48a17,17,0,0,0,1.16-3.48"/><path class="cls-1" d="M61.1,59.45c-1.88-.6.64-7,2.77-6.3s-.52,7-2.77,6.3"/><path class="cls-2" d="M61.22,59.2c-1.29-.39,1-6.15,2.55-5.76s-1.09,6.19-2.55,5.76"/><path class="cls-1" d="M66.86,59c-1.12-.71,1.87-6.52,3.29-5.85.53.25.76,1.8-.37,3.58-.93,1.47-2.13,2.78-2.92,2.27"/><path class="cls-2" d="M67.06,58.76c-.65-.43,2.15-5.72,2.92-5.33.39.2.26,1.7-.57,3.06s-2,2.53-2.35,2.27"/><path class="cls-1" d="M72.43,27.84c1.21-.39,1.2-2.82.5-5.35-.65-2.35-2.07-4.66-3.56-4.15s-1,3.36-.24,5.64,2.28,4.19,3.3,3.86"/><path class="cls-1" d="M71.65,25.76c-.47-1.15-1.16-2-1.53-1.79-.17.06-.25.31-.24.65.61,1.48,1.48,2.77,2.17,2.94a4.88,4.88,0,0,0-.4-1.8"/><path class="cls-2" d="M72.54,22.67c-.65-2.45-2-4.42-3-4s-.66,3.15.1,5.28l.05.12a.59.59,0,0,1,.33-.4c.54-.23,1.42.67,2,2a4.81,4.81,0,0,1,.4,1.91c.86-.28.91-2.24.2-4.88"/><path class="cls-1" d="M113.12,72.89c-3.56-3-5.53-6.33-5.53-10.62s2-7.62,5.53-10.61L114.37,53a12.93,12.93,0,0,0,.07,18.65Z"/><path class="cls-1" d="M116.19,70.29V54.09h2.73v7.53l6.37-7.53h3.24L123,60.33l6.19,10h-3.13l-4.86-7.86L118.92,65v5.32Z"/><path class="cls-1" d="M129.6,64.49c0-4.29,2.82-6,5.67-6s5.67,1.75,5.67,6-2.85,6-5.67,6S129.6,68.73,129.6,64.49Zm8.62,0c0-2.17-.92-3.74-2.95-3.74s-3,1.4-3,3.74.9,3.79,3,3.79S138.22,66.88,138.22,64.49Z"/><path class="cls-1" d="M142.42,70.29V58.67h2.69v1.9h0a4.55,4.55,0,0,1,4.18-2.12h.17l-.09,2.47c-.13,0-.56,0-.72,0a3.94,3.94,0,0,0-3.59,2.06v7.35Z"/><path class="cls-1" d="M149.9,64.49c0-4.42,3.13-6,5.54-6,2.61,0,5.1,1.55,5.1,6.28v.63H152.6a2.87,2.87,0,0,0,3.1,3A4.22,4.22,0,0,0,159,67l1.43,1.4a6.29,6.29,0,0,1-4.88,2.1C152.6,70.53,149.9,68.76,149.9,64.49Zm8.17-1.14c-.15-1.77-1-2.71-2.65-2.71a2.72,2.72,0,0,0-2.78,2.71Z"/><path class="cls-1" d="M161.28,67.49c0-2.52,2.15-4.2,7.57-4.82v-.35c0-1.16-.61-1.66-1.9-1.66A6.32,6.32,0,0,0,163,62.24l-1.31-1.69a8.33,8.33,0,0,1,5.6-2.1c3.11,0,4.18,1.49,4.18,4.2v4.79a8,8,0,0,0,.33,2.85h-2.71a4,4,0,0,1-.27-1.49,5.6,5.6,0,0,1-4.29,1.66C162.68,70.46,161.28,69.41,161.28,67.49Zm7.57-.44V64.49c-3.21.44-4.92,1.23-4.92,2.5,0,.92.63,1.4,1.62,1.4A4.62,4.62,0,0,0,168.85,67.05Z"/><path class="cls-1" d="M172.79,72.58a12.91,12.91,0,0,0,.07-18.64l1.24-1.34c3.57,3,5.54,6.3,5.54,10.62s-2,7.61-5.54,10.61Z"/><path class="cls-1" d="M186.74,70.29V54.09h2.74V67.8h7.46v2.49Z"/><path class="cls-1" d="M198.51,70.29V54.09h2.74V67.8h7.46v2.49Z"/><path class="cls-1" d="M209.49,62.15c0-5.43,3-8.36,7.12-8.36,3.76,0,5.56,2.08,6.28,5l-2.61.75c-.61-2.15-1.55-3.24-3.7-3.24-2.73,0-4.33,2.12-4.33,5.8,0,3.85,1.64,6,4.38,6,2.1,0,3.28-1,3.9-3.48l2.6.59c-.79,3.22-2.78,5.39-6.52,5.39C212.45,70.6,209.49,67.73,209.49,62.15Z"/></g></g></svg>