<svg xmlns="http://www.w3.org/2000/svg" xmlns:xlink="http://www.w3.org/1999/xlink" viewBox="0 0 279.18 60.69"><defs><style>.cls-1{fill:#443b3a;}.cls-2{fill:url(#linear-gradient);}</style><linearGradient id="linear-gradient" x1="-2672" y1="-1136.42" x2="-2498.47" y2="-1136.42" gradientTransform="translate(935.15 427.98) scale(0.35)" gradientUnits="userSpaceOnUse"><stop offset="0" stop-color="#00a3e9"/><stop offset="0.5" stop-color="#007ec3"/><stop offset="1" stop-color="#005da2"/></linearGradient></defs><g id="레이어_2" data-name="레이어 2"><g id="Layer_1" data-name="Layer 1"><path class="cls-1" d="M83,54.36H80.79v-.88H86.1v.88H84v6.07H83Z"/><path class="cls-1" d="M87.8,53.48h1v2.91h3.32V53.48h1v7h-1V57.26H88.81v3.17h-1Z"/><path class="cls-1" d="M95.65,53.48h3.89v.88H96.65v2h2.63v.87H96.65v2.29h2.89v.88H95.65Z"/><path class="cls-1" d="M105.27,53.48h3.89v.88h-2.9v2h2.64v.87h-2.64v2.29h2.9v.88h-3.89Z"/><path class="cls-1" d="M113.16,56.82l-2.33-3.34H112l1.85,2.67,1.85-2.67h1.13l-2.34,3.31,2.58,3.64h-1.26l-2.06-3-2,3H110.6Z"/><path class="cls-1" d="M119.64,54.36h.84c.62,0,1.54.32,1.54,1.19a1.26,1.26,0,0,1-1.4,1.23h-1Zm-1,6.07h1V57.65h1c1.24,0,2.45-.55,2.45-2.08s-1.18-2.09-2.61-2.09h-1.82Z"/><path class="cls-1" d="M125.59,57c0-1.42.76-2.73,2.29-2.72s2.29,1.3,2.29,2.72-.69,2.71-2.29,2.71S125.59,58.34,125.59,57Zm-1,0c0,2.1,1.22,3.59,3.34,3.59s3.34-1.49,3.34-3.59a3.35,3.35,0,1,0-6.68,0Z"/><path class="cls-1" d="M134.23,54.36h1c.92,0,1.4.39,1.4,1s-.56,1.07-1.5,1.07h-.85Zm-1,6.07h1V57.35h.6c.52,0,.85,0,1.16.67l1.07,2.41h1.13l-1.31-2.76c-.22-.43-.37-.58-.68-.7v0a1.61,1.61,0,0,0,1.44-1.58c0-1.66-1.33-1.88-2.7-1.88h-1.71Z"/><path class="cls-1" d="M141.24,54.36h-2.16v-.88h5.31v.88h-2.15v6.07h-1Z"/><path class="cls-1" d="M144.8,57.38h2.56v.75H144.8Z"/><path class="cls-1" d="M149.29,53.48h1v7h-1Z"/><path class="cls-1" d="M152.71,53.48h1.65l2.18,5.77,2.14-5.77h1.64v7h-1v-6h0l-2.3,6h-1l-2.31-6h0v6h-1Z"/><path class="cls-1" d="M163.7,54.36h.84c.61,0,1.53.32,1.53,1.19a1.25,1.25,0,0,1-1.39,1.23h-1Zm-1,6.07h1V57.65h1c1.25,0,2.46-.55,2.46-2.08s-1.19-2.09-2.61-2.09H162.7Z"/><path class="cls-1" d="M169.65,57c0-1.42.76-2.73,2.29-2.72s2.28,1.3,2.28,2.72-.68,2.71-2.28,2.71S169.65,58.34,169.65,57Zm-1.06,0c0,2.1,1.23,3.59,3.35,3.59s3.34-1.49,3.34-3.59a3.35,3.35,0,1,0-6.69,0Z"/><path class="cls-1" d="M178.28,54.36h1c.92,0,1.39.39,1.39,1s-.55,1.07-1.5,1.07h-.85Zm-1,6.07h1V57.35h.6c.53,0,.86,0,1.17.67l1.06,2.41h1.14l-1.32-2.76a1.13,1.13,0,0,0-.67-.7v0a1.6,1.6,0,0,0,1.43-1.58c0-1.66-1.33-1.88-2.69-1.88h-1.71Z"/><path class="cls-1" d="M185.3,54.36h-2.17v-.88h5.32v.88h-2.16v6.07h-1Z"/><path class="cls-1" d="M194.47,57.26h.64c.85,0,1.8.15,1.8,1.23,0,.93-.8,1.12-1.7,1.12h-.74Zm-1,3.17h1.86c1.41,0,2.64-.36,2.64-1.85a1.61,1.61,0,0,0-1.61-1.67v0a1.61,1.61,0,0,0,1.44-1.65c0-1.28-1-1.75-2.44-1.75h-1.89Zm1-6.13h1c.58,0,1.28.21,1.28,1,0,1-.81,1.11-1.78,1.11h-.54Z"/><path class="cls-1" d="M204.34,57.86h-2.77L203,54.42Zm-4.84,2.57h1.05l.7-1.76h3.41l.71,1.76h1.07l-2.93-7h-1Z"/><path class="cls-1" d="M208.1,53.48h1.35l3.07,5.6h0v-5.6h1v7h-1.27l-3.14-5.71h0v5.71h-1Z"/><path class="cls-1" d="M216,53.48h1v3.05l3-3.05h1.33L218,56.76l3.52,3.67H220.1L217,57v3.41h-1Z"/><path class="cls-1" d="M227.37,57c0-1.42.76-2.73,2.29-2.72S232,55.54,232,57s-.69,2.71-2.29,2.71S227.37,58.34,227.37,57Zm-1.06,0c0,2.1,1.23,3.59,3.35,3.59S233,59.06,233,57a3.35,3.35,0,1,0-6.69,0Z"/><path class="cls-1" d="M235,53.48h3.68v.88H236v2h2.58v.87H236v3.17h-1Z"/><path class="cls-1" d="M244.18,53.48h1v3.05l3-3.05h1.33l-3.27,3.28,3.52,3.67h-1.45L245.18,57v3.41h-1Z"/><path class="cls-1" d="M252.13,57c0-1.42.75-2.73,2.28-2.72s2.29,1.3,2.29,2.72-.69,2.71-2.29,2.71S252.13,58.34,252.13,57Zm-1.06,0c0,2.1,1.22,3.59,3.34,3.59s3.35-1.49,3.35-3.59a3.35,3.35,0,1,0-6.69,0Z"/><path class="cls-1" d="M260.76,54.36h1c.92,0,1.39.39,1.39,1s-.55,1.07-1.5,1.07h-.85Zm-1,6.07h1V57.35h.61c.52,0,.85,0,1.15.67l1.08,2.41h1.13l-1.32-2.76c-.22-.43-.37-.58-.68-.7v0a1.6,1.6,0,0,0,1.43-1.58c0-1.66-1.32-1.88-2.69-1.88h-1.7Z"/><path class="cls-1" d="M266.62,53.48h3.89v.88h-2.9v2h2.64v.87h-2.64v2.29h2.9v.88h-3.89Z"/><path class="cls-1" d="M276.83,57.86h-2.77l1.39-3.44ZM272,60.43H273l.7-1.76h3.41l.7,1.76h1.09l-2.93-7H275Z"/><path class="cls-1" d="M86.89,33.23a7.73,7.73,0,0,0,2.58-1.52,7,7,0,0,0,1.76-2.22,6.08,6.08,0,0,0,.64-2.72,6,6,0,0,0-.64-2.67,7.13,7.13,0,0,0-1.76-2.23l-.37-.3h3.25V19.13h-6.5V17.26c0-.69-.38-1-1.13-1H81.61v2.91H75.1v2.44h3.23c-.12.11-.25.2-.37.3a7.18,7.18,0,0,0-1.73,2.23,5.83,5.83,0,0,0-.64,2.67,6,6,0,0,0,.64,2.72A7,7,0,0,0,78,31.71a8.08,8.08,0,0,0,2.59,1.52,9.41,9.41,0,0,0,6.34,0ZM81,30a4.37,4.37,0,0,1-.85-1.42,5.26,5.26,0,0,1-.31-1.79A5.1,5.1,0,0,1,80.12,25,4.51,4.51,0,0,1,81,23.58a4.08,4.08,0,0,1,1.24-1,3.17,3.17,0,0,1,3,0,4,4,0,0,1,1.23,1A4.38,4.38,0,0,1,87.32,25a4.88,4.88,0,0,1,.32,1.74,5,5,0,0,1-.32,1.79A4.24,4.24,0,0,1,86.45,30a3.79,3.79,0,0,1-1.23,1,3.33,3.33,0,0,1-3,0A3.82,3.82,0,0,1,81,30Z"/><path class="cls-1" d="M86.52,43.71a.85.85,0,0,1-1.06-1v-6a1.28,1.28,0,0,0-.16-.69.75.75,0,0,0-.64-.23H81.23V44.3a1.56,1.56,0,0,0,.45,1.14,2.89,2.89,0,0,0,2.21.73h16V43.71Z"/><path class="cls-1" d="M99.73,25.27V17.89q0-1-1.38-1H95.49V37.53h4.24v-9.8H104V25.27Z"/><path class="cls-1" d="M126.2,46.15v-8.1H109.44V35.6h19.49A1.5,1.5,0,0,1,130,36a1.35,1.35,0,0,1,.4,1v9.18Zm7.67-16H122.2V37H118V30.17H106.3V27.71h18.17a1.12,1.12,0,0,0,1.16-.74,2.82,2.82,0,0,0,.16-.92V19.64H109.44V17.19h19.07a1.5,1.5,0,0,1,1.11.41,1.33,1.33,0,0,1,.4.93v6.86l0,.82a3.84,3.84,0,0,1-.48,1.5h4.37Z"/><path class="cls-1" d="M137,27.68l1.2,2.3a22.52,22.52,0,0,0,9.73-4.61,7.88,7.88,0,0,0,1.66-1.59c1.88,2.22,7.36,4.78,11,5.42l1.73-2.76a29.39,29.39,0,0,1-11-5,11.11,11.11,0,0,0,1.25-3.69c.07-.33,0-.56-.1-.69a.59.59,0,0,0-.44-.2h-4C148,20.51,145.15,25.16,137,27.68Z"/><polygon class="cls-1" points="136.19 33.66 136.19 36.11 147.86 36.11 147.86 46.44 152.09 46.44 152.09 36.11 163.76 36.11 163.76 33.66 136.19 33.66"/><path class="cls-1" d="M194,32.37V29.92H166.73v2.45h11.53v2.22h-8.33V37h16.43v2.09h-16.2V44.3a1.61,1.61,0,0,0,.48,1.18,2.92,2.92,0,0,0,2.18.69h17.92V43.71H175.45a1.18,1.18,0,0,1-.87-.23,1.14,1.14,0,0,1-.2-.75V41.59h16.21v-7h-8.1V32.37Z"/><path class="cls-1" d="M168.14,26l1.2,2.35a22.69,22.69,0,0,0,11.42-4,32.57,32.57,0,0,0,9.68,4.35l1.3-2.86a38.12,38.12,0,0,1-8.85-3.64,3.4,3.4,0,0,0,.49-1.48h7.67V18.31h-8V16.84c0-.7-.36-1-1.08-1h-3.42v2.51H169.7v2.45h8.4c.32,0,.43.2.34.59C177.55,23.49,173.54,25,168.14,26Z"/><path class="cls-1" d="M208.05,31.27a8.79,8.79,0,0,0,2.66-1.59,8.15,8.15,0,0,0,1.78-2.41,6.59,6.59,0,0,0,.66-2.93,6.51,6.51,0,0,0-.66-2.89,7.86,7.86,0,0,0-1.78-2.4,9.08,9.08,0,0,0-2.66-1.62,8.61,8.61,0,0,0-3.21-.61,8.72,8.72,0,0,0-3.24.61,9.08,9.08,0,0,0-2.66,1.62,8.17,8.17,0,0,0-1.77,2.4,6.77,6.77,0,0,0-.63,2.89,6.85,6.85,0,0,0,.63,2.93,8.48,8.48,0,0,0,1.77,2.41,9,9,0,0,0,5.9,2.18A8.59,8.59,0,0,0,208.05,31.27ZM202,27.94a5.19,5.19,0,0,1-.87-1.61,6.24,6.24,0,0,1-.32-2,6,6,0,0,1,.32-1.94,5.24,5.24,0,0,1,.87-1.62,4,4,0,0,1,1.29-1.09,3.33,3.33,0,0,1,1.59-.41,3.25,3.25,0,0,1,1.56.41,4.1,4.1,0,0,1,1.3,1.09,5.71,5.71,0,0,1,.88,1.62,5.77,5.77,0,0,1,.33,1.94,6,6,0,0,1-.33,2,5.65,5.65,0,0,1-.88,1.61A4.06,4.06,0,0,1,206.4,29a3.34,3.34,0,0,1-1.56.39,3.43,3.43,0,0,1-1.59-.39A3.92,3.92,0,0,1,202,27.94Z"/><path class="cls-1" d="M220.28,16.82h-2.85V32.75h4.23V17.84C221.66,17.17,221.2,16.82,220.28,16.82Z"/><path class="cls-1" d="M221.44,34.8a.83.83,0,0,0-.68-.29h-3.33v3.3H206.85V35.59c0-.72-.32-1.08-.93-1.08h-3.31v9.74a1.63,1.63,0,0,0,.48,1.18,3,3,0,0,0,2.18.69h16.39V35.59A1.28,1.28,0,0,0,221.44,34.8Zm-4,8.87h-9.56c-.53,0-.84-.1-.91-.3a1.74,1.74,0,0,1-.11-.65V40.27h10.58Z"/><path class="cls-1" d="M241.18,19.18a5.83,5.83,0,0,1,1.6,1,4.87,4.87,0,0,1,1.09,1.52,4.24,4.24,0,0,1,.41,1.81,4.35,4.35,0,0,1-.41,1.85,5,5,0,0,1-1.09,1.52,5.35,5.35,0,0,1-1.6,1,5,5,0,0,1-1.94.37,5.14,5.14,0,0,1-2-.37,5.32,5.32,0,0,1-1.62-1,5.13,5.13,0,0,1-1.08-1.52,4.48,4.48,0,0,1-.39-1.85,4.37,4.37,0,0,1,.39-1.81,5,5,0,0,1,1.08-1.52,5.79,5.79,0,0,1,1.62-1,5,5,0,0,1,2-.39A4.87,4.87,0,0,1,241.18,19.18ZM253,35.66V33.21H225.45v2.45Zm-22.93-.4v9a1.8,1.8,0,0,0,.49,1.18,2.94,2.94,0,0,0,2.17.68h16.51V43.7H235.36c-.43,0-.71-.08-.83-.24a1.17,1.17,0,0,1-.2-.74V35.26Zm5.5-18.35a10.52,10.52,0,0,0-3,1.55,7.45,7.45,0,0,0-2,2.29,5.66,5.66,0,0,0,0,5.56,7.57,7.57,0,0,0,2,2.29,10,10,0,0,0,3,1.55,11.42,11.42,0,0,0,3.64.57,11.26,11.26,0,0,0,3.6-.57,10,10,0,0,0,3-1.55,7.78,7.78,0,0,0,2-2.29,5.53,5.53,0,0,0,0-5.56,7.66,7.66,0,0,0-2-2.29,10.52,10.52,0,0,0-3-1.55,11.26,11.26,0,0,0-3.6-.57A11.42,11.42,0,0,0,235.6,16.91Z"/><path class="cls-1" d="M276.5,35.83a10.85,10.85,0,0,0-2.92-1.41,11.91,11.91,0,0,0-7.09,0,10.85,10.85,0,0,0-2.92,1.41A7,7,0,0,0,261.62,38a4.92,4.92,0,0,0-.71,2.55,5,5,0,0,0,.71,2.59,6.82,6.82,0,0,0,1.95,2.11,10.58,10.58,0,0,0,2.92,1.42,12.34,12.34,0,0,0,7.09,0,10.58,10.58,0,0,0,2.92-1.42,7.11,7.11,0,0,0,2-2.11,5,5,0,0,0,.72-2.59,4.93,4.93,0,0,0-.72-2.55A7.3,7.3,0,0,0,276.5,35.83Zm-1.95,6.31a4.31,4.31,0,0,1-1.07,1.34,5.32,5.32,0,0,1-3.43,1.21,5.39,5.39,0,0,1-1.91-.32,5.32,5.32,0,0,1-1.56-.89,4.25,4.25,0,0,1-1.05-1.34,3.47,3.47,0,0,1-.39-1.63,3.41,3.41,0,0,1,.39-1.6,4.48,4.48,0,0,1,1.05-1.34,5.84,5.84,0,0,1,1.56-.9,5.19,5.19,0,0,1,1.91-.34,5,5,0,0,1,1.87.34,5.69,5.69,0,0,1,1.56.9,4.55,4.55,0,0,1,1.07,1.34,3.3,3.3,0,0,1,.4,1.6A3.36,3.36,0,0,1,274.55,42.14Z"/><path class="cls-1" d="M279,17.11a1.24,1.24,0,0,0-.9-.24H275.5v5.82h-1.76V17.86a1,1,0,0,0-.23-.75,1.3,1.3,0,0,0-.93-.24h-2.53V32.8h3.69V25.31h1.76V32.8h3.68V17.86A1,1,0,0,0,279,17.11Z"/><path class="cls-1" d="M263.87,32.7a7.37,7.37,0,0,0,2.33-1.44,6.44,6.44,0,0,0,1.57-2.11,6.1,6.1,0,0,0,.58-2.6,6,6,0,0,0-.58-2.58,7,7,0,0,0-1.57-2.13l-.32-.26h2.86V19.13h-5.55V17.2c0-.69-.38-1.05-1.13-1.05H259v3h-5.55v2.45h2.82l-.32.26A6.93,6.93,0,0,0,254.35,24a6.11,6.11,0,0,0-.56,2.58,6.23,6.23,0,0,0,.56,2.6,6.41,6.41,0,0,0,1.56,2.11,7.44,7.44,0,0,0,2.32,1.44,7.7,7.7,0,0,0,2.84.52A7.49,7.49,0,0,0,263.87,32.7Zm-5.12-3.14a5,5,0,0,1,0-5.93,2.76,2.76,0,0,1,4.65,0,5,5,0,0,1,0,5.93,2.8,2.8,0,0,1-4.65,0Z"/><path class="cls-2" d="M46.63,60.65a3.54,3.54,0,0,1-3.07-1.41L24.76,36.81a3.51,3.51,0,0,1,.66-5.1L47,13.84c1-.81.06-2.28-1.21-1.64l-28,15.54a3.78,3.78,0,0,0-2.39,3.64L13.68,59a1.71,1.71,0,0,1-2,1.68H5c-4.16,0-5.39-2.53-5-5.71L6.59,4.91C7.34.57,10.58,0,12.13,0h4.23c.55,0,1.07.28,1,1,0,0-.6,9.52-.82,12.92,0,.6.24,1.06,1.15.83L46.52,6c5-1.52,7.1-.59,8.29,1.2,1.32,2,2,4.36-2.09,9L40.56,29.65c-.22.19-.16.57.29.48l18.48-3.95c.74-.17,1.47.17,1.47,1v13.6a1.1,1.1,0,0,1-1.44,1L40.72,38a.28.28,0,0,0-.2.48L59,55.48a2.89,2.89,0,0,1-1.74,5.17Z"/></g></g></svg>