<svg xmlns="http://www.w3.org/2000/svg" viewBox="0 0 129.69 28.85"><defs><style>.cls-1{fill:#003368;}</style></defs><g id="레이어_2" data-name="레이어 2"><g id="Layer_1" data-name="Layer 1"><path class="cls-1" d="M57.42,17.67H48.87v1.94l.26,0v0a1.34,1.34,0,0,1,1.2-.83h1.91v10h1.87s0-9.87,0-10h2a1.1,1.1,0,0,1,1.14.69v0h.27l0-1.77Z"/><path class="cls-1" d="M2,17l0,0,0,0A7,7,0,0,0,0,21.84a6.73,6.73,0,0,0,2.26,5.1,7.92,7.92,0,0,0,5.25,1.91,10,10,0,0,0,5.06-1.36l.07,0,.24-2.8-.37-.05,0,.12a4.66,4.66,0,0,1-4.59,3c-3.84,0-5.59-3.18-5.59-6.15S4,15.82,7.89,15.82a4.68,4.68,0,0,1,4.47,3l.06.15.36-.11-.23-2.93-.1,0a11.52,11.52,0,0,0-4.72-1.14A7.77,7.77,0,0,0,2,17"/><path class="cls-1" d="M14.72,17.67h-.05v.25h0a1.31,1.31,0,0,1,.33,1v9.76h1.83s0-4.93,0-5l.8,0c.72,0,1,.52,1.37,1.12l0,.08.23.39c.39.66.93,1.56,1.49,2.39a2.25,2.25,0,0,0,1.53,1.05A5.44,5.44,0,0,0,24,28.65l.4-.1.15,0L24,28.34a2.23,2.23,0,0,1-1-.78,25,25,0,0,1-1.5-2.25l-.71-1.13v0a3,3,0,0,0-1-1,2.86,2.86,0,0,0,2-2.68,2.48,2.48,0,0,0-.78-1.81,4.56,4.56,0,0,0-3.2-1Zm3.13,1a1.83,1.83,0,0,1,1.93,1.85,2,2,0,0,1-2.19,2.16h-.73v-4a7,7,0,0,1,1,0"/><path class="cls-1" d="M33.46,17.67h-.05l0,.27h0a1.06,1.06,0,0,1,.31.81v9.92H36.9a6.66,6.66,0,0,0,5-1.87,5.36,5.36,0,0,0,.44-7,6,6,0,0,0-5.1-2.13Zm2.17,1h1a11.35,11.35,0,0,1,1.39.09A3.91,3.91,0,0,1,41.42,23a5.31,5.31,0,0,1-.93,3.18A4.16,4.16,0,0,1,37,27.65c-.38,0-.84,0-1.35,0Z"/><path class="cls-1" d="M47.19,17.67H45v.26l0,0c.19.09.32.45.32.91v9.82h1.84v-11Z"/><path class="cls-1" d="M84.18,17.67H82l0,.25h0c.2.09.33.47.33.93v9.82h1.83v-11Z"/><path class="cls-1" d="M31.09,17.67H24.93l0,.26h0a1.18,1.18,0,0,1,.34,1v9.76h6.14l.45-1.95-.25-.09-.07.11c-.51.8-1,.9-2.81.9a12.41,12.41,0,0,1-1.64-.08V23.08h3.11v-1H27.15V18.66l2.52,0a1.45,1.45,0,0,1,1.25.87v0h.25l-.05-1.93Z"/><path class="cls-1" d="M109.78,17.67h-6.13V18h0a1.13,1.13,0,0,1,.34,1v9.76h6.15l.45-1.95-.28-.09-.07.11c-.51.8-1,.9-2.78.9a12.32,12.32,0,0,1-1.64-.08V23.08H109v-1h-3.11V18.66l2.52,0a1.2,1.2,0,0,1,1.22.88v0l.28,0-.05-1.92Z"/><path class="cls-1" d="M62.77,15.61a3.3,3.3,0,0,0-1.44,2.76v0c0,1.77,1.13,2.69,2.94,3.61h0s.21.12.7.37c1.52.76,2.61,1.31,2.61,2.85a2.73,2.73,0,0,1-.76,1.86,2.52,2.52,0,0,1-1.87.68,3.64,3.64,0,0,1-3.38-2.92l0-.15-.39.06.11,2.88.09.05a7.24,7.24,0,0,0,3.74,1.16,4.86,4.86,0,0,0,3.4-1.36,3.89,3.89,0,0,0,1.17-2.79c0-2.33-1.67-3.21-3.44-4.14l-.34-.18c-1.81-.91-2.67-1.46-2.65-2.61a2,2,0,0,1,2.13-2,3.1,3.1,0,0,1,3,2.21l0,.15.38-.05L68.6,15.6l-.07,0a5.54,5.54,0,0,0-2.91-.8,4.8,4.8,0,0,0-2.85.86"/><path class="cls-1" d="M87.15,20.45h0c0,1.53.9,2.3,2.38,3.05l.56.29c1.17.58,1.94,1,1.94,2.07a2,2,0,0,1-.55,1.36,1.92,1.92,0,0,1-1.45.51,2.69,2.69,0,0,1-2.62-2.19l0-.14-.37.05.09,2.33.08,0a5.73,5.73,0,0,0,3,.92,3.86,3.86,0,0,0,2.7-1.08,3.07,3.07,0,0,0,.93-2.22c0-1.93-1.33-2.63-2.74-3.37l-.25-.13c-1.52-.76-2-1.1-2-2a1.52,1.52,0,0,1,1.66-1.46,2.27,2.27,0,0,1,2.26,1.64l0,.16.37-.05-.1-2-.08-.05a4.52,4.52,0,0,0-2.3-.64,3.13,3.13,0,0,0-3.42,2.89"/><path class="cls-1" d="M95.39,20.45c0,1.53.9,2.3,2.38,3.05l.56.29c1.17.58,1.94,1,1.94,2.07a2,2,0,0,1-.55,1.36,1.92,1.92,0,0,1-1.45.51,2.7,2.7,0,0,1-2.62-2.19l0-.14-.38.05.09,2.33.09,0a5.69,5.69,0,0,0,3,.92,3.83,3.83,0,0,0,2.7-1.08,3.08,3.08,0,0,0,.94-2.22c0-1.93-1.34-2.63-2.75-3.37L99,21.94c-1.51-.76-2-1.1-2-2a1.54,1.54,0,0,1,.45-1,1.66,1.66,0,0,1,1.22-.44,2.27,2.27,0,0,1,2.25,1.64l0,.16.37-.05-.11-2-.07-.05a4.55,4.55,0,0,0-2.31-.64,3.14,3.14,0,0,0-3.42,2.89"/><path class="cls-1" d="M79.61,17.66H78.17l0,.25h0c.07,0,.31.21.31.9v6.26A2.35,2.35,0,0,1,76,27.75c-2,0-2.41-1.2-2.41-3V17.67H71.27l0,.24h0a1.07,1.07,0,0,1,.39,1v5.86c0,3.65,2.4,4.07,4.2,4.07a3.47,3.47,0,0,0,3.75-3.7V17.66Z"/><path class="cls-1" d="M125.58,14.52a23.31,23.31,0,0,1,4.11,1.8A56.93,56.93,0,0,0,113.62,0a18.4,18.4,0,0,1,4.87,8.81,74.86,74.86,0,0,1,7.09,5.71"/><path class="cls-1" d="M125.57,14.52a18.13,18.13,0,0,0-7.53-.83,8.49,8.49,0,0,0,.45-4.87A80.12,80.12,0,0,0,103.63.4c3.66,2.48,7.69,9.61,9.38,17.26a26.46,26.46,0,0,1,16.29.61,52.64,52.64,0,0,0-3.73-3.75"/></g></g></svg>