<svg xmlns="http://www.w3.org/2000/svg" viewBox="0 0 97.21 20.76"><defs><style>.cls-1{fill:#e75824;}.cls-2{fill:#75b42b;}.cls-3{fill:#757776;}.cls-4{fill:#1d95d4;}.cls-5{fill:#f5b806;}</style></defs><g id="레이어_2" data-name="레이어 2"><g id="Layer_1" data-name="Layer 1"><path class="cls-1" d="M0,0H9.88c0,3.29,0,6.58,0,9.88H0V0Z"/><path class="cls-2" d="M10.88,0h9.88V9.88H10.88V0Z"/><path class="cls-3" d="M89.06,3.76a3.85,3.85,0,0,1,3.11-.36c0,.61,0,1.22,0,1.83a2,2,0,0,0-1.57-.15,1.25,1.25,0,0,0-.71,1,12.22,12.22,0,0,0,0,1.6H93c0-.68,0-1.35,0-2,.71-.2,1.41-.43,2.11-.64,0,.89,0,1.78,0,2.68h2.11V9.41c-.7,0-1.41,0-2.12,0v3a15.15,15.15,0,0,0,0,1.65,1.1,1.1,0,0,0,.46.86,1.58,1.58,0,0,0,1.62-.16v1.76a4.18,4.18,0,0,1-1.95.29A2.33,2.33,0,0,1,93.58,16,3.2,3.2,0,0,1,93,14V9.4H89.85c0,2.4,0,4.81,0,7.21H87.71V9.41H86.22q0-.86,0-1.71H87.7a9.1,9.1,0,0,1,.15-2.27,2.92,2.92,0,0,1,1.21-1.65Z"/><path class="cls-3" d="M43.33,3.89a1.29,1.29,0,0,1,1.18.42,1.23,1.23,0,0,1,.15,1.38,1.33,1.33,0,0,1-1.43.6,1.22,1.22,0,0,1-1-1.19,1.24,1.24,0,0,1,1.09-1.21Z"/><path class="cls-3" d="M27,4.15h3.1L33,11.51c.25.62.48,1.24.74,1.85,1.24-3.07,2.51-6.13,3.74-9.2,1,0,2,0,3,0V16.61H38.28c0-3.06,0-6.12,0-9.19,0-.14,0-.27,0-.41a1.28,1.28,0,0,0-.11.2c-1.23,3.13-2.49,6.26-3.72,9.4-.51,0-1,0-1.53,0-1.28-3.14-2.53-6.28-3.8-9.42L29,7c0,1.34,0,2.69,0,4v5.58H27V4.15Z"/><path class="cls-3" d="M49.2,7.67a5.92,5.92,0,0,1,3.18,0,2.49,2.49,0,0,1,.61.26c0,.68,0,1.36,0,2a3.38,3.38,0,0,0-2.44-.75,2.49,2.49,0,0,0-1.77,1,3.44,3.44,0,0,0-.57,2.48,2.52,2.52,0,0,0,2.86,2.37A4.08,4.08,0,0,0,53,14.27V16.2a5.18,5.18,0,0,1-2.92.61,4.35,4.35,0,0,1-2.78-1.16,4.47,4.47,0,0,1-1.29-3,5.43,5.43,0,0,1,.84-3.31A4.38,4.38,0,0,1,49.2,7.67Z"/><path class="cls-3" d="M72.53,7.54a5.63,5.63,0,0,1,3,.3v2a3.73,3.73,0,0,0-2.24-.66,1.13,1.13,0,0,0-1,.56.9.9,0,0,0,.31,1.09c.6.41,1.33.58,1.95.94a2.78,2.78,0,0,1,1.23,1.17,2.59,2.59,0,0,1-.56,3,4.07,4.07,0,0,1-3,.9,6,6,0,0,1-2.17-.5c0-.68,0-1.37,0-2.06a4.67,4.67,0,0,0,1.94.84A2.46,2.46,0,0,0,73.43,15a.85.85,0,0,0,.26-1.21,2.64,2.64,0,0,0-.93-.61,9,9,0,0,1-1.85-1,2.22,2.22,0,0,1-.8-1.21,2.74,2.74,0,0,1,.3-2.13,3.18,3.18,0,0,1,2.12-1.3Z"/><path class="cls-3" d="M57.76,7.82a2.37,2.37,0,0,1,2-.17V9.79a2.21,2.21,0,0,0-1.44-.34A1.77,1.77,0,0,0,57,10.52a3.89,3.89,0,0,0-.3,1.82v4.27H54.55c0-3,0-5.95,0-8.92h2.11V9.22a2.74,2.74,0,0,1,1.1-1.4Z"/><path class="cls-3" d="M42.44,7.68c.71,0,1.41,0,2.12,0,0,3,0,5.94,0,8.92H42.44V7.68Z"/><path class="cls-3" d="M68.6,9.76a3.76,3.76,0,0,0-1.87-1.88,5.7,5.7,0,0,0-3.06-.36A4.22,4.22,0,0,0,60.87,9a4.74,4.74,0,0,0-1,2.73,5.19,5.19,0,0,0,.78,3.33,4.07,4.07,0,0,0,2.47,1.61,6.19,6.19,0,0,0,2.5,0,4.14,4.14,0,0,0,2.45-1.51,4.71,4.71,0,0,0,.94-2.6A5.91,5.91,0,0,0,68.6,9.76Zm-2.07,4.1a1.91,1.91,0,0,1-1,1,2.91,2.91,0,0,1-1.75.08,2.1,2.1,0,0,1-1.33-1.11,4.06,4.06,0,0,1-.33-2.23,2.83,2.83,0,0,1,.83-1.86,2.18,2.18,0,0,1,1.4-.56,2.31,2.31,0,0,1,1.79.61,3,3,0,0,1,.74,1.86A4.75,4.75,0,0,1,66.53,13.86Z"/><path class="cls-3" d="M85.7,10A3.8,3.8,0,0,0,83.87,8a5.4,5.4,0,0,0-3.17-.43,4.17,4.17,0,0,0-3.77,3.75,6,6,0,0,0,.33,3.1,4,4,0,0,0,2.17,2.11,5.82,5.82,0,0,0,3,.25,4.16,4.16,0,0,0,2.63-1.54,4.86,4.86,0,0,0,1-3A5.73,5.73,0,0,0,85.7,10Zm-1.92,3a2.85,2.85,0,0,1-.56,1.31A2,2,0,0,1,82,15a2.75,2.75,0,0,1-1.53-.17,2.13,2.13,0,0,1-1.13-1.17,4.31,4.31,0,0,1-.25-1.95A3.13,3.13,0,0,1,79.72,10a2.14,2.14,0,0,1,1.55-.74,2.31,2.31,0,0,1,1.72.5,2.53,2.53,0,0,1,.77,1.42A5.57,5.57,0,0,1,83.78,13.05Z"/><path class="cls-4" d="M0,10.88H9.88v9.88H0V10.88Z"/><path class="cls-5" d="M10.88,10.88h9.88v9.88H10.88V10.88Z"/></g></g></svg>