<svg xmlns="http://www.w3.org/2000/svg" viewBox="0 0 65.76 21.2"><defs><style>.cls-1{fill:#fff;}.cls-2{fill:#e60017;}</style></defs><g id="레이어_2" data-name="레이어 2"><g id="Layer_1" data-name="Layer 1"><path d="M62.17,9.69a1.78,1.78,0,0,0,3.56,0V4.77a1.78,1.78,0,0,0-3.56,0v2.9a1.35,1.35,0,0,1-1.28,1c-1.06,0-3.93-1.44-5-4.19A1.71,1.71,0,0,0,54.2,3.21a1.75,1.75,0,0,0-1.7,1.26c-1,3.28-3.34,4.29-4.08,4.34a1,1,0,0,0-1,.93c0,.51.38.84,1,.84a8.91,8.91,0,0,0,5.78-2.87C56.29,9.72,60.52,11.56,62.17,9.69Z"/><path d="M28.72,8A.92.92,0,0,1,27.79,7V4.53a1.78,1.78,0,0,1,1.78-1.78,1.75,1.75,0,0,1,1.76,1.78V6.12h10.2a4.08,4.08,0,0,0,1.86-.37,1,1,0,0,1,1.29.43,1,1,0,0,1-.45,1.24,5.52,5.52,0,0,1-2.7.53H37.64v1H44.7a.94.94,0,0,1,0,1.87H27.49a.94.94,0,0,1,0-1.87h6.67V8Z"/><path d="M27.42,14.79c0-2,3.85-3.65,8.6-3.65s8.6,1.64,8.6,3.65-3.85,3.66-8.6,3.66S27.42,16.81,27.42,14.79ZM36,16.7c2.77,0,5-.86,5-1.91s-2.24-1.9-5-1.9-5,.85-5,1.9S33.25,16.7,36,16.7Z"/><path d="M49.17,12.5a.94.94,0,0,1,.94-.93H64.83a.93.93,0,0,1,.93.93v4.13a.93.93,0,0,1-.93.93H50.11a.94.94,0,0,1-.94-.93Zm3.53.89v2.32h9.47V13.39Z"/><ellipse class="cls-1" cx="12.43" cy="10.6" rx="12.43" ry="10.6"/><path class="cls-2" d="M.89,10.6C.89,5.16,6.06.76,12.43.76S24,5.16,24,10.6s-5.17,9.84-11.54,9.84S.89,16,.89,10.6Zm11.54,1.67c2,0,3.66-2.37,3.66-5.28s-1.64-5.27-3.66-5.27S8.76,4.08,8.76,7,10.41,12.27,12.43,12.27Z"/></g></g></svg>