<svg xmlns="http://www.w3.org/2000/svg" viewBox="0 0 144.37 54.09"><defs><style>.cls-1{fill:#fff;}.cls-2{fill:#00a0e8;}.cls-3{fill:#b4b5b5;}.cls-4{fill:#1d2087;}.cls-5{fill:#717171;}</style></defs><g id="레이어_2" data-name="레이어 2"><g id="Layer_1" data-name="Layer 1"><path class="cls-1" d="M37.18,35.2A25.12,25.12,0,0,0,36.83,31c0-.16-.07-.31-.11-.47A8.15,8.15,0,0,0,26,25.05c-1.51.57-3.08,1.49-4.68,2.25-1.45,10.3-.27,22.12.88,26.79H34.42C36.7,45.32,37.3,39.29,37.18,35.2Z"/><path class="cls-2" d="M50.15,4.35h-1A8.49,8.49,0,0,1,41.76,17c-4,0-7.06-3.11-10.89-3.66l-.27,0-.27,0h-.52a6.15,6.15,0,0,0-5,2.68,19,19,0,0,0-2.6,6.5c-.2.83-.37,1.66-.52,2.47s-.28,1.6-.39,2.41c1.6-.76,3.17-1.68,4.68-2.25a8.15,8.15,0,0,1,10.77,5.52c0,.16.08.31.11.47a25.12,25.12,0,0,1,.35,4.16c.12,4.09-.48,10.12-2.76,18.89H50.15a3.94,3.94,0,0,0,3.94-3.93V8.28A3.94,3.94,0,0,0,50.15,4.35Z"/><path class="cls-3" d="M21.27,27.3l-.73.33a11.25,11.25,0,0,1-6.88.54,12,12,0,0,1-2.75-1.09,12.13,12.13,0,0,1-6.3-10.54v-.09a12.11,12.11,0,0,1,10.91-12,22.46,22.46,0,0,1,2.32-.06H49.16a8.5,8.5,0,0,0-2.11-2.47A8,8,0,0,0,44.87.6a12.57,12.57,0,0,0-5-.6H3.93A3.93,3.93,0,0,0,0,3.94V50.16a3.93,3.93,0,0,0,3.93,3.93H22.15C21,49.42,19.82,37.6,21.27,27.3Z"/><path class="cls-4" d="M49.16,4.34H17.84a22.46,22.46,0,0,0-2.32.06,12.11,12.11,0,0,0-10.91,12v.09a12.13,12.13,0,0,0,6.3,10.54,12,12,0,0,0,2.75,1.09,11.25,11.25,0,0,0,6.88-.54l.73-.33c.11-.81.24-1.62.39-2.41s.32-1.64.52-2.47a19,19,0,0,1,2.6-6.5,6.15,6.15,0,0,1,5-2.68h.52l.27,0,.27,0C34.7,13.86,37.74,17,41.76,17a8.49,8.49,0,0,0,7.4-12.63Z"/><path class="cls-5" d="M83.73,42.65a27.27,27.27,0,0,1-3,.17,8.6,8.6,0,0,1-2.62-.39A5.31,5.31,0,0,1,76,41.18,6.12,6.12,0,0,1,74.56,39,9.06,9.06,0,0,1,74,35.69V22.36H70.33v-5h3.8l1.69-7.17h4.67V17.4h5.63v5H80.49V33.67a6.8,6.8,0,0,0,.53,3,2.26,2.26,0,0,0,2.26,1.06h2.93v4.43A13.32,13.32,0,0,1,83.73,42.65Z"/><path class="cls-5" d="M104.82,40.6q-2.67,2.26-7.49,2.27a25,25,0,0,1-3.65-.27,31.21,31.21,0,0,1-3.61-.74L91,36.61a20.17,20.17,0,0,0,2.89.84,15.17,15.17,0,0,0,3.27.36,4.62,4.62,0,0,0,2.65-.65,2.19,2.19,0,0,0,1-1.95,2.07,2.07,0,0,0-.33-1.2,3.41,3.41,0,0,0-.89-.84,6.63,6.63,0,0,0-1.28-.63L96.71,32c-.77-.23-1.56-.5-2.36-.82a8.28,8.28,0,0,1-2.17-1.28,6.14,6.14,0,0,1-1.58-2A7.09,7.09,0,0,1,90,24.67a7.21,7.21,0,0,1,2.55-5.78q2.55-2.16,7.22-2.16a21.26,21.26,0,0,1,3.18.26c1.12.18,2.18.4,3.18.65l-.77,5.06a14.93,14.93,0,0,0-5.3-1,4,4,0,0,0-2.65.69A2.19,2.19,0,0,0,96.61,24,2,2,0,0,0,97,25.2a2.94,2.94,0,0,0,.89.82,7.52,7.52,0,0,0,1.3.6l1.56.55c.77.26,1.56.55,2.36.87a8.23,8.23,0,0,1,2.19,1.28,6,6,0,0,1,1.62,2.07,7.33,7.33,0,0,1,.62,3.2A7.47,7.47,0,0,1,104.82,40.6Z"/><path class="cls-5" d="M114.47,42.19V22.36h-3.7v-5h10.15V42.19Zm6-30a4,4,0,0,1-5.54,0,3.76,3.76,0,0,1-1.13-2.77,3.86,3.86,0,0,1,3.9-3.9,3.86,3.86,0,0,1,3.9,3.9A3.8,3.8,0,0,1,120.47,12.18Z"/><path class="cls-5" d="M141.69,40.6q-2.67,2.26-7.48,2.27a25,25,0,0,1-3.66-.27,31.64,31.64,0,0,1-3.61-.74l.91-5.25a20.56,20.56,0,0,0,2.89.84,15.26,15.26,0,0,0,3.28.36,4.6,4.6,0,0,0,2.64-.65,2.18,2.18,0,0,0,1-1.95,2.07,2.07,0,0,0-.34-1.2,3.26,3.26,0,0,0-.89-.84,6.36,6.36,0,0,0-1.28-.63L133.58,32c-.77-.23-1.55-.5-2.36-.82a8.06,8.06,0,0,1-2.16-1.28,6.29,6.29,0,0,1-1.59-2,7.09,7.09,0,0,1-.63-3.18,7.21,7.21,0,0,1,2.55-5.78c1.71-1.44,4.11-2.16,7.23-2.16a21.24,21.24,0,0,1,3.17.26c1.13.18,2.19.4,3.18.65l-.77,5.06a14.88,14.88,0,0,0-5.29-1,4,4,0,0,0-2.65.69,2.16,2.16,0,0,0-.77,1.66,2,2,0,0,0,.33,1.16,3.19,3.19,0,0,0,.89.82,7.64,7.64,0,0,0,1.31.6l1.56.55c.77.26,1.55.55,2.36.87a8.56,8.56,0,0,1,2.19,1.28,6.13,6.13,0,0,1,1.61,2.07,7.18,7.18,0,0,1,.63,3.2A7.45,7.45,0,0,1,141.69,40.6Z"/></g></g></svg>