<svg xmlns="http://www.w3.org/2000/svg" viewBox="0 0 94.29 19"><g id="레이어_2" data-name="레이어 2"><g id="Layer_1" data-name="Layer 1"><path d="M2.48,2.46H4.53c1.87,0,2.7.59,2.7,1.79C7.23,5.29,6.4,6,4.75,6H2.48ZM0,14.28H5c2.64,0,5.28-.95,5.28-4a3.31,3.31,0,0,0-3-3.37v0a3.11,3.11,0,0,0,2.42-3C9.71,1.29,7.54.33,5.44.33H0ZM2.48,8.13H4.87c2,0,3,.51,3,2,0,1.83-1.77,2.05-3.05,2.05H2.48Z"/><rect x="11.86" width="2.49" height="14.28"/><path d="M18.23,9.55a2.78,2.78,0,1,1,5.56,0,2.78,2.78,0,1,1-5.56,0m-2.36,0a4.9,4.9,0,0,0,5.14,5,4.9,4.9,0,0,0,5.14-5,4.9,4.9,0,0,0-5.14-5,4.9,4.9,0,0,0-5.14,5"/><path d="M29.58,9.55a2.78,2.78,0,1,1,5.56,0,2.78,2.78,0,1,1-5.56,0m-2.36,0a4.9,4.9,0,0,0,5.14,5,4.91,4.91,0,0,0,5.15-5,4.91,4.91,0,0,0-5.15-5,4.9,4.9,0,0,0-5.14,5"/><path d="M39,4.82h2.24V6.3h0a3,3,0,0,1,2.9-1.72,2.88,2.88,0,0,1,2.95,1.76,3.3,3.3,0,0,1,3.11-1.76c2.52,0,3.41,1.8,3.41,4.06v5.64H51.24V8.92c0-1.18-.35-2.21-1.76-2.21s-2,1.22-2,2.44v5.13H45.09V8.64c0-1.16-.47-1.93-1.61-1.93a2.12,2.12,0,0,0-2.17,2.4v5.17H39Z"/><path d="M63.36,9.55a2.78,2.78,0,1,1-5.56,0,2.78,2.78,0,1,1,5.56,0m-7.84,4.73h2.25V12.86h0a3.66,3.66,0,0,0,3.26,1.65c2.91,0,4.66-2.17,4.66-5s-1.87-5-4.57-5A3.89,3.89,0,0,0,57.94,6h-.06V0H55.52V14.28Z"/><path d="M69.16,8.6A2.34,2.34,0,0,1,71.6,6.36,2.17,2.17,0,0,1,74,8.6Zm7.21,1.78V9.73c0-3.29-1.79-5.15-4.43-5.15a4.9,4.9,0,0,0-5.15,5,5.15,5.15,0,0,0,9.14,3.07l-1.69-1.28a3.1,3.1,0,0,1-2.54,1.28,2.45,2.45,0,0,1-2.54-2.24Z"/><path d="M77.91,4.82h2.36v1.5h0A3,3,0,0,1,84,4.72V7a4.73,4.73,0,0,0-1.15-.18,2.38,2.38,0,0,0-2.54,2.39v5.06H77.91V4.82Z"/><path d="M89.24,6.71A2.63,2.63,0,0,1,92,9.49a2.66,2.66,0,0,1-2.81,2.78,2.73,2.73,0,0,1-2.78-2.74,2.67,2.67,0,0,1,2.79-2.82M92,4.82V6.24h0a3.65,3.65,0,0,0-3.25-1.66c-2.91,0-4.67,2.17-4.67,5a4.63,4.63,0,0,0,4.71,4.84A3.89,3.89,0,0,0,91.89,13h0v.69c0,1.87-.7,3.17-3,3.17a4.55,4.55,0,0,1-3.25-1.37l-1.42,1.94A6.73,6.73,0,0,0,89,19c3.68,0,5.34-2.16,5.34-5.57V4.82Z"/></g></g></svg>