<svg xmlns="http://www.w3.org/2000/svg" viewBox="0 0 317.39 67.28"><defs><style>.cls-1{fill:#2e0f6e;}.cls-2{fill:#e6007e;}</style></defs><g id="레이어_2" data-name="레이어 2"><g id="Layer_1" data-name="Layer 1"><polygon class="cls-1" points="140.97 32.46 140.97 19.34 128.9 19.34 128.9 32.46 123.52 32.46 123.52 2.32 128.9 2.32 128.9 15.58 140.97 15.58 140.97 2.32 146.39 2.32 146.39 32.46 140.97 32.46"/><path class="cls-1" d="M161.67,12c-1.94,0-4.25.83-4.7,6.21h8.63c.09-4.45-1.44-6.21-3.93-6.21m-.36,20.91c-5.42,0-9.81-2.55-9.81-11.78s5.34-12.38,10.58-12.38,8.86,2.69,8.86,10.3a23,23,0,0,1-.14,2.36h-14c.31,6.44,2.57,7.74,5.37,7.74a30.66,30.66,0,0,0,8.19-1.76l.81,3.34c-3.8,1.25-6.69,2.18-9.9,2.18"/><path class="cls-1" d="M189.92,32.46l-.23-4.14h0c-2.66,3.07-5.38,4.6-7.87,4.6-3.52,0-6.14-1.44-6.14-7.47V9.23h5.2V24.52c0,3.53.72,4.55,2.39,4.55,1.27,0,2.58-1.06,4-2.5a17.31,17.31,0,0,0,2.08-2.65V9.23h5.2V32.46Z"/><path class="cls-1" d="M213.56,32.46V17.25c0-2.46,0-4.63-2.22-4.63-1.26,0-2.44.69-4.1,2.17a19.06,19.06,0,0,0-2.13,2.74V32.46h-5.2V9.23h4.66l.18,4.31h0c2.4-3.16,5.25-4.78,8.05-4.78,4.88,0,5.92,2.83,5.92,7.93V32.46Z"/><path class="cls-1" d="M237.66,12.84a33.25,33.25,0,0,0-4.43-.55c-2.63,0-4.84,1.2-4.84,8.66,0,7.15,1.71,8.4,3.52,8.4,1.36,0,3-1.07,5.75-4Zm-4.25,29.3a32.38,32.38,0,0,1-9.18-1.53l1.13-3.47a38.9,38.9,0,0,0,8.4,1.25c2.9,0,4.3-1.86,4.3-4.64a41.38,41.38,0,0,0-.32-4.54c-2.71,2.73-4.65,3.8-7.28,3.8-3.75,0-7.5-2.45-7.5-11.27,0-11.5,5.93-12.89,10.9-12.89a44.7,44.7,0,0,1,8.95,1.21V25.87c0,3,.49,4.36.49,7.47,0,4.59-2.62,8.8-9.89,8.8"/><path class="cls-1" d="M262.65,32.46c-3.21-4.92-5.56-7.33-8.77-12v12h-5.2V0h5.2V19.56c3.61-2.36,6.1-5.74,8.18-10.33h5.88c-2.76,5.56-5,8.66-8.41,11,3.21,4,6.06,6.54,9.94,12.25Z"/><path class="cls-1" d="M286.15,32.46l-.22-4.14h-.05c-2.66,3.07-5.38,4.6-7.86,4.6-3.53,0-6.15-1.44-6.15-7.47V9.23h5.2V24.52c0,3.53.72,4.55,2.39,4.55,1.27,0,2.58-1.06,4-2.5a18.64,18.64,0,0,0,2.08-2.65V9.23h5.19V32.46Z"/><path class="cls-1" d="M310.56,32.46c-3.21-4.92-5.56-7.33-8.77-12v12h-5.2V0h5.2V19.56c3.61-2.36,6.11-5.74,8.18-10.33h5.88c-2.76,5.56-5,8.66-8.41,11,3.21,4,6.06,6.54,9.95,12.25Z"/><polygon class="cls-1" points="126.33 49.72 126.33 54.31 131.9 54.31 131.9 56.59 126.33 56.59 126.33 62.57 123.52 62.57 123.52 47.45 132.08 47.45 132.08 49.72 126.33 49.72"/><path class="cls-1" d="M134.66,50.9h2.73V62.57h-2.73Zm1.39-1.76c-1.05,0-1.65-.53-1.65-1.53s.6-1.49,1.65-1.49,1.65.56,1.65,1.49-.58,1.53-1.65,1.53"/><path class="cls-1" d="M147.43,62.57V55c0-1,0-2-1.11-2a3.34,3.34,0,0,0-2.06,1,6.09,6.09,0,0,0-1.07,1v7.54h-2.73V50.81h2.46l.09,1.88h0a6,6,0,0,1,4.11-2.12c2.5,0,3,1.45,3,4.14v7.86Z"/><path class="cls-1" d="M159.27,57.49c-.45,0-.91-.07-1.16-.07-2.48,0-2.86.58-2.86,1.69s.4,1.42,1.19,1.42A4.46,4.46,0,0,0,159.27,59Zm.37,5.08-.14-1.43h0a5.19,5.19,0,0,1-3.66,1.67c-2,0-3.32-1-3.32-3.39,0-2.16.86-3.9,5.64-3.9.39,0,.79,0,1.14,0v-.73c0-1.29-.16-1.94-1.68-1.94a9.75,9.75,0,0,0-4.52,1.64l-.25-2.27a11.25,11.25,0,0,1,5.52-1.74c1.65,0,2.95.59,3.41,1.92a6.12,6.12,0,0,1,.23,2v8.07Z"/><path class="cls-1" d="M171.79,62.57V55c0-1,0-2-1.11-2a3.34,3.34,0,0,0-2.07,1,6.06,6.06,0,0,0-1.06,1v7.54h-2.74V50.81h2.46l.09,1.88h0a6,6,0,0,1,4.1-2.12c2.51,0,3,1.45,3,4.14v7.86Z"/><path class="cls-1" d="M181.79,62.81c-2.34,0-5-1.05-5-6.13,0-4.78,3.09-6.13,5.68-6.13a9,9,0,0,1,2.88.52L185,53.22a10.48,10.48,0,0,0-2.69-.42c-1.23,0-2.69.58-2.69,3.7s1.35,4,2.67,4a6.9,6.9,0,0,0,3-.93l.64,2a9,9,0,0,1-4.17,1.17"/><path class="cls-1" d="M192.73,52.67c-1,0-2.08.46-2.29,2.48h4.34c0-1.61-.7-2.48-2.05-2.48m-.11,10.11c-2.79,0-5.06-1.28-5.06-6,0-4.45,2.74-6.25,5.5-6.25s4.53,1.45,4.53,5.19a13.49,13.49,0,0,1-.08,1.45h-7.14c.18,2.79,1.32,3.22,2.71,3.22a14.69,14.69,0,0,0,4.22-.92l.42,2.11a13.26,13.26,0,0,1-5.1,1.16"/><path class="cls-1" d="M210.39,62.81c-3.18,0-6.41-2.05-6.41-7.61,0-6.52,4.41-7.94,7.24-7.94a14.32,14.32,0,0,1,4.81,1l-.59,2.23a14.68,14.68,0,0,0-4.45-.83c-2.07,0-4,1.21-4,5.26,0,3.81,1.67,5.45,3.94,5.45a7.16,7.16,0,0,0,2.44-.37V55h2.85v6.49a14.77,14.77,0,0,1-5.82,1.33"/><path class="cls-1" d="M225.72,53.48a4.54,4.54,0,0,0-1.21-.19c-1.16,0-2,.66-2.76,2.44v6.84H219V50.81h2.44l.12,2h0a3.46,3.46,0,0,1,3.29-2.2,4.54,4.54,0,0,1,1.42.25Z"/><path class="cls-1" d="M232.19,52.71c-1.53,0-2.69.93-2.69,3.95,0,3.29,1.42,4.08,2.78,4.08h.14c1.53,0,2.48-1.3,2.48-4,0-3-1.16-4-2.71-4m0,10.16c-2.41,0-5.56-1-5.56-6s3.24-6.34,5.75-6.34,5.36,1.1,5.36,6c0,4.57-2.88,6.33-5.55,6.33"/><path class="cls-1" d="M247.13,62.57,247,60.71h0a5.59,5.59,0,0,1-4,2.07c-1.82,0-3.16-.74-3.16-3.85V50.81h2.73v7.63c0,1.51.38,1.92,1.19,1.92a3.23,3.23,0,0,0,2-.94,8.1,8.1,0,0,0,1.06-1.14V50.81h2.74V62.57Z"/><path class="cls-1" d="M258.19,52.85a3.18,3.18,0,0,0-2,.88,7.22,7.22,0,0,0-1,1v5.74a5.16,5.16,0,0,0,1.16.17c2,0,3.51-1,3.51-4.22,0-2.88-.77-3.53-1.65-3.53m-1.74,9.88c-.42,0-.84,0-1.28,0v4.59h-2.73V50.81h2.43l.12,1.64h0a5.39,5.39,0,0,1,3.81-1.88c2,0,3.82,1.22,3.82,5.57,0,5.32-3.45,6.59-6.19,6.59"/><rect class="cls-2" x="39.39" y="10.11" width="44.69" height="44.69" transform="translate(-4.87 53.16) rotate(-45)"/><rect class="cls-2" y="2.31" width="24.11" height="24.11"/><rect class="cls-2" y="38.48" width="24.11" height="24.11"/></g></g></svg>